<mxfile host="Electron" modified="2024-05-29T08:01:54.951Z" agent="Mozilla/5.0 (Windows NT 10.0; Win64; x64) AppleWebKit/537.36 (KHTML, like Gecko) draw.io/23.1.5 Chrome/120.0.6099.109 Electron/28.1.0 Safari/537.36" etag="KOtozZyU2XvQOD1zvQyp" version="23.1.5" type="device">
  <diagram name="Page-1" id="02aj-hToIU3t_-q8vUV1">
    <mxGraphModel dx="1098" dy="658" grid="1" gridSize="10" guides="1" tooltips="1" connect="1" arrows="1" fold="1" page="1" pageScale="1" pageWidth="1169" pageHeight="1654" math="0" shadow="0">
      <root>
        <mxCell id="0" />
        <mxCell id="1" parent="0" />
        <mxCell id="hARdRPsc3tn4qZFT5b3F-1" value="" style="sketch=0;aspect=fixed;pointerEvents=1;shadow=0;dashed=0;html=1;strokeColor=none;labelPosition=center;verticalLabelPosition=bottom;verticalAlign=top;align=center;fillColor=#00188D;shape=mxgraph.azure.computer" vertex="1" parent="1">
          <mxGeometry x="720" y="290" width="88.89" height="80" as="geometry" />
        </mxCell>
        <mxCell id="hARdRPsc3tn4qZFT5b3F-5" style="edgeStyle=orthogonalEdgeStyle;rounded=0;orthogonalLoop=1;jettySize=auto;html=1;strokeWidth=4;" edge="1" parent="1" source="hARdRPsc3tn4qZFT5b3F-2" target="hARdRPsc3tn4qZFT5b3F-3">
          <mxGeometry relative="1" as="geometry" />
        </mxCell>
        <mxCell id="hARdRPsc3tn4qZFT5b3F-2" value="" style="shape=image;imageAspect=0;aspect=fixed;verticalLabelPosition=bottom;verticalAlign=top;image=data:image/jpeg,/9j/4AAQSkZJRgABAQAAAQABAAD/2wCEAAkGBxQUExYUFBQXFhYYGSIcGhkZGSIhHBwfGRseHxshIRwjHioiHhwnHhseIzQjJystMDAwGyE2OzYvOiovMC8BCwsLDw4PHBERHDEnISgvLy8vMC80LzEvLy8vLy8vLy8vLzE0LzEvLy8vLy8vLy8vLy8vLy8vLy8vLy8vLy8vL//AABEIALcBEwMBIgACEQEDEQH/xAAbAAABBQEBAAAAAAAAAAAAAAAFAAMEBgcCAf/EAEkQAAICAAQDBQQGBgcHBAMBAAECAxEABBIhBTFBBhMiUWEycYGRBxQjQqGxM1JiwdHwFSRDU3KSoheCssLS4fFjc4PTFlSzNP/EABkBAAMBAQEAAAAAAAAAAAAAAAECAwAEBf/EAC4RAAICAQMDAwMDBAMAAAAAAAABAhEDEiExBEFRE2GRIjJxUmKhFIGxwULw8f/aAAwDAQACEQMRAD8A2DiOfEYG2pm2VRzP/bEQZmc8zGvppJ/GxhZsA5jfpGK+LG/yxOy0ClbO948rLkzZczx45UkLGOq3J7cbFQ4/2pzOWItUIPJgpr88Bsx9JMqEFggjbVpl0P3baCQxU+0QCKsDB7tpl17iUHkOX8/hjCeIRSBFLhwpQ93d0Re+m9q1XddcU6XJOaam906E9GpP6nXbc1Z/pNlAVmVFje9EpjfQwU0xX7xAO3LnjyX6TJV0llREcErIyNoYA0SOpF7csZPnEcRIW1aSh0XdUCQxXpWoMDXUHrj3OROI0ZtQUp4CbogMQdPpqse+/XHXT8h9L9z+TVp/pNlTSXRURhqWRo30sAasV4iLHlhS/SZMukuqRow1K7xvpYA1YrxEX6YyniMUgRC4YKyXHquit1a30sHl1vHvE4nCqXDAMoKXdFdVWt/d1A8uoONT8h9H9z+TVZfpKnXTrWONWGpXeN9LC6taJaieRrpjyX6TJ0rvFjjVl1I7o9OLoFaJNE9SBy3xlfFYHVVLhhqQFNV7rq2I9LB+IOPOKwuqgsGGpAU1Xuuo0Rf3bB5dbxkn5B6P7n8mqP8ASbMpHeCOMFQys8ThWBNKRRJo9CQMev8ASZOpHeLHEGUMjPG9MpNAjSSaPQkDljK+KxyADvNQ1KpXVfsXSkX93nVeuFxOF1A1hhqVSuq90J8JH7J35euMr8m9H9z+TVG+kuddPeCKIMoZGeN6ZWNAjSSaNdQMeN9Jc66e8EUWpQyF43plb2SNJY0a61jLOIwuunWGGoKV1dVPskX93nXxwuIwuujWGGoIy6r3RvZI/ZPTGp+Tej+5/Jqb/SZOunvBFFqUMmuN/EreyRpLbGutYUn0mTpXeiKLUqsuuN/EH3UjSW5jfesZZn4XUx69Q1aWXV1Qg6SP2a5Y84jlnQx6wRq0Ot9Ub2SPQjlgb+Tej+5/JqUv0m5hCBKscRKhlDxv4gwta0seY8654U/0mZiM1KsUTUCFeN7YMLFaWPTzrnjLc9lnQprBGoowvqrC1I9COWFn4nVo9eoFtLDV1VlJQj9krVelYKvyb0f3P5NSm+kvMIalEcTUCFaN7YMNQrSSNx5kcxhS/SZmEJEoijagQrRvqYFdQqiRuK5kcxjLc7lXjZA4Kk0w1eTLan3Vy9Kws7C6SIrhg2xpruilrz6Far0rB38h9FeX8mpT/SZmI7EoijagwRo31MCupa0kjcEcyOePc19JOYiLJKI45F37tkbUbUMK0kruCOZHPGV5qBkkVXBVgLIPMBlDL81IPuIx5nsu8cqpIpVgDYbmLUML/wB0g+4jGp+Qeiv1P5Nbk+kDNrqDpGjKVBQodVOupW9rTRHrfpi0cH4nnJUDuYowdwNBJ+I1bYyXsxkXWfup1KnVHs3OjZX4EEfPG48JhUqbANY4c2TJKaxwlTauwRw/U25Ol2sA8f41nMuhkXupFHOkIIHnWrl8cVn/AGkZn9WPc0PAbP8AqxoHFIFFitiDYxjeT4iMtmlmVVcRO9KTVggrsehA3wMWbIpShJ20Ty46mvqaT9yxj6SszuNKAg0QUNj/AFYt+TzPEHSyYFci9BU2AeWqjsefnyxlHFuLPms136oqlioVbseGgNTAb3W+3LbF2yXHfrRaeLUiM1UTuaVOfuuvhfXHTcmuaDhgpTcdTfjcJ/0lxf8A/WT5p/8AZifkJ+JOCZFii8gwsn18JIA+N+mB0M7eZw+HY34m/wAxw2p+TpXS0/ufyczcQ4sGIGXjYA+0pWj6i3Br3gY5j4nxcn//ACoPUlP3SYj5vOOvJ3/zH+OGoPrcg+xCykWWEkzRnpp0nu3B63ZGCnJ9xH09f8n8lv4NnswwqeHu2q9SkFT6VZIPzHrgoZR/IOMxz2YzUW82UzarfOJkmXf/AAyBv9OOeG9pVaZI1llV2b2JElQnfpqUA9euH1SQ6jS5NSwsM5U2inxbqPywsUsBV+0edMWYVh+oAR5izh6LtBFXtlfTf92JWd4aks7F78CpVepbnex5YpGfyKDOywqWWOOIMSxH7JNE+hr0Pnyx5ubpdU3JOn7HBKWfFJyi003wx7j/ABNcyjosioigm2ItyFY0Bd1Y5+uM7zPAdYYpPqVQdIaOUlFP62lCo+Bo+mCmbIBI9P5Huw9w7OKsUqsCdfKgDVAjmTa8+dHaxtzxXFCONUiMetk5/V/cr8vBgV0nMxEhaAqYjfnX2fpeOczwu1CfWELaaUFZiFF7/wBlsLN4tGcgEkcs4BUNLdd4/UH7nsNu1623Gw67wM5kZUWNwYtLow9k6wJtJLbgWRQ0kHamHPF0zofUtPnavAHzXBriB79DZKJSzECgpNVHsPGP5vHWe4I2gXMp2oWkxCj2jX2fL3czi49nJYo4gJKoM5IDKu5EVGmYCrV7q6/HEpOJoNJZlU96hvvkpV75mPJ7PgIHs/d0gAb4KKLM2rszrNZAGk7+MsRt+kIA676PTD+b4ZqWjOhrw0RIaG5oWnLnyxxlcuRIABsigem6/PdiTi8Q8IjllWJIbElFH1PrKkeJrvu7WzalRuKu8Z+xH+oyS+2ij5nhutd8whNAbiXYDeh4OX8cey8JD0q5iNm2FaZCeewFIfl64uea4UkUrwvAFWMEs+p9QAB0Etq7vUxqlCnnV3iHw/MZmQMEYyd2usodwQu1Aet1W17YW2aPUTT0y59kVvP8HoC8wl7Aakm5DcAfZ8qPyN48zPCVav6yhIrmsuwXkB4OXpti0ZrK5ualkS2U7eBQFsLH7Vb/AKICz1HTYAa/B5gBcbCxYsVtpLXv00gn4Yzk+wmXqskdor+AVPwhW0gZmMkEc0l5L0HgOFNwZGqsyhqjukvToPAfPBjL8KkLuNNGOMyMDtS0N/iCCPO8M/0e697sLi9seXiCfHxEfPAtiLq81XQMzPCkbTWZQ0R7SS8gKAHhO2PczwlCV/rKmjvqSW9hQA8J23922LAvZicFQYz4wCp6eLURv02Un/ziHJwuUOsbKVZn7sA7HVSGj5bSL88a2F9XmUba/gEz8LjOmsypo73HL8vZOOMzwxCykZhTXmkgPKq9nkMHYeBSs0iAKDEwRrbkWbSvvsjEVMke673bQGC897IJ5eVDG1MX+szeAZPw1SVPfqefNZOv+6dseZnhyswP1hTXUq97ivLoPXBfh+Q75iNQWq5+rKvLyGq/hiXmeAERq4kia9ypdVI8IbcsQL3qv441saPVZ5q4oGZGogSJdbEqRswI03zJ+GNI4J23i0jvCUYDc0aPyxX+zXD4x3qzJEzhowp1I1Xv4RdMDYBI/GsWLPQQ/wBHhlT+s92v3Dq1WNW1V59MRy4VOm9n7F8U828m1+CJ2j7boUKwkszCtZ5D3XuTgR2A4i0ckumjag730J8iD188HpMnB9VgKpJ3xdNXga92HeBhWkJV/wA3in9nuMRZbvZGQuSo0+EMBVk2pYelEHAhhWNVHl92Nrfqxc3sO8WUtmjOX3adQV8Ox2qh3heqH6vx85P0dy3lAf8A1G/JMV0cUaXMqQzCKSZWWMgDex0BNIDZC2R8cWHsE39UHL9I2/nsmLpUi+HS8mqJbcviYg5YHQNvifE2EPQBvEB4jidwviv1YWIZ5i42ESrQr9ZndVHxN88ROJCiTyvESfiMUOkTTRxBgdOtwt1zqyBsSPnh4kZIM57tLm3XwZNIxYNzZhehB9mJZPdzwIzBzM+Yy8uYlg+xclUhjevHSm3d75Acl/PHWVlEg+ydZBztGDDf/CT/ACMSIo6K3z1qP9YwzkxVFF/yP6NP8I/LCx1kf0af4R+WFipMhD9NJ/gT83xQOOSgZ+e2ZBQsqaJ+zTa6P44t3FOLJBM2u/Ei1XoW/jimLMs+fkcAlGS6I2BVAt7o1jby/LfnlvI4eqyRcVBNXZVZT462/kemOFYb9KPw/mv58u8yvj9ef4DE7s6kfffaKrpRsNRFmgOe12QNyBv5YFWeVGMnKvLIbZxhC0KqugnUTXi5ggXdadh0/PHOY4gzpHGQoVNhQpjQC225s0ByGC3ZwDv3sdK5FubqOiMa357fmMAO7AO381gu0NNTik752JcMTMQqgsxugBZPuAxHzPBJj9n3cvM19mx3GuwAF6V68sT+FTqkqOwJVTZqunv2wezvHYY2OpZAY3Z2pY+msqRdWRq67c/PDRrk68cIyjbdFXnyrKUDIyGQ0pdSNR2G1jfmLr0xcnLJ3UCRSNFKNMjMXVQEkKuV0kLHZUyEtd6gDsKxXeM5dmZQkDLoDqw0oBehJDWkLyQciSd+dEnBGLOd6Jo8xNKGkjjvL6gAXQoVkjkdtKqVGooQCbNatsMkrKY4KDfJPVXkE0EkUqxqVijYa2WpZQsTEsSHKlg2pKoWOWwo+VkaNmKuQ262pYbdR0sbc+vyxZ87xGOFYkimkLLEyrFYIRpu81M0iEoxomgt0QLI61Whdfz+WBJ0S6icY1vv5LDkc7MyNI00tWWoPR+zpzuVazcl0AORJIrDceRklaVDmN4iEQOfa1koRztaXmN+owJy2ZeO9Dst86NcuXTmL2PriI8y3VknmdiefuXC2RWSLSW7/uy0N2emdyWmiAYUTdDwKxUHwgBR3I9wo0awPzHD5EWQtOp1DU4DMddd2wulpjqmFX11HkLwI74cvHX+E/8AThtJADfj2NjwHY8r5DpsBywXXgLcK4fyyzZeOYPJG2bKtE6RimYqSzFTpsgjSurp1OGOFZCTMeNswUIk2Yi99JOq9YogIgvrQ32rETg+XTMLMWZrRbFV7RvZ9W+5HTfCyORDwySUbQ+e1ab/AFDZ/wB4dMC/YKm9k47b8t9h7OZWWJe9E5ZmkF9GPgWQNd7kFiPQgeeBkk7ldJZilg6b2sCga5XW3uwWh4JqEfdyeJkDMDWxJQUNLE7a+bVyw1xPhBiQSa1bUaoWD7Ia6Iuqb8/UYzTYs4SkrSpfkc4RlAipmmcUkoGgozb0SPZsnlyA8ztgd2k4vI0AqBAkmpL7u1FoqErY0h/D7Q6setV3FxWWNAiuVQHUKADA/wCIDV+OHO1WUzS5ZIu9JiDfowzaSCFfcULFsDXnuOhwUW6acFSSarkaymWXMRxSCaISOyR90qNa3SajtW1AmvXDnaJEEayRtp1HT3dSmtLFC3eMoG5Gqr61vzx52WSFVhjMLrKGszJIx2AJ2j7sgb10Pys4kcU73MA5eKKW4XY6nzDaD9oSPsmVQCdt6Fb4NHTCOJyba5/IMyeSDw6jLTawpXu5CNydwwQhvZ6E8/PEzKcISVTpm1qQBqVCALYoxOvTyIr8eQx3wyQxxxxyNNFqZXLpM5VVOo2IgQLpvPmpO9nE3geaijTT9ZaP2RvHYH2zMa5k7MX6bnrvgUgOGHVt/kBy8PSGTL6JdZLR3sAQC0ZG1kgNqPOth78WDsHHWVAH67f8KXitZ7NA5lZDIHH2BL7VsV1HYDawegxbuyGWeGApLoicNZWVipGpV8lbehgyOnp61bBZJMT8tJgJJmYlOk5rJq17hpyP+TEvLZlNv6zlTfKpT/04nR3qaZP4itiwLwZ7K0VfVWnbny/HbALMcSgUaHzOVXa6aWtjyO68vXEPMQZKYK0kuUmC3p1MHAvnsV0nl5YaOwk2nsEe1cHBCKnGTD6l9koJK1C/Y8fK8VyOPL/Wsr9RObaDWe97wTdz07uu9AF6r/DBvJiBCBDNlUHICKl/BVGJ2WyZLKxkRgGFtbGqN9Vq/eRijkIl7lzyI+zT/CPywsdwrpULfIVy8sLDilG7dN9sP8A/M4oTdoER20lwRakrt1368tsX3ttJGJ17xiq6RuBZ9o3Q86s/DGK8WzaxlnNkFyNvUk/uxzKGqbZ5cOlWTNKUvOxZHKuokRgQxqhYIIF0bA/C+uPcoZKPc69YUnwXqo8/Z3A9fOsDuFahlgTYuUsARRAIvf154sfDeHzwSCU3EFKiRwUJQMUN1vvTIeR58iAcFreiMsOnLS4E+bDGZ40cROoVSsehQbW7H61qw52dTG+eBFWfd/I/n0wezsqpl1jizDyKSCUZV8GpdXtBQfbYir8vI444rBHoywXSuuMlmoAE0tWVQGrB3OqrO+C12G6mOp7PZf7BY5fA4kZ7vjl26oyFFsKTuCAAfa6EelYm5bs9O66qVdmoMwBNGjQ9/LzrbCaCaJ445GK1IlR6rFarJFEgCz8STV0ayT7mx42nvaAz8NGsv9TQDxEAXtSUF3IOxUtv1YetScvknXVpjWNWWigQMpvSDzO3InV6+uKcgGkbb7b9K93/AHx4VxTk9H0vLNBz8GXKt3GXkjYhQNTDYBn2H2hHIgcvjgbw2OWKVJAoGlgSSVNeZq99umKumUJQvtQ6dTVWQPIah88M1hXFNkp9HGUlJvgt/E87NNEiBNwzDelpV0pG36RrYooJHQ3z2of9SdEY0R017G268j/O/PqArBrhY/q7D/11/wCBvLfywWhc3Txpy7j0oon0J5DehdX53tyrr5YZkkI/dQAv4F7O3Tnvj2Rxq8Q2r08qIu73B6DoMdFjQ29q6rrzobX5VfocKefQbTINAZtZs/VzKNOratUex8N+GRvDRHUcsCchPpy+a3LFNA5AHxvocXe/I9DXPa8TO0PEXkaIxqwEiHu2C7vb70odiKBomhZvw4i51O7gZZMvmQ5Uq0hFRM4Nqd0BIHvwTq2uktkv8hrJZm0iEmWzOY1Ze40Z0KhVYhmTS2oLRX2gD4eVYnZFoGdITlTBIvtqzA+20QUWUezZ6gbnnvik8IiZ2jiAB70lSpOkPTWFLdNyTZ6gYtEnCZ0QumWky/dLZbvw1Iq3p5gmgOQvZawJbMKm3G4rj2OMpwBZYIW71UZ9ROrTQCq5JrVqFlOZH3h8R6cKHdSSCaNmjkKBU3LeIKCPRi1jn7Jwc4Lk45Y8rFJ3rhibXU3dqKlKkAKKJKdH8/hXOIqFWVowylJaX2rAtqGq6B8I3Is/O9SboP8ATxlX0897/wBEjg+XZpU1koni1MyWoFEGwRRH3fS/OsS+IwlAzwyq8jIxY93KtFVjfwhStMGLVYIGjcXipcMz2YksPI68+bsLB3ba+p39cOy5qfmZZN7/ALQ9RRvfqNjgpUWxdJGHeyzRZx4+9EkCSEtQan0gKjABdZLAaTe5+6OmBExWSRnC6QzE6RyW965DbArMTzlCxler6uTuBW4vy2923LBnNsqO29Iv7LCth0YlvPnv88aSI9Thcad7AVG0RrJVlBG1HkdMn5Y1zP8AG8jmYhKZRH1ZGanUnmNN2d79nnjJChMOkCyVQAeZMmw+eNBb6PoY4k+s5gpM45CgoPlTC299r8MTm9iuCU19qsp/GuOhp5GjQaCRp1F7pVCgmnG503uL3xa8hxPKZnLwq7rFJFGEZTJoDaB7QsgGwL23GKFxnJGCV4iQSpqxyNiwR7wRt05Ys/BuyeWMSy5nMaDILVUZbAPIsSDz510wj4Dhll1PYidreNwvKq5eON0jTRqZbDG9yL3rluee55EYicDniLFpQkdUfCKJ5jayRdkfAk9NmO0fB/qsuhZFkUjUrLW4J5EWaYV+R60IWTi1uoJChiASeQB5n9+GjshZyy67ZdctOhzGXETq6hkDbAn9JVA1YXfbkeZ6jG2GBSKr+fXzxgHZyJI54T3gNyJ5bbxtvufMj/dON6/pCLpIhPQBhZ9wvfFsfcthcm3qJUa0APLHmFGTQsYWK7FzMvpNzfdZiJ9IatPhJIB3Y7kbjljIu1balDEAXLZButw3qW6+d41X6XP0sfuH/PjLO01iNOY+0G4YA+y3XCR5ZLGuX7lu4A6Mkit9WJCFgH7/AFA6DR2Hdg7fdw5l+Ie0MxKe51RFgrSFiqx+IKCaqwNV9QK2G3fZyR+6lGqeu6bYZuLQBoN/ZHxKPTA+HICVGAkRT4hpN6tj0AU8wdh10n0uadCZHUqrkLf01lxDJFG7ESaaB1WWKqGuqFagefpzAGBDaSF03sPFblrNkkgH2RRGw22vriFNkGiAdPFoc+L7jaKJI5NyYHetvLbE3hjM5QBC1kUpOxJ2AodLr1PnywXucnUKL2iWfJyL3URkRGYoyR94CQTragfJLKgH1I5WVHcTlZ87bHxCetx0VtKitugG3pgnDw3iIIIhcFW1KSqWD4eV8gNIochWInE4cwJ4WzKFXd7DGgWAIsbfq2K9DW4ArDJ2ls+e6M+ysRcqo5nliaeESea/jfXequtj64i5Pz0hthzJ2+RGJQN0GRfMFDpP5EEe8Xz9cZt9j0kSI8pIFUaRWl1O531Gr2Brmp8qF2OkZeFSH9X/AFcyCf1a6Hfl64aYb6gAFG+ncigOu29gbn/th6wL0oLHMuddDpQKgVt6nA3QRrMcPdOdfA+XX41fuwV4BAZI9AIGqdQLB5lCOQFn3DffAaea/uhT10k7/Akj5YI5E/1c8/0wret+7JG/T+NYbtuQz7QZbuH5aeFGH2Z2JNl1rUsYAbkvszDn7PiIq9o2Y4hrI72bKaGL94BIrKfGSwLEbNTbbjl0xD4DOl6O7SQksQTv08QoRM59gkV1ck9KlZnMsHJikihYeB1COATG7WxBgq+mw2reqrG7bHJFxcUDn4c7qBE0ZGXX7Mwsr6g+pvG3eKxfUDQVSd6o7Y7yqyAv9bSXQVfR3qyMofT4PDdXdG+ex9cTeGRK0p73NGJc1q1yxsq+KMeyqlbVaarJBPkMQ444o4e+OZlmk71h3OvUGi1FQ5BBB2CtR2O1jBobhP8A2RMtlgsTyqSrxMmkqaAZ9RJBvUtaRVcrGLDkG0N3U7TyWNEuh5GD2ybaroroNcgbJ52Kg8ScJlnHdQqdC798glApKOnmD4Wvb75/W2IZCTNGWQO0fexgFiVJJOzBQU9Rf/iwKoStNJAgcSeFo2jtdKjSri1BZBrOliQLNkehGImel1QyMdIZpFYgWvPWTSjwkWfhiy8MQSTZWVysjOPGrBCoCxHTYs0fCu5HO+RwB42CPrIoJ9sLUMABvJXgHpvtsLwF9w2GE1PU3tfAByw8a3tvXzxMcbnULFnmu33tr9NsRcr7a+/DuYnA22JG3yvy2/k40uT0UD86OdLp25fDBDtEVeQgPHzskuWPsjkzb1z54F5qe7s7kfuwW49OTM1SAG99TKx5CtwtYY5eq+1EHLAl4o1fSWdFQ1Z2e9VeVnbzrF+h7czyJ36qIy70QPF7KIT7V7a2agK2rzxQuDIfrMTGRCTIvv8AaHLbbE3hEh+qJuGudtx/gTAoXpm06LzH2uzR/tSv+6n/AE4nZftFmTzmP+Vf+nFRyJODeTGJy5PSSRY4+OZj+8PyH8MdzcZzAoqk8oN2YVVtNfrLrDb+gOB8IwVyHH8tld55Vj1g6QbLNVXpUAs3wGDDdgnSQLl7Zqm0k8sJ8p4ZY/8AU8YUf5sO5btOXZDHmEkGtQQkivzYA+yT0PPBTPdtYnWosvmZtx/YmNTTD702gdMVfNM0uby8/wBRiyqxvTESRtJJrIVbEYIABN7t1OKOKRNP2NUgGpVN3YH5YWFkf0af4R+WFhhTLvpdP20fuH/PjK+0e8adftB0v7rdP341P6Xj9tH7h/z4yntG32af+4Odj7rdcCPLJQ7/AJZc+z0f2cp0g/ZtzyBceyf7UEX7+nPErNZgmHLlhodQpHjRi614WUKAVXavFvy32OB3ApI+7ltob0Ns2dkRvYO3dqKU+nJuWJ3F3YwQBwy0F03rJFxj9ZjXTahYFjbC1dks6tMnZHhKM7ytBDKG1MNdqxD2RuUINCMkAci1WN6HZ8tHmJNNIUkJAU7LTWK25Ch0+HTA0ZmvCxr1vwke/DuViaRJJEVnSNSzuEbSoAs2aq6388K7qjz8kpSSSW4aXtrnK/Tt8Vj/AOjET+npczNAZZWkp6XYCrI1clH6oO/p51gVlspNMrOsLOiCyFB5DfxHkF6+vrjzhTOZodQ2JsEctrYCuQ5fEVhkn3DilktamwDlj6kbdP53w/8A/Iefn6/v/fiPA4HMXy/nnhySReg+fx/7fLAPYE1WfEeWPHNcmPrv5E1+H5487xburGOlkXexz5bDb8fwxjDV4K5G+4NX+l3quiHzwNZ101W+q79K5YIcOY91pAYlplAC8ydJ0j58vXDEs/2MncLnCSBnFijuQjVqQ0QCCDsbqtx1GD+ZmzNmL6sUWRnRVYgc1lfTYkCeyxPKth5bxeypIMysh9jSQy3V3q9lTXKt9uQPmBnDp4wfto5HGx6E2DuT9opvRqGok8+uFPPjJQSt8/2DhldmWXMOkUiM0qKDGf0ikXWvSbKgaRfPfmuIGZDSOksJE4hIjJpF1XJIiBGHhLUQ9UQPATfXrKZOCYaY45IQGt2LLQAiB0r4m8RZJG1MK5WeS4ZzeciaUUX7mMN3a2xXUynxBbQ0TRomwNrIFYLdDyyRS+p7dtyZxCKUq0TZOKIur0791f2fdqfFdWdPIkdOenfyHPNHK7TBTIwUto0soNctVMBzBsE8uvSJmTlLOmN9OoHSLG2ttZ9vmYtK+/qOZdEuVCUsbatNA0QLAAuu9ahd+fIc72DfuTnljL7Xv+QnkY9EeUYmWbUa7lG8QBRtOnTIG8+ZG1ja96xn85qmKMGjiklJYHxSLpZtreyCLIqzudztglw3My3F9owVAQCVLqvhO2miNxtVYZ0Td200hbS7xGQsNEWtpbkSV9GpNOqrSuZ57Amy0J2lp2IbZLL/AN5NyPROd+Ec/wBQWfWseS5LLC6eY+1QpLICqU95ttx5YdVl2FZe9Z8TTsoC6HO3gNqTVPzJoEUbETOEfZHwWpJapLc+FKBQgabrYgm/St8UeXIldo8m4blmBKvIWHKwlD7M7Ejl49r8r64n5xkaMxr3jTk/pO7UarYMPAjUp0eHYVv67McKykmiV0ArvEpijahYJFODpUAkWGvfTywYzmazC8SiaV1Z9SLa6wNJ2Pt+Lq3obNYWUqVgcpZErfj+SLxSPRLkB3deyHOlVJb7PxEBQbvUPFZ2PKwSK4DGpyUfP9M9f5ExYe2WdZs7lLAAvkuw9td68+l+g8sA+DMfqif+8/8AwIf3YEZ6ty8IuGTSwpkloeWDmT6b4DwDBbKHAkd6C0bYkB3+7q+F4hwtg1w3s/lsyKzEKS6d1LDxLuLphuN/XGirdAk6Vglp999j688MZh94x/6if8a4sHE+xMCIWjnzOXoj2cw5QWa3WQslb9Rio53RFmstCmfjzSu9soWHWmghlOqMDmdt/I4poonrs1vKDwL7sLHmTPgX3YWKCGWfTAfto/cP+fGV9om8CAfr9Bf3G6HGt/SblBLmI0Z9AOkaqJ0+1vQ3PlXrjIO0qgKBYIElWQaNBgDXP4YWPLJY3d/kvvZtZu4kKjNae7b2Fg0kaDdFvGw8+vlvh6DhMM0MIZp9Xc99rsFEUOUpY9OpidIUKG3LLgX2eSHu5Sy5fUVK20ErMSUOka/Y1WDRHLa8Gcv2hEYijMsgiWARuAw8Lhy4kVT4SynRuRvRGFTSYmRx1bsZ41wrLxRMRM6uhrSzxS+LqjIoBRj5gsoIIJGOuImSTJQPAzGCOMiZUUeCQEl2degI3Bqq9+/XGs5kpFZklHesS1xaxbEde8JVEsklFDG63HUXneHNEEImm8YPtLo5Vy/WXfntg2jkyNRvxXYOh+94ZGIY5ZihfvAjgBW12GlQbspUbEbUK2xTk4h3UiMR3jK1t096g0d9qvesSBGwupXFiiQ1c+mwwRzeYywjcDLhWWKMgiE1cgVTqbTpWjHqD2NRkYDqMZNMRS9TdbNEDI8CikhklKyqEWwO8BJABN2ICB8T0w0cllg5QCd6F3rC/wCkwBhz6jkAeuCkOYdICDGumRV8bJv66W6bHp5+uIME6CV5Z9T61I1MxNuVpCd9R3F7mqwthXVN1G9yPNksvyCTXzFzJTVdrfc8/wCfPEXLQwFwpizABJq5UF1d/wBh0I6YPcSXLkjuUBUuWYDvL081ZSf2dzp31a+mm2uMJlmKNlvbGoj2tDrqIUW10wX8163TDvJP9RAky2WH9nPt7R75duRG3c8j5+/yNTOA5RJH7hVKBWEp7ya+8FhaQpGhBok3udj60W4fHkTGpdZNQUKaWXZtJDBvI69q3W4+YBoR8/BkiI9KvoSUmQosh0pqBq2YEDRd6L31EAACsNc+W0D+I5YxvXmoarug+9Wefv8A33UJmI3xY5kywkIEDBARbN3niHeeLYEkUhUEnfxDa+YPisi6wIl+zCDezeqt7DHY3tsSNrHOhNxODJ07tytfJHaYgUCRY8VE778j5+ePfqsv91J/kb+GFwvL94ZFdlRkAIAF6vCzEC3B200SA3PlQvELiFNLJdEmR+e59s4yi+5bD0ev7nRM0kGiCGHQijjovXLfECHNk+Qrwj3J4R+AGCWWyMrjUqMyn7wHld/kfkfLCtHNkxaJOMdyVk+MSRxtEpGliSbHVkKGt/1Sfngrwjjka/pCys0hcyUCoJ3ulqQmx0YCiQdicC+DZJJRISDsBRF9Qx6AithuegNbnB7iGgQSKDBemwVqz+gJCiul0OtA+pw8b5OjAp6bv8DX9NwKAGn8JnkcExzHSH72iSJBqB1jYURZ570H4zxFZYO7WT7Xv2cLTgaS8hU6i2gkqw2AB6G8N8R4PLEGMirQ2YBgedeX+IYCyx1StZU+y3VT5fz/AOG1PhjvPL7ZKmHuC8QDwtAquZZJUNBVIFFfMF7NHbcbDbncnigKZtZUy8jKlHwIaLC6NmEA70Tam69dgvCM+cvPBOQGKs2octQQ+dGj61i5x8czOYp44I6IAGqQgkKwjBrTVlhyBP4i5zckvpVl+nUGqlKq4K7x7ibyz5aSSBo2Q8tKgkahyUKu+x53djl1McP7IZiOHuABIyPrYIRsWUADnyBVh60DtywD7R9oTmJIpVQIyAEkb2wqq67BR1335csWqXtlkpUEkqFZObIEuz10kbEX+sVwrlR0Y8kNbbl8nMHZXND+wb5j+OJ8XZvMj+yPzX+OM34v2hkkmkkjqNWbZAFpQAABy8hv6knFl4L2lybwomZQpJGunUqWHA5E6d9Vc72ve96GctrorHqYuTVlxh4HmBX2Jv8AxL/HDmZ4NmWAAaeIb2IZlTVdc2AL7V91hzxl/ajtEJ5bgXuo1XSoFAtuSWYDazyregB5nDHCc+gYmbUw6AE+oINEeYPw9cGL78Cy6qOrSaTJ2ODfpMuZT5zStL//AEkYfhh6Ds866VSGOJQykiPQo2YE2q8+XlilZGeGTMQdyG0hkDaup7wDlZ5gm/cMbk2RjIru0/yjFYJy7jwyxldIdyqkIoPlj3HsQIAB3Pn54WK0EzL6To9U6j9kfvxlWfyyy2r2acnn1s8/njZ+1MEb56NZN1K77191q6jrXUYp/wD+OZdhr7tzqlYff9m35fbKC401oFHccyQTJbSZy43UpP3K92Zh+xVWYIvfEWT00rW59PyxKy2SXviTT6RYJ6M0cZYe8Hb4YNZ3gCxoscaiO3eu8YgE8rBMrVso2Arf5jmy0kIVlMbglrAe2IJRV2G9ivXngVvYYqpuTWxw/dzRSKdJKr7QFEGr8iOvMH0IxZOH8IE+YoN3ZjZmUBBW0t0Rt4djyrFUlinZZIo4njZtzZZjWwOkEcq/E/DBzgnGC0k3eKys1+AMVIt7omrIsA16nGZSThJqPJYcvwWRw0XeqAwbfu2LC4yvMyG/D53vvvgLxXhqRXCpn7w6U7530xnxK6BrOjwqWUCqBa+ZsdcKCNmo47cMyyM3jkK1tW2vnYYbEDfl5ie13axcvm3VELFWFO1s1gC9y11YPrzANYnC+G7YM0NvpVdg79SSWOGBi4CofGlFWMdKdJtiV8Xl6+eKY0YOzbjBPgXGRM/faUiLCTUxkkjvmVtlY7KRQXqfhidLAjQZfawzFn7tbYKhqQnTHZrWgJ1NRr0t5KzzuoxKbuHKAnDM+8I7lVLrI1KQW1KWBUAaSDuT0NncdSMTOES5iKWUxwMZFoSRgGh4xTACqYldJU89+uG5M1CmYjkgJkRCrDVYJKNdGwOekdNvWrJL/wDNpUeR5I42jkdTpVVUppfXuypcgNAW3n54ZPyzYpK9M3uiXPneIDdsmdmUqzRuA32pZVJuw1sFBPPr7RwzAnEkhaNMq6ByTq7o2pKBTY6gi9999/LDmU7RFGZ4coged1bT9asMEk1eBDQSyCOQHLnhN2hzEbd4Yo6hzMkv6Zacyhl7s0SfD3g8QBFgct8MdWz3tgLO8bzI1wy5eOLvI2eyrFtEgVbHiNghNNdReKxmwCtBbN81j07demLF2yz7PJG0kQUxwxp9nKCy0CRbLYohh/JxW81IdAcNILaqLk3tzHL3YVkJu5UF+zGRindwVnIjCsQkZctTAU1G1FXyo+WA02XH12XZhesm1I3LjmDdNvuvTBjshnQWm71ov0exlmeL763RQeLzo8ueBKEfXJCNJ8LVpYkVa1RO5XyY7nrgxW529PFKNhvLcPSSFdJfvhKEP2XhqRm02yklqq703uRvQo7wdTB3sUgdwhCq0Udn2TIApZbItgwvzBGKnnZkjZHfZQ4vny6+zv8ALfBLJdqcuk2aCM/csJDlwdd94fDE2ogtenbxbb77jAcRZ46nqSDuay0CFBFE4PczFhKmo+FGAJF1s6PuOQA6g45l42uyzs2l9AkrLuulXCEU5YqDUQI23Go4rKjOEd4RKRobx1Q0P37P5DSQkx+BrpiUsQDlpoZCiiLWVd9qQhdm8B1dLO1bbWCODaYx5JMucy4i7lXn06S7M6GRlKLEeSgUmrvASTQ0r78EIez8JCd68gXvQuoroN95GvsEGtpOrcyPLcdnOCK0Y7qGU600B2cAXKqKpAVvFTh7VtvPrglns6sKQmaJyrSq40zarDSRupB13yhbfra+/B2bJzhj1XRUswRrQfty/wDEawR4dw2WXwo1HXoC2bLEE0Ol0MCJ2GpK/Wkr/McWDsnmyhR1IJSZnAva44HcA7+a8vLCs5441PIkyT/s/wA3Xsfiv/Vjn/Z5m79j4+H/AKsbf1x1eBpO9dJjXYzDO9hITG0aZeRXCnRMWslgPDqXVVGtwFFXseuK1H9HebIFqR6bfubG6Y6XAjDT3KywwfK+DD0+jfM+f+k/uvD+V+j7MK6s3iAN6e7k3rofCdr6Y2nDgw2kT+nh4MsynZaZJISIgoVwW0xsLHeBt/AOQFDGptmQOd/BSfyBx1WEBhouikccY8DsbggEdceY5g9ke7HuKWEpXa7LF5JhvQhs0QOjgA30NnlvsMQM+7RxR1o1d7pPi8XdtMdVi9lBroBy35YI9rsyinMhnCF8vpUk1ZOqvj/HFA4xnpy0kYkfugzMbkbQKd9tN1tpDfEYhK23+SMHpbpXyOfSjOC8SKVMQBPgYsoa21DmVDbgmjfK/u3VezwBzWWCgX30fU8tYvrttiyZead5YEmrMCSVEVpGaRV1nTYBNVuLry99+5fM2I27hF0kNqjXS96tVhwbBoED44ZKkGeVR3kqLuIKzlkRCFYDp8XgD94hO5On9Xked+mKt3ZOczBkD69IP2SNIaDbEiw240+e+2+GczxKZ3QRTZguRpsSOCxZyRX2hobqK1dPS8N5HtjDl5mnRWmZkYHWzAmmjKWxDG9ms9SQarbCqPvZNZVNquzJcebEM6SxQ5mWQK6n7Fk2NEV7V/evbr7sRO0uVTMd5PJCIpgVHdsFLH2KJDMJCKJOy1Xxw5kvpLUSKfq3I9ZCOe393h3O5+XMCSSJD3fq/LukjJJS9JNRg8jsSNzWFi3W6Bna4Um/YEoEWNIIoTbe0dNsTZAVABsvM9SSfSsRuJZZYxpbuRIRKHSSZgylXTTcYI0NudI+8CxPIYO5bja5hu6hhlcB1JBCkkAuRuS3Mu2x2r1JOGYY5c08iI/dxxqxAZFv7QgkUqWzsyXsPuk+hdUiCi4S33b8IA5HMzBE1Rt3QfYsg0O5o0GrxeENYs4eXKSTM3dRs2n2gAu12OXQc9h63iT2b4VJl5wwhzH2gKys0dqisRua8SjwGmOxo+uLJFwclpWimzKu+tj3aWSRJ4fuE7gkj3kjDlXhcv8Au5UstOoiyy6EI+s+IFkFgNmK1WLANKPFsNA/WxzxXND6vmyEXV3ygHUhJUHK1VbkDfYbeLl4drTL2KjBNDM0rOR9kfuqSh9jqzNy6k+eG8x2NhU05zAVnF6oyB+i1cylVqVRfmAOeCVUHVaSp9pJWOaIjVaEdBFYMCO9kGkadjzquvPrgVmqCi4yQvIGwV1b021kHmD6/O2T8KWKaGWKLMynRqEgTwI1MSGLR0Xsk6btSNx5QO0XCZjG2d1guTUkTCn03oRiKAYGgNgOYq98AhLHLU3Qa4dwhss7rEuYBaEFu6bLqSe8Ubh3dQoNVTk2d6GKRIzfXZNeq6a9Wm71Ldldi18628sXri4geUlI4CDDqb+otONZkVXNIQY28IBLb7VZPKgKB9bagvsGgqslDUKpD7K+SnccjhktzqgqWw9xpA0YB5Ejc/z54d4ZwWCeOBIxIZgXMulCdIAGi7IG5U8yALFnnhjjH6KgfT3WD8sO5yR+8ZVFU0kq6aSu7WmGnUaKopIAJNM3OzgNNglG3VlpyORknUQwz5VlqiznSVpdQ3DsNVyyLso2jbzOB+WYxZrunUK7NpJhQu40QtpKgatQcspPhNg9NxirJmnQ6kdlbzViD8xvjk5pgS+o6t7aze/PfngUwel7mk8Pjy0ubMClUdVJtoBGwKMKsMo07EHqeWPe1OSVo8xbNIYGTS2o1qamJoAoTT8zR8Q2s2a92VSReIDvmCmOJ0dmNhdw3jcX56d9hSjBTtLwmNjm5Gsk920bKXApY0BIGimHvI5jlzKW1LgEoRUWydmu+Ckt9VRBI28rNpNyj2lkFaQw8PQLWnasBuAONAAaE/ZN7Om/0Muxofptt+unBySOURlymUipv0rdPtK5NH7I9kbHw16HAfsmO8aKIPF41WIEUSoeORQDQ3lF6j5gc8MxYfcjbtW+OiccK9746XAOw8Jw4TjkY7GMYRO+HFxyow4oxjHQGPDjrHLYIDqD2R7sLHkHsj3Y9xQUpnayME5klQxWBSoIBo+KjuDuOd+mM0Dh0KkksRbbjUbY72drxpvaLLSSZhkjcpqQBiK9kar5j1xHh7F5bT+i1V1Nk44MnVRhNx3b9iONuTdLhtFE4Lmkjnyqlgt5hKvbbUL2O4HPn78dZbOnuFSgBpUXvexJF71zY9PLywU412RVHQxKCHdVFn2SxAG/6u+HONdnnQxqDAoJ7uhKSSSGILeAcwpv1xXHkWSNxJdSpz+lLgd7PZ+J5VRo0UrG2lzpolYyLO3Mk/NcZ5xxk+s5gx6dHfSadNadOs6dNbVXLpyxbF4K5pdcPIf2nnX7P7QPwOGIOxDSwHMI0BXu+8Kh21AaddVorVXrz+eKbmxOUY1KJX+y4jObg70J3eo2HrT7LVd7e1XxrF27U8QCTOqqjq8KArqOgMV8R8DAXWx6lSRitZ3s13JTvErUNSjVfxq9unPExOCvoRlKVIyoFLUSZG0A15XtfTGvwJk6lt6Yx3K7wLLB5Rql7gLzchtt9/Z8sXz6MZ1GbKXuwBH/AMayA+72wawCzvEJ45WWQ6irMpUnYGtBorR+IODvYHibz8QQuqDTHJ7Ir2jZs3ubPM77417mU4yyJ9y28c4XDLIWkQMeoN0R5EXuPTrjvPIJlCyC9J8JHhI6VYrYjpyw1m+JRE5h9fhy5PfHS3gpA/KrPhN+G8E8lJHpS682JHMHlW3kcMegV1uz8PO392s4IcKyywG4wbIq2JY18eQ92H5mFmthv8umJqtGQdhWkUPvXX8cYwBzeSjQtIAVJJJAPhtjuQvIE9fecV/t/F3s8cIdQ8uWhVA10aldySaNKAnPzIwdz/EImgE2v7ORxGrU1F9ZXTyv2lI5Vt5b4qf0nZdnzmVWOyzZeMACr2eQ/eIHzOD2J5PtBGUeVC7ZiZSSlLrzkmXN3E5AIXxtUgsHYGyeWKt3l5tt7Gkn9J3g5jfVzf8Ax/e54tfZ/LzgSsDOdUZI7uPLufFMHHMnYpJG2nbdq5AYqUyn6493elr1KFN2LsDYHzUbDpzwYKnQsFUaQ9xJNSkXVWxNfqKzfu/HHnF42V0tQmoO6hQ4oSUNPjVTYA353q+c+Ph7uNbKwg8Ss90tFHB8VGqo2QprrgXx2d/rBU7qCUBojZbINchdcgBgmf3BPs1xjKwCQ5nJHN6immvubNfz2+WIPaPOQzTmSDLnLRmNfsz0NuCfUGhjR/oUyg7vMzFFa3SPcX7Cs5/CVcAvpkyhXORvpVRJAtBRQuN31fgy/MYI4N7KZGOYu04IUpIxk7xlLOHhoMQwvZ5G8zufu4tfDOCZJtXjDE6du/Y6hrUNfj6IWI8qvFR7N5aOXKupSMyu9ITp1gB4xQBbUb3OykeFrPTGh8E7EQhQGiErVvYsD57fPHF1GVQkuW/CEj9VxSX5ZT8plYny0K6FMrSHV3ZQzEDvDRUsCBsCLq9vTDfZuAxnVpZHX7TcAFXEE1HYnYbUfdi29puxaFG7te7kA5dD6f8AcYE5dIPH3aRrpjYeHT7YjmBbwmrK3+1R364bDmjkTpU0Shj0SqSX5NerHSjHRXCVcWOw8Ax1WPdOFWMY6UY6x4MdDGMe4Rx7jxhggPYPZHuwseweyPdhYoIBMy1TsDzKKR8Cb/PBLKyqFokCueGeJ8OEgBDFHX2WG9e8dRiGMtmAKKxt6hiPw0nHm5MWbFmc4RtMWMtNpr32BfHswtp+1MgA98g/84MS8HLSq7ykqrEiOqXdSKNEal3umB3APMA4rfEuzOblnilZowkbq2kMeSsCem5oYtGS4e6zyysVIkoAC7AX2f3n44v0eKUItz5bsym5N7V+TmTgMZVl1SeJSoJckrY2ZfJx0YbjpgF2ryTQcOnDStJ4Aqk7Mt+H2t2a73JJJ+OLriocS7OSNlZ4AyapnDAkmrLBmvblQ6DHW1tsGXDM647kpUKiVoiSCR3YUc656UF/+cQOJ8OmYtPDQWFIiQFKEFqWwK3OsMbJ5D4C+8a7H5qcqxMY0rpA71moelxivxx5m+x2dku5IwGADDvJCGAYsAbBsAk0LoYlpfg4YqUJNqLZm2V4bODFMx8MwlItDJZUlDabD2j0O2oHpWLd9FOn629+3otfdvr395TBjI9is5GRUkTABgqs8mlQ5tqAAqyN/PEnsl2OmyuZE0jRkMrLSkk22/VRtscGmPHVKcXpoHyvqi48OfiIr35df33iwwmkUfsj8hgFxbsiry5plzE8S5llMqxso1afZ3KFl3J5HfrYwdOwroOXy2wWzvSEThQv4gPUfnjgHY+WPY2og+v5YUJUS4HCeHi/a4gnxvMykj5XiV24KfWY1ZvG0UAjUE69XeyhiNJDAaCwJBHtAXyw2nZTT3anMTNDFKZY4yVpWJvnp1UOVX1O294N9peyEuZzEU8TRqYokWn1c1ZmHIct/PDvdbEclqOyszHtLCVzKw6y6DSAfEAwbTZAZmNbDr0xXvqrDMSSeELbIAOgDbfljX879HmYlm755IdVg0uoDw+WxwMzH0U5ku7LLDRYkWX21EmvY9caKZHCpJu0UHK5XVLFGpMZcly6gs921UAQaAGyjeyeewF07D8Oy8865WeMymJnktlZQ9geJlamD3tTDcYKJ9F0o0HXCSqgEMGZSetgruLOGuK8EzvDTJn4vq7aVOtdLaVWgPCtjbYbA4Gl2CKmp3X/AIXzsj2cXJwGEEG5HckCh422FEnkgVb61hjtH2Sizc2WklCssBfUpB8ayJVWDtTBW+GMri+mPPkbJlveY3/+3HbfS/xAEfZ5bf8AYf8A+zDHSE+K9zDm44IodEWVJUkWdmbXZO5oauZPMt540jguZVQQdr3B6e7FPj7HZ2dWkmkhR5jqcKD5UtGtvD0v7xwd4P2dzUKhDLE6jlYax6X5Y4c2LIprJjVtdmRhOUZNOLp99ibxzMobbbSqmyf55DGX9k+6edhIwCyTciaOl45VNf5vxxfuN9l8zmF0GWNV6gA7+/AP/ZhJ/eR/I/wxsGHIpSnNbsTNknKUdEXS8l+Gej6yIP8AeH8cdDPxf3qf5x/HGe/7LJP75PkcdD6LJP76P/KcdVS8D+tk/T/JoJzsfPWn+YfxxyOIRcu8T/MP44pEn0e5kxiI5q4xyQs+n08PKhWw6Yay30bzI6OJY7RgwvVVqbF7ctsCp90F5p9ov+C/fXox99fnv8uZxyOKxfrf6W/hipZbsbmEUqHgKkaaIbkWZqvnzc/IYfk7K5lozEzw6Tz8LWPCF2PwB94vDU/A3qP9LLOvForrVv8A4W/hh366n7XwVj+QwI4B2XSBzKTrla/FVAXz0iz8yf34slYZQGjJtboagbwjY8vLCw7hYegnuFhYWCY8Ixx3I9fmf448wsYx73I9f8x/jjxIx6/Ek/nhYWMYdwsLCxjCw3JHdb1Rv8CP348wsYxEbhSEkmySbO//AGwhwiPyPzwsLApBs8/oeLyPzxyOCx/tfPCwsakY5HBYiNtQ9b8veMEEiok+dfhhYWAAdwsLCwxhYD9q+FNmcrLArBWkWgTyG4O9e7CwsYxjyfQ5n12D5UjzMkg/DuTh2P6IM8WXU+WUA7kO5Py7ofnhYWFMbfAmlVHkAPkMO4WFhjCwsLCxjCwsLCxjCwsLCxjCwsLCxjCwsLCxjCwsLCxjH//Z;" vertex="1" parent="1">
          <mxGeometry x="353.85" y="330" width="165.3" height="110" as="geometry" />
        </mxCell>
        <mxCell id="hARdRPsc3tn4qZFT5b3F-3" value="" style="shape=image;imageAspect=0;aspect=fixed;verticalLabelPosition=bottom;verticalAlign=top;image=data:image/png,iVBORw0KGgoAAAANSUhEUgAAAeYAAAMnCAYAAADruPH3AAAAAXNSR0IArs4c6QAAAARnQU1BAACxjwv8YQUAAAAJcEhZcwAADsMAAA7DAcdvqGQAAP+lSURBVHhe7J0FnFRHurfz7V259+6Vvbab3c1ujJBAkCQEd9fg7sFlYBhcBwYGd3eGwd0Z3N0HJwkEgiYQsiTEiPB+9a+e91B9prqnvXs6dX6/Z6b7VB3tU/WcqlNV57nDh2+QwWAwGAyGyMCI2WAwGAyGCOK5Q4euk8FgMBgMhsjAiNlgMBgMhgjCiNlgMBgMhgjCiNlgMBgMhgjCiNlgMBgMhgjCiNlgMBgMhgjCiNlgMBgMhgjCiNlgMBgMhgjiuYMHPyaDwWAwGAyRgRGzwWAwGAwRhBGzwWAwGAwRhBGzwWAwGAwRhBGzwWAwGAwRhBGzwWAwGAwRhBGzwWAwGAwRhBGzwWAwGAwRhBGzwWAwGAwRxHMHDlwjg8FgMBgMkYERs8FgMBgMEYQRs8FgMBgMEYQRs8FgMBgMEYQRs8FgMBgMEYQRs8FgMBgMEYQRs8FgMBgMEYQRs8FgMBgMEYQRs8FgMBgMEcRz+/dfJYPBYDAYDJGBEbPBYDAYDBGEEbPBYDAYDBGEEbNBcvzoRTp75gx9cOUE3bhxRHBUcJw+/fSIAP8d3LhxSnCSPvggVcQ9TWfPntWuz2Aw+M7xoxccaTI1VUmPxwRIh0eVNIl5JyUffHBGpMdzdPzYJe06DZkHI+ZfKKcPHaJrZzbSo+uLiR7OJHqcTPT9MqKna4log2CzYKtgh2CPYG/a/92CnQIx/6mI87OI/9MK+u7xSvruqyX06fX19MHZvdptGgyG9Bw5kEqnDx9OS4+LRHqcQfRlEtG3Im3+uEqktfWCTYIUwTYB0h/SI0B63JU2T6TXn0Xa/UmkxcerrPR49sQx7XYNkYsR8y+Ig3tO0aUdM+nBwb70+OwQ+vH6aKJPJ/ko5u0irsgsfl4jMoLlRD8sFMvPJXo0nejeRCKx7u8uTKCrR1bTkf1ntPtjMPxSOSDS4unti+nm7sH08OgA+vpCYlp6FGnHJzEjnW4R6VHEFTfK9IMQPNLjP0R6vDuBvvtgMt07uYhO7j+g3R9DZGHE/Athz/JxdGZZO7q5tSt9frgffXM+kX6+McYPMYsM4ulGkRGsFhmBWO6HBSIjmUP0xTSZEdDHo+jpxUT69kQ8fba3F13aMpoOb12n3TeD4ZfC7s07aO/igXR6aVv6aENn+mxPT/rH8Xj69uLQtPToq5jFjTLCf1737EaZ0+Pt8UQfjaCfUhPowb7edHbrdNq386R2/wyRgRHzL4DFE+Jo16xmUsy3t3WjL470p++sjMAXMWOeCHsq4v0sMo6flhI9Ect/M1usayrRHZERXB1JP4tSwDfHB9Cnu3vS1Y2xdHJxG9q6dKZ2Hw2GaGZbylFaOXcyrRtfn/bOaS7FfFWI+YG4af3y5ED6/vIwP8ScdqOMNCsfLYl0/ETcKHN6vDWO6IPh9OOZQXRfbO+DdZ1oy6wY7X4aIgMj5ihnwax5NGdgVSnm00vb0b0d3enRsQH05JKvYua78y0irsgwfl4pMg+RgXw3n+jrWUSfT5EZwVPcoZ8fQl8f7U/3dvWgj9Z3puMLW9Oq0XVpWnwj7b4aDNHK6L6taErvSk5ivrYplh7u702PTw2iH64M90PMaTfKiCMfLYkb5e9FekZ6fCDS482x9PTKMPrh1ED6TNwkX14bQ5smNaQVyQu0+2oIP8/t2/cRGaKX5FlzLTGjxPzZzh701fF4+sG6Q/dWzHx3LjKJp+tERrBC3J0vEpmIyEi+Euu5P1lmBD9/KO7Qzw6mx0f60V1xM3BF3KUfXdCKVoyqQ+O7V6CJI4Zp99dgiDaGxg+iPi2KOIn5lBDz9c1d6B8H+tA3ZxLoB1Gi9U3Myo0ypT1a+mGJWFbcKHN6FOv9SdyIPzkZL2+SL67uSBsmNpBi1u2vIfwYMUc5qphTl7enB+KO+euTA30Us+3uHHHxPOv7heLufJ7ITESG8tkkevqJyAhwh56aQF8e6kt3tnejS2ti6ND8lrRsRG2a0KMCDe0bp91fgyHa6NmpfToxo8T8yZY4eiTSx3epg/0Qs3KjjHSLR0tPxHLfiOU5PV4fTT9eTKTvjw+QN8nnV3aQ+2HEHLkYMUc5qpjPiQT5cG8v+vb0IB/FbLs7f7pG3J2LZb5bIJZPawEqMpafkRGI9T8R23l0sA/d2tqVLqzqSAfmtaDFw2oZMRt+UejEnLq8nUwXXx3pR9+f9VXMSJd8o4z0KuL9tFKk40WOG+W0HhI/XxtFP5wfQt8e6y9vks+uaE+rx9QzYo5gjJijHBbzzpnNpBz/sa83fedCzD8+SqYnXyTTD/9YSE8+nUc/fDafntycTT/cmiv+zxHfMX8+fX9PhIk43z8Qif/JUnF3LqT+1WzZAvTp3Qn008ciI7g4lL4/NZD+caC3LBngpmDf3PdpkRGz4ReGTsznhBwhSbTBcCXmH7+YRz89XizS2gKR5kQa/DRJpEGRPm850uQPny0S85JFmJj/D/FZpN0fv0RrbMFX4kY5LT3+eHUkPTk3mL4RNwG4GcAjLbT1MGKOXIyYoxy1xIzq5EcH+kgxP05NoHuH+tFdIeo7+/rQx5tihbg70GURB1XeZ9d2oQ93xtPZlD6UurkPfbB/GF3ZP1SQSFf2JdCNo4l0fV9/+mRfP/pkbx/6ZE8vun98AH0p7swfCiE/uZBI352Ipy/29ZLP0lBC2DO7mSkxG35x2MW8b877Mq3d29mdvhVpBmL++twQ+lSkx4enBtFtkR7RrRGtpy+s7khX1trSJNLjAaRFkSb34f8QuizT5BC6sb8/3TwykD7e1o3uHxPpUawX/78/m0BfH+5HN1Li6NSStrTSiDmiMWKOcljMu2c3p9Rl7WUiR5XyHvE9ZUoj2jS1CR1bJ6QsJPvZJ1Po60eL0qrFUEWGquu99P3jFMEWwWbBRsF6wWoRtoHo6Sqin5cQfZ9E/7g5jj4RMr4l5H9DlAZuCz5c35mubYyVz9R2zmxqxGz4xWEX836R/lBqPS2AcI8tbEW7xY3z5kmNaKNIj7sXtKELe/rS9bMjRJqc5khn8vERqrDRzmNfWnoEmwQbBGvl6HvyUdRT9GNeINLjePryo5GO9ChED9mjEeaJxW2MmCMcI+YoB2Ke3q8KrR1XX7aInta3Mq0d34COiQyBPhkjW21+c3cS3Tw3nK6KO+7rJ0eKO/AEUUIeQudEaflDcWd+88xkupkKRLzUifTRwURBgmAgfbg/nj4Qpeazm+Po8q6edGFrN7op7szvH+1PP54bTNc2daEDSS1kw6/1ExoYMRt+cahihhDXi/S3eGgtWiLSwoLEGrRjVnM6vkKkR1RlfzaJvr49gT7/eCx9dCSBrh0fSqmbuov0OJjOpvROS5NIf8Oc0uTN1PFKmhwg0+SVPb1lerwl0uNngu9PDpSNv9Bt0og5sjFijnIWzZ5Hk3pWpGGdSks5o1oZI3F9JBLoJ4f60bUTg+jeB2Po7pWx9PntmfThsWH00bERdHbnAEE8HV3bTdCDds9vZ7EzqS0dWtWVDq7sQie39qUTKb3ogsgQPk4dSp+cGUy3kQEcHUAfbo2j1NUdZWOTcys6OOQsMiUjZsMvCRbz2K7laXIvkRZjStNEkSbR5uLLg33oC0Hqmhi6caAvpW7pRlfT0uSdK+OsNPmhSJPgWZrsTnvUNDmf02Sckibj6eMzifTJKbE+kSYfnoinG9tEHHGjjEdbqxcu1O6vIfwYMUcxKZsOU//271G/VkVpw4SG9MnWrvT16UF0c38fOr+lK13Y0YO2zGwmhQ1hom/jxkkNafPkRpQCpqQhPmPepkmgIW2c2FCWfrEcWnfi7nvZyDqyBLAwsSbNH1yDlo+tT0tFCX13Uks6uaydYyhAUUpH/NkD3qPEPl20+2wwRBs9hJj7tixK3ZsWosSOpeQjHfRjPraoDd3a00uWlj8T4kTp9vi6TrRVpMl1SJMijSFNIs15lCZFGl4jlls1RpSGRdpbOqI2LRpak5KH1KB5g6rRUpFOd4ub4zOrOtDVTbG0fmYv7f4aws9ze/d+SIbopFeHhtS65ju0b9779LEoKR9KbiUFioSKBIuEiwSMhLxmbD35/GuDyAyQyHfNb0NH13QXd+iD6ewOB6k7EiRntg+k09sGyDvzfcs70Z4lHWjpcOdMYHZ8VVltjtI6SgojOpeRpQRsb7PIWJJGddbus8EQTWxcf5C6t6hIbWrloXHdK9DOGU3pw/WdZGPIw8kthXgbihvZ6vKGdsnwWrRcpE/c6K4W6dG6YRZpcmdSG7dp8vT2eDq1tb9IjyJdLYuhjdMc7TkWiPSYlFDdSo8Te1Sk0XHlaEqfyjL9p8zoQLu2HdPuuyF8GDFHMc3eyy0TH8BoW3jGNaP/ezR3YDVHZiBEumFKY7qwtw9d3D+A7t+YSo4+k+gv6ei/7GhggsZfaPi1ib57vEGwztHQRMZdRfR0CdGT+fT43iR6fGMMfSBKAbtESXmVKDWPEZnA8E5laHD7ktS/dTHq2awwdW6Yn0Z1KUvLpg2m7VuOavfdYIgGYprXplplstOANsUdNUxCuBAkHudAjjPV9CjkvF7ctB7b0IUu7utP969PoQefzBBpbKMAfZUd/Zed0+RGkRbBGsEKEb5GsIzoxwX0+NPJ9PiTsfTB7p60c24LIfx6NDK2LA3pUEruTw+RFvu1LEbj+9SjbSlHtPtvCA9GzFHKivnJstFXghAini9DhCxnVKF9uCWOSCRajKX7za2JdOvsMLp2fDBd2htPV/YPog8PDKELokSMRia3UicLpggmpYGGJoNFnIH0ARqa7O9LV/b2plNrO9F5UTK/daCvbGzyw9nB9NmunrLlKUrlg9qVoM4N8lPb2u9SyxrvUCtRmu/ZqpJ2/w2GzM7EMVOpXIFXKV5IUKbFdiVpaExpKUfUIqEGab4o0Z5Y0pbu7u/jSI+fTRbpcQJ9/hEafw2iayeH0OW9SGcJdH4LGnMhTQ5V0iT+I01OSEuTgxxpcl9fun4sni5sjpOtsu/u7y3Hyr6eEif7MKNavWO9fNRKpMMmlXPR3GmztcdgCA9GzFFKv1bFqFuTQtSnRVEa2LaEzBDwLApvs8EbZq5s60aXd/eiq8e5oclY+vzWTPrg6DDBcDq7YwAdXYNGJt1oT3J72cBk1/y2suGXgzZ0cFUcHVgRSye39qYTW3rQ9dShdElkCDeOx9Odo/3pipD08cVtZJXdIVGCRpcQZFBta+Wh+hVyUPWSb1ClIq9RYvxA7TEYDJmZGZNmUNfGBUXJtJAsneI5M9IinjPj+TFuWB8d7EsPhThPr46hC1u60eGVMbLx112nNDnUSpNndzg3yLSnyUNqmkwRaRKNv04n0B2RJh8cH0A3RbrHmPV4Pt2uzrtUr9ybVKVYVkroF689BkN4MGKOQmZPmUXNq74lE15swwKy6gqtMPGc+f6hvvTJvj50PqUrXdjeXTbGQhUbni/jeRaeLyPRysYmtoYmaBiGZ2LIVAAaqODZNO7Al1uNTWrJ58xo/LVYfN8xtwUdX9pWDpRwbGFrua0JPStQ7TLZqUz+V6h0vlcIrVZ1x2EwZGYGxDaR6RA1RJ3q56euTQrKamzcoGKQD9RcfSBKsB/v6kmfnRhI57d2pb0L28g0ZaXJtDYf7tOkIz0CWV1ua5C5ILGmbPexZFRd2jGvBZ1Y1k6+yGLuwKpUVpToa1UoSBvWHdQegyE8GDFHIUP6D6SapbJR48q5ZOn0+KLWcmSvQ+JOea5IoMmDnRt/ISFbjb9EIt89v43kiCgxn90xKK2RyWA6s50bfsXTqW39xV15H9nQZPeS9rRhWlNH4y+xbmQCeHaGanNUn+M584hYR+MvxME2UGqAmKuWeJ2WLFirPQ6DIbMyedw0eW3XLfsmNa2SW8oZ1//26U3kcJwYeOdwcivaMKmRy8ZfaGHNN8uONNk2LU0mpKVJpMdBdJrT5NZ+dGJLb9qztINIk+1k4y9ujIn0OFmkx3HdysvHWni8hfSP7S2Zm6Q9BkP4MGKOQubPXUXlCr4qxYxnu1N6OxqbTNU1NhF33RfFHfuN1ER6cGOyY+Qga+Sv3fTd480SNDZ5dG+FYJn4vFawSsxfJuKkjfyFxl93J9Ljj0fT3WPxdFGUBDaLTAgtQId3LkODO5SkAa2LU6/3i1Bc44LUs3kRGtO1HI2O76Y9BoMhM9OtY1sqXzALVSmaVTb+wjNlKVyRHqf1rSIljdJzuvQoJIxujBf39aEH1yfQN/9IFmkMjSx55K89Tmnyy3vLRZpcKj47Gn9993ixSMOOxl/07WyZHu8cG0CHl7ajpSNryxtk3BSj8RfSImrUJvWrTykbD2uPwxAejJijlD4xjWSJFQ1P8HwZd8mQc1JCNVlyvr27p2OkITT+ujeZPjqOhiZD6fJeNB4ZTOe39JGNTK6qjb/OOhqa3EwdTzfPjJENTT488GyUoVPrOtOFLV3lSEMY+espBs4X/z/a0Fm+7nFEbFmZEaCK/f1qb1NrUZrv3bqyqUYzRB1x7dtQ6fyvyHYUvZoXlmkRN6ZDhBQhx7Gi5DqpV0Uh5Bp0ZGFrR3q8PtrR+OvuJLp1YThdPTGELu0ZQJf3DZKjfqHx1/mtjnQp0+TZKXQ7LU2iQaZTmtyLxl/oG92Vbh/qR58d6ks/ovHXplhZUu7WtBDF1MtHLau/Qw0q5KRxQxO1x2EID0bMUQoSHlpA9xIlUzQ4GdutnKwSe7CnJ93DyF+7e9FlIdOPjg0SUk6QDU1uXRqXNsrQcDnylzXCUHJ7a5Qhq7HJvDZylCHZ0ERkGMdTesiRv3Cnf0OUmNH46yORKVxc24l2Y8jBRa0FbWTpHS1B65Z7k6oWf12U7LPIF8nrjsFgyKwkz11F5QtlobhGBSmmfj7q0qgA9W6RlhZF6RlV1Lhh/eJAH/oMI3+t70wn13amM1u7yZtkTpPPRv7iNNlVpkuZJpPTp8ntc1s7p8m0kb+u7OpJX5yIp9s7usuxsjEwCdIh2npUKJxFtiDXHYchPDy3Z88HZIguZk2eSc3ee4va1nqXOgk5D4spQyeEGLdPb0p39vWmxxcS6VxKHO1Z0NoayGBd2kAGkDcSLTc2UeERhhAPGQuWsxp/4VnV8NqybzQGNJgTX5WWiHk757WgC+s6yZez49ka1oNqPGQIaPiFUkW3Dm21x2EwZGZim5WX6RCDi3Som1e20MZAHyeFGDFe9cklbemsuHH9WJSWr+3pJUfj27vgWeMvObhI2mh8nqRJpGGnxl+iZMzPmecMdDT+WifWc1jkBXgFLHpIlM73MtUqX1C7/4bwYcQchQzuF081SmWjRpVyyVIzukfc3tZVjvyFN01BnM8af+G5l3Mr0J1JreUoQ0dWd6PUHYNkI5MPjo6TXDkyWjCSTm3t6+iSsbkH7VncTr4VR80EZvSvIp9pQ8JocIK+m/gMcSMjGd2lrCxRoNS8OHmN9jgMhsxK4oCBVK3EG1Sn7JvUpHJuai/EPHPAe7RtWhPZTQqjfx1KbklLRBqcJ9IjXmahNv5ykrNMk2p6tKfJUXT5yHBHmtzSi/Yu6UC7F7aRg5Vg5C88w+b0OKFHRdm2A42/xoiSO/KC7Ru2ao/BED6MmKOQpDkrZTeI9nXy0iohXUeCfNb4C3JG6+l1QpC757eiC7t60/3r4+mbR0lExI2/tgt20XfytXJb6NG9lQI0NFkmWCJYKMLSGn89XUr0w3yir2fS449H0d2j/enypljaIjIhyJobf8mRv5oXls+ZuzdzjBs8a/wo7TEYDJmZrh3ayAaY6Kdfq3R22QhSlmaFcHGjiqFqpynpEY2/1goBy5H4dvaii3v70oNPJjnSl9X4awd99xVG+ULDL6RJNMZ0NP56dG+xYH5a46/lRD9x469RdOeISI/rO9OykbXlDbJs/CXSIvpWo0ZtYt/6tHLJeu1xGMKDEXOUktjjfSlEHlzkWeOv6nR4YWu6ta+3HGkIrTYffDiKPjwUT9eOYpQhNP4aIhuaoJEJXimnjjLkeM3cePF5jAh3NDQ5m9KNruzrQ6dF4r+wrRud3RhLn+ztRbd296QvD/WVz9K2TG0sMydIGV1HUMWHQUb6tKlCi+av1h6DwZBZGdR3AJXK+7Js/AUZ4qaYBxeRI3+lNf5CifbI4jZ0W6ZHx2sfv7kzgW6eHUpXjyTQxV39ZJo8vryTlSbtI3850uQE8XmslSYx8tflvb3p2sF+lLohlm6ItPj1SZHGxQ0zukiiIRpG/nq/6ttUv3wOGj8sUXschvBgxByFpGw8JJ9nocEJukSgZTakiAFBHuzpJUcawqAGN08Okq99vHNlNH1xZ7qm8Rc3NHn2ejluaLJjbhvaNqeVHDT/eEovOra5O53b14+unUyQI389PDdYZjYX13WSAynsnfO+fM6NKjpUr9cpm91q/NU7toP2OAyGzMraNfupQqEsUoBo/IXGmBiFT6bFLuXk46MPRNrAjeujw/3ovPh8cm0nOrutu5Um714Z52GadLyKdcc8W5rc1F02/rooBH39cH96cCKerm7uQmeWtaMUUTKPqZ+faorSPPZzwugp2uMwhAcj5ihk+sQZ1LhSLmpdM48soWKMagxmgNG3rm7tSp8eG0DnZeOvVtbzZX6WpXvto9rQBKBBir2hCY/6hb6YqJbDcy289nGdWO6wEPP5VR1l4y88w8bzLdypo+FJKUGPTu20x2EwZGbQJRBjCaD1M+SMxziTe1WiIyLdpQo5Yozss2tiZOOvj9H4S4785bh5lWkSVdsirSHNZZgmRVy0EZGNMdNe+4hn1mjTwYOM4LWPjvTYWr4jHY+ZSor017JBde3+G8KHEXMUwo2/6pXPIe/UMRTmJ1viaOu0JrK1tH3kL/trHx0NTbo6RhjaOVjcrY8XoKHJWAkagF0+MoJObu1HJ7f0ka993LmwXZqUn400xI1NUFqHjMd3L08LhtSUGQIaoOBuHSOULV2wVnscBkNmZUj/eKpW4nXZ+6BhxZzUtnYe+RgJEoWYLwkhH0xqIVtpY366kb+UG+adSa2sxl9qmnQ0/uI0OUq+9hGj8Z0QpeXdi9rT2smNnUbiQ3rESHyoSscwvXi8hdHANi2arj0GQ/gwYo5C1q7eLxt/9X6/iBQtBjeQDU56VaQZ/apYIw2tndiQjq7pRBf29KH71yYQ/YTXxq0TOBp/ffcVXvHoGGXI0ciEQeOvBWL+UsECa+QvejyLHl8fQ19dGU6Xt3Sl7TObyi5UkDLecoUXa6DRF6qy0fAE1XxTh/XWHoPBkJmJS2v8hZG/cJOMtLdzZjMpXNyUQpAoPavpcc2EhrQTNVt7etPFff3o/nWMxLdapMUNgrTGX/IVj2qaRGNMsEiQJOYvEiQR/ZBM9M1sR3q8PJwubXbcmOO96GiIKdNi2iAjw7vWMo2/Igwj5iglsXtzmQhRjS1fNSfujtHgZN6g6vKNT3gNHBp/fY3GX1dG0keH4+miEPTlvfFOI3/dUht/nZ1Mt886XjGHUYbQ0OSDAyL+gf7ytY9n1nWmk6s60tn1nen6zh5yNCOM/HV1Y6zsJoI7dAzmj/G7UZWNkkRc8wqm8Zch6kDjr5J5X5ZdpkbGlpEiRlpE4y+M/IVaJDTGxGsf0Z/Z8drHMfT1tVH0zU005Eqkq0cH0amNcXRl30A6vkJt/KW+ilVJk6ljRLocJdPkjVND6MqeXnRxa1c6J9Ljte3d6buTA+n65i5S0P2FmNFro0W1t6mBSIfjTOOviOK53buvkCG6WLV0vXyTjRxtSJSaMS4uMoJd4o4djb/uC4l+JMR5eV8funZ8EN25PIpuXxKJ+iKqxYZS6o5+5Hjto3NDE3WEIbXx175lMXKUoWMiE/k4rfHXzcP9ZMvvi2tjKHVFe9o7u7msUkc1HV5/h8ZfeN0cXmSBcYV1x2EwZFbWrN7nGI5TpD/cjPIrWK2GmOPr053t3ejuju50Q/w/syaGTgg+PDzASpO3lDSJ17EiTR6x0qTtVay2NImXyxxP6U7n9/WVjb9uHOlPdw72pQtiGxcFeF6NrlJ4lFS2wCs0ftRk7XEYwoMRcxQydfw02egEjb+Q+PBMCSMHnV3Vgc6IEu2nohR7fvOzxl94iw2eZ6FBFwb/0DU0wfJoGKaO/IXl8HwassWzsaXD0QDM8YYpVM8tFvNQXb5lRlM6NL+lHP0L3aZQrYf9g5TL5H+VenUWmYzmOAyGzMr6tfvlNY7BRdD4C12T0PgLfZfxjBnDYp5e3p5ShSQ/3tWDzm3s4hj5y/7aR7dpUqRHJU1ajb9EekTbER75C12y8JwZI38tGFqLtkxvYjX+QjV7m8Y1tMdgCB9GzFHI4P7xsisSBqfHM12M/LVHlFiRaHkwA7Xxl5RzWuOvnfNE3PltZLeMszsG0ofHxgomiDt2bmgyhq4cReOvkY6GJlt6yTvzXYva0lqRWaAFKF4tiVGOeGATlBBQnY7n3JiHDANv1kHDmPdrlaAN6w5oj8NgyKygFgg1QnizFHpIYEhONPJCukNXpT1zmtNBcbPqsvGXSI/ytY9CuLuSWtHRNXFKmkQXqmeNv64gTaJB5uHh1hjZeO3jjuTWTq995New4mUyaPOBR0tIj5sXT9cegyF8GDFHIahGK1PgFSlDyBclZkiRG5uwnNeIRH90ZUf52sf7V8cS/bSUeOSv7x6vE6ChySbZyOTLeyskjlGG0NAkWTCPvvtqAdGPSuOvj0fTV5eH0aWUOFlSRil6eCfHs25UYaPUgCp2/Ee13vwpY7XHYDBkZlo2rC4bYFYs/JoslWLITbyLGTfC/HwZonRKj7IFdgv52sf7H42iB9cnEj1dKdKjY+Sv7x6vl+nxWZrk0fgcjTHR+OvRvdn0HUbw+8Ex8hd9PoW+ujSMLm7qQpunNpE3xIOFlJEW0QATDTHRzmPlknXa4zCEByPmKGXq4PayNTSeL6MVJu6SIWeMy4t+xV+eHEh0fQx9c200fX51DF09kUCX9vajK/sG0bmUPlZDE6fGX2mjDOEVcxhl6FbqKBEHjcX6UermLnRpZw/Z+Ovchs70CZ5l7+tNX8vGX51l1RsyotiG+a2Rv+qVy0H1y79JMybN0B6DwZBZGdinf1rjr9dlw0tOiyip4kYVLbMh55Vj6tLRJW3p6ZVh8rWP3wghf/7BSLp6bCBdOzGETm/qJtJWz7Q0qWmQaaVJx8hfSJMfokGmSJOXZeOvbo70uKsH3dnZXTb+2iTSYv/WxWUp/v2qb8nxvIfFD9IehyE8GDFHIauWrJddIeIaF5QlU3SNwF06Gl892NuLPpMjf/Wgywf60kdHB9LtSyPp81tT6YOjQwijDJ3d0Z+OrnVUnaHhV7rGX5I2tGOe4xVz+5Z3ktVnRzd2pWsnB9EFIehL27rR7f296dJ6ESYynp0zm9L+ue/T8pG1ZYM0jB+McYTxhqnuMWL9muMwGDIra1fvo+Y1i8trvbO4GcV4AviM8eKRFlFFfU+kk5s7usu3r10Tn7fObEZXDvajD0WavHWJG3+h2noond3ZXzvyl3OabC3T5H6ZJmPo2OYedGRDF7p6fCBdP9Kf7h7qK9JjZzq3qgMtGVZLDj6EVuOl879MSXNWaI/DEB6MmKOQaROmWyN/odEJniXhVXOfCSlf3BBLV0UmcG5zHO1OfjbyFw8ugoYkulfMycZfaGSS1tAEGQs3NsEzsWUj68jEjmdleGaGZ2do/LVAzNsmMpwjC1rT2eXtaMeMpvJNNxj8BFJGi1DT+MsQbaxbs192B+TGXyid4iYZz5AxCh+6D+LtUufw2kdxk3xWpMvzKeJGWHkVqxyNz81rH5+lSUd6BFgOaRpV5o7R+Bwj8aG6HM+ZZXqcIdKj2AekY1SzY+Q93TEYwocRcxQyuN8Aeq/461S33JviTr2gzAgcjb/qS2GiOhsCfTby1zM575iHUYZay5G/8Ho5Hlnog6Pj6eal2bKRCV77iNfMXT6cSCdSetJxUVLetVCUoJNaWpnAjLSRhvCqR7wYXg5s0L6krNZbOrwWzRrwHtUt+ya1qlNSewwGQ2amawdH4y90R8LLWlA6ndyrorwx3TunudUYc/aAqrKxJFpOo5U0N/5CGMsZDTIPr4oT6XGgkibR8IvT5CjBCJEmh9GlQ4Pp+Kbu8rWPO0S6V1/DikdJqD7HjTr6U6PkvmBEc9P4KwJ5bteuy2SILlav2ivHoEbig3yRANEaEwlzer8qUs4QKF77eH5rN7qwu5d87aN8XZz12sdtcuSv7+UIQ2hkwq+YW0affTRb/F9Ij+7Oo3/cnSXizSP6Ea99nEX0YDJ9dXEo3Ral87OrOsq7eDRCG9TW0fiLG5ygXycafyVPGas9BoMhM9OiQTXZHbBC4SxSzkhvu2c1l43AcKM6sUdFeeOKxl+cHtdOaEhHRZq5sDOtMebTxSId4rWPjpG/vvvK0SDTkRbV17AuFWlylvg/X6TH2SLefPrukUiL36Q1/rqQSJc2dJbPljFkLp5zIy3icRdq1JAeVy5epz0OQ3gwYo5SpiS0oyF476qQH79qDnKel1CNDi1sRT9fGuoY+ev6aPrk1GD66FA8Xdw1gFI39aSzKX3oowP8ejnnhib3r86jm6niTv3MGPH/WUOTs5vj6JLIUE6uiZF9Mq9s6Uq39/SiLw/3o/u7e9KZ5e1l/2ZkAqhiRx9PlOjxyrkp46dqj8FgyKyMGzWJSr77kiwtjxEixk0ohqDFGNWoPULjr1lCyGh3gdc+/nx5GNENx8hfDz4YKUfTw2sfT2/oSkeXxcg0eX5LX5km7a9iRZq8f3W2mD/WKU1iNL6L27vTuU1d6MaennR9Wzf6XNwwn17WTr4Stl2dd2VVOwb7SRwQrz0OQ3gwYo5CcPfbrva7csQhlFDR4ASDepxe2pY+F7I8taQtXRey/OBgf7p2LJ7uXBpOD25OpCsiI0ADsNTtfenImjgJGpfgtXKAn23tRIOTeW1o+9xWtHV2S9nQ5FnjrwS6sKsHfXygL93a35tOikzgQFILWYWHgREw+AH2p2bpbFS5qGPkr56dxPo1x2EwZFbQ+Ktn+wby2TKGvkRDTIwCJkfhS3vtI4/8hdcw4g1T+5e2d4z8dQwNMu1pso9Ij11kmtw9v42LNNn6WZoUMnc0/oqjayccjb++OD2IPhNpEiPx4fk09kk2/sr3imz8pTsOQ3gwYo5CMPIX7tQxDi5G/kJVNmT8+f4+dH1XT7ohSrZnN3SmXUKYK0c5v8lGNjaRDcAcDU74tXIqaACGuLKhidX4yzHKkOMNU47XPuI5Mjf+OrygFR1f1FoKGv2p8Uo8dCfBQP99unTQHofBkFlZMG8lNRBpEONQ41rvKASNm2RUZe+e1Uw+Z05d0UF2lboj0uVN3DCvjqEdIowHGJFpcoLaAAy4SpPPXsWKNiOy8RePxJc2yAinx60iDaLdCUbhw75NGWdqrCINI+YoZMLoybLxF6qo0BIUDU0wBCAGr8eoW2hoIkf+EglXHWmIG38dWtWFzmyPT2tkghGGHKMMoaHJzUuz6ObF6fTJxal06fAwungokY5t6kG7Fj4baUiO/GW99rECjRE3BjzICKrx8I5YZBS4cejetr72GAyGzEzXDm2eNf4qn0PeICNNoPZo+4wmspfEViFGyBRpBukRI38hfToaZNaVI39tn9NSNv46tCpOpMmBMh1yenSkSZEeL80U6XEaXT48QqTJoXR8cy86uqGbSI9taLW4ibaP/MWvfURDzOThzSll8XTtMRjChxFzFILGXzXLF6C4RgWlJJHw0egLCRMJ9NlrHxvQ+W3d6PrxBMdrH3/mUYY208/frRdsptvXFtBPj9bQj4/W0hfX50vufjCTfvjHEgFG/5pJ1y+PIfo+ieirWUQPp8jXPt4+2Icuru9EGyY3oiSxrYR2jgYnaPSFl8aj4Qmec82ZOEp7DAZDZqZF/Wpy9D301W9XJ69sCY0SK9pZoLEXblpBuvSIxpho/PXhWKIfeSS+jbLx18/fbRCkyPQIPkqdnpYmk+jOlekiPWJEvln0jztT6bObk4gezxbpcaociQ9jChxa0Eq+zYpH/kJVNqra0WIcI3/pjsMQHoyYo5TRfVvJ1tBoeIL/3DIbd894SfvTi0Pp+0vD6LMzCfTZxeF061Qi3T4znD6/NonunBtF986PFYyjh9dn06NP5tPXtxcIkgXz6R8fThVMoftnRtCdg/F0fXsPurqhM13dEkdXNnamG7t70OWNsXRDSP/api702a4elLqsndw2qvPQ+EuO/CVKEvXL55RV77pjMBgyK9z4q3bZ7EKEpeRNKF67itIqwGcI+qAoQd/e3o3oEtLjUHokJHrzxEC6jze+nR5Kn1+dKNLjSLp7brRMkw8/ninS5Bz66hbSI3iWHh+kjqL7p4fRnQP96UNxU3xtS1f6AOkQbT5EWnywr7ds/IVn2mgNziPwYeSvIf1N469Iwog5Cpk2YZoc+hKvmevRrBDFty0u787xnDl1eXshz1g6v64TfXakP9GtcUT3pxJ9OUeUehcSPV3hdJeOl7MT7RHsFewW7BRsE4iwnzcQPRGl7G8WidLyHPr+znj6Uggf60WGgGdpqD7Hs6yt0xrLxl+oOsd+YWADdCUplfdlOcCI7jgMhswKGn91bF5bjvqFx0kY9QuNvwa2LSHT4qGklnQjRdzIru9MZ1fH0AXx/7OjIj3eFCXlz6YQ/QPdnZLTxq9fLXDUZBFtFSANIj0iXe4SbBdgvgj/cQ3Rd0tEepwn0uMEeiTS4yfoFbGivWzfgYFNMGY3nl1jv9AAs3ieF2n+XNP4K5IwYo5C5s1eLrsiYcQhVBujpIpXxqH15n1x9/xIiPPb1MH044cjiG6PJ3owjejxXKIfhGDloPnrBJvSEjsyARdifirk/eMqkREsFsvPE5mJWM/dCfT0+mg59u/PqQny/c8YZQjPr1FtN6FHRflsixt/oarPlJgN0caaVXvlM2Z0R0INEaqMB4obZPRK2CxuUNGn+Iq4Of7iQB/66ng8fXduyLP0iBvlR7NFulogxLxMpDUhW9mXOUUACUPGLsT8s7ip/l7I/OskkR6n01Okx2uj6OeLifTVwT7yTXN4jo1HXH1aFpWPvBbNX6U9BkP4eG7nzktkiC5WrdxD79evJqvR8CYn9GNGA7ALqzqmF/PdiUQPZ4iELMT6gxDsU/XuHALOQMw/ifjfizt0ZARfTie65yzmrw/3k91CLq3pSHtmNZfP2uT4wQ3yyxfJj00crD0GgyEzM3bkJPmMGde4fP1q00I0IraMbO+xf977dG5lB7q5tauzmD8S6VGUculzcYP7lbhRRg3WTzzoj1qD5U7M4qb6ByHzb+aL9DjDScw/noinezu6y4ZnEDPS4aSRQ9PtuyH8GDFHKZBz7YoF5R07nmVpxXx1JNGnk8Sd9Uyib0VC/kHcaT/F3TkyAb47z0DMP4v4WA7LfyXW8+lEl2JG9R1an6I6D8+2OjSrpd13gyGzs1qkv+J5XqIKhbLIdzK3rP62rC3C+NQuxYz0eA83yuIGFzfKTxYJMXODTK7B8kDMPwqZf5csG2M+RXq0ifm82DZ6YqDRV69O7bT7bwgvRsxRDOTcrEZxmjeoul7MIsHSZ5OJMHzftyIh/yDutJ/i7pwzAQ/F/KNYDhkBhuS8P8mtmNEVBF2o8Iy5TsVC6fbZYIgWhg8cKNtQoK8+WkBP7lXJtZjPCzF/PDrtRnmGKPEmCTEvFmLmITlxo4x054GYf1rhKG1/PZuefibSo0bM2I+YxmVp/dr92n03hBcj5ihnztSZsitGOjHjDv36GKIHU8Sd9Wwh5gVCzOJO+ymeL6Ma2wsx4znYE7E8xuYV63v6yZgMxYyBFxbPX6XdZ4MhWhiZMEiKGVXZ0/pWlgPzaMV8QYgT6fF+2o0yqqKfLBVpC4+WuBrbCzGjvcg3c+jpg8nyRlkn5qXz5mn32RB+jJijnLlTZ8nnWunEfF4k1E/GEn0+lejxHCFmcYf9g0jQT/nu3Esx/yCW/1as5+FUenpzbIZiHtI7Vru/BkO00a1jW9kie2b/KnoxC2F+d2loWnpMu1FGi+wnIl39hEdLqMHyQczfzaWnYn1Pb4wxYs5kGDFHCQcPXhAJ82Cm4uaNjdpjMRiihevXcKOrv/4jFeQlumMxhA4j5ighM4r54tl5tDDJVGcbopNxIyfRmZOi9Ku59iMZI+bwY8QcJWRWMY8anKA9HoMhsxPbrpURs8EnjJijhMwq5tZ1S2mPx2DI7FQvl9+I2eATz+3YcZEMmZ8DB85rE1kkAzFj8AW8Ik93TAZDZqZk3pcypZiRl+iOxxA6jJijhMws5lEJCdpjMhgyK2NHTjRiNviMEXOUkJnFHNe6nvaYDIbMSmzbVkbMBp8xYo4SMrOY8ZxZd0wGQ2YFUjZiNviKEXOUkJnFbJ4zG6IJrsY2Yjb4ihFzlJDZxRzfLUZ7XAZDZoOrsY2YDb5ixBwlZHYxm+psQ7SAblJGzAZ/MGKOEpCYtm4cnqkYP/R9S8zAVGcbMjtqNTaYP6ur9tqPZIyYw48Rsx8sXbk3omhet6p8zVxmoWz+Vywp1yiXkwYPStAel8GQWRg5chIVyfeyJWbddR/JNKpXTXtc4UKX7/4SeG779gtk8I2GnTvTC4WzRwyvFXxDm9i8Jv9rDgpkc1AopwP+DhCuW9ZLapXOLqWsOx6mQK2y2s8GQ6TCctZd815hT4sgiOkReYjueMIF8lhd3hvtGDH7QaSJGRTI96o2wbkECbrw21SqeCEqVaIYlSpVyjuwDCia71lmoduOCyoUyuJWzHGJfenW3duWkFdsXmvkbIh4IGbd9e4WpB2kRaQlpEddenOHmhaxHi/TIvIO3bGEEyNmg9dEopg9LjUj4foiYk9QRa3btgKqsz0RMxg7dwodPn1cztPFNaSnRMli1KBuHS2lihbVLmPwH4/FzCLWpaNAgLSIbei2bSPSSsvAiNngNb6IuXiL0m7RLeMtc2Z3T9egY+Gc7s8SoQ934w0bVKWGDWtqw9yCjCGtmi2ubaV0+wX6da+pPQ4ACXMpGXLGZMTsOWMSEunevXtaEKZbJrNTtmARalyrtksQ7ktcoNbYuKu5qV0tn/ZaRxqQaRClWR9ujH1KgwDyT0v/IxOaavdNdxzeosvTVHTLuMOI2eA13ohZd5FmhG497ngxfzbKkvt1IbD1VtcHBl2TUG3si5gvb4gj+mmJWM8+oifJdHV9HBUp5MVdPjKgtAzBvl8AYsZ+AxyDekzI/JAZ8md3JeZsb7xGObJkcUnWN7M6xdfFUcH+qPEzI5Eg5ndqFfLpevaFl/O84XTMO3bsoFOnDjsxMqE/1WhalWo1fI+SZk1JF45lrly5Yp0j9ZrExI9W6sQ0k9ejun2+jmPaVbKubxWkAZkGdenEBYUKFaLUZR2JHs8S69gj0uJq+mRbT21clyDNp4lZ14ULeYYu/XmCPd/yBN16dBgxG7wmIzG/VCKn9qL0Bt16XQExISP56aej6RIexNy3U0NavmguLV+STP179qbcxfJR9mLvaqleoTItX75ccn9vL5EZLBXrcYj58YHe1KdXdyu8cvkK2nWAt/K/Q/H9+svtHjmwLN1+gQFdatDC2XPlvtvl6Q092sVYGTI4lZoq1u+YUlJSqIv4vTp3jZXg84QJE9JCxWE9eeK0LMD51G0nM6FKyg7CdMsEmt7xDei1LM97fT37girm1FRxvdJnjh/Yi+nhw4d0+/Y16xzZxYwbRcgZUlbFjGsX1yCu5aHxLUTM9Nc60gCnv3cK59WmGfBOnret9DVi+DC6lSJujh9DqHulmL8/PcgKb92kmXYdTNsWLeU2kQY7vl9TK+Y7t9bJ/fb2mrfnV95QuEkJmUfq1ssYMRu8xp2YXUk5b84sMpP67W9+5QTm/f6ff0t//cN/p1sGJQ7dNuwgUaWePu1SzOMSuzllyu7ujptWq2XF1Yl5y+YNVri7Z5W4C0eCR7xHjz5Mt19gyqgOMnzbphQnMbua1PWruBPz0qVLqVu3bk4kJiamhRLduXPXaVlgxBwYStUqKK9xXMu68EDCYp40aRIdPICaI1+n7yk5eZZWzCgtA5Yzh+HaxTWMc+tKzEgDCEeacFcjgzTFv9P6deJGAGL+msW8SoqZw5FWdesA2Hf1GhjYu6NWzMgzkHd4es3nq180XT6FvKtM6Vzp8jaAvA15n32ZjORsxGzwGlditksZF1+1ivm0F6wOXMR/+/MfqWiD4tY6PJFztImZQQkFDb/wGRmiPZwJtJjLVyxEr5V9Kx26bUcC3Yb0TcfKJcvogw8+0IIw3TK6dfsK0kLVmMoeX8P+oor5woU9ab+uL5NezCpcnc3ffyliVqWMPKpYybe0+ZgOFEBq1Cwk80Rehzs5GzEbvEYnZruU81XN7/IuEhdpy5Zl6E+v/k2Czxz2m1//ijp0rkL1etaw1mXflp3gi1lkCmEWszvsYj599qxYv2PyRcxbDo50+i0BMpGcVfNptx8q8LvhPNk5ceJEOjZs2EAHDx6Uz01nzZpFkydPpiVLltDOnTtlmG4Z3brdXSsZ4a5EFGiCJWZcfzrUG0Wcp+CLGc+YwytmTgvIm/IUfkPmVZyfIa9T8zNXed+//9e/UpsetZzSle46+cWKedu282TwjYadO6W7kABfbHU6vUdlbRcmLt5mzTrQwgXbtOvEfIALGxd8ZSEBteSs2x4TGjHPD5mYUVXILbHVz+r6VexiPnMO44c7Jl/EnDPHGzKzUIGUwy1nnFMWgIpdsOvWraM1a9ZQ4cKF6fXXX3eiSJEi1Lt3bxo1alS65ezrxbbcSSSSCJaYIWCWMSb+rDZEDKaYb2yMjYgSM+dDyJP+94X/lnnUn7O/TGPGJGnzM4D8DHke8j41L4Sch05p7zZvQx6rW2e0Y8TsBzox80UG/vfff0///NtnF+J//fl/XQpZxwIRN8urz1Pd2sU8knNwxYyGW6EVMzJDHer6Vexivn37nli/Y9q0aRMNGjRIkpCQQH369KHRo0enhXr3jDnccvZEzBDy2LFjpYQhZhwvvgN8ZlnjfMybN89pWft6fRUzJIlzyBTs0YuKPiYqnsYbGooIEOe1vceclnV3raoEuyob1x9uENVtMsEX8xyxjvCJmfMf5EUNmpWWeZM7IdtB3vdCztec5JzjrZes9eryNiNmg9dkJObf/8s/0b/87p/od0LOuGPUrSMjIOfhiU2d1mvfJoNEFRQx72Mx4xlz6MTMIDPEszzGHs707tia7t+/YZGyZQ29/kYuSf4Cb1PO7G/SH57/X8n//N//UI4cr1jh9RvWdloWuMukwilnT8S8cuVKeuONN6SE1fkqLOjk5GSn+fb1+ipm+36OvPQRZfmSPKLOF0+s5TKSmEowxYzSMUrJEDM+M7ztoIv5m8gQMyhdKpc2v/IE5IWqnNX12rdpxGzwGruY1Qvs7Rx/p3/711/Tv/7zP1GlSjW0y3sK5Dx2eAun9avbZYIm5r09w1JiBhAxJu6aAlzJGcviHID3W1eRz4jxn+epGSGOnee7Apm8un474ZKzXXgMixVV2HXr1hXXzQIn4epACbpmzZqy2w3Ps6/XiNnxjBltHQCuQf78SxGzmvf0iPEvPwOqnNHYVV2/ul0jZoPXuBPzH/79N/Qfv/81VSz3lnZZb1m2eJfT+tXtMkhU0SZmZHxqlxRPyVYpjzxP+K8LDxThkLNdeAyLdc+ePdS+fXvrOzN9+nRtgy+UnA8fPmx9t683s4kZ124/cUz+inn0iAS5LnfpRCVoYl4vxLyhsyLmlWEV8/79Z7R5lDegWlttGKauX92uEbPBa1yJuWH1IvRf//Eb+s9/+w2NG+v5M5iMcHXxMsEV83KxnvCVmD1p/KUSKjEDSHnG4m708pt/D0mXILvwGBbrgQMHaNGiRdZ3MGzYMHENbaO9e/emC8PgK7t377a+29ebmcQMcF1XrFrJbzHHdeuQLo1wiVkF8xAWfDHPFesIv5h1eZMvQM4sZnX8BnW7RswGr3El5oJvv0r/85+/pQ7tymmX8xVev/3iZYInZjxjDo+YucTsSeMvlVCKGdv5jXLnr4sTSHBOz589ap1/hsW6detW6zMzcOBA2TJ9/fr1NGDAgHThoajKHrHlAP19xlb6+5hkytp/hGAkvdZ3EL3aZzi9Hj+Wsg6cTFnHr6C/z95KteY9u768FTOukdmzZ/tfYh4/1KnvOtaLCdckbhjxn28Y8TnoYv42usQMuNT8VvZnjcDU7RoxG7zGlZhrV81L//uH31LfPiil6Jf1hWyVCmovXia4Yl4h1hN6MXNjG+6eAlzJGcviHICsV25RlsdEr3542yUIf0uQtUljazng7ry4gn8XEKxqbVSZQxLxk9vSw4eODF6FxYoW2fyZwXPkpk2bUrt27ahz587pwufPn299tq83UGKeNHkKlShRkjp27CiHkXy7YC56q8Dr9Mbbr1CuIrnlvLbtOsg4aC3Oy4VLzEuXzrd+U64JYQljG/bnzcES84YIEjPyIF3e5Cv8rPmtbEbMKkbMfuBKzIXzvEr/91+/o0WLPO8a5Qm8fvvF+0IRB0hUXom5gBBQ2rJ2vBazZh0gy1teijmHELOyfIHaz/qPMnU6NXOKA9TtgCKPftJWkeqYfPiYtZxuH7whZ7W0Z87ivy7cV/oObyK7llTvUJGGz+3kVsy1a9emS5cuWd8Bd50CCxcudApLTU2lBg0aWN/t6w2UmM+ePUfbd+yU/9G1Tb0BYoGocXg5b8UMytWs7LeYu/XrLG+yIGWkOYx4hesPMuaSMkrOmAdR/xLEDHR5k69wdXZuI2Ynntu69RwZfKNBJ72YG9QoSH/6n99pl/EHXr918doy72gUMwNBA10Y8EfMAzdssZbzV8wgGHLOm9fR/xO/feVGpZyEx7BY0U972bJl1ncGz5Lt88DatWupV69e1nf7erEtX8SMhli4NvDqxAG9WtLtT1dSn67N5fdcLzm/lB8C4bjN6laVcVetTLTiZtRCXgXpoHKligF5xox1YWAZnPeM2g8EX8zzxDrCL2Zd3uQrCxZslYOU/N+//4e1fnW7yGN1y0U7Rsx+4ErM4Pn/DbKYNZl30MQs+zGHXsy37t2W/2UJRXxmdIKOJDGDQMr5pZI5qUDdwvJ3R6kNx+pOzGj8VaZMGTp58iSdFtcDz7dz5swZOnbsmHytoPpc2r5eKWaxTd2+pUNJDyooeWL/PRlrHHEQV/dIQC2h2sNAsLpLYX8gZmwb1daY7PthxOwbGKhEXb+6XSNmg9e4E/Nf/u+ftcv4yvnzh53Wr8sUo0nMqK5mMWNiGUPScUP7WutnIk3MIFBy5pcGvFNblNjE94zEDNAKO3fu3LIv88WLF53CIGtIGQOLvPnmmzR16lSncPt63Yn5lWK5KO97xSW6cKZsy6pUrX1NKlizlGOekm7suBMzSxHPee1hIFhirtezIVWNqS23CyFj+qWKeeK4Bdo8yldQYlbXr27XiNngNe7EXCxvFpowPkm7nC+o67ZnekxwxbxSrCf0YlYFDfDZEzEXXpRCL83fSm9MnE9ZxwvGzaXXRk+j18ZMd3wX/H3uVhFnGw2anmQtF0gxA3/lbJcy8ETMqLaGnOvUqUOvvPIKNW7cWDaowkss0Ajsr3/9KzVp0kS21laXA/b1uhNzo9hW4jd0TF+nZrP47lpzp+8/PFgt4+DGSrcelXr16lGLFi0ypHjVck7pDwRDzIWrl5FzuBEit8a2bzt4Yl4XdjEDNQ/S5VG+sCB5q1M1NlC3acRs8Bq7mIF6gQ3oN0y7nLesXLnJab26zAx4I+YPLu+gV4vm0K4HOIlZPmNmMbt4u5RmHcBXMaOEDAkDTLJ0IuZh8qQqu32HjlYL4KmTR1GWrK9S1ryvU/Y8r1LuYnlkC2COMyhhsLUcuiF5Imbc1CCeO/jGB1IeMqMD9R7WTBsP6MSnkzLwRMwM3iiF58dVq1al/v37U5cuXahRo0byPxqE6Zaxr1cn5oSJIyQTZzpKj5i+OpbF4rtrPYWQi1vfWcw3bn9iLauuj/lLvqyei7maEDMvm5b+AiHmhw8fir/pq7JRYsZ1yA2/1HQPgi/mJLGOyBDzutVbtXmVt/Tonui0Xvs2jZgNXuNOzBjove+oZtrlvMXpwlUyMTveiPnx41NUK66qfH6pW5eTmHd0J/pxlVhP6MSsohOxHbuY0bJ30eKl8j+OtUFcNSsuhIlWwWocXg6tnWev6u20bh0419hflaMHDtGJw0clXTrGUO0GdalGk3pUs2l9Wrp0NO3fk2KFj0gc5rQszrdag+FKysCVmLdv364VLUAJGngyTKd9vdiWKua8NUpZYXilJE+qmL+/PVEr5idPnsjlTp8743RMjDdirtKkmqyNUMEb3fB7Q8w7d+Bm0rsJg7BMmzZNfNI/Y+Z0rnvGHXQxfwcxi5uNMIkZqHmRLq/yltlJ3ZzWad+eEbPBa3RiBnyR4X2lXYckapf1FHSNcbpwNZkZ422JGfuHzEwn50gSs8qKlLVaUUNq2A+04lVp2bAG3XuwmEo2LZlhXDB1YkeKHdlMnhd1/XZwrvn4mZ9++kkcj6PEZX/FJDh+/LgMx5SSstVpWdl9KE3M7qQMEK9xw2rpaFC3MiUvzli8GWFfb9kS+ejld9+wtq+K+dChQ2lH5CxmiDgcYu6Y2NgS88rlk+ju3WdvGPNkcpSWSSx3liZMmOBSzABV2uq47aET84qIEHPSun7aPMtTVm5a4rQ+3faMmA1e40rMgC82yK+bD3Let++000ULdBmZijdiRmItWLuIy/U6iXlneMSMZ8l2XD1jdoXTCGCacDu4SUHVM5ZBRo/vOkqXyW8dPxMIMWck5Yx4p2oxahbbxmL6pMmyVKtj2uQpTnEZ3XpVPBGzq6rsQIrZqSo7DdxA4NpGF7CY9o1p/qy+lLJxplfMnZVAiYPjaMeOHQ4xi99F95tAyqEQc8qm9REjZoBzoYK8SpeHuWN28gSndei2A4yYDV7jTsyALzp+l/Ks6fO061HBRb5w/ixrWUZ2M1EyBR3BFTMyVpEphPgZMyY0GGKCLWYA8arnXgfeXMXHz/grZv49fJWyDjVTtoNaE3uJ0xNqd6tnrQMvv+BJFTOkHE4xYxs437VrVveahg0bSrFjHaqY8YzZvj219gbXbnDFPF+sI/xi5jSl0qFVV21+ZgfPpu3L6rbB/GLFvGXLWTL4RoNOMdqLScV+EYLp40fQvJnJtGLFRtmPdO3qLbQgKb2MGU+kDEIj5tD1Y2Y5q5lfKMQM+NxDkjoGDm9hHT/jj5i//fawrF3BunX74yvBEHP1zrWtdSxZsoSaNWsmqVDo1xbF8jhTtHAeGWfkSMcNjU7MuM7fKv1WwMQMzp09LccHV6lbpRq9kPMVSafWbZ3CtqRslMvw8izm4XNHpv1yJB+nYFu4LtVW5l6LWXluL1HyjUgWM9DJmVHzNvzfmrKJurfvo42rW7cK8lhd3hvtGDH7gSdiBroL0lOcEm4GRJuYgSpl3feM8EfMqFbWhQGcaz5+xl8xV2pbQbstf3AnZoTplskItSobw3tCuGjpHRdTT/Jajj9Y8LymTRrIeGPGjJHL6cSMc571tT/Tv//7v3vEH7O/KJcrUeldyp/vDXnTADGj9mHnlrUuwbUN2bqKe+nCPnGtnpf07thaxj1zJZWGzBhmyRhyRle+gIpZIdLFzOA38xXd+uwYMRu8xlMxM7qL0xW6xJoRSFTIaG7f2kT37q5zYvfWUfR+jZIykQIkZndirpC3sBVXJ+Zu7dtZ4SVKFtOuAyDzw7YQb+WiKen2C0DMCMe+q5mVmgniP7qqqOv2BE/FjP1UG4FhSMjDR6ZZ3+UQkkp8nZgnTZ1DbTt0oQaN3qfnn39e8re//c2iXPnKMrxDTFc6eMj57VDLkydIAajbCAQ4r+p2VBCmWyYj7M/bVXyJx+R+7116V/x/r0ZBylXhHXr+rVcl+PzOe3nl55cLZZOf8R/L4Ld9Lcvz1nClOIe4hjICy7qKW6xKQdm9DQ0v85bOI/f33oN7FDuyq5Q/X5eovVHFjGVxDeO8Qsy6a33VIkeDMvu1bgdiRjwQ166dVswcjrSabh1peQ7EzOkPtGtai7ZuHJ5uv5BnYJ+8FTODc+8puuVdYcRs8BqPxWxPNGk4XayacG/hUsC7BbJQqbwvO1E2/ysisTvCAeJyQyN36wLTelemkQPr0siExuJ/DdowvgFlyfmKFa5bXoXjvZr/jXT7BSoUzJpuXcj8MMkBHYb2lZ+REdqrtjPCUzEjk+SSvY7xifHynKjxVZGD3K9mpdxZhWAE2f/+Mr0kjuevIi7AzYsajvjr1g23xoS2iz9QNKhXh7rFdNKCfdAtEy4gwHerF5TyU+fjO8+z/55oqFexaUkrHfk6kIsd7Au2yevENYhSM75jPstZFbOaZormE+lNc61nzfN6umtdh7qul8QNyYRu5Wn+tPcdaXBQbdo8o6kVrl6XOtR15Xv3Ve1+5cvj3XjkGcG/B9CFe4oRs8FrPBKzJqEEm5cLZ5NytpOziHNm4E7MKq8VeoNyF8tOJcvlogJFXqfcBcRdtSaeJ2BZrKdIyTet/dKtzz7iFzJAdTQwNa47vBHzsPhB8gX9dlI+e5hOzP7ib+vrXwp8nlyJmbGLVA3zFfs68R3/eX8gZ1c3ibim+frG9Q58TTdIz9kLvm6tq0CpHHKeLm5G8HrsZLg+Xd4WAoyYDV7jVsy6izvC8FTMgMcvzkhwnoD1ZCQkLjGjGhulZkxcSgmWmDsNHKIdS3vEjgMBFbORskN6OA8QnCtwjgDi8XLufk9VpPZ1MfZlMiIjOeuWsePrtu3wsUf0daPLC/3AiNngNVox6y7WCCWSxQwgYkhZHVTEVQnFFe4ychWIedSc+Vox91y+PmBijnQpQzxoHY59DFTJ0w5LGdvA/4xQl83o92SR6sBy+K9bzh3+ypm3rwvzBqRBdT90cTIF9jzTDUbMBq8ZkDieXsz6l4hAmwAyAJkeErkuzE44xBwIAiHmPqtdixk3CquurKFi20tYlJpeTlA+HeXnVLLgeaWDzQzvqDCnMpWYWFBSYW5lMa+Cx5RRKDmtrEvKza4owefSMypZqOfw6KOj2pswT3/PUbOn0IhZU6hBNZG5C5rUzkkdW+Sj2LYF5X/MGzFzCo3xsEGhP3IOlJiBfT90cQJC9r9q85lQE9u9vzbvjXaMmP1g0cKtVLpEUfrb8/8WVl544T/1iSsDjJifATEv2rpBK2Z3z5hRop+QOomyHMwiKXaiOD0l8gozEd3+/rZ1DgHOqa4VvqvfEy/FQBcs5k7aUJxHEsrQnthsWr576BjA5sCpc9Zy7frHOa1XxVc5B1LMICRyFnmKLq8JJchbdfnuL4HnUlJSyeA7CxdsoZde+p+w8mKWP+kTVwa0GRRDWw5upRmzhtGAuIrpmDGrIo0f21VWJcePH+Kx4NCfE7w5ZTJlP3ScXhK8vHqtRa4dWyn7ls3y85siTMZ5v6W1HMB6dOtnuIU2M6F/NYsF06tZ89HN5cz51Az3u2pMZdp0SV9izteyOeXIkkW7nCrm1+a9Tj/KrN5Mvkw/i7uUd1bm80nMs5fOt1rQp54955WYr968by3rTszAFzmj6xVejKJe3yr2a10XRwXx3ckZbTBw7tr1ak11Gxehrt3rOf1v16sI9RvcUcZxNVgP8hRdXhNKJoxL0ua5vwSMmKOAxSv2aBOXOzBIRPzkITJjun1pH22Z2Cgdty81onPbZ8g4W7Zsodod6lGp5pXlsrp1AnTBwUAFoNPDb7Wi05F32ARrOdCsblXt+pFxAnX69sv7Tvv90dHYtBDHdObMGYpL6CWXq9a2Qbp1cs1BrjY1tPuWu0urdMswyAS7b+0tZZJtXA4jZj8miDnnpLflucQ59aYqm8V8//4Nv8Qck9BdSg81ROr6VbyV808/bSO8tQyDjzDqm8ga1apDtZrVl28hq9OwLnXp2ImmTphkhQ8aMN1pWR7Qx5Wc+w3sL4/Lk3StdvdSQZ6iy2sMocGIOQrwVsw8ctOjR49k4vRUzMuWLZPLbdu3Q7te0LjWs+EavRFzgTHTrOWATszqiFPq5ImYz507J5dDBq6uk6WMqvW/1Sqr3Td3YgZ14+vR6s9mU79F3Y2Y/Zgg5oHL+shziXOqO9cZiblly7L0X//1B5/FHD9lkCVYiE/dhoo3csYAH7x+kJp61to/V6PE4fWTPG3bc8ppeXWkPd6PZZuXp607lQYMGCCX8yRd89jl9poCI+bwYsQcBYRDzMgQdPSMbSPjAH/E3Kdr83TrLlS3rBWuToEQMz67EvMr7V13z0KGNnLKCNqyeQ5t2LjIiNmPCWJO2bKczpzaRGOmD5fn1l47k5GYQZUqpX0Wc49RfeVNWiDlnE7MSoneFzHjVZycJgBK94vWLXGs24g5KjBijgJCLeZdh3fLzEfHJ3eejaHtj5gxIpZ93epbjdQpUGJ+uXgR7b5lbdLYMVShshxAtTjWee7sGapdrTgNTuhhxOzHBDGPHjWAalctLs8pzi3OsXrOPREzxLdxYwqdPHWaxjXNS8Pe+6tkSOW/OHFwxyYZR/eMWRUs5KduSwVhGck50GI+eXGuXL+KKTFHF0bMUYCvYr506RLduXOHLp7cTYsG10jHyZ01aOv8eBln8+bNTmJGqULHlAn9ZRzQ5dJ1euXqp/Tm9XuU82CqgwMnHYjP2QRZ9p+TcfKMcxYzhqu0r7t8q6pWuDoFQsxoUONqgJG45JXaVtksZgCRTJky1ojZjwlinj1nknVOga9ifr9FW0nH5vWoRuUS9OJffm9Rt1ppOd8Rp53T9lRB+SNnXK+8n/6Kec2mk07LDxzUNl3aMCXm6MKIOQrwVcxIxLlz56acObLT3//4+3S8+eLvKduL/ynjvP32214/Y16+fDmVKlWKypYtK6Q1hXLkzkElKrxL+YvmoJKVClD+PHlo0KBBjjjlylvLgYyeMSPzYbrHtqMyeV+0aFgrj1N469atLTEnrVrotE5VzOjHnDV+ZDp69B3sVsz3798VGexdU5Xt5wQxb9y0nB4/vmP9zp6KGddGzQ61qOWAZhQzrDXV7VxXfgcFaju/5IHnM816N5bLNOzWIF1cb+SMeADf1f0MtJh1b3PjGxOk6YoVK0qyvvI3bbrO89rvqXSJwjLO6NGj5XJGzJGFEXMU4IuY+44fIBu6vFU2L72aPwe9DOm88woVrFyU6rSsJylatSi9nPcVGQ5qtW0sE7A9s1RRxXxWZECLFi+lJUtXyNayXB2MDAt3+fiuxuHlgCsxb9q5VVKyYlnK/k4uixdf/yv9LcufJFmz/4neyJ3NKXzu4mR5QzF50VSZ2fI6VTGPGzaCihYtkY6BgxLcivnRozsi+7xF69YnGzH7MfEzZpxLnFOcW0/FzOC6Qrg7idph+bpqia3KmdevXkMMwgE+ZyTmLt0SqGefEdQuph+9/vrr6ahTv5UM7xs/Vr4uVF1eJ2akS8g5ccJIKl65jORv2f4iKVgyr8XLOf5Cr+X+iwyvULuSrALHcvbzbMQcXp7bvPkMGTI3i5fvdkpUGcEywn91Prqn8BtzgK4faUbgLUqQqp0WDcqnEzNkqIsLdM90/UWtcuR5qpi9ebsUYDHP+3Ce7OLz+pjsRsx+TBAzd5fCOcW5jQQxA44j42V5nrYcHJkujisxI03wG8gY6y1jRYvLN5HxW8j+ku91KV413L6st2lDndT5fO2r8xjkKbq8xhAajJijAG/E7ErKoQTbRwaqCws2nHHzd3/EjBJ84pTB1HlDOyPmAEyqmGvOqifPrb1qOVxiBrxtvPu5WfvK6cJdidkeL1IwYo5cjJijAFdiLtusiRy1a/KYHtS2+mvUpcGb1Kfl25KW72WRDOjTzHqDk7osMqtAomaUyAzCdWMQSDEzcUPR2MxUZfs7qVXZOKe6c82/VzjEDHj9um24E7M3+xMqjJgjFyPmKMAuZn7etGbrHpnh3Tu2VtuPE1xe3EfGOXr0OA2fPE4uhxaenMkEAiR+/OfMib8jQ1T3OxS4EjNeIl8hb2H5PBA8ebKXrl9bY31HFaKuxIzn3Tv3bKHhQzoZMfs5sZhxLsdPHC7PrVqVzb8V/qu/g0qwxQw4vnpNA77e8VkVM+IUql+YatQsRC26VLfihxsj5sjFiDkKsIsZGRpKeZ/c/kJmeJ6I+ezZC3T+/AWrhOhpJuUJyJg408JnwBlbIOTM+6pmkq5wJWY1DsA8dwIAkAbOFbpKTZ4wnAYN7GrE7McEMXfv2kaeS74OWcyeSBmEQsxAJ2e+xvHZXmJ+veI7sgr8z3//o7WOYPL8u69JdGFMrirvUv66zo8KGCPm8GLEHAW4EvNNP8TsTcbmCVgfZ1z4DDhj80fOyEyrd6hIRQrkoFpxVTPc72CImVmxcoERsx8TxLxuvXPr/MY9WsprxJPfA/DvqV4HJSoJAeV7w5KmHV/EDPhaYvny9Y3P9hJzASFAfO+Y2DigN70AjcG4Zge0btRU2x/fFU3ax6arFTJiDi9GzFGASzHfCa2Yc5YtQBVqv+eSKvWrU50Wdal6k1ra775SvkxpKl68GFV5r5I1r3i1cjJTbBdfT7agRSaKfQyGmNGH+cmT27RunanK9mfiqmycS/QNx7ltPyTGo98C8G+LuHz94nuZ0rlkaVX3O4OiVUvK61C9pjyBr1/8x3fdtW0P4++uQBrS7aM7IGZOt2Dq1GlaAbvizKeOkc/GJCQaMUcIRsxRgCsx33/oGHIzVGLOV6k4tWjRIiKoWrUq1evZkN7I+menTDkYYr742Wn54oU+C0xVtj8TxDwo7SUWOKc4tzjHnlyLqpTV+SgNV2xaUobxzZkKughWqVJFew2FA6Qh+z5mhF3MAwcmaAXsCiPmyMOIOQpwJWaMKrRxUwrNGdWf+pf9P8nQin90UOmPNEwwObaajDN02GivxMxCU6sHI03MGBAF+4jneryfwRCz1Y95tOku5c8EMeec9I7bfsxocMfXqB28gEKNy7j6jUGtto2MmI2YI47nNm06TYbMzaJlu5wSKlpWQ84LViymlp3aU/nq1alWnSr06mv/Q39/6Q9OYH6Zqu9RsfLlaOGq5XI5kJGY129LoN/8+ldUvYajFILp4MGD2swmHLCYsW+QMUs2kGLGOQKFepagnh/GUNNZDY2Y/Zgg5lbJ78tzWbyfvgGXOzHbh5VkdL8xBtC5de+2EbNAJ2bkKbq8xhAajJijALuYGW6Aogvzl46D6lPZMrlo+NxOVKltDdkPOrZfd21mEw5CIWYAUXQe3IXu3T1hnjH7OfEzZpzLroNj5bnVne+r1z5OW8J56jiwe7r4gH9jVfQ8yp1dzHFxcU7XUagJlJhfbj9Ikq2JoMUIeqV1L3qjQz96s/MQytZ5hITj8JCfRsyRgxFzFBAOMXNLVvxHNTH+q1XZa9eupdOnTztlOqEEYv5r/tflvgZLzFyVje5S9WoWM92l/Jwg5gULplDR/FldvvYRYv74Y+/EzNcqrlN7Kfwv+bI6iRnrnj9/vtO1FEoCIebWbdpTkaLFqW279tS8Vj16CXEKZ6M3Cr1B2d/NTouTkq04/fvHW8sZMUcORsxRQDjEzCCjYzn37N/SymAmTJgQ1gwOYt64ZTNlzZE16GIGEMmkiaONmP2YngoxDx82wDqnoFbHxvIaYwrVLUszZszQvpGpYecW2t8J6OSMQWXmzZxliRmlZVyzCQkJ6a6nUDFiZLy8RgH2GfvJ++sKiHnbphTJ+bNH6eHDD63v6AKlxuUR7jhcpUe7GCPmCMGIOQoIhZi5vzC6HnFDKgYZBzKR3bsXaDObcAAxnzlzWO5fKMSM7j2rV5t+zP5MEDNe+8hdpQB3l2Jqd6vnk5iBTs5nzhyKqGfMSEN8rCUq5aXKYp8z6p8PmeIGFCSMb0NJ6/pZ3yFiV3F1cDwj5vBixBwFhELMWM97FfPQb379/7TrRMahVmWHG4j53SrFHPslBMs3E8EQM/oxy7GyzTNmvyaIGc+Yf/rp2Wsfm/dtY5UgmTot6ksRJyYm0tKlSy0xv1464xdG2OVsr8oON4WrlZL7hX3MqP+1DlfXs7cYMYcXI+YoIBRiBq17VJfj/WKdutGLIk3MsR07WlLG/rKk1XOCMN05wjxPxbztkxRqdL42lZpcyojZjwlirjirojyXOKc4tzjH9vNepX4NKeJt27bJ5SBoT8UMVDl3jmsdWWIu5bjmkHbz1Cwg9xM3I/ZjcIURc3RgxBwFuBIzJ1J+VhUIVLnZ2bFjmTazCQdcla2TMp8PZHj4jjj248R8T8SMrmkd18aafswBmCBm7seMc4pzq2uZzWKeNm2a1yVmhuV88uTJiBLzvDlztPvrDlRX9+7YWj4jvvrhJvr228Pyc+NateVzdLw9jt+xXqdTM/lMGuF21OfRRszhxYg5CnAl5tqNi1OWLM/LDEgX7iuQHO7oVUo2LUmx/d7XZjbhAGJOmj9VZERVnKSMfcUxsJRdydcTMTN14+vR0UcbacrykUbMfkwQ8+x1E+W5xDnVnWvAYrbjSsy4MctfNT/de7DY6SasaINiNGJY/4gSc7Fizo21PAHPhtHoCzUM4MCBQ/J8qjctOu7cvUdPnjyxloOceZ1GzOHluY0bT5Ehc7Nw6U6nhArQyKNC/UKUVYg5dmSzdOHBINKqstXuUt5IGXgiZpTmUKpbsDyJkuYMpbVr5xsx+zHxM2acy7FThstzq6vKbt2pvVY0JepXThcX4LesWM7xdid8VsMi7RmzL92l7GJetXqdPJ8ZiRmTKzEjT9HlNYbQYMQcBejEjFJi1ZjKTkIKFKgGtFO2ZRnq2qu5NrMJBxAzukthf1nEOCcoPbmSLqoEUf0HPrmzgQ4cnGt9B2qrVQBpIENDV6n4vrEUHx9nxOzHBDGPGR1PtasWD2g/ZoCXmXSJayh/e5Sa8fuDrZtXRZSYl60aItMt758noCU2ukixYI2YMz9GzFGATswAItLN9xWrpPlefpm52VmyYoo2swkHEPPmjZuc9hvnAzcR+KxrvIZnb6mnHS9P0JEjSxan+CxmZuIEU5XtzwQx21/7qOvH7IuYAZbHb68Sad2lkIbs+5gR6B5lxBxdGDFHAa7EHGiQCaA6MEful6SI7eGR3F0K+47PwRAz+t0+fnzHVGX7OUHMGzetkOfS/tpHBv2Yx46bRJWq1EyHq7Gy3fFLrsp294zZiDm8GDFHAaESc4E6BalW7cL0Uva/a8MLliumzWzCAcSM7lJcnQ8hYx9Z0ixmVPPjMyhfsZBPYsYrCm9/f8KI2c+JG3/hXLrqx1y+VVWn30TFWzGjHUbHzh0jSsx1mlWzrkd3qMdhF3PffoPkCGYDBgyghg0bugRxDh06bC1nxBw5GDFHAaESM0qcupIyQKa5detabWYTDiBmdIWBhF01+kIGh+8MRjXbtvMAffvtt058k4YrMfNrH7OOymbE7MckvEy5/Hjtoy8l5kjrLoUuh+o1qQNpkG80gV3MO3fuol27dlGfuO6UPW8ueq3oW1SqbiUJPr+VM4cMB2fPnrOWM2KOHIyYo4BQiVkFkubPLLxug1ppM5twADH37l7P2k93UkYmB1p3qEZ7Dhx3WMI2ffrpZ+nEDElAHLXH1KPiJ4oYMfs5QcwVZ1WS57JAYvF0UuZzzq8mtaOL7w6UmLP//aWIEjO6HPL16Aq7nCFmSHV8YrwT79d8Tx4j3vzG/ZgRH9cxwpcnT5B9nvfvWmDF53NjxBxejJijgFCLGbJDFTHexYzxs5FRoFQaqc+Y3UlZrRbEM+YlyxyjSdknnZiZuKGxIsYt2rBxkRGzHxPEvGXLcvH3ljynunMdaPJULpbpnjHjmlblDPnq0C0LOBz9uOv1rEFvVc6bLr4Rc3gxYo4CwlFiRsaAhmA533rZqiouna+QNrMJBxAzRv5CYyFPpAymzIuj1NQjcohHO+3atXdZlb1rxxb52kcjZv8mFnNsh7ouu0sFEpS+1bdLRQLoLgXhugNitstZd3wZwWlBt7wRc3h5bsOGk2TI3CxYsiNdwgomyBTQEKx+3eKyxMyCK1mosDazCQcQM7pLqRmXOymjVI1uJ2tWjte2YO3fv78sUavLsJghEch5+vSxRsx+TBDz8OEDaNmSJOu5Z7DFvHnDxkwlZpYx9t9fObsTM/IUXV5jCA1GzFFAsMXMLZs5QwDIFNQ4INKqsnnkL5CRlDEfr9d7tXAurZhbt2jptAxgMTOrVi82YvZjgpg3bXLuxxxMMYPM1l0KElXTordyrpC3sHweDfgZM/7je9NqteTY2ohnxBxejJijgGCLuWipXPSbX/+KYuOqS6m5Al09dJlNOODGXxjDmzMznZTxXc3oXIm5RRvXYsZrH/GqQlOV7d8EMaMqG+cS5zSYYsbvjmesjRqVjbjGX3g0pGLfd1/ljOfIELB646OycPZc6/3NRszhxYg5Cgi2mPOUyE5ZX3ue3q7seI2kKyK1uxRjlzLgTI7DsubPqRVz81bpX8LPYsYrCid+MoT6LepuxOzHBDG3Sm4hzyX6huPceiJmyKtQk+Lyd/Sk1Ij4fE1khu5SumPKSM74bufVojksMSdcvEadHn7rRPMd+42YIwQj5igg2GIGnEHoEjyDd8nqMptwADF37dHMbckDcAYHMeMZcsNadeSISXamTJykbfx19uIxSr42Xfa9zTYuJ/0Au5jJpwmnLtdkRz/mxIPD5LnFc2D1nOvA75fl1ee1L6mwA3EhDh5fFKhdmOrUqRlRYq7XtpbTNYv9RTuOLnHVLQkzruTsCrTAllXXy5dT9kPnKMuX5MRbu44aMUcIRsxRQKDFLJ8pV3yX3hHoSpmuiMTuUk77V78ovfjKXyh3zQLWPLuYFy/d6rCEbXLXXerF2DeMmAMwqWLGOdWdax34DfGb/vnFP8rfUhcH1G9amnK89ZIUFM+L9O5SOJ5sWV9wedOhkzOuc9x42KnUtoLss9y/fzy9e+RMOjG/asQcMRgxRwGBFjMS+u9ERlBZJHokeCR0T0hOmqbNbMIBxMwvsVCP6ze//n/0+9/91srk7GL2th8zXjxff34TI+YATKqYcU5xbu3n2x2QEn5Pe8kS4DfGGO92wUVaVXbnTs9G32LwZqyCxXJojwvY5ewKfsY8fsIkymbEHNEYMUcBgRQzMjceE/utSu/IxK67+7aDu/ERI+O1mU04gJi3pqy2jgvVgigpoWSFqkGu2raLedf2ndSybSdq1a4ztW4fS+0E7Tt0oRq1GmrFjFGVJqROMmIOwKSKGecU59Z+vjPClZzldV23sPytcb1iHqrJI+21j/Vq13bab0/xRM4QM1peY/jO3EbMEY0RcxQQ6BIzMjH8Z3l5SqR2l4J0kWmhVG/fZ7uY+SUW3WJa0N/+9iJ1jOksvwMj5uBOgRAzcFdythMNb5diVDlzGrYD8WZ/8zXKfehYOjG/tO+YFc+IObw8t379CTJkbpIXb3dKfIEEwvKU+o2qajObcAAx4+1S6C7lSsrAlZhPnz5hCdmIOTRToMQMVDnjsw40/ho+aHBEiRnjzWO/Gd2xuQO1Abie3d1Uv1Y4m1bMfz/kGEsbIE/R5TWG0GDEHAUEQ8zI0CAzJHJPQVcPXWYTDiBm7i7lSsrAlZh1GDEHd/JVzJCseq2qJUaWsysi7Rnz7t0LrOPgY7EfrzsgZCyXkZjfOnzSiDmCMWKOAgIt5gZK61UkcLWU4Y5Iex9z/frvyf3SHSPjjZhXbRiYbnkj5sBNGYlZFVZGQGgZ/fZ45hpp3aUKVytl1UDxtemNnD0R88uCtzTPmI2YIwcj5iggkGJGJvDXv/6XHOkLCVwXxxWR9oy5VtvG2v1UUcWM529lCxZxCcbSRnx1eSPmwE3uxJxR7Q3epY0W16BBm/Jynvo7uaJW20YR+4wZNxa43vAilm37dtD46ZPp1r3bFh9+kEqLhtWRpCyoI+fdeyBuIgX4vH3/7nQDtJQoWYxKFS1Kb2j6Mefad8waktOIObwYMUcBgRQzMoP8tQvKjI1br3qCvFOvXVab2YQDX8SsC1fBTYsRc/AmV2L25JFK1YolqMjbWelv//07qljuHWu++lvpiGQxA6THel2ayRqbNWvWOE5U2vTw1iXaMrGR5NiqRmlzn00PHz50EjN3l8IAIzkzGGDEiDm8GDFHAYEUsy9A4JDWu1ULUf78+SOCXLlyeSRmrvozYg7/pBOzp+0chk7pL9dx48Z1a576O7kCYs6ZU9yMaq6hcJCz7LPBbxjINZBixgAjeQePoOzT5jvxVo8BRswRghFzFBBOMbOU+XuHzh2pcrX3LP7yP/9HzZo1E6WB+vQ/Lz4vPwN8rlC2nPyM/67CsLw9jD8jjNfPYeq281Ut6bSvOlAiQSaOY8hIzkbMwZ3sYk5al2xJ1lvUa9Id6C6lXjMv5XyZKlco4fL6Uj9zmLvrVxeGtIDPWF7d9rBhw6hA7bLp9tEfMbeOby/PBSjaoLgckhMDjNSoWTsdfeK6GzFHCEbMUUC4xAxJcQYIqSFDtMcpXLEEXbqwj+o1qisH0d93YDXde7BYPssqVamUyDw+pC692sm7+WPHJ9DaNfFyuXotasiwYlUKym4tCFuyaoyM16hNbRmGdWCQiDEJidSgXh2n7eoyOFd4KmeEGzEHb1LFPPXiVJdixs0gfjMVe6ts9TfyBlxfXbp0pm2bUuT1hesXA3Lg+kLYrkOL6NSZyTKsaNni6a7fjRsTZFihumVlWOVGpeT1O3ViR+oW00luA9fvo0fnZTz79nUESsx4rSnEjHXpUN8uZcQcXoyYo4BwiRkZJLf+jB3ZjHJne4mad61mZQSARceZJzIHzOPviMPhaqbKosd8fEdcfubNfZPxOVCo23clZ4TZxYxhI5+JOYcRsx+TKuYB++OpXs+G8jdR4WsgmECyuvkAI9zhWsRnvmb4esF8NYxvXO3XDD8+Uee5wx8xY1leD47L09c+GjGHl+fWrTtOhszN/AgQMzIatIj90x//W2ZEnClxhgpYesi03EkZuBMz5iEu4G35A29T3Q+dnHl79vmFepagRudrU9mpZYyY/Zhw6irOqiTPZbsFba3rhgmFlN3B16QrMeP64H3FdYJw7DO6HWIewhHPWzGjVihh4ghq2qIZvd+6BbVu31pSq0ZZeiv3C5L8eV+WYSod+sY5vZ3LGzEjT9HlNYbQYMQcBYRbzMiA5BupRGaTt34RK6PCfIQzmI95GUkZcCaIcHxXxQwwH8v4A9bPmay6Xt4fu4R181AiGT59uFDKLdqwcZERsx8TTt2WrSvo3t0TlDi1P7UfEiO7CuH3CLeUQY2OFWX//n5jHO/m5mtFvd57DWhAr2V5Xs7neX958Y/ypvVvf/6jnOetmFWwPlyDfI3q4rgCYi5bIp/F+i2D6cyV6dZ3DKDD1etGzOHFiDkKiIQSMzIM/OdMSgVhmA88kTKwi7nNoAbUtlttypojq0u4ChKZiy5cBXGw/3YxA94vuwzsYoaUUdI4d/YM1atZjGbNGmPE7MfEYq75XjF5TnFuIWf8Fjr42ggV+fO+IQVb5/1n0sV+qNdEyVoFZRzM53l4O1T210XJttI78rs/YgbYrq9yVsG172o/jJjDixFzFBAJYtbBCV/FEykDu5gPn54oR+VyB0buQlwewcsdiGMXM0SLKsNh08bQ5EVTafz8SfJ7u/5xMtyVmFnOU6aMNWL2Y8KpmzVrinVOdWJGCZqp3rk2tenXjQaMG03vv1+GGlTLrqVrn/YyTs0OjWXVrlq96ym4DvPULOB0zbIg+brAd645st/UYR7ftPorZsDbVvfHW4yYIxcj5iggUsXcsJnIjLI8T2+JDA0ZCcB8/M8oQ+FMh5eZPPXZs7HJkydTSspaJ5LmTqO5ydMl+GwPBxMmTLDWoRNzx4Hd6f79++nYtHOrDHcn5vv379LadaYq258Jp27T5hXWOQV2McdPGeQUfvTYCbns5cV9aE9sNi33jq2Vcb549MhabvbS+dbv6Cl8Ldrn2eVsj2MnEGIGvG2syxc5GzFHLkbMUUCkirlC/ULpqvWQmdgzEghOBSMdIUNWSx14/nX8+HHauHGjzGR9mX766S7NmzdPZsw6Ma8Q8tZN0+bNkuGuxPzw4V0Ryzxj9nfCqUNV9k8/3ZLnFOc2ksTsCrucdXFUcN0t27xc7gM4fPyYHEJz9Pix1C6mg5a9B/fJOMmrl8hlUJODdalyRg0Crkl04VOp27iIRb/BHa35s1fNo+FzR8pl7PtoxBxejJijgEgUMzIMe7WeKymrGa2KWuUIMe/YsYOuXj0luEqJiYkys/Vu+p6mTRsu1x1IMW/7JEW2JC5jWmX7PXGrbJxTnNtAivneZ8ERM/BUzpwueD9Sz56jkydPy/2bNm0adevWTQuueUzoAoXluBaH14lt7jq8mxYsWCDjqdPepFjZpWpvUiO6fWl12lzH9OTJE6d1MUbM4cWIOQqI1BIzMgz1s13KAHLTVR8j83ElZmROvk3f0+SJ8XTq1KmAiBn7h5JLx7Wxph9zgCbux1xzVj15bos1qmA1HARxw3pZUgPeiPluEMUMPJEzpJyn8Bv0yssvOto7aMTMN52oIfJEzADbxosujJijAyPmKCCSxQzxIaPSSRmgQY5uOn78pEsx+z65F3Pystly0AY7YycOleGuMty68fVo9Wezqd+i7kbMfk6DlveV5xLn1H6eARrisVyBV2L+NLhiBhnJGekAXa7Q9gL74UrMEPG2bds8FjMwYo4enlu79hgZMjdJi7alS1ihAGIDujDwbvWCsnTQoXMVmSHp4kDMyGzs4AX2oRbz+LEV6aOjjdIR272gDLdnttg/ZGo792yhLZvn0IYN5hmzvxOeMeNc7tmfIs8talT4fAO7mNet2yjFNq17PRpS+S9ati+aKOOcPHPFWi5YYgbu5IywAnULW/sRiKpsJpBiRp6iy2sMocGIOQoIl5i5ROxKzpDxv/zzP1EWZcAFOyXqV9ZmRDNmzAi5mAfEVZQZmJ0GtR2Zqz2jhTSQSaKrVHzfWBqc0MOI2c9p7JiBNHnCcKsfc0ZiXrRoKY0dN4mGDepHQ/p1p7+/9n+S3AVeodKls9Eff///KGuW1+mNbLno/IUT1nLBFDPIqOTM+wExz549j1JStlBMTAw1bNhQy+LFS2ScCxcuyuWMmKMbI+YoIFxiBu7kzN1C6nR6z+rDaceVmAcOGZRpxMzIfsw/p23KTD5N6zesdDqndjEDvq5U1N8RYF6h3G9QmdK5ZLVxllcdN4dAjRdM3Mn59Lkzki07ttP4yRMtshfL40TpWpWssEnTp1jL6W4sFq1bIsV84sQJJ4bH1aD4lkVpdPeitGjuQKewIyeOUNKqhenWZcQcXoyYo4BwihlkVHJ2x+ul80gR47kanqlxdV6V+jWc4gVSzCkbN2nFPGxgEzq2KjEdLVpUkuGuxIw+zI8e3XFUZRsx+zWhH/Pjx3cCIuaKbWuIa+owzZq1jipUd7z4BKjxgk1GJWdvwL67a9MB/l74TXqnSgHKV6MwvVwwh+SFd16x4HnM3wu9qV2PEXN4MWKOAsItZuCrnFnMEDImbvBiFzOG0CxTtlRAxPzqm44xge1i9rW71JXLp+X4zkbM/k9JSZPkucSNjq9iZhna4wBXNTfBJFByxv5nJGaA7QBdmKcYMYcXI+YoIBLEDFjOnDF4QtlWFa0SM+SM//he5/16VhyWfdEaZQMi5gLVHVXkgRLzvA/nPesuZcTs15Rrch55LnFO/Skx41rEfzVOOKTMBELOOAYj5l8GRsxRQKSIGSAD8gYuMdup3qS2FQeZLiTaI6FfQMTcZVAvua/+ihnPwMGLsW8YMQdoYjEXSCzu1MZARSdm/DZ28eLaUb+HG+wPyxmj2+GmA/BIXOXrVXUJwpPWJVvLuTo3wIg582PEHAVEkpi9BY2/UEq2g8ZfHIflPHgC+ncGpsTMmbtaAuk5uB+tX78+HW1j20uJI769tIMMMm5orFj3LVOVHYAJ3aVwLkfNGu6VmIFOzuGG97Vg7SLWjSbkitoAsHDRUseBiwnXve4mFfDEg++4a1VuxJz5eW7NmqNkyNzMW5i+u0NmwdUAI/Z+zK8WzUGtOjcOiJgbta8iX16vShkUqVKamjRpInktSxYqWbKE/Px+hxbyxsBeXcpV2RcvnKbhQzoJMS80YvZzgphxLl11lwKQm13KjL9yxm+M9VRuXS4gkse6fvPrX1GO3C9ZsuTrxpWY8R+jfqn9mnkKlZiRp+jyGkNoMGKOAiJNzChVqpmlO2KGxdLdu/fSoRtgZNzIUQER86VL26jngEZO+wzsfWQZXT9PUKtjYysORDJ9+hgjZj+noUP60q4dW6zzqhMzCJacsTxevFK5qqPKWRfHGzCYCLpsYaAdvrHLSMzcEHLp0qVGzL9QjJijgEgSM1fdQc74nBElG1aSA0T06j3AiSVLV6QTc6D7Mav7DbwRM8TQe2x3p3irVpmqbH+nNWuXOp1TV2IGgZYz1penRgF6J08WqtC0pDaOt/A+qrUtnpSY+bMR8y8TI+YoIFLEDNEiE8J/XbgONZOyE2oxY3vYHzvqfqi8mOV5WU2ZmBBHT57cNlXZAZg2bV4izyX6huMawPnXnXsm0HJGfCyL9erCfQH7obZNwDHxNR6pz5iNmMOLEXMUEAli9kXKQM2k7IRazN7Sum9tatmiDM1ZN+XZSyyMmP2aBizpKc/lxc9Oy2sgIzGDQMo51GLevn0nDRw40CJP8QJOVKld3QqbNGmytZwRc3RjxBwFhFvMvkoZQL54vZ+OSBczMli88D52U1dHd6mxpruUv9ObE3LLc4lziqEiXdVW2HEnZxW7JO2EQsw4JqZ659pUvlVVl8eJ+Qiv3a0elWpe2VpOF5cxYs78GDFHAeEQM2eE6AaC/75I2RueiflwWhbu/XTy5BEa2DcmYGJmCvUsQT0/jKFmcxobMfs5tUhqKs8lzqnuXLvDlZyrd6hI1Srmoxo1C8nW+O6kFQoxexoGuJueN+nLiDnzY8QcBSARFahdlup0auY3Lfq1p9iRXalS48rUIK6FNo6DurK16b/94V+pRrtamnDPwb7rMgcVFvPSpTPpzt3r2pbcGXH61Brq0rkDXTyfGhAxo+SCkn3y6qS0ITnNM2Z/p80py+S5XLwqKV2tiSfo5Fyx3Dv021//SlK9hkN0umVBoMSspseOibEyXanXvCdhnBZdhbsC6wS6ME/Avhsxhxcj5igAiShuaF+6de82HT593C/OXEmV3UWyvPqK/KyLA85cOUz/+8d/k2I+cf6UNo6nYMpIzhAzulCNGDGCevdoT4MHxnjF7BkDqGG9mrIrCp7RBaoqG+tCV6mEAZ0pYZB5xuzvtCB5MtWuWtxtP+aMsMu5WeP2NHPmWhqc0JDy5X0j6GLGtYyJr2+kI1dpxFUY5rtLf+7wZ1nkIchLjJjDy3OrVx8hQ+Zm7oIt1rB+uozCGwrWLUT16hWhQuXdN5jhzO+diu/KzEwXx1OQGXgiZm74gpLzsGHD0lG8WFEqVK64/G8PGzNqBK1du9ZaRyDFzEyebF776O80Y8Ykp3Pqi5iBKuf3OtaiGZNn0/LV06x5umVAoMSMa5q/e1qVLQc3qfQu5auaX+6DL4+HuOrbPhiOp3A+gjxFl9cYQoMRcxQQSDFzhhbsZ8Yq3opZR+rp05ZsM4oLAi1mdO8xVdn+Txs2LrO6SgFfxQxYUnbc3UiGU8zYrj+Dm/Dx+rIsY8QcGRgxRwGBFDNA4o40MWfNkZXKlsjnEsgYr3JE3Cxvva6No4I49m14C4v54cO7QikYK9uI2d8Jz5h/+umW29c+eoIvjaZAuMSM7WFwEzRQe8uPkrI/UgZGzJGBEXMUEAwxI6HrwoKBJ2KORFjM2z5JoUbna1OZqWWMmP2cKsysIM8lzqmvYvZVyiCcJWZftxkoKQMj5sjAiDkKCKSYkTkgobvLTAJNZhUzWgxDHHhFoenHHJgp58S3rNc+hlrKIJxi9oVAShkYMUcGRsxRQKBLzMiUkFmESs6hEDPGwWaWblwlW6DOmtSXhjTJbjGsWQ7Bm5Ltq6fJOP3GDHdaVrfuuvH16OijjTRt5WgjZj+nWWsnyHOJc6o71+7wV8ogGGJGQyykJd06/UljgZYyMGKODIyYo4BAixmEUs6hEPPpc47uN+Dbb7+VEri+ZQrtic2m5d6xtTLO8dOXrOUARmFChgjwGevFax+T5gw1z5gDMKWkLJPncunyJHluPS01B0LKIBhixrpcydnX9BUMKQMj5sjAiDkKCIaYgV3OBWoXlvOJNkrs8X0lksV8+NhZJzFjaERkiKD9kBg5D31uly1JMv2YAzCNGtmfJk8Ybp1vT8QcKCmDYIgZuJKzJ2JW0xvSYLCkDIyYIwMj5iggWGIGLOdacVXpzq1kK5Ngbt1bQHU6VdEu6ymhEPO5S+eszN47MadaywGdmJnlyxcbMfs5rVu33OmcZiTmQEoZBEvMQCdnV2JGmrKnNXDvweIMhxX1ByPmyOC5VasOkyFzMyc5JWhiBkUbFHOS8n/9/l8pe9YXKG+OLPK7v3K2i3lFylr5fBf/eT6Ojedj2ED8Z9TjRnx8t4ve1xLzoaMZixn9bh8/vmOqsgMwzZk1QZ5LT177GGgpA6wrWGIGLGeA7zoxq1KuWjGfTGuVyr1jzYOcufYq0HA+gjxFl9cYQoMRcxQQbDEDzhR+95tfyUEQMO4w3kWMcYgxH3LWLecJdjHzdxYw/nNGZ4/HnxkMJ4hlAiXmg0eeLQd0YsYrCm9/f4LWGzH7PaHxF85lRv2YgyFlSBPrVEu0vuBOzAD77k7MnNZatixDWV593pHe0uAwNX4gMWKODIyYo4Bgi5kzg5xv/pX++Xe/ogb1W1nbTkk56HdmoRMzBIsSMo4JYfaSMcdTvzN2MSMTVKuy9+7dT2PGTqUeTWtQ/bf/oKVTs9oyzuykZdZyAK/eQ0YKGvdoKYU/78N5prtUgKack96W5zLx4DCXjb+CLWVduDcESsyDB0+VaWz69NUyzUHMv//db61wdZlAwfmIEXN4MWKOAkIl5ndyv0AVy7+Xbvv+ZhQ6MeNY1MwN4fZ5rjI/u5iR4Y6fM4xyZ3+JKpcrSpOSplC/kQOpS984GjxmCFV7vza9kC+LpHD9wjR24kiqWDEv/emPz1POnDlp+dok+d5lvJxe97YjvKKw+IkiRswBmCrMrCjP5YuxjlHc7ES6lEGgxGxPZ2VKV5YlaH/Tmzs4HzFiDi9GzFFAqMT80p/+g2bOWOO07WCVmPGdS82u4mYkZoAMF7yR9c9W9TvP02XuHPa73zpqBuoLeJ49LkDf5kXrksTx3zJV2QGY0F0K5xLnFOdWvRHKDFIGuO4CIeZ9+/Y5pTWUoHNne8kKV5cJFEbMkYERcxQQbDEDZAS3bs6jxCGO6jUAKd+/v9XvTMIuZrXRFz6rjb3UY7RLW52P5SF2vM8WGW+VSm/R4ISpslqQRetKzGj12rtfO3mM8xamiO2/Zy2jonaXqlezmBFzACaIOXFQ53SvfcwsUgb+ihkgTV28mCTTGKe3TjH95fxgSRkYMUcGRsxRQCjEDJAhfPPNZitzYA6fnqiN7yl2MQcaZL7D53aiGZNm06wFC6hk64aUv25hylo6Fz3/7mtOYF7xlg2paueOcrl87zlewadD7S4FkZjXPvo/zZw52TqnoFbHxplKysBfMaPF9bSlPcTZcE5nJw6Pl//VuIHGiDkyMGKOAkIlZmDPLHRxvCWYYkYGnLRqoWz8Be5//rXYb89aZK/asNFaDkDErsQMVq5aZMTs57Rxo3M/Zj7nmUXKIBAlZvtgPoFMb+4wYo4MjJijgFCKORgEu8S8aedWK6N/8NBzMe/bf1QrCbuY8dpHvKrQVGX7P6EqG+cS5xTntl6XZlKkut/VF4ItZRAIMYNg9VV2hxFzZPDcypWHyJC5mTN/sxGzG4ItZryicOInQ6jfwm5GzH5O7Ra1lucSfcNxbjMa+csbQiFlECgxhwNLzCJP0eU1htBgxBwFGDG7RxXzF4++kQLwRczot4whG5lCdctSwsQR1HFtrOx7+4bpLuX39Pa0fPJc1pxVT55bXfc0XwiVlIERs8FfjJijACNm9wRKzK5Kb3hFIUp5zeY0MmL2cxqyaoA8l+gbrjvXvhBKKQMjZoO/GDFHAU5iLiwSWCbj1l0h5lpCzJqwQKCK+etvHMNx3ju2ko4klLCRX8Ji3rX7oLOY2wgxK+vNW72UXPeFy6fp3l0zJGcgpu07VstzuWd/ijy39nPuLS+VUKSsCQ8GuJZxTevCwDu10sQsPksxVxVitsVhsO/AXZxAYsQcGRgxRwFGzO5Rxbxp02Zq2Kg5Na5fnzo2r0f5875Of3/xDxaYF9OujYwzduxEt2LGd8xHV6lpk4eZ1z4GYJo4frB87aPVj9kPMYdDyiBQYsa+Y0AcDIyDz7o4gcaIOTIwYo4CjJjdU6hOWarcvoZ8AYUdPCu2x3WFGg+wmJlZs6bQh9eupynGTN5Od++KG6fNa5zOqa9iDpeUQaDEjPm5axagYiUdr6IMxbEYMUcGRsxRgBFzxiBj04HMDn1kfQGNwVggeE3h3bunKV/+EvT4R9Lzg4IuPBCkrf9r8dkVTvuh4SvwRMTNgMeu+F4s7wPv5i1Kt26dsbpK+SrmcEoZBErMKqE6JiPmyMCIOQowYs4YiFQVciDg7lJ4RSHGdwaQc1y3blS8ZCX3lHBNsXRU1FO8AhUNAup+lihV2St06/OEIYkD5bnj82i99tEm5rjEviJcxBDXTJ2YZk5hINxSBsEQMwjFsRkxRwZGzFGAEbNncMYWKNR+zHgjEpN9XE56q0F+j0Ap0R/eKV9Iu95AgHXrtukNnu5f+URxQ6CcQ7xKUydmdbLLLxKkDIIlZhDsYzRijgyeW7HiIBkyN7OTNhkxe0ig5QzyDs8v+94aAser3d6Uv5X62+EawTXOkxoWKVIGwRQzCOaxcj6CPEWX1xhCgxFzFGDE7B2BrNau17MhvTermlYuBt8pPLyU9prQzUMDPvwWkSBlEGwxg2DJ2Yg5MjBijgKMmL2H5YwM0h86JsbS6s9Wa+Vi8J0JqZPk82Tdb8fg/DtujmpEjJRBKMQMWM5Yny7cF4yYIwMj5ijAiDl84JyPXjmO/qXSvxgCCM5pRtczpIR+vm+/k0UbHi5CJWbg7/J2OB8xYg4vRsxRgBFz+MA5P3z6OK3YvNZizfYNtOXgVtq4Z7PTfID5wD7fjifxsH7G0/UGC2xbd7y+gmsC/3XnnClQtzC1aPE+ZX8vrzY8XBgxG/zFiDkKCJWYD5+eSPb3w966u0BkRIW18T0lGGIOVWMg7Defe5C0LlmizgPTls6W8/HfHqbC8SYtmKENZzieu7BQM3vVPO3++IquO5QK/8a6sHASCDEjTdnTGqc3NZ4Rc3RixBwFhELMqpTz5shCubO95JRZ+CNnu5hxHCgt4T/Px/NGLk0hw+bPQH0WyaKcu2wutWxRhjp0rhJ0OTPIcCEKPL9W53PjJM6MXcHxPHlmyM/I7fN5H3DM4SCQksis+Ctmu5SrVsxH//fv/+GU3jhuoM855yNGzOHFiDkKCIWYkSEsW9yDfvsbx9i9WV59nkqXzkWDExqmyyy8xS5mfId8cTyoJuaMDv8ZhHM8dVn+jqrVf/ndP9HIsS21AssI3oa6bneEUsrAnZgz2pYn4NgzOn4+RwClVwgikuWM/cU15elv6itYvz9iZgEvSI6T6YzHy34ty/O0d+9wGcZxjZijEyPmKMCVmGVGXzGP3wmXM4q3c/yd/vl3v6L69Vpa2968eb8VrlvWE1yJmUvJnNHZj89d5ofq3OFzR1KdTu9J6eniuAM3BJjs29QRaikDVczt+sXR6bNnJOcunZP7jWlj3zK0sl02LTyt37zBWhbvP+b18/HjP8+zg9+GJ3yPZDnjd+QJ15YuTqAIlJinTl0l0xj+I81B0NmzvmCFu1reHzgfMWIOL88tX36ADJmbWfM2WgmKExgy7X8REv23//xXmXjVxOctnBG8nesFatSwZbrtqxmFL+jEjExfzdwQbp/nKvPDeXAnFE/wVMzhkDJQxQyhYpQshqcjCWW075sGPB0/ftxaThWzOvQlz7ODMEzqo4RIkzN+P/uUWcRsT2elSlWSJWg1vQVLzMhT7Ns3hA4j5ijALmZkjrXiqlKDBkWpa986GcohIzgjePFP/0FDBk9Jt301o/AFZGJ2MeM7l5jVuBAmx9VlfjgH9mV8wRMxh0vKIJBivn//Rjox4xzzpBMZ5vGk/nYgkuSMawTgd+Qps4p50KDJVLHcO1a4q+X9gfMRI+bwYsQcBehKzMgckWjVROcPyAhu3ZxHycnLnbatZhK+wiLm7yxfwMeFeYwajz8zkDLHw2ed3D0By2NSz6lKOKUMAiXmX//T/6PmzSqnEzPgc6A7f5jnKgxEipxVCfMU6WIGnK7UtDZ61ETau3eYnM/xjJijEyPmKEAn5kCCVqJj53a2MouuHWKobbNn3/1p+AXsYo4EMhIzpGjPEEMlZeBKzCj98uSJmBMSBlHyPMcLI+xidledjXmY1GpsO5FWrc1TpIsZ6Q1pitPXxFFDqFOLrtZ39JDguEbM0YkRcxQQbDEDZBbIADhzYPyVMsisYlZLy6GUMghkVTYvZxczfhOeVJnhM08Z/W6RJGeeMkOJ2S5nxn59GTFHJ0bMUUAoxAyQWejm+0tmFzMyegywUTWmthWOkqRdZj1GDpDLobW4vaRp3w6+o5oYYFmcHzUOto1t4rNdzO279Kb6TXtQ9QqlqGrpQvTX539v8W6uV+W89rG9qX2n3qKEfd+lmIGuOlutxuYbhCEzhsn9YxAPx4jPGCwF4apEMJ+PD8dmPz7+jnB1Pi+rXi84P+q5dgVPruJivZ6sJyOwb/6KGbyYP5t2vooRc3RixBwFhErMwSKzixnyuPfgnlNcu1AgqTNXUmWmzOtWJYCJPyMcYHksx5JXM3tsGxPOW97qpeR7i0HzPm2odXx76zvCeBlgjwtcxQXYLiZ12/iMCfuF8/Drf/oVDU5oJfeZ9xfxcA54Hv7j+CGSE+dPye9YN8JwDOrx8Tb5+PGfwxAXk7o/CMe2+LsreML61fnqOnnf/QHrU/fPjqdi9gQj5ujEiDkKMGIOPBAHJlfnVBUzJpSC1cyYxYwMmEvJEBLCsG6Eq/Ex4T9LjOczqrhQPYx1YrKfNzXTzwjEQ3xdGMPSwoR9YGliQjj2o17dFjSgb7d050q9OcFx4eYFEoGg7SJVjw9h9nCcE6yLpcffEYb/9vg6eNKJGf+xTiNmI+ZIwIg5CjBiDjzIpDG5OqcsZmTkkEKtuHpSPJzpYx6WbdCsNP3bH/6VJswcbgmXBaAKCJO6HD6rsLiwLMQGMNnPW6DFDLBPmHh/+TPCIAWcC4y0hn3jOLwc5uF4sO84ZtxUoEqf18H7r4qZ4+Izw+tl6fF/LIf18zbdwZNdzAz/Lrowb+B904UBI2ZDRjy3bNl+MmRuZs7dYCUoXWKLdDij1YWFC2TSmFydUxYz4gG8wEEtCeI/lu0xoC7VFSVKlJgRD2EsABwzPkMUmDhMt02OEzuyq3wHNH+3nzdvxIxMHejCVHhb+J0AJpYbN2bjN1thPu8TvuN48F8VFeRctkVV+Ywc87EM4Dg8j+MDrAOo0sM55POFMDW+Dp7s62b4d9GFeYO6jzoyg5iRp+jyGkNoMGKOAoyYAw8yaUwsFhWcZxYzJnyHZPDaQ86QMQ9V11VjKsu4vCyvmwXAQsKE75ivOx8N4lrIErkqUkz2eK7E/K6I90rpsvT8u69Z/K3AG5S/bmHKUyO//P5KqbIynn1ZFo06cRi2hePDsduvPz5X/JmPH3BrbdzMoHGYKmbEwzniuLx9xOHPHIZ4+K6u2xU8GTG7Br8XMGIOL0bMUYARc+BBJu1qQhhkFD95iCUEziARpgoEMkUcTCwEuwA4HJ+xHH5Hlg3iQlwoKWNdvAzAZD9vaqY/e8l82rRzq4QnT7pQTU+abS3H68U+8cTHzFLGf8zDPmN/Idsa7So5yRr7iQnnAHEQH++txoQagDaDYiyZ8bnjc4CJt8lh+Kyul8PdwRP/Dvivrsv+u/iKfR/tGDEbMsKIOQowYg48yKBdgQwdQmrSs7W135xB4jvPw39eRl03llePF59ZFuo8LIeSMraFZ9jqMgDbr96hogxHZo95aqaPF1NwVyievOnbjOV5W/ZjUaXM4TgG3ED806/+n3yuXq9nQ6d9xmcG60F8LjkjbqW2NZziIhzxdOvg767m6VD3H9iXs/8uvoJ1RJqY8chBN9+OEXNkYMQcBRgxhx5IiVtlg0CXXAC3vsa6deEIy5rF8VpAfMa8YIlZxS5llby1CtCc+dNo2LhO2nAdLOdgnMNwEElixo1b9RqFqHLrch7J2Yg5MjBijgKMmENPsMWckZSZd+uVoB79ulvxgi1md1IG2G/si6dSZqJJzpEk5ti46vLGrUGb8tpwO0bMkYERcxRgxBx6gilmT6WsI5hizkjK/hIMOaOUWKBafrr3YLFP59MXIkXMOJ8V2lT36loyYo4MjJijACPm0BMsMbuTMsLU/zoyEvOZyTWEnPNpyJ8WQy9mHGswpcwEWs7YZ7wqUa3uDzaRVGJ2d63oMGKODJ5bunQfGTI3M+YYMYcanZiR4apxvCUjKdfrWYOKFMhBeWoUcJnhqpk+t8retm8HlatehYqWK0e16lShv7/2fxavZH+eylTMR3XqVJDhgFtkY3leL4tZPeZgEWg5958US336dpDr87QRlD9Ekpi9hfMR5Cm6vMYQGoyYowAj5tBjlxRL1Vc5u5MyU1SQ5dXn6d2Crl9uoGb6DEtOnQewTcR1t00mlGIGgZYzCIWUgRGzwV+MmKOAcIo5EG+cigYxA1/l7ImUEQctnkdNGkKxI5u5lAwyfE/E7I2UgTdixroxsArWjc+6OJ6AZQMt51AQKDF7krYCfW6MmCMDI+YoIJRitr8fFu+M9VfOdjHjM/qUMmpcoPY3tcdVwxh853m6cMxTv3uCK0lBJt7ImeN7IkjIGHHdlfx027eLGXG8kTLwRsyQcp7Cb8i+zAVrF9HG8ZTMKGdcX/6KGWnq8OmJ6dKbPV6gz4sRc2RgxBwFhELM9kyidpVC1md/5WwXM48ixaM+qYNC4DMmHukJUsVnjNrEy6jxgTqiE+KomSaWV797QkaS8lTO3kgZsJixnC6c4fVyhs1i4zBvpQw8FTNve9DAnjQ4oaH8rIvnDVgnH0MgJRQs/BWzXcp//cN/W5/Bis2DrLiBPidGzJGBEXMUEAoxI0O4cWMu/fY3v5ItXPGss2WLMlZmoVvGU5CJ2cXMx4LPLGEAySLMnvFhnhpPxS5mfOe4voi5cvOS9Ko4/qR1/ax5LC5VgPjuqnTL4RkJMmHiCKsRVq2OjWnZ5uXy3cn43q5fnPUOZcxDXHwHfccPoFLNKsuw8q2q0vj5k+T8Yg0ryHVwGJbj9QBsC+vhMN4Wb3vYtDHyO+JgOXxmWPo4rioda7k9fm/JTHIORImZ0xXSWenSuaw0t2ppH6f0ZsQcnRgxRwHBFjNnEm/l+Dv98+9+RR069Hm27WmrrXDdsp6gEzMLGJNa1YwJ/xGuzkdcT8WM5Xh5X8QM4dSt+z6937ax07xf/9Ov6O13ssjv7sTsqZQhSu7uhO+QJj6zgNUwtKLGZ8gSMs0oDPMQxl2qWND4jO2o68dnbFMXhnUAVcoZlap9JbPI2V8xc3pS0zjSHOQMSavpzYg5OjFijgJCJea3c71ADRu0SLd9NaPwBVdihkwRxseF7yxUjsPLII6nYsa2eN3eipnlAAFx5gqGz+0kM0+MwsXxdGL2VMqMKkB3YuYwVb7cD5nFjPmeilndtl3Mahg+h0LKTGaQczDEDOrWeV+WmtX0ZsQcnRgxRwGhEnPBPC/T4IRJ6bavZhS+wLLk7xAsHwsLlOMBiBaomR/ieyNmCBmTfT2eADnY59llrROzt1IG3377LT158kR+nrd8If300080fPo4KUvMRzjCklctkWEd47tLyeLztRsfy7Bdh/bJ7yxmfN579KAM+/DaR1YYxIzPi9Yul2GPHz+W37GtxCmj5WdsB2G8X6GUMhPpcg6WmOPjJ6Z7fGTEHJ08t2TJXjJkbqbPWW8lKF1iCwScGUDM6rY3bVwo56MBmG45T2BZ8ncIFnAJGZ9ZpOpyqnC9FTP+8+StmD0BQlbF7IuUAeTHYoYUMbGYIUoWM2SKicWMicUMCWNiMWNiMSMOJszHsphYzFg3ixnbxMRi5v0KtZSZSJazv2JGWrpzK5nOndvmlNY6tHc8X2Ypu1reHzgfQZ6ibtsQWoyYo4Bgi9neSnTK+Ok0bsxk6zsykjoxVbTLeoJdzJAwHw8fE+axXNV4fccNkmLA6waHzx0pP9vBfITzZ7xiEO8M5ilpXXK6ZVSQ+XkLLwcx+yplEGgxoxEXpkCJGccVaikzkSpnf8WM9IY0paa3pFlTre9Ii4jHN39GzNGHEXMUEIoSs6t+lf5KGdjF7A4uoalgHuTgDSWbVJYlbJwzXTiDzA8Zn7cg8/VXyiDQYuawQIkZx4fv4SIS5eyvmAHLGSVnNb3ZpczrCRRGzJGBEXMUEAoxA2QWuvn+kpGY1UyIMzJVnhwPmTTiBhJ1P7zFXymDh5/fpPufXZef562YL75/Qp0GdJWy/OLhLRF2U4YlrUgS329Su36xUrL/EJ/PXzopw7bt3UJfPrpjifnLf9ymHfu3yLDzl0+JsNuWmLGOecvnybDPH9ymB/evy211ju8htz132VwZ9vDz22LbDvGHG5YzN0jToVsuWARCzO7AdRkMKQMj5sjAiDkKCJWYg0VGYsYQlHhDUMmaBV3KkjOrQIPMz1ewvD9SBiixcomZS8VoiOVJifnw8SMyLBAlZmxTDcM+IQyfPa3tCCaQs07IjG6ZYBFMMQdTysCIOTIwYo4Col3MyIhe+OtfqHCRYk6i40xKzayQQQcKZJjIRP1BPQ534Hk5zgMaqh06sJ/GTBpL+SsUtcSMz3MWzpNy7NQzlqo3rSPD7t65ky6sQ7cY+XnzthQZtm3HNvkdy3DYui0bZNjJM6fkd4RhWUxYF8KwbmwDYcPGDHcK++zTT2UYPmNfsc/Yd4Bj0R1jsFFF/MHlHU7fdfGDRbDEHGwpAyPmyMCIOQqIZjGzIJEhIRND5sRhsiRd9h1q3rWay8wKJUH0wfUGLKNbVzBBwzb8fhWqlKe8ed6hYoULSVq1bEE1qlWVn/Ef3zmsdcuWYl61tLBq8rv7sMISfK6JsCKFqWZ1EdZKhCmf8Z+/q585rLj4rn4Gb+XKSTVqvCePwd5IT4V/y2CweZujZsA+ccneDovO31oNO8EQcyikDDgfMWIOL0bMUUC0l5ghZ/xXpQyQUf31L3+h4sUcw1LqgGhRYnr48C598MFRlzx5cptOnjwp4/IgGqEEMktakkxZX8tCvbrFUatmTTIVzRs3pDezvSGPwZWY0R4AvxnEpLYRCBSbthxIU7Hz5ErMuLFDv+AOnasEVM6BFnOopAyMmCMDI+YoINrFrAOyxluMuMRjlzYDMUPKP/30VVo27Wr6kXbvXk0bN24Mipi5mtcVOAdte8TQ61mzZkoxY58hZhyDriob4mQp28MCxYZl8+lIQpl0nJ3cVBsf+4O+wZWFGCNVzKGUMjBijgyeW7x4DxkyN9Nmr/vFiRm4KkmrQMyPHt0R4v3e4V8307krx6WYk1YuTFcaCwb2fc1VJr9WzDFtW1C3Tu2d5kUaLGYcg/24cKzBljJYOjGe9sRmS4crMXO1ev4qBdxeQ94SKDGHWsqA8xHkKbq8xhAajJijgF+qmD3BFzHjLUrIEAMJ1rnr8G7JsXPHJWgZvffIXjp6Yp88B58/eEBVq1Z1EvPulCV09fxuOnVwAw3u38NJhpEE9rlY0aLyOMDps+LYjh6Qx8jHi/G5QbAeFTSqnk8r5i3x5bTxg0UgxBwoKWP5Qk2KU54aBawbWXcYMUcGRsxRgBGza3wRczDEwS+LuH//ftrW0qanP1DK5jV048Z1SeFChZzEDCkzE0clOMkwksA+16xRg86cOS2PY/fuLeLgfnIcY9qEY8c54JdrBJqShV/Uinlel9COTOavmANZUsZ68FYqT6vrjZgjAyPmKMCI2TWRImb0BcZLImq2bpgOzAfvx7ahN2xV2fNnjrVKzJFcnY19RlV238T4DI9Td34CQWYQM0uXq/XtYg509XWVDjWpbLkiVKFpSW24HSPmyMCIOQowYnZNJImZB/iw06pXe9mSecjY4elKzCDSny8DS8wjB8ljadcvRnusAOdCd478xaWYY/0XM4RZvUNFKU1Xz4QZV2K2S5e/8/oCLWWA6musUxemw4g5MjBijgKiUczI3DGWNTMsvgm1b1NK0i+hlDxWNbxo7fJOy6vEJWLgDM/E/Jd3XtOuAyDDRAnHF85dOueyKvvG9UtpXyjdM+bMAvYZVdk8YShPd1XZunPkLy4bf81qof097UCMuvUCyK1d6wqE9yFnJDqdmF1JmUvOwZCyLxgxRwZGzFFANImZX+qP0a7UaW9SLG2Z2Ehybnsj+vZLZ8GtXLkyTXw3nNaNEkPSumkihmdirtWyodPyDEsZpRtf2LZvhxTS2Qvn5DuQn/EhjRw7Us7fe2BfuqrszAL2GY2/1m1YJ49l0bLF4tg+cDpWzMc5WLRuifYc+ctGL/sxq7AYgV3KTNchCbLPc412lbTrYOxizixSBkbMkYERcxRgxKwXM1fjeSPmMVPGW8szLGVkoPawQIKuRplZzK66S4WKzVu9G/mLUaXs6jfmFs2eXAeqmO3S5e+RKGVgxBwZGDFHAUbMzmJGpgc4wxs7d5SI4ZuYAyVlPLfm7kIHThyx2H/8gOwuxVNmrsqukVaVjd/zzNmD4vgOOx3rlj075PGj1My/kSt8OeebNm2m4cNHSerVb0MFChSWnxcuWqqND1iMwN/fmGEx26XL33F86vdIkTIwYo4Mnlu0aDcZMjdTZzneKxwKMavvhgW6ON4SaDEjo2OwTl/FjOXtgkBjMle4a9QEGTn27z7dvXvH4s6dm7R1y3r5Jiega/yVGWAx48UXOI49u7eI47vpdKz8jBnP21mGOtCC+M3cL1Hl1t71P8a6XaGLz2IE6m/sDk/6ArOYsV6+Bu1S5tocDndFMNKbOzgfQZ6iy2sMocGIOQoIlZjtmQSzYvMgbXxPCbSY7ev3Rcw6KQMWrA60OFbjqrhrlc2Ub1A101dlo8uX7thUICV39O7TnmrXbi7FpTuXrtD9Jow9rk7Kun1h3n3vXapeo5BHA3WUbFKZ7j2451LK6jxX6zp8eqK4Ip3T2Z1byfK/Ln6gMGKODIyYo4BQiBkZwo0bc6lM6VxywAK0Th2c0JD27h3md2ahEzNEO336dIuerapQh1p5JL1b5aExw+KdwpcvXy6XC4SYXUkZ2MWM7fFnSMcen+F+zADvPX5GVxowJl7+dtOSZ2fqEnOxokXkMeBY0F3K+Ti7W8dfqE5ZJ+kxON/4X751NSmtjEqTdtTfxY4aj6WoShnb4nk6OnXuSH9+/s/ys7ouO1hfvZ4NpZj5O5ZRpazOx/Gq8xlOb6VFegOc5jAvmHLmfMSIObwYMUcBwRYzMgLwbq6X6Z9/9yvq33+8te21a3dZ4bplPUEVMwQGXi2Wi4o2LiH//73gm+mWwTwVXq5ArcLp4noj5gGj4t0+39xz4ADd/ewR3f30EdVv+D516zmAbt97ROcvfeRWzGpVttP09Af65MbltC/R8YwZ0+cPXHeXclWVjfPOktadw0DAQgT8G7OU8V/X2htgoI63aztu2OzrZHjdVWNqy2uav9ulrMbVHSunJ6QtTmcTJiyRcoak/U1v7jBijgyMmKOAUIn5rVwvUEzH3um2729GoYqZcZdxeYs3/ZgrNK1iZdg6rt34OC228/TJzVtuxYyaAIAGUEvXrlBYTnF9utO8Jck0edbUTF+VPX3mNHksoyeNo12HdjsdK+bjHKC7FGRlB783y9ndb+ArfE0BXr8qZXt8lYyuQ1431qM+Y8ZxuYvvTsz2dNauXS9ZavY3vbnDiDkyMGKOAkIl5prV8tCggRPSbd/fjCKYYkYpetSs4WL/PBNzgSol5DK6dYEdm1fSvWNr03Fm58oMq7J181V+6d2l+C1UoECxHAF9T7I/Us4IVcr4zs+YXUkZ+CJm1FSZEvMvAyPmKCDYYgbICFYu70YJg5zFfPjwdr8zimCKGa2lAzkk5/apXbSjSy3qWY0a92iprQYFWCeqswFK3czHNz+i27eupO1B9FRlp54/JI7vmtOx8gAjABKzg/PLcoaEcuZ4W362/wbeEkop47v6jNkV7q5vpCU09Dp7dqtTWkOJeemiHjLcvkygMGKODIyYo4BgixnPbW/dXSAzBDB44GSaNnkFzZs5xZpXJ6aKdllP0IkZpY7YkV2pQVwL+eL9Kk0rU+nq+SRVmoLKcj7zUhG9wAMt5vmDGrgUc/XOtWUJT4c6JCcGvLD48XtatHAuXbt2lW7dvJnpG3+dPHlCHsvlS2fE8X3vdKwZPWPmEiZuZHie7r3V3hBqKeN7pbY15DVtj6/iTsxIb0hTX3+9SaaxHTt2UPK85XIeQFr0J725w4g5MjBijgJCUWK2y1nF30xCFTNEiueQKGGp07FViU7dpR7eeja+NKZJ06ZYz3HVdQdazJ3qpJcyiKv8ojY+g6rsmu1ruaVS4wqZuio7e1p3Kd2xqdjPDeTEsnRX/est4ZAy9p+fMduXUXEnZsBythNMKQMj5sjguYULd5EhczNl5pqgixlwi2fOJOzhvqKKGVJEqQqDVKhTRmLmfsxAXXcoxYxMFhmuDnQR4u5CnRN6WXQa1J0SJiTI3y7Td5cq8qy71OCJg52OE6jdpdRzg/MaaDljvVgX4G2EQsr4Hggxq6jpLZhSBpyPIE/R5TWG0GDEHAWESszBItBiRvUnM2r2eDpz5iRt3ryMfvr5e/r5qTNPhbDBJ7du0KyZI2nDhg0+ixkZrStcvV3q6dMfnJ4xV8vMz5irV087CqJ/fHFT/NV3lwLquUHVNc6tKudAEWopg0CLOZQYMUcGRsxRgBGzs5iR4TGTF02V8yDniROHuWXe3Nkyrjsxu3rGPL5NIWo/JMapwZfKsGlj5HrnLV9Io6dNcGLohFEyrG9ifOauyn7jDdnlC8dSv1UTcWzjnI4T8xk+L3j+jt8Jn3F+Wc7+gvWGQ8rAiNngL0bMUYARs/uqbJ7vKdgHdR0qh1aMo8uL+6RjS/I4qtWxsXYZ4K67VN7qJeTxV2pcI9OLGcfAv6UnQEx2OQeSUEsZGDEb/MWIOQqIRjFfvXqV7tzBSx4cpMztSxO7lpcsnVie9m7f4BTuSswQIoTpDXgGqq5Dxd4ojaeMBhjhfQMYB5z5/rvHdOd2dFZlP3nyndOxclU2ukupElbljP+BAutTZeor3kgZGDEb/MWIOQqIJjFDbmggVKNVQ3o1Xw6Ll/O8Ti+884rk5byv0It5X3cKR3xuXGRffyDZe/AAnTx5Oh2HjxxzK+Zt+3ZIKUFOqqyefP8NpaYeo8ePH2f+7lJFishjwLHsE8f75Mk3TsfKYt51eLeUkl3OmKcTrD+wTNHeAJ99wRspAyNmg78YMUcB0STmSAelPS752slo5K+MyOwjf6EqG2/I0h2bCs4HpKzKORiC4nVCyixXCNVbvJEyMGI2+IsRcxRgxBwakJly62od7sSMMDzvBqNmTbQYOWMsxY+NpxWb19LG7ZszdVU2Ssw4DjBn6Uyn4wR8/CxnCK5ezxq05eBIqhVX1UlSONf476+4WMoZyTQjPJUyMGI2+IsRcxRgxBx8OCP1Vcxc0rZ3l8LbpU6d3E93796RVKtWLdOKGc+Y+TjcdZfCueDz0n9kVypRogLly/uGNQ/numbHilS3drF0wvYGu5S5lO4rnso9UsTMx+/NOTRijgyeW7BgJxkyN1NmrDZiDiJqaQnPsLnkZ4dLgjo4TuKU0TR8+jgnOvbrKsNkd6nXM3dVNo4Bx1KnVSNxbGOdjpPPAcA5gSwqd6hJ4ydMpeodKjqdrw6t21CtWs3ozJXpTvM9xS5l9Ts++4J9G66IFDFj/XhVZI7cL8nn7bo4diwxizxFl9cYQoMRcxRgxBw8VCnrwj1FfcaanuLy+GV3qUwuZu4ula+G4y1dOtTzwmLCeVbnQdhxXTpLoahhngCJupKyPW4wiBQx42UaI8cOpHpNSlnPyTPCiDkyMGKOAoyYg4MrKfP8grWLeJyxqlXe6osdfvzxW/rkxuW0yl7K9FXZPH3+4Lo4vidOx6pWZWckSZ2wPSHcUgaRImasG9vwVMrAiDkyMGKOAoyYncn6ZlZqXKu2xXuV61LZ0nWoeL78kufffc3i1Swvy3kyTqk61jI9Y9vIalRdhl6n03v029/8Sr4vGHLGPGSC71YrKEt4ajcgRn3GfOPGdYWP6e6dT+jRo0d04/r1TF1iLlqkCJ05fUoey4ULZ8WxXXM6VhYzuo5BGLrz5A++SBnV6jwa2ahpE2nR2uWUMGYY1W3dhIpWL+tEbL8eNGneDFq/e4McwY2Xs68zUsTsC0bMkYERcxRgxOxMtjdes0qnJ1JvyRIcBizp1q2blmnTpsk4R48et5YDU6b31K6/SMMiNHz4GFq9fqX17A6Z/x///j/0phfP8+zI7lKZvCobx6A7NhVUZ9u7S/mLryVltfsb+qNjwvWgu04AriNMDx8+lMuoDdkYI2aDvxgxRwFGzM44ifms52I+e/aCtRwoVVRfBciZPuB5KDk3jnmP1qzZQeWaV5IZrwqXrgBKZczCNYtpxsIZz7pLZeKqbHt3qUVrlzkdq3oOcM4CJWdfpQwyEvO2bducvrOYmzdrSqmnTxsxG4KCEXMUEEox8yvo1FfR+Uswxdy2dU+xn4EVM0Cmqj67QwaLbimYr8PV26XQXer0qYPWc9jM/oyZj+PihWPi4DLuLqXKGUJ1BSSLODqwvCspZyQ+d2JOTEyU348fP25dKyzm0qVLpjsWJpBiVtMa3sWsixNIjJgjAyPmKCAUYsZ7YJE53LmV7JRZgLFzO2uX8ZRgijn17G2xj4EVMzJ9ZKquqqyR2dpB9S2eZ6K7lB3uQhRN3aXQBczVcdpbZrNcMwLnWwffIOmkjDDMwzbUbTIZiRmf8Z+vFRZzsKuyV2weJLbinM6Q9iBnf9ObO4yYIwMj5ihAJ2ZO+P4M0KDCmUPLFmVk38jSpXPR4ISG1nzdMp4SVDGfC6yYWcretHQF3FVIx7vViosbn2bUtkcMFSmcecfKhpibdmkjj6Vam7raYwW68+MrfG3bpczE9a1Df37+zzJMnc+4E7OOUImZ01VycpxMc1lefV7+x7xglpyNmCOD55KTd4gf35CZmTx9VToxI9H/y+/+id7MnU2WKtTE5y2cSbRtU5b++be/or59x1rbXr16uxWuW9YTginmix8+FPsWGDG7kzKHuRIAr9Nelf306Q904/qzV1hGS3epB/fxFi7XVdk4X4EE5x3/7ee9/9h4GjZ0jBzARCfBTTu3yv3Bo4YVa1bSynWraNrM6VSxQXV6q3RBJzB/6crlEiwDsLx9nf6KmdPTzJkLrXQ2duwieUNcsdw7MixYcuZ8BHkKb9sQeoyYowCdmPPXKUhFi2Wljt06BkzMb+V8gTq075Vu+xyuW9YTgiHmJfOmS0YmjKMc2UvT6y+9RiUL5qHCb79Lf3n9RfrTmy9Jir2bkxrWayXj5Ho9l7UcKFGymLVOzvxdlZQRlivn21ICOjlzRn72wjn56kjmwJEDtDFlHe3at4cOHz6U6btLzU2aI49l++6t4viuOh0rjh3nAN2lcB4Djf2cM/g9uNpbFw4gSKwDcXWC94ZAidmeztq06SlLzv6mN3cYMUcGRsxRgE7MSPAZZUaewhlBzWp5KH7AuHTb9zejCLSYX8yfjV7O84YWhHkbNyMpI5PFI4Omse2ob2Jft5Jwxy+lu1Q44KpuXRgTKDkHS8yoqTJi/mVgxBwF6MQcaNDwZOKY92lQvLOYt27dRicOj48oMbsDGS9uVlw1BrKTkZQ5M8c6kdnq4gB0EUK1J9h79OAzjuyltSkr6fDp43TmXGqmrspGiRnHATbvWCOO74DTsfLxo9SsO0fBxBMxg0DIOVBiVquyAUrM7VpXCJqUgRFzZGDEHAUEW8wFahW2MovZ49rL58ogNXWLNV+3nKeEUswNmpaWg4BUqJVxqTZQUgaQke4ZM7pLnTi+j27duikpUrhwphUznjF/9umn8jh27dwkDi7j7lKhwlMxA3/l7K+YAdLU48ebKGXTYpnGkd7iOr8v5wP0ktAt5y9GzJGBEXMUEIoSM8tZ110qLrGJdhmAzEeHGiekYm5QVJ4z+z7YCaSUAVoj481UNVs3dALzmK6Du2byquzXZXcpPh7rGOM7UIe2bWlwwiCKnzJIe36CjTdiBv7IORBiRpcoezpjgiVlYMQcGRgxRwGhEDOAnPFfzSTscTijQabjCYgbKjFj33gQEF04E2gpewLW2bhL00wvZrxdSnd8XRIG0qLlk+Q504UHG2/FDPh3xnLeyDkQYmbsaS2YUgZGzJGBEXMUECoxZ4SakXlDKEvMGWWEGUkZBFrKIC6xLyUtSabXX3uNShUvRtWrVA4IdWpUDwnvCzm/nSuXPAYci+4YA33OvEEnZtRioFqdWbN5N9249Qml7llFKcMb0JDG2Wn4+zlpQsc8NLlTXto2siFtmN5Xxvnw2kfWcvYuU4EUc6gxYo4Mnps/fwcZMjeTpoVfzL5KGdx7cI8qtdWXtEKJJ1IGCPe2ejMjILNpybOpfJVylDtnDov27dtL8LlUyRLWZw6rW6eOX2H4bw9DfG/DcufMSXUb1ZLXoCsxhxOdmKu1aWD1LwfzkteIkinRvWNraU9sNi2XF/eRcb799ltruWgUM/IUXV5jCA1CzNvFB0NmZtK0lWEVs07K9XrWoL/+4b/loAgYsQjPF/fu3SvuBufT8MREp7gQM17qrlt3qPBUyiBYYsbLH0rWryyrgwG6HmHcaTSoKt+gKq3etFZKYcDwBCvs7p07TmGturaX3zHhFYyIt27LBvm9StMaVtitmzdlGJbHhPndh/SVn4+d3GeFff7ggfw8dsYkGYbtIO6TJ09kGD5jX+t1bCR/w9mr5mVaMbdp30MeoxEzxLxSm9cYQoMRcxQQbjEDliyAlDFkJ7hx3VEK0U33HpyQ8VnM+Kxbd7DxRsogmGJm+LeEfCFBfMYbmjBh3GlUwyIMglDDOsZ3l8LBdPj4ERmGrkqYMJ/DMA9hGPgDE+ZjWUxYF8KwbmwD28I21TDsE8LwGfuKfd64ZzNtObhVDsmJ+YGCJaYL85SMxLxq1TYaN3GhPEZPxIwbTCNmQ7AwYo4Cwi1mZDBM0QbF6X/+7fdUtkwuoqdHHLiZNm5c6pOYETcQDYm8lTIIhphdceP6ZcEV+XnWkrl09aNU6tivi5TlJzcu07Wrl2TYbBF27epZatOnkxTOJ9fP08aUNTJs865NYh0XLDF/cuO8KPmulGEnzxwRy52T89v27SzXMXX+NBl26+Y1+vjaBbmtDn1i6eqHqVbYJzc+oGsiDJ8ZPpeBlg2G08ye9QUqX8fz38iOOzHj9Y0HDohjm7lYXpNGzEbM4caIOQqIJDGDf/vXX9PsaT08EjPRN05iBrptqCDO83/6M81YPEwb7im+SBmEUsxnz56gLx7elZ+HjB9OZ1MP05CJQ6Usz6YepQf3b8mwYRNH0sULJ6RcIZyTJ/bRuYsnZdjcRXPpwvnjlpiPHt1NW0XpFmEp2zeK5U7K+ejalHrmECWtSErb9kl6+PltS8znzx2lOUvnyLBzYr8uXzgtzx8P1uJKzCxFX2+k3qpZlMaOWUh/+uN/a8M9IaMSM+S8dOU6eUVGW1U2zrun2zFijgyMmKOASBJz9SrvUtnSFWnB3L4eiplow4qFXot5yOARtHlHsjbcE3yVMgi2mHn9AFXGXJWdvGqJPF/Dp4+TssyoKhvV1AgLRFU2tokJ+4Aw7NOFC5epZs2m1m/mSsyY978v/5XefieLlIQ3gsa6qsZUluvwp4bEk2fMEyZOoa3b9tCq5Lm0JLENNSz2F4ve9fPKebMSu8k4t24/Wy5SxYzrqECxHNShcxXZTVAXx44Rc2RgxBwFRJKY3871Ao0bt9ArMd+59aFXYub39/oiVeCPlEEwxYx1876BSBbzvXtf0Kp1y6lGu0pynjsx4zrt2jtOyhXfvZWzbr4OV8+jdWLGcdVsX8slHA/HVbtbPWqX0EIbj/v3M5EiZqx/4sRR9Ot/+pX2nOgwYo4MjJijgHCKGQle5Y///TsaL8TcrVMtKWcp6Awmb8XsD/5KGQRLzCxlZNo8L5LFDCBY3l9XYlZvpBDG3/0pAbsidmQz+WrEkjULOs3XidkT+Ji82ddIETOOOXep3HI7+KyLY8eIOTIwYo4CIqnEnO/tv8l9Kls0p0VG09FDO0Ii5kBIGQRDzDopg0ePHsmX8uPzvOUL5feEiSOkLHVhGAoTksXnC5cvyrDt+3fL7yxmfN6yZ4cMQxwOg5jxGetCGNYNsC20ykYYXsaBMHzmbTOuxGwnmHLGOnXPo30Rsy9SBqbxl8FfnktK2kaGzM3EqSsiRswv/ek/KL7/WOrYrjM1adBI8sEHV+nEiRMumTFhYNDF7KuUWZjcwInnBVLMrqQM+DkmPkOK+Mxi1oWxmPEZo1IhDM9A8Z3FjM/8XBRxOAzL4jPLF58BtoVt6sLwmfFUzCAYcravUz2f3orZVymDaBAz8hRdXmMIDUbMUUAkiRk0adjcef8mLqMhQ6a5xNtW2d7iq5RBYZFx1qzRxGm/vBEzy8FVBuxOykAVIMsXEnUlZlW+LOZt+3bI71iGwzAPYSxmNUwnZlfSxmfGGzGDYMkZ/+3n0xsx+yNlYMRs8Bcj5iggksSMwUWaNSuq3U8dg0YmBnWAEX+kjEyzcsPCtHLlVqoX19ya76mYkfmiD25sXHXKU6OAUybcbkA965y5kjKAFPlzqWaVZSMkXo8aVqxhBRnG36t3rm2V8tUwLNN+SIycx995GXxGPA6r3L6G9ZtwGB+3uhzD59rd8djBsQRazjo8FbO/UgZGzAZ/MWKOAsItZoBMhqkdW5HihzfU7qvK5DmzZfxgidlfKWM5ZNBYh9p4xlMxg3r1ishjnTh9uDUP66tSuRyNGbPA42Nmsbjarl082G8Wsz0Mn9XjYXDMahgfO8sjo33g5bGcN8JB3GDL2X4OdARqH4yYDf5ixBwFhErMXBKyv4oOmQtn4kz+uoUpvq9eziiBqnFZzOq2/CVQUtZlnJ6KGfEqd6hJvfr1sDJ7rI+Pu01MV+3+IQ7WjzAG8d1t0y4ebM9fMaui4vPA6+J9wWfA29It4wmIGygx6rCfAwYlfzxvR9X+hJmT6di547LFet/B8VS+XlUnWsU2l/MRDrAcwPN3dZ2BFLM9rXlTG+ELRsyRgRFzFBAKMeM9sGomoYKXuiODQYaKzMZbIOaqMbW124WUVMl4QqCkrAsHCM9IzCxTVYBYN+a5W7e6fWxDRRefsYtHPWdqmLoP9nPKYYC3pxMtrw+0atWd4uK6y8+8Ht0ynoC46rK6OL7iSsz8XB3s2rVHXM+OqVu3bloSExPTYpC1HD93ZwIh5rjEJmIL6dParbsLgvpOZiPmyMCIOQoIhZg5Y2jXuoJ8Y9TghIY0Z85Iaz7iIJNBhooMxxuQiSEzs28TdOtXh1589WWqUMszyUIoWGewpAwyEjNLWS3dYN2Y527d6va9LRl5Kmasv3y14lSuUjXKYRMz4vTuNTpdFbs7OfcbM0DWCGC9HB/w75DRubSD9QdDzr6Kedq0aXT8+HH5P5Ri5nS1eeMi+Xa2f/3db6lqxXxyHuSsWyYQGDFHBkbMUUCoxDw0sRH99S9/pj69R1vb3rJlC925lSzDEY8zGmQ6noC47sTctFUpGjvWs2exoZAyQDxXYkYY9iFQUsZ8NKjDfAgL33V4KuaCtYtQ0rJZ8nECBuPg+ICFqBOtTs783w7m83mwr8cTsHyg5eyrmJcuXSq/43+oxIy0hDQ1d/ZiK53hZgnjw7Oc7csECiPmyMCIOQoItpiREYC3cr5A7dv1SLd9Dtcti8xHhxrHlZiRafE4ychY7eEqoZIyQFydmFlGgZIywLIdOzSmmLj+8nNG8HJYl07M2BbGTcZ3+7YAlnO1rzo52+FjQTxXNy+egPUEUs6+ihkiBup3njq2rhU0MQN7OmvdurssObtLb/5ixBwZPDdv3lYyZG4mTFkeEjHnfftv1L/fmHTb9zejcFdidiUAlWBKmbev7gfi26XDMgqklMG71QpStz5xNGmaY0xqxHGFuo9Yn07MGYHl3O2vOznzsSDcHykzWB//tjg+XRxP8VXMdlQxP3z4YVDFbE9nvXuNoiyvPm+F25cLBJyPIE+xb98QOoyYo4BQiblHbBUa0N9ZzCkpWzLMKJAJIcN2BTf+0oVlBASBDA6fddt2B4vElYgQrr7ZiDNRLKOKB9/t8kBcXo7n2VG370o8iAM5u4ujA/GDIWbAssR6eR4fC+YHQsoM3wh4c+w63IkZYgUTk6bQ5PlTadT0cdSpf3d6uUhOJ+p2qEvDJo2WcZZtXk6L1i2Ry2HwFXWdgRLz9OnJTmmtdavulDvbSxmmN38wYo4MjJijgGCLGSAj+PnJSlqzqNez7Y7Di+UzljIyIHeo/Zh9Rbdtd6hS1IUzL7/2vKxCrFvzWXcuVczBlLI/YL3BEjOvj8WMY8EymBdIKYNgi1nFXW2AN/grZoA09fjxJpoza7FMa6NGJdPIEV0zTG/+YsQcGRgxRwGhEDN33+CGXiquMmPOfJDRuctY3VVlBwNVirpwlZiE+jJz1I38hfXg+FhQgOdltG6EZ3RePAElPh2t49tbvwv/DvW6NNPGBbw+3i/+rsMuZmA/Zu7jC7jfr65vMND1Debq4VCKGQRCzoEQM/bDns6YUHSXMmIOL0bMUUAoxMzYMwldHMAZjyfysYsZouDqRXXaMaYZrWyXTcv1LVPSYpFcX7eB/ax1qOLxRsqAM3T1GFjM+Iwwd4JyBeIg89WFeQoGx+DnowCvacR0fct4OpJQPI1cTtw7tlbG+eLRI2s5HlMbYL8y2n9XYsZ5wWd1v85fuCi3h0n3zBboWjpDzlhXqMUM/JVzIMTMeJreAoURc2RgxBwFuBIzJ3pfMhd/8EbKwC5mfmEC+o+q0+XFfWhPbDYtLBxMn376Ga1ctdbK5FnM3krZFa7EjPXjuyfHjH0IlJjv378h/7OYPTlP4RSzu77BrVtUk8uFU8zAHzkHUsyhxog5MjBijgJ0YkaCR8OlYhXfTfcChWDirZRBKMSM4w+ElEEkiTn19Gk52EvnTn29EvOceSvp9OmD8vyEWszcN1gn5l3b58nlwi1m4KucjZgN/mLEHAW4KjE361iB/vPffkODEgY5zfcFiAgZCfrAuspMfJEyCLaYa3VsHDApg0gSM0rLe/bsErLbTTevX5bH78l52rbjvHV+Qi1miBio33ni5SJBzMAXORsxG/zFiDkKcFVizl+nINWsXtyp4ZKvIBP5/b/8mnr376fNuH2VMgi2mNEQKiPZeIO/YmZJBELMOD5fqrLvfmqeMWM/8QIKpsfwUdSuVyw1b12H+g+Oo7dKZpeUqpOPWnWvTaMm9qXEKaNlnNbdY6zlAt1dKpwYMUcGz82du4UMmZvxk90/Y/Y3UwOQfMni2aj3kN7pwjiT8UXKwJWY61QtkJZdOyZ/xKxuz1/8ETMLQl3OV1QBAm/EfCfIYuaGd2NnTaTxsyfK/r/gpSI5nShUo4wVljhhtLUcyy6YYsYjDvX8zUteI88NzpHu3AGcW0w417wc30Qw0SBm5Cm6vMYQGoyYowBXYg4kyEB0Gba/UgauxJyauktmgjz5Kma1Vba/8HnwVswIYzkAXl4Nx3x1XkZAgJACM23hYmrbfajsfhSfGE/vlMlPf871kgSfMa9Dj6HUZ9gImrdkgbUcRMjr9ETM2Hf7MeA7i1lFvYnxhVCJGaN4DR0xWl4/noj52rXz1jN6nEN1vUbMBn8xYo4CQiFmHYGQMnAl5kC3yvYXZKIQjXq8OH67mHXSxYsoEKYLBwivWiEf1W5dLV1YKPFEzDiGVq26UUyfJk7zgiFmLIt1B1vMy5en0NgJC+T144mYd+3eSyVK5JXLGjEbAo0RcxQQDjEHSsogEGJW+zEHQ8w6KQOcAxYzPteo3pgmJY2ywgHCG9SqSqNGzU8nBwbz8Vv27DEkQzEyKE0GEpagTrAqvK8zFnRzmudKzDgePkfewDL19Hy4w52Y0bJ98uQlXon5+x+JmjWrHNFixrkvXuldql6jkMfn0Ig5MjBijgJCLeZAShnYxYwME88912/eQPMXLaRR48ZJhnRrSZMGtKGyRV9Mx7RxCVa8Xv370aLly+U6gL9idiVlgPOgiln+JguHWeEshMQpbWjm3MXpXrUIsP6yLcrIePyiCnscFV5nMPA0A0dctSSM7zox49gQj2sMPF1/IKUM3IkZoAHd0pXrpHQ9ETOeMfNLLCJVzFh/r16j5PvT7cfuCiPmyMCIOQoIpZgDLWVgF7M/IKPD/gVq39xJGWBbrgTFMuBwd/vlaQbNx8f7w6zZvkEKIxiTbj/sqMdtB/vcumOcrDH425//qI2jEmgpg4zEDFatdoj5/K4VtLFHHgedczpxfd1gGSczNP5CLUjSun5yO8DVtadixBwZGDFHAaESM2cmgZQyiFQxY13upAyQ+WF7+K/Ot0s5EOAc8fHZ1xuX2FcKIxiTuh1X8HWhCwP9JnaiOTMXUfUOFbXhTDCkDHRitneX6tivm4S/6+La4wBuQc5EipgZT65jxog5MjBijgJCIWbOSAItZRCJYvYmM2M5Iz6D74GUcp2YZlKSeBOXum6U+sCoWRNluKvpq6++opMnT9Lu3btpzZo1tGrVKtq5cyddvuwYlMTdxNuAnOz7BXCusD98fejigIx+l2BJGejEHCwiTczA0+vZiDkyMGKOAoItZs5EgiFlEGli9kbKDDeeUtHF8xW1RIxXZPL6UZU6d+5cevr0aVpo+unYsWM0depUOQTm5MmTacKECTRu3DgaP348TZo0iebMmUOHDx9Oi51++uKLL+R21G5VdnDO+AbFF7EGU8rgly5m4Ml1bcQcGTw3Z06KSJiGzMy4ycuCJmbOQIIlZWAXM0pnkED8qCEyjFnUsyJNa5FNS8qKKTIOSpSpF885vV3KVUlPhy9SDia8DyWbVJa/b4+RA+TvoYp53rx5WjGjlLxhwwYpZIgZUp44cSKNHTuWRo8eTWPGjJGCxndI+siRI2lLOk+uxMyyA5Cyeu7UeBkRbCkDI2YHvF1X1zbnI8hTdHmNITQYMUcBwRIzJ2KWVIFaheX8QL+CDpmYKmY8t4MITp06JcXA05nJTbUtZcE/PjqWFovo7NkLtGfPfrkO4KmYI03KAM9k16wbQB0TW8vv2Ef8JqqYk5KStGLeuHEjzZw5k6ZPny5LxhAwZDxr1iyaMWMGjRgxgkaNGmUJGnLWlZwfPnyoFTP2A9Ps2bPlZ8zzVsyhkDLAfvE+BptAi1lNb5wGfYW36+r6NmKODIyYo4BgiJkTsCplziBUbt1dQE161tSuw1NCKebDp49b8PnC5wZxLSypnDh/Su7Pis1r08UFCMN37DdQw/AZ8e3zfaVv77p09+5D2rxjpfyuE/P8+c7vrcaE58kQMMSMEjPEjCptdXr06BEdOnRICprlDMnevHkzLYZj0okZ+4G3l02bM5VS9iTLc4f53og51FLG9nThgSYQYq4TU0WceX1680fORsyZAyPmKCDQYs5IynXrlqW6tZrT8MF47um/nEMlZmwDE/5zYyr8h0i3HNwqj3fjns1SyLxfeLbLGS2fX5Y15nMYL4P4vK2MMueMQKZdrlVVJ3npxJycnCyPRZ2WLUPGOkeKGdXYt27dSgtJP+3fv19WbaNEDTlv27YtLcQxff755+nEzPuifgeeijnUUnYlIl/BfruSqie/Pacx3TpUKc+aOoH69+9KRQvmseb5I2ferqvzYcQcGRgxRwGBFDMnXGQ8auJFhrBscQ/6y1+ed9r2vn2brcxCXY83IBNDZsbfgy1mdbt4Zls1prZ8No3jxcT7gnCIG58hYkiXG2HxOgDi6DJiXTxvfyN7xq0T8/nz5+nq1atye5g++ugj+dwZjcJQZX3ixIm0EP2EkjPekYxSM6qzUTWuTufOndOKWYcnYo4kKfO+tOhSPV2XN1e07vI+vZn7JfkKVF24v2JmASNtcTobOTKJnv/T8+ImLE6G2ZfxFN6uq3NixBwZGDFHAYESMydanZTBWzn+Sm3bdHfa9rJlKVa4ui5vCLWYWZCYasXVk8eL6mvsB5d8eb+4dAwwD2LmzwyvVz0GxFHXxdvEPHxW43qDXcwM3zBggpghV8gZJeYvv/wyLcT1dODAASlmtNgG6jLqdjIiIzFHWkkZcSZPmUaVq1b0aJ8QZ8jQqVS0SFm5rC4OfttAiFlNZ6Bnz5H0r7/7rRVuX04Hr5//83ZdnRfOR4yYw4sRcxQQCDFzgkXGY0+0nBHkffsF6tdnVLrte5NR6Ai1mCHHSQtmWFLG8XKYuh/YLz6vLFld6RjzMOEzloeU1d8C87A8wLIsZw73Bk/EfPr0aSlmlrMn04ULF2Q1NqSMUnMwxByJ1dcYKnRTynyaMLO7XE4XRwXnnx8v2H8DBr93MMSMUnOWV5+3wu3L2cG65bmo9C7lqVFAfuftujo3fL0bMYcXI+YowF8xc2LVSRlwRlDgnZcopkMPp21nxhIzZ1jq8XIY7wPAfnHpFrKF/Dieeq7V0jE+u5Iu5vv6GzHYd50UVDGfOXNGPneGmNGYy5MJ1eEQMxqJgUCLORKlzPsa6H3CNRIIMW/e/KwqG7Rs2ZUqlnvHCrcvp6NQkzJUunQu+SILfOftujo/nI8YMYcXI+YowB8xc0JVJaUDGcHXXy6lFXM70ZIFa+R2IeW7dzd5nEm4gsXMmerkRVO1Yj6SUEYrZeCNmO1SVsP4O2Ax4zP+835yxgswQca8DCYOA6qkeVn+7gt2MetG/vr0009pwYIFUs5oAHb37t20ENfTihUrZB9n9HWeMuXZm7owZTTyF6NeS+r8UEmZt+PuOmZ010Cg4OtDF8bwubKLmRt1IU09frxRpjGkNZSWC+TPLed7mt6wbpTuy5QtTO9UcbRI5+26Om4j5sjgudmzN4u7akNmZuykpT6JmROppxkUZwp2Dp+eqI3vKcjEkJlhX9Bvt2PrWvTB5R108YOLtGjlKpq/dAUlL1tJS8fG0ZjutalBxSySplXfoI6N36a29XPRjMmjZRzEHSfksm3XTuvtUiwUZFSBzJD9lawv8G/GYsaNx6ZNm5z6MT9+/FiKGaAr1cqVK9NC9NPt27eljCFltODGUJ3q5MnIX7xf9kw/VFIGvC1dmB1cB66qov3FHzEDyHns3M7izDunsxOHx8v/9vjusK+ft6v+RiqcjyBP0eU1htBgxBwF+CJmTqDeSsqeWejieAsyMQwzif35/b/8mmJiYikmrpP8DnTLeCvZQEs5HPAxqBkrhKkb+QuttFnOqNJevny5FLZ9unPnjqy65iE7IWiIWp3QatudmPlaUvcLhFLKIFrEDNSScyDTG29X/Z1UjJgjAyPmKMBbMXPijBRJqWKuWe0dKeZu3brJ78AePzNJ2VXG6y2qlFWhQJgQr13MkPD27dtp4cKFTnLGSyww+Mjx48dlaZpHBsN/gPn2yVWJGfuB/eF3LavnNtRSBr6KmVvaZ4SrtgN2AiFm4GtfZXfwdl2lAyPmyMCIOQrwRsycMCNFygCZGFpII4OfO68LzZqWSCMn9ZL7ac9oM4uU366chzZuTJDb9VfOrqQMIEzdyF+Yvv76a1q3bp2UM543Ix5K12gQBgljZDCA7wBV4ropoyE5ByX2dBJwOKQMeLsQI0TqLj2oYkb8AqWLUsGyxV1St0mDkIs5GPB2XaUFI+bIwIg5CvBUzJwoAy0pXq8uzBOQiRWtX0HuV9EGxeW6GHU/M4uUsd9jRzaXv40/5wW4kzKAMHUjf/GEknNqaqqUMwua5YyGYdxyG6VoV9P9+/e1YsaN1OEDByl+xPvWvHBJGfC20UKeJ0gSYTmyZKFcL70q/4PZSd1o+qwu1vdcuXLJWhpXNG3alApW9+y3NGI2+IsRcxTgiZg5QQZDUrEjm1H211+Q69eFZwQyMWRmyKSwf1iPPfPILFIGEMT73RtR+06e9Y11RUZSBhAmujp9++23aSrSTyg9I96OHTvku5jRChtDb0LaGU1o1a0TM/ZP/c3DKWXA20fJFhNKzRzWu2NreQwMbljA+o276JtvvqUqVapohcwYMRtCiRFzFJCRmDkxBktSWHft6nmoR/fB2vCMYDHrwkBmknKg8ETKKmo/5kBPuu3ZCbeUAe+DLswuZp569h1HPz8lI+Y0jJgjAyPmKCAjMSNjd5cY/QEZS9kWZbzOlP8/e+8BJ0WR/v/zv9+ZzzvPiILkKEhY4sICknNecs5pCUuUKGFhJeecgwRBQXJQ0RMFQbI5AIKBQzn1vPP09Ovzn0/NPk1NTXWY2dndmb7uF2+2uyt0dXVXvaczf1Qf4D3VfPOXGZ6UrcFR4o69uzIE3fJkokHKIBwxDxg8yROzhCfm6MATswtwKuaM6gRCzZc7UJQL4+jEandvIsbNCFfKLLisloZTwpEywLbn135GGqubnrBtoqV+uSy6sM5NWwaImU9lb9r8Iv3T9/d/RcxcR56Yo5tsK1bsJY/YZtb8zVkq5lDgjkGWjt2pbCfopAywrEYN69PyFWMD4mc0WC7QhZkRrpSzimiSMjATc+4KRalQsUJUOz6BalSposXJzV85KxQJyltHRomZ0+jCnMDprfYt7kfQp+j6Go/MwROzC4hmMWO5AJ03l0PtGNIrZjMpg35PJ9Kkif3EcuX5GQWLVcaJZD0ppx8zMQPIWTefcSLmvKUKUd4yRQS44bH72NZiXM07o8SMu+A7tq1HXYc21Ybr4PydSBl4Yo4OPDG7AFXMLClulCzEUDqB9MKdJL98gtF1DOkRMwtNJ2XA17LV+RkFllWyRknq3j2Z5i7cTNOWjrVdPq+DWf1EG9EoZWAlZjuciHnG5BSaNSmFfvzxNA0elExr1owS0yP6JglBc14ZJWbEb9qkA5WOK6ANV0Hecvtzsm95Yo4OPDG7AFnM6ODjqxWn6bOTjI4zK8SM5aFTqFWzBK1fv46+/uaUmKfrzMMVs52UMxuW6/NbRhrbZuuOzWKeLj7wpBw5MlrM165do32vXBE3ja1ft466d2klrlefO3NGnCrnvDJCzIjXJKmhSNNqYGPH9b9k1WLxdamEisW14SqemKMDT8wuQBaz6JgeuYtWr1xudFJZJWaQ1L+u6Mgw8Dw5HqSEu7L528ihgLzwN5qkjBekrNww2Ng2U6ZPDVpnxpNyZMkMMe88+KnYl/HcON9IlhliBhw3lO2QunokFSucU7yJTheu4ok5OvDE7AJkMaPRlm4ZLxouxtHYslLMvbpUFB3Z199cogpNKoh5HIelBDHjrmycdg4FrF80SZlRT9/rfjx4Uo48XEZdmB1Oxbxl17tif84KMcsgndPtgXhO24kn5ujAE7MLkMWsa2yZLWYsB+LEMhmcfsNfjsNSQoehO5WNPHid8PIMPLLD8/D6TowDhLVL7i7+yvE5HCBvzMejP3IYz9elcYoqZZVokzILQRdmRixIGWS0mIcNGExLF66jzWvW0caVqw1wjblokYJGXpkhZoC0kd4u3B48MWctnphdQGaJ2e7OVhksS5Uzh8lSxrQqZo6PI+kDxw4KMKSuni44++E5EY6XkmDAOOJg/tpd6410mD94+lARB/ORVg7DNM/HgLiYHwmwjrw+MqFKGfWCHyWRYsy8UbRnz14aPXOsNlyl08heol6AGiZvs2ggo8VcoHhBKlCycBCZdVc2UJcVaTl7Yo4OPDG7gMwQMzqEt87M9+kr8Puw177a4OuI9J+n0y1PlTKQxczhABJlWUKgECrLGPMxjfkIl8dleSMPTGMcyOl5HkB8OV56iJSUAQb504PpBeuJfWbOvNXacJlTF0+L+PirC8egK3NWYSVmHNFa4UTMmfmCEbQpta1xe8tIOXtijg6yLV++hzxim5nznstQMatSHtS3EY0ePjqgs7D6diw6IZRBJ2XAYpalDFjMkCkfDWM+BAoRY+C4mAYsZfxlCeMvxwOqhLEMXbxwiKSUAYZ2nTpQ9+7dowqUCYOuzFmFlZjVV3J+//33giMvv0Hfffd9VIlZlfK0SaOpSf3yxnRGypn7EfQpur7GI3PwxOwCMlrMgDuF4sVKBCz7nXdudRa6dNwBocPAX3Seahx0YrgrG+EyEDPDUgYsXHkepAzhykfOZmKWj6IhZf4BwGlY8upRtR1mUgZ8Wj8UKQMMbhVz097tTCnXrIbjuBwnFDHzMGps9H3Egtsa2ha3s2nTVlP9+rWMMDUNiIScPTFHB56YXUBGi5k7g4fuu4t69xoasOzNm/1hus6COx8rYQF0YrqjVVmYdmEsZOQjH13L4wBpMCAexpGPvGyMMzzPKbp1Y1jM6tkCJ0SrmHVlDYUz588aoty7dx/99ttvgrdnt6Ul3Ysa7BpVXcw7v3aYEUeWLEvcTsxvvLaXJk1MFWl4SB6RmqVi1u0P3J7kdgaGD0+lu++43QhX04H0ytkTc3TgidkFZJaYy5bOSU+PejZo+bqOwqmUEa7KkcF83GSkS4eOTw7DHde8/twx4i/iYJzDMeAObMTja6X8sQaenxHIYoZI+GivRb+OAdTu1CRgGusQrWJG2eSyVmhSI2Aa8HqqR8BAFvOBA/5LE/+5+QUdHVxUy9mFnUWccMSMO6dfeOEAdes6RKTB405g+cot9G/f38wWM9oi9gkIVJUztye1neGouUD+7Ea4nEYmPXLmfsQTc9biidkFZJaYcz30Z+rfd1jQ8tWOIhQpI55OzCizlSjVMPUuYYSzuDEf06gfNY6MHBZpZDH3HZtsSEUdunTpQr//7juEk4aRI0dq5Th06FDt/MwAZZIHlDk5OTlt6tbA64l1VuskPWK+ceOKkdZOzLgeiw9VjB7alT7/cjdt2zqTOrZMDCCzrzEDMzlze1LbWbduyVS/TpwRLuelEq6cPTFHB56YXUBGixmgI/jHt5to9ZwutHLZFmPZaicRqpSBKmaUV5cmlom0mCHly5cv0zq8GlIJywx0Yh4yZEja1K2B13PCoonG9mUuvH/BCA9FzFeuXKZnJnQz0jo5Yoacrfb/7AVy0aMFc5vSsk2riIsZOJUzjpYLFshOr7+WKubLeZgRjpw9MUcHnphdQEaLGXeJzl49yOgswJjBrYzxUxf9yw1HykAWsyxlOU6sy9qpmLt16+ZYzJDypEmTgsIyg1DFnDx1lBCnTLhHzP/857/pmXFDjbROxGwFzpZApFZg0KXVEYqYgSpntDe0KW5fu58fb4wDPCGhy0dHqHL2xBwdeGJ2AZlxxMyPQ8kdBEivlAGLWZVys/71A+LFspxlMUMkk+Y/K5ixYn4AjTq2pBnLA+dF4zVmiBl3ti/bttIoZ8vu7QPKDXg95bunmcy8xpyZhCpmYCdnRpfWjlDk7Ik5Osi2bNlu8ohtZs7dlOFiBixnlfRIGUDMDfo0N+JhHl7hWa9uSXF9Lyl5oBFXzi+WkMWsC7ciGsXcuXvnkE6R6li5eR3tffmg4MDRI7T6uc20eOE0en7Ns9S5U3WqXe8JA8zbvWujiLNiw0YjHYjEETO3Hyuc3oMQjpiBTs66eOHgVM68ruhTdH2NR+bgidkFZJaYdaRXygBilju9rfu20StvvUotm5ahlJQUmjR1AS1ZvpRWrphOdZol0JOVChosmDeFps2ZScs2bqcVG9dqO+xowI1i1pU1K2ExY1+yag8qiD90/ChLnn9xh+kTAirhihmoctbFCRduq1b9ANebJ+asxROzC8gqMUdCyigbOjFZzLgpCHfd7lg7mr66coEwfPDcaO3pTfDdJ2+LOM9t26c9xRkNOD1i0RGtj0vpypqVsJjx6BsGWY64+Uv3Kk4mf/78hDuvzWjZsmWG3PylI6Pk7Ik5dvDE7AKyQsyRkjLiqGLma4/4nN4vv/wiOllnYt4etWIGfNQcqpw9MTuD9zWcmsYgy7Fbi8Zif2J+/PHvgk0bn6cP3/8gSx6XsiIj5OyJOXbwxOwCMlvMkZQyMBMzcJOYATrbflOSaO66Bdqbv+q3axZw8xckE61iRtnksjfv1jZgGvDNXxm9LXhfY4nJ+xMwfyXn3Cx585cTIi1nT8yxgydmF5CZYnYqZXQmiKdDljL4XxIzwKNDXEZ1cPq4VFYT6uNSuheMRApVyjpkMeOImYfkEc9GrZhBJOXsiTl28MTsAjJLzE6lDBBPhyplECkxr1gTG2K2eo65a9euMSvmUN/8FQmcSBnXl/FKTi4LwH4FZs1dTT///EvUihlESs6emGMHT8wuIDPEHIqU0YkgropOysBKzHifMZ5b/XTvfHpnXnXaMyYujTKCd+Y1oH/dOCfibI2RI+ZIvPkrq4kGMTuRMoCYa8cnUOemLU1xco05Z4Ui2vxVIi1mEAk5e2KOHTwxu4CMFnMoUgY6MaND0cUFqpj5wwc61HWQwzqO6CGu37YZ0kVMy/GiCfxggKjAgAnDA+gwqGfANOolGq8xQ8wom1zW1v26BEwDXs9I/0hyKmUGctbNZ6JdzCC9cvbEHDtkW7r0JfKIbWbM2ZhhYg5VykAnZqv0qpjDhZcbTqcVzXh3ZQcSqpSd4ETMw/oOEKfEVXDELYs/EmLGurUZ2ZziExMC1jM9ckZ81JsTMaNP0fU1HpmDJ2YXkFFi5oYcipSBJ+bI4on5FhkhZeBEzJ999hkdO/65uDb9448/GqfpcTMZnoXmvCIh5irtqtHatavoT/fdLeSMfZvXOVw583PeVmk8MUcHnphdQEaIGY3XTqhmeGKOLG4Wcyj7pE7KLJv04kTM165do12HPhXXznHvgyzmQsUKGWWKhJhbJjehydOepnt9Ym7et4GQMMqJfRzhocoZcbqP60LNmleihr3qmKbxxBwdeGJ2AZEWMxot4ocjZeCJObLEmpixn9nBkoWAMK3LR0YnZXk/haDTg1Mx79j3XqaIGXWCuqnQqKKxzrx/hyvnic9MpPz5s1PFqsW14cATc3TgidkFRFLMcmenC3eCJ2ZrcGMav8/7jVPHA+jYsyu9dvwNeu3EMcGW3TuiVszY37icr514g7r27SHW4cS5k/TOe6cFeOc5wE156j6BfXdwcjNtHcnYSVmOGy5OxLxt02ZavXonHT38Mr184BAd2rtfsHHlaipeoICRVyTEbEa4cka8ci0rirSIq4sDPDFHB56YXUCkxBxOZ6e729UTszW4S5mPttTBrS8YGTFjjNgPmQb9mtPcOdPoqQZltXXEhCplHP0iDMtQw6xwIuYCxQuKI2MVWcogUmI2u5M8PXLWzZfxxBwdeGJ2AZEQsxMp4wPt6vdhr321wdcRBX6ejjtTGatf6Z6Ybw3/Ky8Ywb6IbSXPUwlVyqB5/w60adNLVL1FfMB8SA43aOnECpyIOTMfl0Kb0rW35/dNFOHhytkOT8zRgSdmF5BeMYcq5Uoli9DMKeOMaVXOyKtp//rUt297mvHsWnp6+hgxT85PRhYzTvOiE2/YJZESB/akGu06UvW2Haly7bLUqEUCxVUpGES1ZrVFvGb9elPLQZ0paeKt52fVZUUDspjxYhSZWH/BiLo+ZmK2IxwpA4QPGzo16DoqPmLBp54BTkeD5YuWi9PSTsScWW/+UqXcs10/mp3a3Zi2kjOmcdZAzi8UPDFHB56YXUB6xOykswPoEF5/PZXq1C5hLBdHJqdO7RZhclzkl/uhv1KfXsn+8vnkjHlAjsfIYsbH89GRnzt3zpfvrUH3Kk6GX8mJ4fCRV+nixXcNIfAykD++p8vI8zgO4Gk1rgzS4QMOwMl8FbxsQ0fV9vWC5iF+tF5jVstqBa87n2qu1aG+IRQVVcqYnpSaQrWb+u9OVuPLsKzU/dnsIxZPj4vOj1igTZ16e53R1qZOXUk9uteiLZtGiDCOp8oZ456YY59sS5bsIo/YZvrsDSGJmf+GImUQ92Qu6tVjSMCyN27cZYRzfOQZV+0JmjuluYgzaPBYMQ/I+TJOxHx8Ui2tlMF/bn6RFstczJAlBnyrF8vjZWJg+aL+EM7zMc7xuXw8jb9vnTkZEIZp5MHhvOz0Eq1ihgxCBfsA9olW7bppJatKGXCaJ8sXMd2H7DAT89CR06NOzNyeuI0xQ5NTqGbNEkY4x0ed8TV11E8kxIw+RV2+R+bhidkFhCJm0CSpoZgGdlIG3BGULZWTRo6YFrR8uaNA/uhw8dYi5F+jSgljWWq+jCy3jBQzxIlxFi+EzPLFfAwI43BOi/LxkbA8H7Cg5XmIp4rZ7OjbCdEo5s7dO4vtHCrYL6bPGEcps/oH7Xs6KQMWevMB9UOSDpbHP0JVMfOp9pGjn6X//vpbTIg5JWUFFcif3Qjn+J6Y3YcnZhcQ6hFz3oKPUvMmcfRkI+s7YhnuCPJm/wu1a9MxaPlqR8FyxjIZtbOVySoxs4SxfNQdy5TDIVKWMebJEmcQhzthjCMfLEeVMItdnueUaD1i1pXVDt431PlmUg4H5DUpdQptfWG0eGsWbvzCRyx0r9NkoukaM7cntZ117TJYnM5W25snZvfhidkFhCrm/k8nUrPaxal+52pBcc1AR3Dunbk0Y3QTWjhnkbHsV4+sE2G4AUyXToVFLc/LLDFjOQCDLEnIFgOXgcUMwWLg+Toxc76cjqd5W2Ae8uFl66Rth5vELAOBYN/kH3GRkDJAXrt2vUQ1a/jP1mAe5GxF/sIFqXLVBFNwRJ1ZYkZb+vLaejp58iWjnQ0dmkK33/aHoGvMqDOsoydmd+GJ2QWEKmaAaacdoXqXaNPaCbRgZk9jGh1Jq6RG2rQMHxHJcBg6MZZfRouZlyMjH/UCxMGAcVm88jijk7WuY0ZagHH5ruwvvvgigAEDBtDPP/9sfC8YIo/Gu7Ih5ivX/O+NBijznDlzgtaH11O9KxvywD6A/QJijpSUAfKuWK+syN+JpNBusL2swKDbd3Totn8oVGlblb7+5jm6cmW1b6l7aPjAJlQ5rpAYB2iLiMdSRh1yWqfrbIYn5ujAE7MLCEfMoWL2XKUTKQMsv17np6hD+3Y0c+4G8d5eLhM6sSpt64nxzDiVrWIlZoB0kC/mYxwgP9Q3Bj4CxjTGdbLGfJ2Y1cGtzzGPmTteCIRJr0AiiZlwO/Vt52tbz4hXYzqVMkiPmNEGUDdYJh85y+3NSsogvfXK/Ygn5qzFE7MLyAwxA/lZ5VDAskH2+++madNWijIvXzHfmP/1N19Tm5HtxfjWfdtERx6umA+ZiBmdJYtRRQ3DtFyXHI6/PA7xIg6m5TQ8n9PqsBLz/8qbvyJ5hJxesM0gUhnsk0n9R1DNmtXFOAb+AWYH9oVwxMxS1l2DlzGTMsB8T8yxjydmF5BZYg4XLBvUrlmM5kx9WpR5zqIUMQ9lQ8fXoE9zMb5p12bRkati1gmZkZ9jfuXoG1oxRxN4icqZ82cFOB0Mvrj+hfibNGQQXbp6xZgfraeyUaZTF08b5b7sY9ioEUa5GV7PUF8wAsLdXyFQDLIccR05b5kiQdeWmccK5abHi+YzeKJCcSpcsqD4C1q3b6u9xsxH/7JMwxFzJKQMEOaJOfbxxOwCol3MAMuv2qEKVYkvLsYBd0LoxPjIk19Ikb1swTRK+igR8JIKrAd3iDW6NBTh/ngFjfQMp4llovXmr4zYnyAeXOaYNXOi4y9PqaAd8ID9CuKtUaWK9m5sJty7srEPvvbaa+JzijwvVDFHSsoA4Z6YY59sixfvJI/Y5tlZ66NezOgsUAYGnRCfzpTFbIcsZV0HhHluw613ZZsxPWUWJSf7z6jowu3AvoTT03x5AmJWn2Pmm9YmTp5Dn39+LeznmFNXj6RRI3sGlDUUMUdSysCsXTiF+xH0Kbq+xiNz8MTsAmJBzFY4FbOdlHk93QKuu2PAyzx0csxK+Bqzug3SC7YrXkKSP1d2W1mFgtmbv0aOmZ2uN3/xy0/keU7FHGkpA8TzxBz7eGJ2Af8LYnYq5fR0StEIhoHJg4UIowmUCYOuzNGImZgHDJ6UJa/kzAgpg/S2AU/M0YEnZhfgdjG7VcpYLztwgxVujosEqGcdajjGXzmymz744BidPvuOaTzg5ExHNFCvXGW6eP4E3bz5sfjLX5daOG85/e2Vo5n65i9sV+yvkZYykNsB/nYf15mqNSjr+OyDJ+bowBOzC3CzmFFmN0qZ1ymz4Ov5Klx/cjim161bKd42hXGe71Qo0Ujh6iVp7a6xtGTLiCz9HnNGShkgDbcFjK9evYL++P/+IMbVuDo8MUcHnphdgFvF7HYpo9zogDMas+2ukzJAuSq3S9DWbSzKGeuHMltJzomYCxcpoJV60SIFxQ1mnJeZmDNaykDdZr1GNKP8BXOI+U7avyfm6MATswuIBTFj+UAXphMzyupmKasyzGzMpMygXs3qN5bk7FRyTsS8cc062rpxszgF/vKBQ3Ro736D4gUKGHnpxJwZUga6bcZtCcu26wM8MUcHnphdQDSLmTt4GZRHjqOKmTsSxNWJwZNy+rCTMuDtZlbHTkWTFaBs+LQpyoYyOpGcEzFfu3aN9r1yRdw09tNPPxk3kp07c0YcOXNeqpid1lV6pQzMthm3KTs5e2KODjwxu4BoFjOWW6F1ZXp2amf6+ptLtHDD02KeHEcWM3cgZh1MtEnZaZ1mtJSx7fk93lbgZrKzH54Tf3XhjBxPtzyAdcc6RZucUdezFy+i3v1HBu1rZjgV886Dnwgx//LLd47E7LSOIiFlgDysfkzZydkTc3SQbdGiF8kjtkmduS6qxZzrwfuoV0//4zWQM+bJ4E5fflc2EytSxo8OlMmq481oKYP2A7tTj8H9qO+QJFuSxwylgSMGa8NkOJ5ueYwsHmyX9KDLPxzKNo2nGQsmUoP6NalZ//raOCpOxbz5xTN05cpluvzZZwFixnVmzovFLNeNvCwd2EfSK2Vg1z5QJis5cz+CPkXX13hkDp6YXUC0i7lLz9o0f2oLIea3Tx8V87gjAhBzk6REY1rXsUSblAHKM2dGV7ENMK6Lwy+gSK+Ude9/BvzqUbzlKqMGu9ebsoDSC+pKl3+ooDw4lY08nda7EzEP6ztAvL7zp5/eor+9ssF4nScexdLd/IXlO5EywH6PfVwXFgpYpl0bsZKzJ+bowBOzC4h2MTcbUJeq1ypFHds/Ra0GNhbz5DjyqWzAX2/iLzWh/Kmrp9OSLSsD4gD5M4tAzgfjSI9Ts2oYzzerM6c0bJ9A8xb2pAEpHbXhkI3TztkKlJMHeT1wxLZ//346efJkWqh++Oc//0nvvPMOnTp1il588UU6fPgwvfzyy/TBBx+kxTAfEB/LwSc55TJFEv4BEyk5q8ji1OFEzE4fl8InTPFjM5TtnpliBmZyxn4GPDFnLZ6YXUBmiln+Niyw63ywTCxbRu04VDGzZCFdvtbZfWy/gKNFDEgDOaMTHDx9KN28ed6Iw0eYqBOM468cBpAecsY45xsOqAOzIzOdmNEhDhk5kPqNfdqyM0aeg6d3oT17VotT/bofEhDmmjVrgj4VKQ9vv/02LV68mJYsWUILFy6kuXPn0uzZs2nOnDm0YMECWrVqFb355ptpsYOHf/zjHxkuZpBRcoaUaz9Vnjo3bWmKEzE7ecEI9ndsK+yTunAzdGLGPLW9yeE6dO3LDJ2cuR/xxJy1eGJ2AZkhZlxDQ8egfrgd4IPuujRO0YkZ64Jy40iZhcpiAoiDeRAzxN2qeRlKSUnxlcf/mkidxHTzkHd6xWyFTszYFu3bdKSFC1aIcTlMBmEvbFso1sksHoS5du1aUzHv3r1bCHnRokVCwvPmzRNSnjFjBs2aNUvImSV9/PjxtFSBQ2aJGWSEnHUfscBd1WDRknV06dKViIiZf4S2TG5j7LNOUcX81pn5vpoPbGfc9uQbzVSw/FAu96hy5vbliTlr8cTsAjJDzOgQLl9eTVOmdDCW++zUVfTFF7tFmC6NU3Ri3nN0nzgKhnRZwhAo4srxIWaif1OHlo3p88+viGnOUxUu8uG88BdDqB1oqOjEzPLBjUlWnSjCBkxsSwVym3/QwUrMe/bsoeXLl9PSpUt922uROFLevHkzHTt2TIRt3LhRyHnmzJlCzAh/66230lLfGm7evJkhYjbbHzNCzmbvyh41dk5E3pXNUsZ2wr4Z6n6lihltCm2L29rkycuoR/dadOXKahEmp5UJVcyA5Yy0npijA0/MLiCjxYyOAJQrmY96dh8csGzImcN1aZ0gixa8eHi3OBVodtTLcgUQMdLzX84H4zoxy/khrrwMpAFy/ulFJ+ZIAsmsW7fOV/+Bw0cffUQrVqwQYsZpbJzu/uGHH9JCbw2ff/45paamGkfPSHP16tW0UP+QEWLGvoivSC1bPo9W7ng6KDzScjYT85DhqekWsyxlTKdXzNye1q/fGdDWhgyZQjVrljDC1TxAOGIGSOOJOXrwxOwCMkvMZUvlpBHDU4KWr3YUuDZarrG/Y8WyMW0FOrHqnRqKccQ/cOwgLdiwLKAMjCpXCBly5XHuEBGP5wN0lhisjqIzgswQ86uvvirWTR62bt0qrh1DzJs2bUqbqx8gZxw18yntQ4cOpYX4h2+//TbiYgbYP6ZMWU41aumvs0dSzriOfOPGFYOPPvhA8Py23fTpRx+HLWZVyiBSYlbbGcRcIH92I1zNA6AsnphjH0/MLiCzxIzruHVq1glavtpRYFkV4vLQqBFTxbgdODqWn2PGaWyzdbESMx8BYx7GERcdJOZhwHxOw0JGeGZfY44kuselPvnkE3GEvHr1alq2bBl9+OGHaSHmA05x46gZp7Nxalwe7B6XCgfsixVbxVOdumXEDW4sJZVIyTl/QnGaMrOX70ffdBo5voO4Z0ImnGvMOimDjBJzo0Ztxelstb3JoDyemGOfbAsXvkAesc20DBYz4M5gYnJ9mjlphLHsI0dwrTa4o2jYIYH6928hOi0s1wp0YnjEhKfRscl5yahhTqZV8WKebn5GkNFiZlQxQ66QM8SMR6XsBlx3xg1huDkMyKe9dcuLBNjW+Mv7Z0bJGcvha6g6aWFfGD1+LI2ZMM4U/GiRxYw8kZ9u2yK/9IoZN3q9/fYuo50NGTKZbr/tDyJMbWsyZutohypm9Cm8bI/MxxOzC8hoMVdsWdnX0WwwOoVKcfmpVbPyNHd6D2Neq6RG2rROQCeGzozLh7Lib7jljSZkMe99+aBxjfP06XN05sx5emXhIFozoCKltMprMMXH/onNRDjYv/+Akc7syFUW85kzZ4SYWc5Ohvfee0+cxoaUcdSMt1zxoFtepGExRFrOdlIGqDtuP2bg7Ar/kLOSMkivmNHeuF3t3Daa4kvnpzIlchnzrJ6CsFpPKzwxRxeemF1AZhwxq3KWSY+UAR8xo4wyfLStSxMrmImZh+OTatHRwUW18GAlZj7NLIv57NmztH79enFTGK4zf/XVV2kh5sPFixeFkPFIFZCPmHkZ8nJDhS8dWJ2liISccZ8C/iKOEymHip2UQXrFDGQ5y9g9mhjuunpiji48MbuAzBAzQGeBv6Vz5hOdhBoeLujE+Bpzm041aNGCVTRh5iwaP2Mi9RqcRN3696Pu3dpRg0o5tLRu8ZSIw3Qe0E/cqASa9m6nXWZmEQkxHzr0Eu14fhN9+OGpIEEiL/XNX9evX6cNGzYIOeM68xtvvJEWYj4g3vz58wmPVQF5COXNX6jvSs1rUcGEkoJ8FYtSrgqFqVKz6rR99w4xDjgcIA2vlyooFTs5dxvXmWbMnEsNe9UR9R6uqHQ4kTKIhJhl0NbQ5nRhKuGuryfm6MITswvILDFnFLKYBw2oSy+99CodPXqUfvvtN78ZfMPlA4u08gIfPDc6LZZ/WLJstSHAvmOTtcvMLCIhZhwxjxyeQqNHTqTEYW0C8kdekKr8HPOPP/4oxMxyfv755y2Pmk+cOOHbjxYKIePRKryqUx6+//57sRw7MUOuiIcXd/Bw4fhBem5K8yDkAY9jTZr/rMjDTszASs6DBvajxo3aih944UpKh1Mpg0iLORTCXWdPzNGFJ2YX4Cox+/jupl8inpj9A46YkebmzY+pUqvAm9swX/eCkXPnzhlyxintbdu2iXnygJvC8KgVpIy3g/GLSL744ou0GP7hu+/8nzjctGuzWBcz8KMB8WQxf/H+63Rgfocg5CFUMQOdnLF/V2wdL+ajPHxaO72EImXgidkjvXhidgFuEDNeY4gyonOvXCY/7d69xbGYESYPbjxi5nS6U9k6MeOoGaeg8QwzyxnXm/F8M8B8yBjPOePObfwF+MiFOvArOe3E3GxQooiXGWIGZnKW46SXUKUMPDF7pBdPzC7ADWLGzV/o/PioC8hiPrd7uVZewErMI2aMEesfKrpyhoMsZvxIgIDAlt07aONLO2mwb7t0bViAujGNClB3H72aFKD1PrFu3buTeg1PMtLpxKx78xeGf/3rX7Rr1y7x6k0+rQ2J84tH8JYvsHLlSsHevXvTUgYO33zzjVhOOKeyM1LMQCfnSBGOlIEnZo/04onZBbhBzOjMUD7u3IEs5q/f3qmVMrAS85i540WnFwqoq0jJWRZzRoB1hHDNBhw54xllyBlHyYiLR6ggZ1ybhtQhZXwS0my4ceOGWE40ihlkhJxVKeO0uDxthSdmj/SSbcGCHeQR20ydsTZLxZzea3ksZoybiTncI+ZwTmVzpxyJjpLFHKnrnSqoLyA/LqUbcPSMm7yOHDli3BCGU93qdWfdwMvQLV8Gcc6cPxuymN/94L10iRmEKmfjB1j9MkHbRpUyqNKumniZTv9BjWzl7AYxo0/R9TUemYMnZheQ1WJu2q8+DRvegvqO7qkNt8OJmDP7GnOk5Ix8wpEzOupQ0tiJOT2DbnlWYFsyJeuUErzy2j76+KNz1HdULzEtx5HTpkdQocgZ8SZNWkrFSuYJEK1Oyhy/WtWa1LCp/RkQrJMnZo/04InZBWS1mM9+uJRKPpGbuvdN0obbkV4xZ9Rd2VklZ3TSm3cuomdnraUBKR0dbTdse7wTXOXUxdPi05nyPExjvjzPCt3yQgXbFz8edGEy6RWUEzmjPmv3aExtfcuq0zg+YD7S6sTL+VZoVNF2G8pixvqIfch3ZG5VJk/MHjKemF1AVooZecb5jiKQf/O+DUI6KmRUMeN0KJDFfGrXItret2gAOwcWF6hifu7554080ntXNnfWmSlnxCkbV4QSW7QTy8a0btulrh5oWTbubNWOWjcvszHbFyMhKKdylgXM21knZaswHbKYka5TpyT60313W6b3xOwh44nZBWT1ETPnG46UgSxmp/A6hbvMUOCOOb0dJ/JxImfEq5Dofx6X4wN5+yFs5LAhNHnyUjEupwdmUga6+SgPLyez0IkzUoJyImeGty/KFEqYGSxmpG2Z3CToyFyHJ2YPGU/MLiCrxZxeVDHjfco47Qn43cr4y+NYH7yQpNPIXiIdx1VPlSKM60UNYzDfyY8C7qAzS84ySMMyk7chypO/YA7RqcvxAeKalVXtvFEOXjeULTPAslBGtU4jJSiA5SB//NWFA96uKIsu3CrMDBYzxuXtZYUnZg8ZT8wuwG1ixscOcG2Tv5fMYsU4rwu+4cwC5zj4C5AH8sMgh6nXS5Eeg5m0VbgTT28HinwgC3T44ciZ01h15ohnJiS585alrMbLSLgu1617gboObWrMj6SYgZWcuQxW4rWqRzNkMTvFE7OHjCdmF+BGMfO6sHgRjhuWBk8fSmPmTDQki3AeZxlzHrKIubPko26OiwFxOR6Qj85VuDNPbyeKfJzIma+VYxyPFF14/wJVbV9PTGOcw/CMMW5248ea1DCM68LWbt8ophHG1/f50SVOh3EO42v2GOcwHVi/Uo3LWa4f6nFAv7rivdY8L9JiBmZyZhnJ81Q8MXtkBdnmz99OHrFNyvQ1rhUz/mIa65C6erqIKwuWxYxpxGPJIo56JCzni3Ee1E4UcczEDDJTznx3OcZZvhAnRKkLgzjxtSaMszj5VaCYz2GYhzDE4TCkxTjykpeNZWGZujCMo+xYB8iFiU9MoHFT51PPvsPFneWIp8LCRHyeFylBqejk7In5FqqY0afo+hqPzMETswvITDHL34aN1Kcf0YmpYsY8DPg7IGWwKH/1Tg2FhOUjYcgXA4uW5yOdKlfEAZiPPHjAPIRjvrxcIJdLJrPkLAswGsWMMqMeUH7UBYPpBYt7UXzFEiIcaZyQUWIGqpxjQcyhtjesjyfm2McTswvIDDEnp3QSHcOX1/D6x8DOYsGGodo0TlEFCFHyunDZWVpyGJBPZbN4MY55PM5gORxfHeSja+RvdcTMqHIOt36t5PzLL78IML5+x2ZR1tSlc4Qs8TgZ3rKFsE07t4mwAROGC8li+OzKJRH22oljYprFjAHzEIY4GDAfaTEgL4QhbywDy8IyMaAMCONyYf3lI14G64Q7kuVt54SMFDOQ5RzNYn7x8BRfbQe2M257s1cPCkgrg/XxxBz7eGJ2AZkhZu4cNmxINpa7du0O+uGH3WK+Lo1TzMSsSlkO42lZzMgDA6TK4xwfy+B4MpgnSxlgWi6PFajTnoO60K6964WIIiFnlgaIdjHrpJwerMScnv1XhuWMZeGvLg4TCTFjO3Yb25m69Gtoum7qeqNNoW2hjXF7W78+Wcy3am9YH0/MsY8nZheQ0WLmzqBvnzrUvdvAgGWj47DrLOxQxcxiRbnVjp/DeBrj8tEtxnkaYZCsVd2EImEdqNde3etRz+6DbDt5O7B9eFsx0S5mjOvgH1Oh7nM6MbNAyzSvGHE5A104EwkxYxmrVi6jP/6//890efJ6c3vaseOFgLY2aNAkql8nzghX8wDI3xNz7OOJ2QVklpjLlMpJw4ZODlq+VUfhBFXMjE7M0QY6tAET24r6VYUSDuo2Ck3Mv5uI+Q0RFp6Yfw1ZzJBy/b7NaGBS35DPIujEjLqdOHEJ1ahp/ZKOUOF2oQtjInUqu+/TzalKjRKm+7NOzGo7g5gL5M9uhKt5AKyPJ+bYxxOzC7ATMxo9Gl2oHQzDHUFiszJUp2btoOVbdRROyGgx4wanUIGMdHllNkuWzKNt2zaJ8aHjh9PsWVOp1/D+onxLfWG7du1ICxtBc+akUtdhfYRk582dTitWLxFhcxbPoYULZxtiRrpZC2eKsHWb1oi4mN+wSyLNnfssJfuWg7BDh/bS89s2imU16dyKZs+eRrOXzRNhq1YtpW1b14txHf17dKMhgydRlaecX18Gqpgh9Yqt4qlKQhEq3TA04eAGN922BVhflpEuLZMV15i5PantrGGD1nTbH/9g2d48MbsDT8wuwE7M6NzQwaRHzrjx5IXnh9OEwfVo3PBbp7PXrVll2VE4IaPFzHcQr1q1zJIN6299/CKzxYz1x2l1husDR6y//PKzGN+0c6uvnn+nlEUzRfkQduuIGWHyqezf6a2Tx0WY/4hZPpX9u3TE/JkRFnzE/G/jVDaWiXQchjJh+RjHpQO57E2SEimhfQK1aZsgHpVK781f4Z7pgYB5e6pEu5ivXFkt2ha3s8G+Hzm33/YHSk3pLMLV9IwnZnfgidkF2IkZpEfOFVtWNu4IXbeyDzVpWJpaNI2j5zYNFfPSI2WQGWI+dGg3vbhzI506904ap+jU2VP05tun6NjbJ+ntM+doy5blND01RcTPbDFDaLgRjbcjXyeHGHHKGOXxn64mScy3TmW/8ubrRhgee8LAYv74s0/ENGTEYVanspEXwvgaM8LW71gdEIYysbRRdi43vlyF581ZMqFIGejEHC6xKmaANnXt2hqaN6sbxZXMSSWK5aDmDSuI+WiLrZIaBaRnPDG7g2zz5j1PHrHNlGdXGw1K1+iYSMiZBS1j1kk4JTPEvO35tb6yWg+//vYzbdiwVMRvNihR1FUksVoXlluFelWoTt1aVDeNl3btpEVLF4vxkcOH0bFjx6h9h7bUtVMHyzCMT5oySYTNeDZVTGNcDVu9aqUR1qNrZzE+cHCSEbZ1+zZtGJbNYUzjjo1p7a71Yl106whQB9j/MoMjr71C23fs1BLtYubHE1WspAywPpEQM/oUXV/jkTl4YnYBTsUM0itn/OVOQg0PF1nMOAJDpwnKN0sQFEwoKchVoXAAPJ/hdOrRLkT7t7+hzNbDr/93S8w1ujQU9RMpek9MEq8T7T62nzgaVsG2W7J+JVWqWIHy5slDTxQpbEKRDKdY0dDJ5ytzQnxF2rR9k6mYWcqoD4hAB9eXLixUNm1dk7ZlA4f/+9V/hgBxolXMMnJ7s/sR7InZHXhidgGhiBnIcg73+l0kkcXMb5/68MMP6ezZswYvbZhFC4fXE6yaXI9e2zsqIHzVqlUiHUAecv7hiFmVe3rAuuF5anDg2EEBT8v0GZFEhQoWoFHDkqlnl04xRdeO7YWgp8xOFT801DpgKYd6ajs9TJmB+x/0QyyJORQ8MbsDT8wuIFQxA3Q20Szm77//Pq0L9Q+fnHiBDszvIHh7Rwf64v1laSH+Ye/evVErZsD5ob5R77pOuG67JlS4UKGYFDPKDDGXqFUhaL2yQsrgmWdG09HBRYM4PinBE7OCJ+bowhOzC/DEHCjmCYsminVjtu7bFpKY8T7oSIuZywauXr16i88v0eHD++jTTz+ls2dOU+VKlYLEPHncCBo2sF/AvGiDxfzOqZNiXd69eNq3fp8HrOuNGzfE+uOmLF0dRZpGiQ1MxYxwT8y38MQcXXhidgFOxSxL2M1iTp46SnQ0Mn97w5mYB4/qG1S+SMB3CENOuJvZ4Ndf6Mrl99NKQNSkSZMAMb+6fzN9evFVOn1stxC0LMNoAmVu0bx52loQ3fj7Jd/6+e/cZljM/AGNjObRoo9ZipnbgJpOxhOzR1bgidkFmImZTyEy6GRYxG4Ws3oqG7zxxitpMc0HiHnm3MlBaTOask2rifWv3rYhFVFOZUPKzPwZkwJkGE2gzFWrVKEGHZsb2zKrsRIzi8hOup6YPbICT8wuwEzMaGhN+9WnlAkjxThAR4OwaBUzrv3h6DIcMSMdUMWMvJ2I+f9+/5m2bl0dJBZcG00v+Gzimm0rBJt2rjPYuHMNjZycLOYvWT03SMzrls82jpij+XQ2yoxT2WNSJoh1mbFkasB6Al7/lEWTtXUUaXI9mctUzNj3nYjQE7NHVuCJ2QXoxIxGBh66/3YaljyJfvjhX8Y8hEermBlMj5kzUbysAo/fNOvSmGo2Ky9o1Bk0FPMZNb0MwpyI+TeNmNWzDuFy4f0LxqnsgOH3/9Lpd47R9evX6dtvvgk6lQ2i/foy4CNmrAf45sZl38r95l/HtIFPZaMudHUUaaZMGWcq5o4jegTsI2Z4YvbICrLNnbuNPGKbKamrTMWcL+c9tHp625gTM0AZ+Qg/PYQrZpYyOi3UU3rAzWQ4asabufBBCJllG5caj0zpbv6KBVBmXGPec3ifWI+pi1J96zY7YD2x/qBSq9raOoo0k6ZMNBUzzsyo+4mO/1kx+/oUXV/jkTl4YnYBOjGjQ0FDW7trLJUpkZvadvFPs+j+58R8LDQxs5RxSlSXZ6hAzHbgcSn1VHasgDLjVDbWQbduMrr6yQimzt2UtmWDB0/MgXhiji48MbsAnZghXJYzg2kWTWaLGctVy8IdnpmY0VGhw1Lnh0qoYm6Z3EaUUZUyOnM8SqVDd8MZg3XgG9PAl19+eYsvLtPhQ3voxx9/pGtXr8b0EXPVKgliHbAuFy+e9q3ftYB1lR+XQp3owDbnI17Uf7exncW2CEdaq7ccTtuywYMn5kA8MUcXnphdgE7MgKWLBoe/smgyW8xYFhg/cTTt2bNajKPTQ1hGixlvogpFzG1Gtg+SMsBpWFmwMpCzGh9gHbCu8uNS/C1jwc8/WT4uFSugzM2lx6W+vXHZt37/DlhXFvOh14+IetHB+wkz8ZnJVLRIcTGuq18ruM7fe/coDe7fgG7e/NjYXp6YA/HEHF14YnYBZmK2IivEXLVGCXor7StIp8/+TcxDZ/T1N19Tgz7NxfiIGWNEx3nz5k1xpzUzakR/6tS4pKB785I065nuAeGTJ0+27HSPORTz0xMHaaUMnIgZHWyrtu2NdcNfs/xU8NasWD+VrXvzlxN4P0RdyTTqkEBVfPtNOD/QWMw6PDEH4ok5uvDE7AJiRcyP3f8nWjmjPX315VX68to5MQ9AzDhKxTje2oWO0/5xqRfSQvzDSy+9ZNrpQppOxfzsrIkivu5aKMR88eK7gpkzFxvjgMWMdSj5RG7q0qmdGGcpI5yZvXzBLZbNo64Deoj5C1csjnkx43EprEvqwlmB6+lDrgOIAEBIqCcIMNL7oidm53hiji48MbuAWBFz3Z41qEenSvTYA3dTyfpxYh7C5FPZzl8wYi7mrqN7i46OwTynYrZ6V3bjjq3o/Pl3gzh79oJPRHNEXdbuXkvccKfWrXwqO2D4/b909fMP0ibccyo7lMelnpmwiLp1bxpQ15FAvuFMRRdfhydmj6zAE7MLyEwx8yfo5E/ROYGXJ4POCGEZIWZ0cgzmRULMfUcNTosZPEDMiGNWn8gP6zZgwnAaNGlUAJPmTRbbDp99jPWbv7AOWJdpi1N96zYiYD2x/upNckmT2lKzxnFUto3/k6IMn2nIrB+OZmS1mOW2du2rDUHhKmhXnphjH0/MLiAzxIzvwMqdhMzs1YO0aXSwlOV5kRazepoyUmLGM8hnF3bW8uz81KD4MsgP5bKi2+DernhcSrduMnLdshDkuoKUcTf29OnjqWVykyyVc1aJOTmlk2+PDG5rkLPVN5lRl56YY59sc+ZsJY/YZvI0/1FKRoqZO4ZNG5PFMlet2kYHD+6gH37YLebr0jglasRs89nHBm2qa19YsaNnAeo9pqfoxM3gN38B+cMOv/76Ex09epAuX75s+nWpWICPmPG4FNZlx45NvvXTf8QCp/V1R4cy/bp3pYRK1anKU85unMsosO2yQsxoU2hba1etMNrbW2/MFPOtjpwjJWb0KXIf45G5eGJ2AZkl5mkpHWjI4IkBy37++e305bX1IlyXzgmymPnIEqc+3zpz0mD7c7NofHJ9wdxZ9Wn91mkB4cMmjzGOyNT8IYMrV077ymg9/Pe3f9HLL/sFrxNzqepPmIq5WO0Sok7NgIzA+Xcv0GdXLkl85sprzP+4+blv3T4NWFesO+oAj0th37MioX0CVfXV+YCUjsZp7azASsxmbSe9YkZbQpuaN2d5QFtLGjCB+vaqJ8LV9AzqzhNz7OOJ2QVktJjREYAypXJS8pBAMQMO16V1gizmjACivXHjK99R8z46e/EcnXv3PL3/sY9PztMHn1wQnP8AR7Tvi7jhiDlX+YJB8UMl1h+XeiKEx6UgAjsQL6OljDZQq2WC6RG8TsyIi3QI07WfSIgZqO2sQ/v+dPcdt1u2N0/M7sATswvILDFXKPM41a1ZK2j5Vh2FEzJDzKESzhGzLBUVPCKE7xCDbS/tMNi6cyvNXjyHDhw9Qrt274ptMRcpItYB6zJ70ZyA9QS8/jhqhnDtcHo2J1yw/zdv2oZuv+0PYlwXRydmxO3QoT+VjisQMJ/JKDFXrPgUFcif3bK9oWzY33RhViAN0npijg48MbuAjBZz6Zz5xKm17duG0eg+FWnk4H7GsnEq26qjcEJGizlSjJucbCrmeStni/o0w+zrUr///gt9/dXHaVMxfiq7WbO0tfCfynb6uJQZZkekkQTLqV6rtBCjLlwn5hY961CThqWpbafgH28gUmJetXKp0c4aNWwlfkDwqWy0STUPgPXxxBz7eGJ2ARktZoDO4LtvN9Hcae3oob/eQeXiHqeSxXMYnYgujVNCETPK22Zkc22HmdFYiXnKrCnaNAyOwPlxKZVeT/cR2y7mH5dKuPW4VOqSZ4PWkx+XwjZ0ArZxZsjZCt1+Bomi7ZjJPFwxy/mhTV27uob6961DD953O913722UMqWDbXvzxOwOPDG7gMwQMz++wTd6yejih0IoYoaU4yoUo34DhotOkzs0J6S3g+/aK5G+++TtID4996bxHLMKLxNibjmgoyW9hveL+VPZjTo3166bjO4ygY5okLMqZuxHaDc41S7HkwlHzCxGeVlqO2My43EpT8xZiydmF5AZYmbUTkIXJ1RCEXN8YgJ17liVypbKSa0GNhan/5wQbgfPHTEYPXOsb531g07MWBanNzuV/fVXV+m1o4fop59+oq++/JKaxvCpbBwxYz3ACzs2+tbO/lS2leCALGfEx19dvIwA+w2WyaJzImUQjpiBEznL8XXI5Q0FT8zRhSdmF5CZYs4IQhEzyouXTjjpIGXkDt7pOnNHjLpCxzV9+Vz67PObWnBzl5wWy0B6LA/p+cYn3Bj1xqnjEm/SydOvizoAsSxmXGPm9fjg49O+dTsWsK5Yd9TB2u0bRX2ifgZM6k/Dxg+zFC7qcvD0LoTn5qfP7p4pcg5XyiBcMQMWpCznUJDLHAq8XE/M0UG22bO3kEdsM2nqCteKOZLlQ15OOy5dR+z0s4+ylDm9k9O3Mf+4VJHQvi6F+n1m/GB6NPsjYlwXh0H4Iw/cQQ2bls9wMadHyiA9YgbpkbNcbtB/Yn9qnVjVts5UMYs+RdPXeGQOnphdQLSIWc0LHRmWgY7NajlmYkYaXFNGHugs1XCVvGWKUNEiBU1BHO64ChUrpI0DJs3tLeKpHbETMatSxjTqGuH8kpG3Th43ePPEG3TolQP0yuuv0r69e1zxuBTWZcGS+fTxZx8HrOvhV48YdcB12mdUcypQKKeoM56ng/fXjH7hSHqlDNIrZiDLmduRLp6KXHaM9+1Th27/o/njYIwn5ujCE7MLyCA/f8wAAM0vSURBVEoxo9No2q8+jRndV8hIzg/XgCuUyUWnzu637HjNxIy8q9YqRm0S/Z9QVMNVINVDe/fTuTNnBKNGjKEe3fvQoAEDKbFRU8pZNC+Vqh1H+SoUpcoVKtDkZyaK8O7dehtpbty4Ql9c367tiPFWMb6zWIXfOIY6kKXMkja7xoyvS127+mHaBMX8qWwe/nHziu9//TVmWczhwPWq20YsUic/5FRUKSN/TOuWY0UkxAxYlvhxOm70EKreoqI2noxcfrTxFj3rOPrh44k5uvDE7AKyUszII6FsAXqySC4xroZVqZiHWrWJF3KSw2TMxAwatk+ginF5hPx14TIQM+SKzv9t3xEahqtXr9LIkSO1bNmyRcS5fv3v4pvKfPTbpXUTkR865FDBOqOTk6WMvHAqm18ZqtJzVB9KThlDY6ZPpCKFY/eIGTd/TZmdKtYl6Rn/jxUd8jYLFdQr6higbtX9d+i4rtShQz8qXL6QqH+nIC/edpwXb89Q20ikxAy4nd5z1x/pkYfut2xHQF0Hp3hiji48MbuArBQzGnRz/CrPnT2o0+DGjvno5OQwGSsxA+RhlZ4JEPNp/7uxb968ScOGDdOyZMkSEUcVc+34BKN+wgF1qnbq/BwzSOzbKQCePyZlQkyLGaey8YUs3TrK61mpVW1RL+GAOmUhs1AxzvsAwks+mUP8xRFwKKhCU7chlodp7BtyPJVIihnLxje+sdzmfRvYtgPE88Qc+3hidgFZKeZIYCdmp2SEmFE/ocBlQUcv1y9O3yJv3anss2eOiyP7C+fPUdOmTWP6iBnrAV47us+3cvpT2QB1Ew7yjz/UrZmceTw9qGLu0rMf1apZwigHli0vl4mkmIFuGWagbJ6YYx9PzC7AE7OfSItZlQA6L8y3g6WMcU6PG8dwA9iabRtpy+4dEs/TrgM7RB2AWBaz/LjUxfff9q3btoB1xbqjDgCkFw5cnwy2i07OkQDLk9tIow4JVPyJx6he5+rGMnXLjbSYQ8ETszvwxOwColXMaOzowMzgTg2dWKhiRnpVfhkpZu64uDO2Q5WI48elYvxUdiiPS0UK7EO8P4WC3b4vixlwm2HxYZ4uLzMxcxnV+ZFELl8oeGKOLjwxu4BoFDM3dDvQUYUj5oQaxahx00YiD54HMeOubNxZ/c45/81fTsX88uGXhdSBTszqdKjgxRosfn47Fvj3v/9Jr75yWJTznVMnqXLl2H1XNsT82aefinV57bWX6fLlSwHrKt+VLV/bZbqN7UTTnx0XVj1jP0Ye2E5OwDKA1f6vHjHr4mKempdOzJBy0tD+1H9Qo7DWzykoryfm2CfbrFmbySO2mZiyPKrEzI0cHZDu9CPDZfj6m6+pStt62jg6clcoSmMntaUKcYF3guM55rr1K9GBY9Np59G5NGH6NBoyeiRVqhJPFar7Ov/6CdSod1Oq1LKGmG7YtCFNmpFKfYcOEVJnCpQsbHTenLc6LeOkDuVrzL/99tstfv2Zrlx+X/xAwBDrp7J5+Paby771+yVgXVnMeHQMopLBdhw1pCnVq1MyYJuqcF2nd79FemxPYJaXKmYz1Lx0YkY+D9x3u6NnitMD8o6EmNGn6Poaj8zBE7MLcCJmtXPJKDE7lTKDckDMLZPbOC4L4jVJahjUCXFHarVsNY0ZTsWMskAsg4YPoF6jhgeFMziVbUajHomue1yqZf8O2nUFuvrBNkny/dhq0yZBW8+A6xrbEK9lTe++i/RYFtDl5VTMQM4LPzJVMXO7AE7aRbg43b9VuHyemKMDT8wuQCdmnNbjjgConU9GiJkbN5aFzgd5myGnQyfWZmR70w5ShxrPiZQB4sgdF+ej5udUzAB5liiai/r1rSPGdXHw/C5uAAPJE0cZDJk4ggaNHy7mu+FxKawD1gXrJK8n4PXnx6V09WRHj6RGVKVydSpXtogxD9u7fp+mou6x38vx7UA5sF11+x7vU07LynlhX1bFnFmo+7dTPDFHF56YXYBOzGhkeCnHFF8HWaZ1NTGtiiaUTscOnZQxrUPtBNGJNejjf/WmroO0w6mUAeJxx4Xl4K1KvQZ1plrdGwUsNxQxc10261/ftPxWj0udOf0W/fLLL/T369dj+lR2Fd8RM9YD2D0uZbed+YfliKk9Rf3y/IT2CRQfl59KN7wlH8SbND7Z96OmmBjn+U5BOVAetUyhihkgLs7+YJ8OJV2kQHk9Mcc+nphdgCpmNDCATyO2bN5GxOF53BDDEXPFlpXFX/UTdFZSRgerwnF52ejEcF2Oy2TXaTPP79tJb505SWc/PCc4dfG0mJZpldQlIA3ylzuurgPq0ZOFH6dRI1oFxFNFrE7r4PXWdYw4UuTHpTbt3CaxRTwuxeVNqFw5ZsWMa8xnL5wT63Hw6B6xbvK68qNSqAvUpdl2ZiHWfKomFSyQXYxzGO8j6g8wPMpUpnw+8RIOeb4ZWC72RZSB91m1TFwOdVl2YF/G5Rmz9QsVub1xGzTDbP+zwxNzdOGJ2QWYiTl/zj/R8mmtqEWzNsY8boihihkdAncQMte+2kBrd40N6OB4WWYdhCpgFjNEiw7NyWltxE9IrE0tknzr5+OpdvWoYtMaAST26WTUCSOXC/lXSIyn9u2qUMn6cQEdcDhiBoiDuLowLM+Kuu2axPyp7Lj6lbTrJsN1gbqCHNV6wvbBmYzOPWtQjYbljDgsD7P9Cvk5lSjyfHriWGrg21b4MAbmcZkAxpGXPK3mYYYs5lDTMq2SGpm2Nys5W9WPFVy3npijA0/MLkAVM0Ajmzi7MzVuWJqGDPN/vxhweChilqU8b8YI2rZtG02asJgWzJkm5n39zXNGh4iOCPly54D55Rr7lyULi5eP+BAzbhjiYcLCKSJsyrL+4r3VeHxJpUa5eCpatKgl8fHxlmIGvP5qh66KWJ02A3Hk9WT4FC7g073g6ueX6KzvCPOjjz6igwf2x/QRM8T89onjYl127NhKV69+HrCu8uNSqBPcyGUmZmwn3Tx526UHbKcqVQv5fgg9GrAs7A8IAxhXp+U8zICY+VR2qGkZbm87tq0w2tvKZf72ZiXncOuI69cTc3TgidkFqGJGJ8B3r8rI8mExOu0w0CHMmNaFxo9fELDsAwe205fX1ovOAvHQ0cr5YrximVzUqHHgM8eAy4Cji3bJ3cUpUHRoHHb2w6UBQvv+++/p8uUrdOjIMdqwYRP17dtX+3wy40TMKlxvuOaMcZ6fXjGbPy71C12+9J6vfv2DWx6X+uZG4ONSP/zwL0PMeKab6wp1PX/D6IA6Y0mo0/J2wzi2TyjI+zrGcWc38lV/lCFMFqo6LcfVwWLGeKhpAdoa2hSELLe1/v3H0/r1ySJclw6o9eQUrmNPzNGBJ2YXoDti5k5A7uBkWIpOOgt0BKBMqZw0ZNCEoOVzOOKqYo5PTKA69UtR+Yr5Reck5wtQDrPHpcZO7hwgZhx1Ydi5/xy9+eabGSJmhOMO6x69uwSUF2VDmE66MkhjFwdwR4hxPC6Fa+Gdh/SO6VPZuPmrz4gksS4t+nUw1hXrOWdmZ3os+yNinI/2MD54QF268547jLoAct0ASFU+suZwnu+EUOWIeHIadVqXhpHFDEJJC7g9qe2sXbu+dPcdtxvhurSoF6v92wyuU0/M0UG2mTOfI4/Y5pkpy4LEbEc4Yq5Q5nGqU6Nm0PLljgKdIOfL45AzOiU1XwadmO66Ml72oRPzC3suZIiYsWxcc+7YoSrV71w9KJzrzEq8WIdQxMz5QWZ4Bji2rzEXNsSsri/Ws0DBW98FRl3jWfRixYI/F8p1w9OymDmMp52C5YUiR6CmcZIHype6eqL4sSnvB07SMtye1HZWoUI1KpA/uxGuS4u6Mdu/reB65X4EfYq6fI/MwxOzC8gsMbduVo5G9a5IQ/r3MpY9Y8bCgI5CFjOWgY5IzU8FYtY9LlW8QIEAMf/444/i1Y5bd76TYUfMdvXB9SZ3ujIov1mYDPIo9UQuGtDP/+wzrrGv3bw+5sWMdcC66NZZxayuWRI8LYsZ4yx33tecvmwEcZzKkVHT2OWB8kycMEQIVF4HYJeW4fa0Yvli0cbGjZ1PDeon0u23/YFKFs0T0N5UsExPzLGPJ2YXkNFiBugIvr2xgVLHNaaH/noHPfrgnVSyeA567aj/hhSOF66YcfqPy8QdF16NWSJPfiFolYL58zoSsyqJcDsuGS6nTsAou26+DNateJ04atg+garXLC1Eg3IuWb+SEirFU41qValrx/Yh07dHtyxj0IB+VLtGdbEOTsVshp2YeRxxmjZuRcVK5jGEJ6NeOwaoew53uu+raczywDi2a8mqhWhA347GDwgZs7QMn+ZHm7p2dY145PGhv95O9917G9WtU9JSyiDc/dsTc3ThidkFZLSY0WjxSBR3CipvnZlvxHUiZnSYiMNHOixmhHG5zDouJkdcQVsxP543l3h/tszg6V2oVrunxDjeua3L2wlcTlCpjf8RIcxHue3EDBBfXj5khpvfNu3aRBPHjxPUbVSHzpw+LcD4qKdH0Oeff07DRww1wk6dPKkNw/iB/fvE+IxZM8R0t26dg8Lwl8MAxhFfDsO4GoblcljPnt1oZupUcbSMdcgsMZdPjKd8eR6gdp39P5JkWH52ctaF65DTYFydluNhu8rXmFXM0jKQ8+zVg4La2am35oq/ySmdgtIwqDdPzLGPJ2YXkJFi5gaLTgSdmNpZqPGdiBlyjC+bixo2bijkLIsZcNnMOi7gRMy5H3+cNq5cHcD331+klw/sFOM4Gtfl7ZRKnapRgzq1qad0oxj+ovxqXB1YN6Z29ya+Hz/racT08UJsXB+4oxnX1jGOl3RgSFk0U7xzGmE4tS+HDZgwXLz+E8NbJ4+LsNdOHBPTmM9hmIewz65cEtOYj7QYkBfCkDeWgWVhmXIYyoQwjKOsKDODeenBSsyoX65r1BuPqyAM6RBuJWc8L41lcf5WcBqAcXWa46E+rMQMzNIy8pGzVXtTwbp4Yo59PDG7gIwSsyplXRwVJ2KGjJ96qrBxp7YqZiDLGeMqRaqXtBVzy5Yt6dLlK74fAG3Fpx0hE/maNZ6HlpcZKpXaVqY2LcpS0xYVjfXk8qpxVVA/EAfWkdF1qL/++iP9/J/vxPjGnVvo//7vRxryzAghS4T9+183jbDf/+9fPrkmC8n+/vvP9OaJ10TYayfe8E3/xxAzwo6+9bII+/Tyx750/zbEjPGNOzeJsH//+3v673+/F8saNGGEWDaH/fzzDyIM45FGFTPqFKDOAO8XchrA+x7e/oVtwHWMuGZy7tijJYXyKk+kUcsjTyOOEzEDXVoZlnMomO1Hdnhiji48MbuAjBBzOFIGTsTMHRJ3IjoxAy6jjnJNK9qKuXXr1vTb70TdevpfXgIx43vL/fu08h3tXaYr17YGLTMUsB4oC68j6gnTdmJGOhYG1h/pzOr4zJkT9MW1y2J85pI59N67p2nakllClhfOv0Off/6pCJu7Yj69/75v3cb7xYx4J955U4S9sHcHffD+WUPM7793hnbs2S7C3jr5NyOsTf8u9K4v3byVC0XYZZ+0v/rqslhW8qSRvjzP0NyVC0TY6dO3yhVpeN+Tp1FXAHWn1juDeU9VrUF/uu9uI0yua10d41WecU/moqb96weFmYE81fLI007FDNS0ujihgDpAfenCrOA698QcHXhidgGRFjM3UnQWoUgZOBEzQDh3mGZi5ng6nJzKhph//T+ijl0GG2LGkXLeHPdQ6RI56YvrfjlFApYy1kkXzqDsVqJQQZkBxtfvwDPjRKlL5whZ2p3KxmlqhEXiVDaWiQFlQJhcrkijihmg3lBngPcB3kc5HNec8ahbuy7Baa3qHPno5iMd9mekxbgappaHp3WffbRCzUsXxylYF0/MsU+2GTM2kUdsM2Fy5MScHikDKzGjg0MYH1EiDubhmU90ZhzPCU7FvHjWPGpaJ5HmpqTSrEkptHnNUvrxx9P06cd7xes+dXmHSkZJGXH/F8XM9cn7CYP6kwUGeF/lcDU+/wWh1D3AvjzymTGU8FRZ8Sy+Go481fJgPJzPPqp56eI4AfURCTGjT9H1NR6ZgydmFxApMadXysBKzB271aIqFfKIcJ6HeOjEdG/+ssLpzV/qXdkM7pzFX13eoWAlZdSnTKhSRr7/i2IGvH+GKmc5Xr0+TalT+1bG3f8glG0gtmvc41SoYOD7tGWQp1qecD/7qOali2MHyol9TRdmBdIgrSfm6MATswuIhJi5YTrttHSwpDhfXgbmQ4R4bhd3Y2OenI7FrHZIEKfZc8xFcuexFTMel4rEXcJm8PqqUm6RVJ8WLppp3PEr46RuWcqIy++Xxnx8MhLT+GwiZKkL6zvWf40Z4/yxiANHj4hpFjPG+X3V59+9YIRBzBjHpxkRhnHkj2XhrmxdGMYzivTKOaFsAbrnzj9S1eq36hxxncoZbSKhXYLtdlPLg8sy/HUpTOvSmKHmpYtjBcrKYub9U42jwxNzdOGJ2QWkV8wA4+gM0JgxDang9F0onQM+nVilQm6asnB0QL6cJ16+oOsoIGacyuYOk5cJAaPzZz766GP69NPPaMPG52jt2vW2Ypbf/IV81Q4+PXCnp0oZ86qVL0jlSj+uXVc7ZCljmtcd45AixlnMujAWM8ZZzJAwplnMGGcx88c1MB9pMc7yxTjAsrBMXRjGM5Jw5Syk6vsh2KZtgvisI9cnp3UqZ6fI5cG+zGIGCNOlMUPOK9S0qAMWc/MB9al+7Tiq28r+6QNPzNGFJ2YXkF4x8zg36CrtqlHLpnHUqElD7bU1M5BH7sfuptwFsotp5I153PmZdTIQM44yEC7L2exd2WufO+L4lZxLtqwUZShVugjVax14RBUuZlIGqMMBE9tSTV+HKIcjDerZClXKAAJlwUKcGIcowYX3LxhhuFMb03IYy5fFjHGEIQ0LlsXMYUjHYXI6iBtxIWgO47JgOiNB3aBe8Feej31EFhhAPEwjnPdnnXzlfQ2XX5yCdGpeDJeHrzHzNJdPl8aMcNNi/Xm9izcpR/fc9Ud65KH7g+KpeGKOLjwxu4BIiZk7MIy3TSxHOR//sxhX05rB+bCQkLecrxksZowjDdKjEzT9iMVe5x+xWLljDY2d1IYef+SukNbFDKyLvI5O4DTc0ZrhpK4Y1A/icyfMHSuHIz8WmRomg3wQF8sNVwaZAe9bvE6MWmaAeJiW4+lAXGxHpzipG4TJ15iBk3Q6wknL+wTi4yMhTuvCE3N04YnZBURazJiHU9mVm1V2LAodyEfOV57PnQamZTEDdIIQhnoqGzcjQc7Pv3TWsZgXbFhGZZoG/mAIF6xHqPmEk8YOVcqAO1bULabRGTsRM+KzdFBWeTorQDnxV7ffZYScQ0Fdji4OUK8xO02nI9S0WG/eL0JZlifm6MITswuItJgBOgK1AwwV5I181XzQ8VerXZwqV8gtwlUxY9mIU6hYIerYMpFqVKkSQNXKvo7b4UcsUCehdFBmZIaU0TkirhWoG+TJnS/gekY4ryviQeCcL8LNtifScN6ynJE+q+CyqGXlfVVdF5QZaQDGAeJhWo6XXtTl6OLIYpbLY5fOjFDSqvuGUzwxRxeemF1ANIsZeah54Q7tklULU44H76am/eoHiZk7CcgB6XQ4eSUnX2PWpQ8VLg+X0Q6nUuaOVl5nnahk5I4X6XXL4fxQdrPtIIM4yANxdELMTOTyxqKcsS/zqWy1PFbprHCaFusr7x9O4f3FE3N0kG369I3kEduMn7w0KsXMIB85PyyT79DGfBxdyGIG6Ci4I9JRPrESLdmwjF7cv8uUUxdPG49hpRedYM0EFoqUccmga882FNeqqpCuHCbH1YE4Vsvh7Yq/vJ2xLvJ2kONj+n9Vztjfuo7ppM1Th7ocOYzFrItnlc4Ou7RyeKjbTxUz+hRdX+OROXhidgHRKGa140BeujwRD2KGQLF8XYcTbZRtXIZ69etGHUe2DwrDOqAuZVlivHWXhtR94GBRB3J8xM2V/S5qVM/fMWIe6gBpMG2HmZQZ3rb4K29rQQf9qyb/F+WM8MFJ9ahggexiXBdHRV0Oz5fFrItnls4JdmkxL5zt54k5uvDE7AIyS8xOv3aDPMs2jaeadUvRsJQRxnzkp8sXnRjEjDIgHB1LtCCXk+nUsSrlePguate7TsB8nZQB5uXPeQ898JfbxTjPRz3V7l5LzMOnMJFe7lhRT+gwrZCXYwZvX8RH/hivVb0G5SuQTxtfLkNmohMJysL7jS6c103dp5CO88U4rzem5XgcF9uhZNVClFDdv+5yGPKWUdPycrh8qpjVeBhXp+W4VqAN2qXFPN5+ujrTgX0D9eOJOTrwxOwCMkPM6BDeOjOf1O/DXvtqA1VpW9WIxyC/vD4ZtWxSTozzfJyulacBOjG8lIE7FMTBt4l5wBF174lJYv7ZD8/RgWMHxTho0Ke5CMf4hIVTxDiDPDheOKCc+CuXFWWskBgvwlBHPB91h3lypy6DMLP85PFQO1SnyNsTz1knNitDbTuZP4PM+0VmgXoxW28ui1k4wlC3+CvPRzqkARgH6naT4+LeB3key4rzYNTl8LZHHpjWiRnoyiNPy3HRptS2xu3NqZxFePVqVLxUHjGuxpHxxBxdeGJ2ARktZlXK82am0uwZiwM6C1nOyJOPBHFzl5wvdwA8DdCJydeYsR6Y1yqpi5hGGIdjvhyGv9wJIt1bZ04a8TEOEBYOXFYrmQLumM2kzJLXSYVBnumRMl49yvuADjzPjRvhMI6/+NGixjFD3jYZBe+HZutvF877MO+zDNIhDcA4QDxMy/FUeNvjL8+TyyAvh7c/wjHNPxbxjm61rLryyNOIo0p5wthJtHL50oD25kTOKBPO0txx2x/EuBou44k5uvDE7AIy44iZO4WxY+YGLHvx/FSjs+C4QNdRADMx421JmA/QqQ2ePtSYlkFY6urp4i+mEY/HIRscTXNc5IlBztspWH+5vKqcGe6U0yNlXqZdPCvwA2Xk1PE0dtpELSnzpgl0YVYgT93yMgLeF1H3unqwC+f9WN5vAdIhDcA4QDzexiq8TWUpc75yGXg5HB9hmMb+9kSR/FSspP5IVVcejPM+xm3t2LHtAW0tNfXWj2OzvHg+QPn6P50oyibP1+GJObrwxOwCMlrM3Blkv/9uGpQ0LmDZy5Y9F9RZWKGKGcuEWHGUgTCAoXb3JmJ8z9F94vQ1jvIwDYkj7Pl9O0VYp5G9RHqE4WUiLx7ebeQDMHQf2y9gnhNQRtSBXGZVztwhp1fKJYrmoob1/Xnp4jBW27hQlVJUs2bNiFO1hvWRpROw/vL+ZAXvj4ivqze7cN6X1WWpAgOIh2k5HuDtijiYTh7bhUrE3XrntFwG/OX9g8tTsVU8xZd5gtp1Nt+ecnkwjX1IFbPczkCbNn3o7jtuN8LVvNT9MxR4HXgf88SctXhidgGZJeYKZR6nOr7OWl2+2lGYwR0ei4ynIVY+XYq/GPhUNcQL2QLEh5ird2oowONQkDHmIYzFjHGA69YYEJfnOQHLRb2gbNxxqnJGPHldVJxIGcvAG9C69KpBT9UsbZoXwKlqHrhuwPl33xYcP/4KHTx4MEPYun2dWMaabSsCyuSUWp3r0TNTplL3IU214Sq8T6LudfVnF877M7aZPB/pkAZgHMjbmOFti3BMj5vclv78pz+KeRyH02IZar7Yh7FPc1wzeB0w7kTMhQo+QQXyZzfC5bzk9OHgiTm68MTsAjJLzI8/eC89M7Ay9e7WVRw547R244aJ2o5ChTs7VcroTCBW+Tom1gPzmiT5T8Ph+iiOjpEWHR7mYxw3hGHAPEzL8XCXN460edopWB53sNz5cufJnRem8RfxucwyTqTMYBm6+SqQMQbUizwfrypdv369wOnwz3/+U+B0mDp1qlgOf9wiVMaMTqQH7rud2vUKvIsdmK0/75eoa1092oXzNlDnIx3ScDpMy9sY8L6JMMCvj5XjyflwPJ7GD0J1O+ng8mMc+5Iq5p49+4o2NsZHpfhqdPttf6D6deKMcDkvOX04eGKOLrI9++wG8ohtxk1akqFiBugIblxfT/MmNqSH/3oHPfrgnXT/n2+j116bFtRJqHCjZ5Fxx8cdiSpmjEOyPCCcv6vMN3dxXKwz3+CFOIjLhFIfjK7DRVm5A8W6oF4iIWU7kEedzg2ped8GYpnyejMQ5po1a+j3339Pq63g4YcffqCTJ0/Sc889R4sWLaJ58+bRnDlzaO3atfTiiy/Se++9lxZTP/zjH/8IW8yoP91d7ByGF6wkjR5IY2d1CwjjcKw30unqE+EIQ94lW1QMEBOnk+MznI7DMS2Xj/dPzOdwOR6XBdPYD5AO4wDj/HUpxLFCLqMqVrSpSx8vpgd9P2ge+uvt9Jd7b6MihR6l11/z39PB8ZhIixl9iq6v8cgcPDG7gIwWMx4jmb16kOgQrl2FMP2/2Bncsc3pdCAvMykDdGKydLiz03XG6QHrqpsPOEzuYAFPo8yYVtPJRFLKAHnVrxVHLRIrmi4bwoRgzcT85Zdf0uLFi4WQFy5cSPPnz6fZs2fTzJkzadasWULQ+Ltt2zYhcN2QHjEDrlsdWMeH77+DSscV0K4j0rLAdPWK9DkevpPuuD3wzmNsC6vthX2M90kgS5L3UbXcvB/I5cA83l8xDuSvS8npVeRlIg9uE2aPJp56a674u2P3MwH5qOnDwRNzdOGJ2QVkxhEzP+OpdhZ2UgacF5aF5agdiCxm7uRCkRvS6PJlSreMpzHje4jHV3SdJebx6UqOA1AOwNMItyOUctuBsnToWJlKl8kryqGLA2GuW7dOK+avvvqKli9fTkuWLBFShpCXLVtGx44do7179wphz5gxwxD06tWrtXK+efNmusRsBuo0rml5qlO3DDXrX990+yEeSwz1K9cx77sHjk030rNk5P1XBfsM4GnOH+OcXt2WvA/o5vN+i3Hsy7i8gmnkJceVkZeJ9PL6m8mZw1XU9KHiiTm68MTsAjJDzEB9AYNTOC+zjo3FzJ2bGm5Hp+616ImCj4i81TDMq1I+nzj1rgtnnqpVkooWeIQqSuuI8qI8AOMAHZgZTsuNfHTzVRAvPjFBLF8XDljM6oBryCtWrBBihoBxulsnXUg6NTVVSBtyxpGzOkRSzKgjbAf5BxDm4y/mW8kZ9YA4ZZpXNK1rbAerfBjsa4CnZUliWbp9kcuoW7acBteYWcyIr7YjRl4m0qplhpzlaSt06UOB680Tc3TgidkFZJaYw4XzMuvYIGb+2IRZh2tF6apFqUKZXFSieomgMCyzcrsEsVzuiLkTat3Df+2W41Quk59K1o8L6oxRLi5bJEA5EtvUorot6qarMwV9xyZTu75d0xR6a3jttdcMMW/ciDvnzYcLFy6IU9uQM7h69WpaiH+4+P67YjlNe7fTliEUUO+5n3ic/nTf3aJO5TDeP8zqBGF4YUapuALacKdSBtgGvD8A7AdyeVAWhMv7JJePp1U4jXyNmcuka0vyMpEuPftCetN7Yo4uPDG7ALeI2azDcwLyReeiC1MR6/3Y3VSx0q3rmigb/urKgDDEQ7pIkTfHPdSgnv/oUV1eOMiPU2HAEfKqVavEqesPP/wwba75sHnzZnFKe+7cubRjx460uf5Bt7xwKZ8YT1WqFqJyVYoGiJHhfUSVDOYjbfv2Vah0w+DtHIqUsY3luDytlkcs0zcP2x5xuGxW+yni4KkBHDFjHPPM5Ixp3v/sxMp58V8VXXrME+tZ33/Dohym4ok5uvDE7AJiWczoPNCJ4fSfnCYjwWlUfIhi+LhWYvlqOMqJu4W5Q+Z5kYLru3yTCpadfCjIYv7kk0/EDWG4ZgwxO3k0Cqe0cdSMO7Zxg5g86JYXLlh/1Kuu3hnEQf3o5CxPM+FImZfP02Zpubzy/mvXLpr1b0FtW7emvE8+buSrkzPGkTfGUR6rMiAc6c3uk9ClR/x77vqj6RvIZDwxRxeemF1ArIoZnQnCIGbdo0AZBcph1VFVaVeNunWuTmXLPUHlWlbUxok2dGIGOHJ2MuCRKVxjhpiBfD1at7yMhvcVyAb7ixm875pJTQbxEdeplBl5/8Vfu7aBU9kP/vV26tHD/754nq/KmfPCuJWYwbhJ7enOO/4flS9XRBuupkdZ8QayDu2rUNk29teqPTFHF56YXUCsihnz0ZnId2WHQ94qJQ104YzTeDgqeeqpwlTyyRzUamBjbZxIw9sBHWQoHHr9iOCtU8fTNEp05swZcUMYwOls3J1tN1y8eFGIGUfLQBbzvGULxDKmLZmlLXtGwfuLHZGUMuoU8/HsuLyfym0B41btg+/Kxr4jtynA+fP2Rj6YbyfmpEltKccD94rT+Lp4uvRYhjxtBZfLE3N0kC01dT15xDZjJy62FLOugaJTkDsIjMudiFXHEyqcF3e03BlxZxDqETNuQsJdwmDi5Gepbv2Wgpo16lONkrmp2EN/CKJO+aJGPLBm7XNGHrixSc4f5YSc1TqJBCi7jn5TksTyQgXlV9/89emnn9KGDRvEPJzOfuONN9JCzAfEg5DxWBWQh4EDB4rlRPpxKSeg/rE9zHCyfRAHdWUnZYD5pXw/yP70l1s3p+naAqbN2gj2Zb75S4WXjbJzHphvJ2ZuK/xXjWuX3g5VzOhTdH2NR+bgidkFWIkZHQCul7ZpVYkadvC/hB+gU5A7CIzLnZxZpxMOcl5YHpbFHRI6BIgZH7GQ01gBkbFUf/vttzR9EL2zYy7t6FlAywfPjU6L5R+WLFtt5KGKOaOQy63yyluvirrANggFpFXf/PWvf/1L3IkNOeOoefv27ZZHzSdOnBAvIAF4tArIw/fffy+WkxViTi+oI+xvTqQMcINZ2/aVaNjYW/cfmLUFzNOFZYSYZbgNyfGRnssbDp6YowtPzC7A7ogZDS5vznuoeQu/gDEPnYLcQWAcnQanMeuMwkHNS5UzOjFcl3PaMZmJ+fKBRXR0cFEt6REzyqubbwY6OR0dR/Qwlqmy9+WD2rzsQFrdm78OHTokxMxyxvPJ586dSwv1D7gp7NSpU+IIGTLGi0gg5w8++CAthn/47rvvxHIiJWbsZ5EE+xH+6paD/cyplAG2NfKTJWfVFjBfDc9oMQNuQ5wG+xemzcppB6f3xBwdeGJ2AXZHzPxWq8HTuxgdGBqw3EFgXO7crDqjUNHlxR0LwtCJ4VOOmHbSOZmJ+eu3d2qlDMIVM8qJTpPLqosjg/Ijrg6cruZlqujELNeRGsYgrU7MOJ2No2Y+ckYcXG/GY1F469dLL70kJIznnHHnNv9FXHVI7ys5ZVhMkaJWp7rUpEU9aqh8IIOXE4qUzbBrCwiT40RSzIinzmN4/4iEnD0xRxeemF2A3RGzrnGj8codBMYzU8yAOxa+xsydg13nmZliBoWfeIziy+WmJxqX04YzVlIGEPPYcZOod59BQSxavTIoP9wdPmJkMxo/qZvRgaug/Lo3f2E4f/48bdq0KeC0NgsaIsYLSFauXGmAabxbWx2+/fZbsZz0ilmWI7Z9JOjcqRrdd+9t4pWc6nLMpIx0uLyDeU72cSdtAeEcLxJi5h+DZo9HMQiT1y1cOXtiji48MbsAOzHrQMOVOwiMZ7aYAZYPMeMFI5h2IueMEjPKouuw8WaxinF5xFvBeJ4Kyot0VkDMZsPSjduD8kSaXI/e5TsirGB04Cooe9u+/k9CqgOuNUPOkDLLGTeE4Zo0RAxB8/iWLVtMr0PfuHFDLAf1riuDE1Q5RgJsLzwShHxVCZtJGWB69MQ2VKjgo2Kc5+tg8TlpC4iD7YT7JdIrZsS5+87/Z/qWMxkuI6dHvnbrpeKJObrwxOwCYlnMAJ0YrjFzJ2Un54wSM5ZZtcYTVLFMLjEuL1OtHxmUE+EyWAfUrQzKbTYsXh8sZq6HCo3M3w3NqG/+kges45EjR8RpbAgaR864CxtHz5D16dOnLV9ColteKOjkGClQrzzOy7GSMijbNJ669qpB9//5TirX2C9HM5Aef+X0VmA/t/rsI5cJ5UZczlsVc0L7BCpfKk/AmQArkB/yRf683+jimeGJObrwxOwC3CBmvPkLZeCOykrOGSVmfKSjUYcEKlcqt7gery5Xh07Kcj3KoNzvzGumLd+CeVO0aZzy/L6daWtmPuAI+tKlS+ImMPDZZ5+lhVgPuuU5xUyOkUTeh+2kzPEhZ4QjnRXhlJs/+6gL43LZiZlFy9N2cHzk74k59vHE7ALcIGZcl+POxU7OkRbzmLnjRb5YPuSs1oUZKBfiytil2zMmXlu+JyvZn7K0wuqI2enw1pmTWnTLcwJLKBy5OQXbDFLDPuNEymYgn1DQ5cFEQsyhgvx4//PEHPtkmzZtHXnENmOe8TcmWcx2DTMcMeu+D3vtqw0+qVq/8s+pmDHOHYyVnMs1q0GT5j8rkMUcyuNSnQf0E+nxNitc++XlOSUcKQMrMfO6hgPqF507xlfuWENLtqykTiN7iTKZiaR2/VL08P13UPmyRcT6m8ULBxZQZkmZ54WzXE4TClZ1FQkxm32PGe2N48ggP+SL/CMhZvQpur7GI3PwxOwCVDGXqlmSKpfPbdk4WcbcQXCj5nB0GLJM5U6iQ/Nu1KPTwIDOwkrOal4qsphBu+TudPbDc3Tq4mlxxKbKuVVSFzEf6Ta8tJOmLVtE//kvUcuODahxi1LUpVcCHd27gvY/v4hq1/MJyEfj9rWo/8QxBrwsef1RTnSQDMdRCVfKwEzM5Wr5f0ypZXAC0nA5qndq6Nsm/kH+oaZjwMS2VKlMfirVIE7kAZyuhxUsn8yUMqZ1P+Ls4LJyOifYLSO9YlalPDRpCM2dMdWY1skZ+SFf5O+JOfbxxOwCVDHjzuLcj95NHbpGTszoEF5/PZUG9BsTsOy//Q0f1t9jdDAq3GHIeamoYsZ64Jrp4OlDBZgnd7oYIGfAaXke4mJZuNN7QMpgsXzO1wzE4Q5XRtf56uLJ9WbHnuFxWjEnj+4athi5jtG5oy64buQ61YE6xV8sE3lg+chDjRcKyAtl0dVdpEBZVSljmZgOZblcVifbEMvgv3brl14xYxxtavfuJQFtberUubRl03ARJucJuFzI3xNz7OOJ2QXIYkYDrd3d/1Ubq06WZcwdBDdqDkeHwTJFRwBwU1RS/0AxL16MF1L4wzktw52FXWevihlSxrrobghLXT1dHC1jmoWMv0gDMJ+vt3JalIPzNkOOI9eJ3AFjHPNk7Dp0GXHz14wGWjGvXDE9pLxkuJ5DkZIOpLfbVlawdNJbDiuwrigj7xO87lbbGZcrLrx/wSBl+gyanPoszXx2PA0d2pOeKJ+X8j75mGDo0F5iPsLHT54SkA43CTqp6/SKmduT3M5A61a9qGbNEka4nC+XC/l7Yo59PDG7APWI2ayDkglHzBXiHqfhQxoELd+qo3DS0euOmCFfDDjyRT7cgY2YPl6c5uZODGnlo2fMY0nzesmdNq5P40UZTOrCOYIps6YIcpUvKMhXuQjVal+H5q2cTTOXzRds3bfNYOGmxUZ9YR2xHDshWYnZ7K5s1Auvn3wUjLLjxjWsD8A4vwBEDuMb5XA9HWF4wximMQ7RyGFnzp8VyGF8x7paDsyTyWopq3FluD7AufMXaOfOl+j69b/T7tntaUO/grShb4FAeuaiK++fFXHwKNm9d/+RenZrkuViruWTcoH82Y1wOV8ulydmd+CJ2QWoYnZCOGLGZ+eeSapM61b2EUfOT4+aTQ3qtwjqKLiTcCJloIqZwTwMuOaM/FAmHA1DzJhGRyanhcwhDZY15qlylu/oBqvXPU9z5i+ndnEPU+vi9wTRsOg99OzM5TR/0Vrav98vNSC/QrNbr9pUqVzws88qWLbZoHuOGfC1dPwFfFYgs8XMy+fyyHKOZikDVcxffvW1qPOzCztrfySB/9z8QsRZv2YhNWscR5OfGZDpYu7Tewj17zeG+vUdTb19+9jtt/2BenSvZYTL+bJYPTG7A0/MLiCjxQzQEVz/ah1NHlyFHrn/Dnr0wTvp/r/cRs9O7SzC+IYU7ricShnIcpVhMeMv54trzoiPjgQvcsCAcoMFG5aJMBxl8zzkI8u55YCORicNeNB1zgwPR4/+zUgnixl5lyudk0pUL2HM02El5o0v6sUMEQ8aM5wezPFIAHFxcYLsOR+jJ0uXNMblMIyHGsbjapgMyoQfSCgf6hjrH61SBukRM46YOW1miRltCW3q/MlUyv7AHfTQX2+nv/zpNrrrzv9Hr7+WKsJ0eXKb88Qc+3hidgEZLWbcJbpwMV4n6f+l3rFFAiXEFTKm0yNloIoZHT+OzDDwESL+vnh4t8h/7a71Ig0elYKoMQ+wqHEdmufxOvA6qh+S4EHXOTM8mIkZIG95WkdT5WhdRs2PwXqPemYs5ciRI2rYumuHEHO4Ug4lHfYpKylzXlaSjjUxo72xnEEHX3vL9/CDxjTu2Fbzk9tcqGKW8/DEHB14YnYBmXHErMqZSa+UgSpmjMvTPA9/eTmQMMat4PXiDg8dVkaJmcumzpMJVczYHhDz4LHDqXv37lHDnsP7xTPSct0CFqi83+jAUwNjR3egSnVu7W86UJ+cJ09jmbKEkdf01I7Ub1AjY77aFmJNzECVM2MnZRCKmNU8uO48MWct2aZOXUsesc2YCQuDOiM7WFrcQWCcxYy/ug4WnYU8zXBnpXYQTlHFbIeugzYDnR3iYhzrlVFiRpnwmsc69UtT+boVAsIYiBnpwKHXj9Arb71qTPN1XgZljW9TmSaN70sjJugFmVU06N5C1Kkqp7GT29Kg5MZBn2BUQdocD99JcWUKmG5D1KedlAHn1aipX3L4IcMD71OxKGY7uBy6NudUzFwWOQ9DzL4+RdfXeGQOnphdQCTFDJr2q0+dOlal8onmH09AOo5v1kE4JVQxA+6YzDp2Ru78UNaMPGJGefD8eJ/edcS4Gi7DPxiwHrpwcPbDpT7p3EVFihTSCjKrGDhlCHUd3TugrKjjIgUfor/++TbbdQeIY/ZxDtSJEykD3nfxbnOEj5kzUWwrWYx8gxxo2K85jZ43hXqMfpratCtLrZqVojq1i1D16gUCGD4rhSatmE5V29cz0iIvLku0iBkSVsOciNms3Xpijg48MbuASB8xV69ajHI/djdVqaG/mYkbNZMeKYNwxAysOmxGFXPisDbiuVYcoQK+03hyh6I0s1cpmtu/DE3rWlxM8zyOM3D8SCMdjp50y0J5mvWvb9SlGXZixvyOQ7rQL7+8RuvXLtEKMqt4//33xY8TlhWXN6FdglgneT1CBfk4lbKMnA5vP9PFAToBIq08jThYprwNEQfbl7dbLIuZy4BlqmGemKMDT8wuIJJixnSFxHiqVcf/mkY1ndyoEReocUIlXDED7qDMOm658+Oy6zozgLwQF0RivRhervzRezsxA5z6xmnYyTOmGVJMTk6mefPmBYgys5mxZK4olyxmlplZ3ToBdYF8eHth2mrbqsjpUee6OAhXBchlV5GXy9uQiWYxc3tW5wNePpanC/fEHB14YnYBkT5ixjw1PrBr1OGSHjED7qR0HXgoYgbIC/GBrh44D0iW68sOxC9R5HEqWz6/URYnYmbKN6hmSPHo0aPi042yKDObgk+VDixfmtic1ocO1APy4fqx2qYqQyaOEiT26UR5KhejnkNb0OINQ6ld13qUv1gBKlQ4vwDjCBs3rasx3b1fE1qxZQQ1aP0UlYovQWXKPUmNW1QT45iPfBC3TvMqYrpzz4ZUOOFJsSwsE9e01W0YrpgB9k0nP264ftS4mMZ8neR52Vbt1xNzdOCJ2QVESsz4q4sLnDTqcEmvmIFZRx6qmAHyQhqAcTkM6fPlvIeyP/bnoGWZgZu4qlUrRE1bVDTSOBEz3yy2at1qQ4o4YgayKDObTdu3iHLV7dlErA/Wg6WM/aNEs4pUoWk5Y54dqAOk47ox25ZmDBwyiB5++OEsoUyZMqKc8nYMR8xcj4xVWwRcR/K+nF4pA0/M0YEnZheQXjED7hhCadQ8X54XDukR82NP5qNHi+QRPP5kfnoioThVbViBchbMLShQoqAxzeH54gpRjvKFtfkxXCdqp1vOJ1dVslagzlBHnBfPdyJmXMfGtdx9+/ZpBZlV8DVm3EiFdZIFjHXK/uAd1DDtLml5fXRg/dMjZTBq7GgaNmxYllG7Z/2A8oQjZnk/4LZpJWeuJxZzJKQMPDFHB56YXUB6xYxp/EUnUaG17+jON587DKtGjWdIE8rnpbW7xgaFhUIoYkY50Qmh/CA+Pj4sHi9RQJu/DNcJUOuJ68cKlrIsLnl+5cQKlp0vI5/KjgbUU9kM6gb3J3RoX4Xqd66ujaMi1yXSy/ueU7JazFXaB/44DUfMKtw+zfYPriu0BR6XpYx8MT8UKQNPzNGBJ2YXEAkxA4wnlC0g7shGmByP48iI9L64FSsWCrkzlVHFLJdJBvPRwWBZeO1m9S51RMe4ZcuWoM7Sio4dO2rFjPzxYwP5s0wxD9Pc0alpzDCTMsD8XI/eTX998B7LesPNVXiFaGLP9lpBZhUdh/QQ5dKV2Wq9VVCfclyWSCj1DLJazIVrBF4aCVfMmA9YsFZy5rqDmNV6S109kBr40pRpXlHMdypl4Ik5OsiWkrKGPGKb0eMXhCRmbtRyY2amLOpN7XwNeUBKR9HgzcSMdPx5yVYDG4csLhl0YujM6jarQKNGN6NybROC8sI0S5kfh0GHiI7x0KFDQZ2lFWZirtKuGrVpWZYef/zPvvI0MeZj2ViuU7huWTgyyAtHlTWrFaf6Xapr4zDRfipbvisbhCJlgLqQ4+MvptVtb4cbxIx55Uo/Lj5UgXGOjzrViZXrThUz8suf9wG6+87/J+aFImXA/Qj6FF1f45E5eGJ2AaGImRs0N2pdHIDGznG581BBOP9lKfE8GbnjVcMAOjG8YhNSxPVJLFMOR54sZTkPFnOomIkZMu7YMYFKFM8hfmzIYSiDfArdDrN1BcgLcbhudXUGID48My0/LhUNJE98WpRL97iU1XqrYL3lNPiLabP6MMNNR8z5C+YwZMr1I8dhOEwVM6jYKl5Mhypl4Ik5OvDE7AKcipkbM7DrQK06BR2Ij7g60TQfUJ86dkqgJn30r2pEJ1a7exNq3tP/xiz5Whny0kkZRFrMWBbk7KR+IoETOYNov8ZsJmXdNpPBOsvp8BfTVnWhwy1iluG6sQuHmDGOeGZxQ8ETc3TgidkFOBEzN2Rg1VkyaPCIqwszQ+4gMM7za1QrTo9nv4vaddbnh05Md/MX8jCTMoi0mLMCKznjcSl8HznaTmW/8vpRUS6+K1u3TzXtWZMq1S5t+d5s3ic5LQseeapxrcgXV1S7nTOLSIuZ68WqHhAH4QDjal2Giyfm6MATswuwEzM32lAartWveSu4w+CjXkzjmqpVR6MTM9JZSRmkR8yPxRU08uEfIc37NgirY2Oh6B5VYRBepV3wtXNgJudoFzM/x6yrs86dqtH9f7ldrJcaxmBdEc7pu/euI961nTP7w0FxrSjyRGHtds4sIilmrhOztiLDcZGPWpfh4ok5OvDE7AKsxMwNVm60LBI0aDU+E66YAfJXT0fL4SqqmBHfTsogUkfMqAu8NOTREF4aIlOrnq+Mj9xFTzQupw1H/vi4RakyeU3zN5MziJXHpRiUv0LadU7d+iK8SVJDEQ54G6cs6k3lS+WhUg3igtLIID72L9QZ6NyloXY7ZxZ4OkAuX7hixjyzOjMDcZEPp7VqL07wxBwdeGJ2AWZi5saqNtgxz7SnKvF5xHw5vozaaTDq92H5e8wyqpjtkMWMMjuRMoiUmOPbVqYOHSvTsLGtxLLlZTiheJNy1KJJHJU0EUpl35Fy6xZlqW3nwLuYVVDn3DHjKB5fNsKd2f1GDNIKMqvAzV8oF7YPwAc+dPserw/+ymGo4y69alCxoo8F7ZvqtArCuI6YcRO7ardzZhGpF4zwenFcfHtZbW8cxiA+8uH0VnXnBE/M0YEnZhegEzM3VF1jLV21qLjmizB5vozcaYDn9+Fzenvoy2vrgzoLVc7hihlldiplEAkxo5zcIYYjZcaqU+Rt4SR/lhmYsGhiVD8uhS914W56DHhntNX64C/Py12hKPXoW4tKFMshPjHqVCaIp6vHrD6VXbFV4A/YcMSMv3J700mZ297s1YOMeEiDfHRiFvWU9xHKVyZfQP1b4Yk5Osg2Zcpq8ohtnh43P0DMVlJGGD9/jHE5TEbuNAA6hCtXVlO/vk8by12wYB2dO7ddhMlp0SGEKuYqbeuJdFgmyoyy2VGsbnltR2kHxJy3TGFDyjg61ZUrq0B5UAeVWtWO6iNmbAM8U46Xvbx4eLd2XQD2JdQzywHpyjb1n+rW7aM6EAdxdT9u3HDzl9pm/O3thYB2PmXKLNEG5fZmJWZMP3Df7VSwQHYxzvOt4H4EfUrgsj0yE0/MLkAWMzdQtZHKyJ2DLhzInQY6AtCySbkAMYNRI2ca4Zw2HDGjM5OlzOtgBU4h6jpKOyDmxj38j2ZFm5R1RPs1Zr55zmqbq3IOBd5fdVIGHXp00W7nzCLSYub2hB++cltLbNmDatYsEdDerMSMPDEP8Dw7PDFHB56YXYAsZm6IcgNVkTsHXTjQifmxh+6kEckNgpYvdxQgFDGjDCxmlIs7GJa0Fek5Yq7sO2KzWv9oYMCE/nTjxpWoO5X90UfnRLnkF4xklJyxnZHGTMrADc8x68SstrNaPikXyJ89oL1ZiRn5WdWbDk/M0YEnZhegitmuMcqdgy4c6MTcomkcTUiqTMn9qlOn9r2ob59RVK9us4COAjgVM5aPuDgVilPZ3Lnwcu1Ah6jrKO2AmAs8VULUQyTRlTE9RPvjUuorOSMtZ9Spk/3ZrWIe0G+Qr409Te3a9KR6dUqK13X26F4roL15YnYnnphdQEaLGXBnMHVoVcr+wB306IN3iudUp0zGzT+3OgrkiXR2ZUA8xEFcFjPKJC/TDnSILTq3DaLLwG7UoW9nY1ylXqsGYlmRhjtIM3Tr4IRYelwqEnLGfpG/0KNUvUVFR2Jxo5hxo9fBXcNFW3vor7fTX/50G911x/8LaGsA6Xm/Q75OxMztTo7LeGKODjwxu4CMFDPiVmxZ2dfRbDA6hSrlCojrzTwNWiU1Evlxo9flycjxkD86Mdzda5fOCbxu3OkjT57OSHg5ZoSzbjhixjupo+3mrxlL5opy6coMWM5W+yHqDHHwVw3DfFw2eaJwTjGuhqu4Tcxob3LbSihTgCqWym9My09BID3yMRMzwtV23rl/Pbr3vru1b2XzxBwdeGJ2ARkhZlWeqpxlIGWkQUdg15Gq+WIaR8zozHTxHZFQzKBgndKiDNzhl29XRWDEUdNGCF4v1IEOlIk7YafE2telZGTpmIE48rYCqEe8fGTMpDbUrL+zR6ncJmagyplRH01EeuSD/JCvXF+Yh3CAcY5fIN+DdE/a16c4LuOJOTrwxOwCMkLMAOGqnHXxGHQsVstW88M8lANi1r0r2w58E/j53Tto7dq1AQzsUJw6N/Azf/ozAWGLly+ltds3BuWFslmhxg8FpGcJYd11cXRAfDhqbtaljVaQWUWbAV1FuXRlZmTpWMH1UqxxOUNModa3G8XsFKSXxYxxORzzEQdgHPDXp3TL88QcHXhidgEZJWaAOCxTnKLkxq1LayVmOR+WMkBHAjHj61JyfCfgdOr333/vO5K4Nfz0ww16e0cHOjDfz81r76eF+IdLly6Joz05H5QN9WGF2uEx+LGCO5SZF17cSitWLqEtGxbTppUzKd+TjwkKlX6cuvZsIOYtXTRLxPnss/eMdLiZSs2b6znarjEXrV1Wu/1lZOkgbumWfhmo9Yh5lcrnNr4fLIc5ZdGiRVphZhaREDP+on2UblJOjNvVL4O4yIfz09UxwhDPSb6emKODbJMnryKP2GbU2HkZJmaAeMgTaRhdI+dri+p8To80LGWeRhhfY1Y7FB1yHpEQM5bP64N8dXCH12ak/2tKmMfpcVSL/JizZy/Q+fPv0tLkZjSr6aM0q8mjNFNiRuNH6NTR/SLOoUNHjHQ6MbvlVDa2dc16T9IDD/1J1KMaF/Nq1Cptu9+aUbBKKUpKHijom9TfMbo0PB1KfpEQM37UVmlXjSpVf4L+9Je7KT4xISitDqSX2w3vq/I8gOUhLsC4HCbD/Qj6FF1f45E5eGJ2ARktZoC4LCqga+Rm+eqkjGuI1aoVErLDETPErOtQZIrFFaCqvjRlW1QU0+kVM8qJZaJsmOby6eoF5WzTsizlyPlnGpDS0Zivivm3334Tyzm7sDMdHVxUy39ufiHiJA3sSqdOnhTpdGLG6eK9Lx+kVetWawWZVWzavkWUSydmrjtZOngFZ9deNY1XcMrxIwFvR/ww1IXLIG6ltpVFfDWNvP+y4HifCIVwxMzrkNisDBUp9KgYV9PqQHr1lDSXXW1LWAbiA4zLYYwn5ujAE7MLyAwxq3AegDsXs3xRHrnzQBxI7pEH7hDj6MRwKlvtUOR8sIyC+R8Uj2khDualV8x8hI9xlD2+TWXq0rG6r2NtErQOmNehYwI9nP1eajWwsTFfFvP5c2+GJOayZUsaaXViZmLhcakKzcpRq9aVjU5flQ5/TQr1rKZNL8jfad6I17ZFBe2pc3n/5X0xnPKGI2aAeQntEhwvV86D2wzD5VfnIw3i83aSw4An5ujAE7MLMBMzxNN8QP2gBip3DjzPDlliTP7Cj1Kex+6mfLVKiGmzfFUxi84hrQNCvujE+OYv7lC48+ByIw1/15nziqSYQfXyRcTnG9t00h8JQs6IL3easpirlS9IVz+/IpbjRMz7bU5lg1ZJXahl9/ZaQWYZI/sF3KyHOqlaIR/dd+9tRn1iu2H7cRynoJ7NMIvL+x22p1lcmUYdEqhs+XwBZz6AvP/yfihva6eEK+Zw4Xy4rcjzsSx1PpbN7UutK0/M0YEnZhdgJmaMJ1TITbkevUuMc+NjIdl1YDKlG/o6PZ+Ei1cuaMzrNyqR4svkpZL1/Z87lDsdjgNUMavIYgbIB50J0ug6HAanetfv2Cw+O8i88to+mvZMfRqf7AfTcvjclYuE0JFeFrPorPBjIaGY6LCddsiymD/84GDExYyvNs1cOFcvyCzi8JGDlJwyxigj6rFFzzpUo3acse9hm4UjHdQD18nhwy/TlJQZNHHCRJo+YTi18e0jBYo8ZIB5s1OeEXGWLltjpAO60+wyKJu6jVVpYtzpfiCDfRmXZ5AeyPuvuoxw6kgH5yUvi+erZQBif/fFB3J79cQcHXhidgFmYgYNfUcH1WqWMOZxxyDHcUKpKkUpV/a7qF3nwKNm5MWdl9zpyHHQ+HG0qes4gCpmRu688BfTjBo3HNQjZs5X7oztliWLGYRyKjtWxXzg6KEAMauEu48BWcyrVq0RN8mdOXWSNvTOSRs65Ahic7eCIs6XX35lpAN2YtYh778sNHlfcAqLuX236vTn+++hJ+NvhanLwL4tp00PcltR52OZ6nyUAfEB7+eemKMDT8wuAI0IHTgEhw4Bf81AuF0cFcQn+rdtWrNwzGvdoizlzXNfUBjAwGJGx9Uyyf/KTHQk3HlgWkbtZMJBFbMKlo2bvurUL011WuuP+CEABp9pTF09nWauWkSDutWk1nULaBk0fgQtem4l9Z022EiryxtEo5gvfvgujZkzUdSfCksgHClj20PMp3wiHtC7LS1fs1fsG/gho/uBA45PwrujSfwgksVctX09kV8ocNlZmhjHfF1ZrcC+jP16x/Op4lWacpuQ24iuraQXOe+3T74dMF+3PHU+Bk/MWY8nZheARoTOANcjB08fSgNSBovxTiN7Ubvk7gKMI6z3xCQRZgXiI49OHZv7JNLHURqAdFgG/srzm/dtST16VKNyFfJTv3HdAsKAfLSMzrByhdz0eK6/GNJER6nrQNMrZ4iEl2EGwnEpoFE9+7goG+Lw0YcVTpYN0EkeO3ZMK8is4uzF88Zd9DrClTLSXnj/ghBrjofvpHvvLyhE4UTM165eocIFHzXEnDisjVEeq7LqSK+YAfbp3hP97UHe1+U20n1sv6BwFbUtOWHgxEHUrGV1KpA/rxjn+VZ9ANo7lwXl98SctXhidgF8xBzpIV+Oe2hAP3w9Kv3Dl9eupY1ZD4g3d1YypfqOJjNywNEB7gRH56t2qgw66Nrda4k4Tl4PiQ9xrN21XmwLO148vJsOHDtoTFueGn6qNFVrUidqsPqIhZMfJSosZZwZgZjxwhXIdVLqfLGtnIo5ZVKSIWacvUBZQCwPV65cThsLbSgf97j4oRLOgP3RE3PWkm3SpJXkEduMHDPXuDaEDq5krbKUr3wxevJJ3y9/pmqcmGdG0VLFjbiFKpUQd0B37lCdipZ/wphfrGRxEbdw5RJ64m7lUbyU/05tJiB/Xzx1+QDlrtikMpWuFHcrbrlbHX2eCrfWCWUpW7+iiK9SrFppkR/HBZhGeuTDpxqdHLWGIhqImY+G1CMSFT564Wldfv8LyFLGuHyNecdLB4UowjmVLV8ewLbmszK54p8Q+0KxYrf2jwJlzfdF7NfFSt7aj3gfAnlLFzHmY/9W85ApWPpWOypZ1v+OeByVY72LPhlcFiz7sewPUKWqpQLykcuCaS5L7rhbZUH+zbrXpybtahttQaZEpVJGXOSHeYiH7cD9CPoUXV/jkTl4YnYBspjRoLnRhUOZMmWoYHwJQ0hyRxAKZSqUMzoNdHK6OHaULFmSSlYqa+RTuKTyYyNE0Okhn1DEHAoQS8G4wvRI7hy25CyQi/IUzXtrOi0PSBp3j4ciaxxt813n8mWBaEeVMubJYv7bidNCupEUsyzTcHgi7tYPzlxPFKAnnrgl3FAQPzLTxJy3YH5tHDvQNo2ylC5MhQsX1sZzCvoOT8zRgSdmFyCLWdfgQqFSpUpUOr6s6DjkI+BQiIuLE/kUqVDS3wGVK6mNZ0e5cuWofKWKVDChBKW3QwUFymSsmEF8fHxYcHpsQww4nSjny0Bg/Dw3X2PnNBgiIWZcI0b+VshxC9cvTRWblTPk6gSdlFWebFKbxs1KpQnTBlGbdmWpS3s/HVqVpvo1CgiaJ1ajEVPHU4dBvbR5AFnMeUqmT174scj7de78ealgwYLaeHaIM0h1ylKpqnGUJ0+esAWPH5soS96iBSlfvnwBZwJCBUfa81Yu9sQcBXhidgEs5r1799LMmTPDZvjw4UKopUr5T3Xp4jihQ4cOIh/kUa1aNW0cJyQmJgo5I5+mTZtq4zjl6aefdixmp6evEU9+fzbemaz7yIEdHTveetEFymZ1vRnlbdeqHD2S/V5t2dMLSxnrhHEdCOcfBRjHt5MbNnX+6I8TKcvwjVgymIf6dwK2NS4zYDzXkwXFDWy6fcQpXbt2FfskpFy8eHFtHCc0aNBAiBRCrV69ujaOE1AWiD1v3rzUpk0bbRynnDlzxhNzFOCJ2QWwmD/66CN64403wmbZsmVCpOXLl6fmzZtr4zghNTVVHDWjwxg4cKA2jhNGjhxpCH7GjBnaOE5ZvXq1IzGj84Zsq9d6UjwihbioWyDHA4gHST6Ww//+7EiIWQXlkafLNo2nOvVLUZly+ah53wbGfH6vNjN78SKatWghTZ8znaamPkN5SucxaNmxqZiHcMBpDr1+hBZuWizkKy9ThqXKYsTRe4f2VcQLaHTxVUKVMqOTs1PwOBDfmV2yemlasWKFdh9xypw5c6hChQpChv3799fGccLQoUNFPkWKFKEJEyZo4zgBPxTQZnE0v2rVKm0cp6AP8cSc9XhidgGREvO6detEB4GjyxEjRmjjOGHu3Lkin1GjRtHEiRO1cZwAwSMfCHrhwoXaOE5xKmaAebnTHpHCndM8qHJW358dipgPHTpES5YsEeNmYuYfCSgPvzkN8yBnzJPFxl+iYqZNX0LJw1Ko2hM5qGHRe7QMTBpDQ4en0Guv/c1Ip36rmo+QeVoWK8qi/nCwQidlzr9M84q2og5XzpEWM37A8n6Z3v173LhxIp/p06dr4zgBZRk7dqzIxxOzO/DE7AI8MdsTyhEzPyI1eHoXOnXRfwMSBvW6L+LyG80Qv2Krp4IEbEZKSooxbnXEXLBwdnr4fv/HPngeJK0e1api5jeQHRxXX3vTFMBNVRjePn3aSLdy87qAfAs+8QiVejJHwPK53liwTlDTcF6Yh4+ZNPRJF2E834xw5OyJ2TmemKMDT8wuwBOzPaEcMUO4mI9wxIWQ1aNlFcSt3bN+gHydYiVmfHChXKnc4kcCz7MT82MP30lXLvuff3Ui5mLFC2jFjM81YvmlS+Sg+E7VApbHdRcKqpRRz+JGtqpFqGybygHzSzUuFxRfBst3CrY1nlnHeL64Ip6YLfDEHB14YnYBnpjtCUXMAPMRrgszo1jd8lrx2mEmZi4fkAXFH/eAwHieLOYKcbnocghiTpnWi27e/DhIzMi/eJ24oOUzKB+OYJ2AuLo85B9BPA+n6gs9kZ3ue+Aece1ejh8O2NbY5hjHzV+emM3xxBwdZJs4cYVv5/KIZUaM9sRsR2aIOZI3f3HZ+NqyDGQGMctyTs+p7EOvmp/KluWvgrBIoNY1zgZ06FiZihV9TKyjvEwG6SB6FeTTIu1d61x3npidw2JGn6LrazwyB0/MLsBOzFu3LqDevbMHMGdOt6B4dmLW5bNy5ZigeHZi1uWDeWo8OzFjHdR81DhMLIlZJ2VMAxx9YhpigrQ4TnrEfPAVvZghOiwzPjFBLI/nAxZqpMCy5Lx1376Ww/mmMR1Vyueje+76oxhH/FDE3LVr4P40aVL9oDh2Yt6zZ3tAHkDXTuzEvGGDs3ZiJ+bFi8c4ygd4Yo4OPDG7ADsxDxtWmtq1yxZAOGLW5ROOmNExqPmEI2ZdPmocxk7MeFMUvtPM4LGhGSvnBszTgbRMpMQM6cjXkFHGvDnvoeJPPGaUl+OxmFF+yJnZc3SfWMftU1rQmiFxPsr46VeCtgwtRxsHlaZP3j0p4gxOmWmkw2NXnD+EjK+C3Xf/PWKc57OU8cOAj1TTgyp9gB8guqNlljKfLdDRZ1Rzat06wUgfipgbNw7cn7CPqXHsxAyhNmtmn4+dmBcsGEMtW9rnYyfmyZO7BeWDtqzGA56YowNPzC7ASswQp9wgmVDFbJZPqGI2yydUMZvlI8eRsRMzhMRHjadPn7aE46nfUI6kmFm4EA3uEm/YPoGequl/nzFkpsZTgZT46FoFeTg5G4AbviqXz00l4/IGlIelrMZnkHd6QLnlZWCZWD4L2WrZOkIRc926wfuUum86EXOtWvb5OBGzk3yciFmXj67temKODjwxuwArMeuOKkGoYtYdLYNQxWyWT6hixilGXT5yHBmnYn734jl6+OGHLRk3elimiRlATPgLIaO8PJ3RYkbeiFuhkf8ZYydS5jKmF/mHAAsZ83Tri/DqtUtSvjL5tOGhiLl69Wy2R5dOxOwkHydi1uWjHjU7ETPycXIU74k5OvDE7ALMxAz5yg1RJhQxmx2dglDEDPnq8gD7928PyANYiVmXB5DjyDgVc/v2LX1l2UwHDmwxZfiwfrR8+fJMEzOTUWLm/FSQN5bB00jnRMpymnDg8shSRt5qPEZsw0fupEIFH/WPp81HWky/6dv+eCUn5jkRs93pbCfXmJFPgwaB+QD5B6idmFnwdke7TsWsy0e9hu6JOTrwxOwCdGKG6NRGKCM3RsZMzGZH3UBOz5iJ2ewo1+x6l5mYzX4o6G7UYZyI+eTJk3T17/bfjX7l1f30+uuvim8Hy1LLCDFD/ufffVuMT1syi9776B2q2t4vGSyffxys2bZCfMeYv6okh+GGLuRhFwYwn6+db923zVg2vm+MZSdNHC6mEY/zAGZSRv1gXUKFhaxKWb7koPLKW68G/OBAefBylh7dG1PL5DZinp2Yu3UrbXs6207MAPnYidBOzBB88+bZhVStjprtxMw/FHQ/FpCPvG6emKMDT8wuQCdms1PGQHeUC3RiDvVoGZiJWZcHMMvHTMxmgjfLBzgR8yeffEhf3/g6Tb/mw2eXP840MbN0MA6JYhzihER1YXwDF8ZZnHgPNqYxn8MwD2GIw2FIi3G+MxvjAMvCMnVhGLeSMgsWf0MBaVAH6pEyl18Hr5Ox7LT3eF+5ctnxqWyz08fyj0cnYuZ8rI6+7cQMOB+ro2Y7MQM5H6t188QcHXhidgGqmK1OGaun5WQg5r59+9I779SkadMGiHmhHi0DiHnhwk506lQNX/n8HZeV4NX0DDquV19tTocPNw4Qsy4PoDsdzjgX8/U0/ZoPn126JWZZHP+LYjaTMmDBqvPTA5dfhyxmwD+aQrnGzEeXVkKFmLFf7tp1a/9W4Xx0QuXLSNi/X3mlGa1d28hUzE6OmiHmS5fiafbsNqZiRj44ikc+VmcEPDFHB9meeWY5ecQ2w0fPCRDz7t2lfQ0+m8HLLwc3QB0Q85QppX3qKUDbtrWhvXsXBOQDUlL8+VgdnULML75YUOSzYYNf8Pv26ctkdfoZHRfy+Mc/ShhiNiuTVT4gsmL+yBCzfKo1PWKWj7xlMV+9epV++eUXMT5jyVy6fv06pS6dI2T55Zdf0k8//STCZi9fIMIGTBgu1gXjn125JMK2vfSCmMZ8DnvtxDER9tbJ40ZYYt9OYnzTzm0iDG8Pw/PQWFbyxFEibP2OzSKMy2UmZYC6MbvO7QTki/xl+k1JosVLVtDSZauDWLf1OW0+oYgZQGDdumXz/SAM3M/efNPfdiBm7JfXruW3/LrU0KH1hQg3bQrM58QJ/xHqli1DRD4XLpQwFTPgo12USc4HHDu2wNfWOop8pk+vYCpmwNesrcrEYkafoutrPDIHT8wuQBXzkSOl6ezZP9L583/0HbXekqDZtVwGYmahfvppRTp61C9B5ANOnszmE7c/L116ZvDgwSIPcOxYGzHPrExWPxRWr+5j5LNvn/+zeGZlsvqhAOzEDPnUbN/AsZg7DugiZArxsJxrtm8SJF0ndOvVzRAHH4GymCE/FjOkiIHFDGmymCFTDCxmDCxmSBgDixkDixlxMGA+0mJgMSNvFjOWiYHFzOUykzKQxSz/8HACH20jPbYT02ZIF1q2cj2t3bAtiAUrlmvzClXMEGFSkl/M8n4GCSL8xImRvprw75ezZrUOSs/wUfPzz2ejd965te8fP+5vhwcO9BJ5QPDDhw8PSs9wPgMHZqNDh4LLdPZsHZHP9u35LMUM+KgZZTp50p8P4DJ5Yo4OPDG7AFXMBw+Wpm+/zSEa66VL9zqSIJgyZYovvydFOhylQoKvvvpHMf3zz7kNCeru6Jbp1KmTryMqLNJ99VUNMQ9lunbt4YAy2f1QSE5uJeKDDz7wH5mYlcnqNDawEzPoOqwXffMPZ2Ku0dp/A5Ys5+qdGortwAwf3IVyPHwnNalfX0wv2bKS1u5aL8YXbFhGK7emUo3acWJ+q6Qu2tPCkRZzywE4uoqcmDFuBosVdYR1KljqcWrYq44hazOQDqA+WOj8F+W8fOVzURZ1eOPUcSMPPouBZYUqZogQYt63L5uvDnL7ci5A58790RDzhx8OEPMAvl+uppeBCLdsgUzvFfG/+eZhQ4IffNBEzINQO3fuHJRWBj8WIOb9+4PL9N13JcX08OF5xVkmXXqGJS+X6YcfcnhijjI8MbsAJ2K2O9ULxowZQ40alRLpgJkEdWllWrduTcuWFRPp3nuvkZinE7PdUW6TJk0MwV+/3lXM05Vp+3b7dYu0mPce3G2kk+XMQgBTFvWminF5qFSDOCMelod4HIfRSRnEqpixrlhP1DGmsW7ZH7yDGja1/7wj4iId8miS1JCKNSknXtGJaZRzz5qZdPnAoiB2bJgt0qMuK7dLoFatKosfAvjsYyhiBrNnl7YVM4RqJ2YI1UzMX39dU8yDUFu2bBmUVgZCNRMzxkFCQh5xM5kuvQxOsXtijm48MbsAVcyHD9cXIgSHD6ODKW17RAmWLl1KcXFxQoa4cQsS5HzAK6+UpgMHrGUK0Dmw4PlUtq5MajqVbt26GYJ/6y3/qT5dmfjanxUZKWZgJmfkL0/LcsbyAdJhnu608MgRw6hLl05ivFdyP6pZ8ylq36+rkGW7tq1p7NjRAWG4Tgx51a5dQ5wiR1j/oQOoRo1qhpgR1r67/4azwcMGU9WqlUVYpyE9qXat6tSmewcRNv3ZadSoYX2xrO7JfamWL6z/yMEibOTIW+VSwTryqWiexucdO3eoTqUbBn9lCnWAU/cMixlh3XvXoQfvu53KlysiplGWQQ1ya9/93adZQSPPJwo8JtJlz/VwyEfMYOfOMQH7GfbZY8f8bejgwUm+vaAAzZ2bjxo0aBCUVgZCff75wHxef91/xun48fYiHwi1X79+QWlVzMp0+XIlkU+ePHl8PwTs24JVmTwxRweemF2AKuZwwTXm2rVrU716xal9+/baOE6YNm0alS6N50GL+37lD9TGccLw4cN9HV9Jkc+MGTO0cZyS0WIGZnJWYTnL4DlbnM5mWCRff/0ZffnFJ2J89dY19PVXn9CkedOEoK5/fYm+/PKztLC1vulPqe/YwUKyf7/+KZ29cEKE7X9lH31z47IhZowfeHWvCDt74aQRNmDCMJHHys0rRdj1r6/6lv2RWFbKopli2SueWyHCvv76Cn1x7SMxLpcbNElKDDoqxjrL0wxvA8SHzFnoqD+kSWifQG2bxQcI3U7MYhv4jpiLFctDzfs2COuI2YqtW2eLfbJQoUJBb8gLhdmzk0U++fPnt7z5y44hQxJ961pMiNnuGrMdnpijA0/MLiCSYsZdpi1atKCkpCRtHCfgruyuXbuKfMweJ3ECrpchn549ewY8LhUOmSFm4FTOMkiTnDKG3jpzUmxHgGmE4VQyThlDjny6GpLEtHwq+5U3XzfC8NgTBtxxjbCPP/tETEO+HGZ1Kht5IYxPZSNs/Y7VAWEoE5/m5jLjuvnZD8/RlGXTRBw7uP75RjcdLHS5Lu3EzJLndHzEjLwKVyiWbjHjrmzsl82aNUvX/o0zS4mJidSuXbt0iXm47wcsToW3aWP+uJRTPDFHB56YXUAkxYxnInXvyg4FsxeMhArEzC9yyDQxf2cv5k8txAzCkTNEjG2I8fyVnjRAOSFsjA9+BncDE7Xr24USmtYSYXsO7wsIq9airgjDsGrjGhE2a+l8MY3x6ol1xfiS9SvF9NZd28U0xpEWw4Q5U4wwLEMOGzN9osj/2Im3jDAGMsTNbfyjwgpVyqgz1BeDMNShmg4Ma5pPK+ZJvfwyRno5LcqJV3KifCWrl46ImHm/TO/+DTlbvWDECSiL3QtGnOKJOTrwxOwCPDHb41TM3zoR82cfWooZqHJWT/eqYPuBeo3qUuWKFah0yRKCAQMGUFvfkRDGa9esIaadhmEexhHHSRjnIYep+XMYxjkMxPmoV7+mWAc7MeukjGkWKuBrzaqcxdH7iCZaMS99OlHE0YkZlwowPxKnsj0xe2Q02SZMwE7mEcsMe3q2rZhx85eMLo4TMTvJx4mYneRjJ2Y1D7N8gBMx4znmb7/7e5p+zQeImR+XsoLl3GZke3rx8G56ft9OS6bMTqVSJZ6k++67jx64//6Y4uGHHqYihQqKdcAPDV19ACspq3FRd6qcIeYZXeK1Yl6iETPyZzFj2k7MTvYnJ2J2ko+dmNU8zPKxE7PTfACLGX2Krq/xyBw8MbsAOzHj+WU8xywT6mcfge61mrpHnuzErPvqle4Zazsx696ZrcZhnIh55NTRjsWMF4xAEpzWDJZzs0GJtqe167ZrQgXz56eZqVOpZ5dOMUXn9m2pWNEiVKJWBe26AVXKQJYy6gc3bckyluWMcLxg5MjW5drHpXZtmiPSyGLGeCg3f1m9R5qxE/Nzzzlrb3ZiXrzYWXuzE/Ozzzprb8ATc3TgidkF2IkZnYvaMMMRs+692eGIWZdPOGLW5aPGYezEDMnilZxOxYxXcspfV7ICcpbf6Xzq1CmJ476OfomY/9abx6hwoUI0aliyVn7RDMoMMWMdsC47dmz3rdvJgHW9ePGiCJPrDfWP7cDjtRIK0BNFHzO2C2A5A7yS0+4FIyxmPhoPRcx2n3wEdmLGqy+dfPvYTsx4BtpJPnZixmcfrb5OJeOJOTrwxOwCrMSsO8oFoYrZLJ9QxWyWT6hiNstHjiOTlWIG+HwipHTjxo20XNKG3/9Ln1/5ULz3+r133xUvVVHFPGxgv4DpaARlrlqlilgPcPToPt/K/eZfx7QB64464I9NsDhZzLkrFKVSVQtTi8SK1GpgY6PuEI/Bdrp58ybd/Mc/fdvrJK1fv5S+/+ePgiPH/HeMp0fMdp98BE7ErPt4hZqPEzE7yceJmJ3kAzwxRweemF2AlZh1R5UgVDHrjrpBqGI2yydUMZt9+lGOI5PVYsZjRWbsOrBD3HkNKleqFCDmV/dvpk8vvkqnj+2OakGjzC2aN6ezF86J9Tjw6m7tugKWLOoeyNebIWeIFfP4dLQMthPk7v+Rc8UYl4WfHjHjdZXqPqW+Nc+JmJGP3WlxJ2LW5aMe7ToRM/JxcvTtiTk68MTsAszEbHZUCXRCNRMzpKnLA+iEaiVmXR5Ad0OKlZjNfnDIcWQySsy47umEaUtm0ZptKwSzlz97i2XTjPlLVs+lIsqpbEiZWbd8doAMowmUGaeyx6RMEOsyY8nUwPX0wes5fflUUe8QKOoe20G+7sxArqqcZTGr2IkZ007EbCcwOzHz+6gbNAjOR24vdmJmwdsdxduJmQWvO2pW+wFPzNGBJ2YXYCZmtRHKyPEYMzGbHeXqfnEDMzHrbvoCZu/xNhOz2Q8Oq/eBOxfzN2n6NR8+/PCiEDM++4j0TkBcyEN3Knvhwtli2x08sD/oiHnZgqlCyseP7qCkPt0DZBhNsJjfPnFCrMuypXiHs/5UNn8uE6Jk4YYiZzt0Ynb6HDM+OmEnQjsxA+Rj9S1mYCdmwF+Dsjr6thMzfijwN53tfnR4Yo4OPDG7AJ2YzSQIdEfLQCdmq6Nls3zMxGx2lGuWj5mYzU5jm+UDnIr5+3/ai/mjTz4wxIzO3wk4hTtp/rPizVwzVsyXmEdXLr+fljMFXWPu2qEdDerXkzq3axMgwmgDZcapbB7wms/ZqxcErCvWH1Rq5T96lWUKsD0gTyBLWidnpNedmQBmR8x47/aj2R+wFLPZ9WH5R58TMTs5De1EzJyPevQN+MeCnZiB1VGzvG6emKMDT8wuQBUzTgurjY8xO8oFEPP06S3EJx+XLvX/sjc7WgZqegZiXr68rsiHOy6zo1ygpmfQceFbs8hHFrOZ4K2ez2Qxo9PG5xl1Yr5x4yv68cfr9Dv9y4A0/PTTF+LIL1LXmBv3bE2DJo2iUdPGB53KjhVQZtz8NXFGiliXpr3batcV6OpHRT2CVuWM7WYF0stixhEz3rudULG4pZj5NLSVUCFm3i/NxMz5WB19Y/++dCmeFi2qYSpmzgdCbd06MB8+ap4zZ5goy+zZ5q/klI+adafYue14Yo4Oso0fv5Q8Ypuho2YFiHn16vqUkpItAG6EVkeVEPOUKaV98ilAhw83Eo1VzadPH38+upvHGIj5iy/8n6LbsGGAmGdWJqvTz7179xZ5ABYzOjU1H5TJKh8AMRcvXpCqVC1Izfq3CBIzhIH3SA+YMMQnFmsQD0DmLAoVPnLjI0C+DgquXr16i88v+Tr6W49LxbKY1cel3jl1MmBd+VQ2ftBwvciwVFFvqENsH1nGEDXqlYXL8tWB+JynfI3Zybuycfq4bdvAfQzs3+8XKsTM++W0af79Wwefzp40KTCfNWv8Qj1woJfI48KFEqZiBnzzFtqLnA9AmV58EZ/yLOBbrydNxQzko2a1TPzpVBYz+hRdX+OROXhidgGqmI8cKU2nTmUzwLeP0aitjpYBxLxkSRHRyD/9tKL4xOKbb97KB+B7zMjL6uh08ODB9OWXhUQ+/NlHszLJ1+5UVq/uI/IA+/ZNEPPMymT1gwNAzAXz56BHHrhDvIlLFbNTuNPnv7owCAT54i8DGUFKkBM+/mDw68905vQxunD+vOnjUrGA/4g5QawH+Obvl33r5//QBcNiPvT6kYC6YVBnD/31dmrXq45Rn7KYMS6LGeMcpsJSRhxsaxazk3dlQ4RJSdnotddu7WP47jd/j/nECbyX3L9fDhnSKig9wzdvPf984P564kSgmK9dyy8+RKGmZ/ioGd9j1pUJR+/IB9+HxlG4Lg+AfPiatVmZPDFHB56YXYAqZnxj9aOP7hUfZf/gg7scSRCkpKRQr14lRCPHqTH/t4+ziXwAOgJI0O7otHPnzuKbzsjnq69qiHlmZVLTyvTp00jkAT74oL+YZ1Ymqx8KAGKOq1pKdNYN+jQPS8zo2OPbVqb8tUsaH+6Xw9qMbE55imanci0rBgjFjmUbl5o+LhUroMzNpcel1j6/WruuwOx0NrZF9gfvoFHj/WciIFUIm8NRp3x9mqWLvPAX25KRpYx02NY4lY0jcbu7sgEEBjFjP7t69X6xn50790dDzNevdzX2y2rVqgWlZ1iEW7Zko9On7xL5XLp0Lx0/7pfgBx80EXlAqPg6lJpeZujQ+kLMhw4Fl+m770qKfIYPzyuuWevSM3zULJfpiy/uN8rkiTk68MTsAnRi/vbbHKKxoiOABNVnKHVAzI0alTI6HUjw1Vf/KMZ//jm3IUE7weOTeCz4995rJOahTNeuPRxQJjvB4+iRBY/OEPPMyqSmVbG7+csp1csXoRwP30nNmgffQVytbmnK+chdVMEXRw1buXkdrd2+UTA2dYLBmGnj6OmUsWL+srXLYv5U9oTpk8S6zFo2N2A9Aa8/6oIlKtcRxIvtAbHyPMRhOeNoG2khZoxzHIwjnQxLGWBbO31XNjN7dmnaty8b/fRTbrGvyWL+8MMBYh6E2qBBg6C0Mjj6hgTPn79XpIEIWYJff11TzINQ7cQMyUPM+/cHl4nFnJCQx1bMgH8scJl++CGHJ+YowxOzC9CJ+dy5e33T99PZs/6jUzuZgqVLl1JcXBy99FJRHzUNCSKfixfv9XUCt65FWYHOAYI/ebIQLV/eXcxDmY4fvyugTHZHud26daMJE4qLfHbs8N8lHm6Z7MSMI7GWAzpq4SM8CKFyuwRKHtiQBk/vEtD5I6xCYjx16lA9KAzIp7IDht//S4sXzaFPP/2Uzp45HdNHzBDzO6dOiXXZsX2Tb+XMH5dCvfPd03I96ZDlrGJ29M0IiaddY8a0UzG/8EI3IWZuRydO3BLzwYOTxD7Zrl1+6tKlS1BaGQgVEuR99r33bh0xv/BCB5EPhGp1KpvBjwWIWS3TsWMJtHBhQcqTJ4/viNi+neMUu1wmtCNPzNGFJ2YXoIoZ8pLZu9e+sQJcY65duzY9+eST1L59e3r99e1BeR07Zi1TMG3aNCpVqpTIB49wYJ6aj5MyjR8/nkqWLCny4Zu/wi2TnZhxJAZp6MCNXnJHj7+qeO3CIBD/zWXDxWcRb/E0fX7lgzR1BT8uFSugzDiVzcO331z2rduogHXlm+ZQH6grSDkUOW/atdl43ArjqFPcgGf1ohfkj20dqph1+xmHzZkzR+yTRYoUCXpDng41H+SN+fgBi3zy589vefMXY1am/v37U7FixahGjRqWN3/JqPlwmTwxRweemF2AKuZwgZjRyHv16uWowzEDd2X7T2f3omeeeUYbxwm4kQXl6dmzZ8DjUuEQKTGHC0tER58xgyh16Ryat3Kx+HTiqGFDfLLrGCS/zAXLdw7KjJu/Js6YItZFt56MfAZClTP/uFFBGggY26xq+3piuyAvpMN8fHUKYSpIG46YrcBd2di/27VrZ/q4lBOwf/fr10/s307EbAaOtvv27UsDBw50LGYzPDFHB56YXUAkxay+YCQc5BeMpFfMuheMhEN6xDxm7nghj/Qg58cfegBffOE7shwySMz3Py4lizl2QJnlx6XwCNiXX14LWFf5cSnUOWA5N+1RkxITK4u6MpOz2XxgFZYRYrZ7wYgTsH/bvWDECU5eMOIUT8zRgSdmF+CJ2R47Mfcc0p8GDxktqFs/kTp06i3Ge/QaSMlTRwl5pAfICJx/9wJdufa5weVrl+j8ubfo+vXr9O0336Sdyo5NMeOIGevhX5crvjq+tZ4A64464HdaM9gGVSvko7/86TZje6jgiPmVt14V2wxHysgHZzJwuhrj+N416lmX1hOzczwxRwfZxo1b4ts5PGKZ5JEzbcW8bduCAHQ3XjkRs5N87MSMNE7ysROzLh81DmMn5pnLl9L58+8GcfjI0YicyrZi+aal9Py+nQL/zV+xKWZcY95zeJ9Yj9TFz2rXVQe2Q4uedejsh0sD7siWgZjx/DNOWbOk+cY8iB43h+FoWyfnUMSs7k+6/dKJmJ3kYydm3Dim5qPGAXZiDqWdsJjRp+j6Go/MwROzC7AT86pVY6h9+2wBhPrZR6DLR/diDzsx4zEpNR/dXeN2Ytblo8Zh7MQ8Y9nitNuWAgfIWRUzjtLko2En4FQ5BAIWrlhssPmFLTR60lgx/4WdL6Q9LhWbYn6iaBHatXuzWJf1WzcFrCfg9ccRrlyfTmHx4rQ1thu2A4fxKXGdnEMRc2Ji4P40fLj/bmUZOzFv3rwgIA+gezTQTsyLFwe3N7RBNZ6dmKdO7RaUj5mcPTFHB56YXYCdmNG5qA0zHDH36ZM9KJ9wxKzLJxwxq3kANQ5jJ+ZevdvSB8+NDmLnzKQAMfMbqiCAUDD7utTvv/+XXnxhq/gq063HpWJUzEXwuNRJ8bjU8mXzfGunf1wqI8QMzOQcipgbNw7cn7CvqnHsxIzHkZzkYydmvAykeXP7fOzEjGep1R8cunyAJ+bowBOzC7ASs+4oF2/cClXMZvmEKmazfEIVs1k+chwZOzFXr16Ajg4uGsS0FrmNDp6ljHQ8zyk45QrB43EpfORB5otrH6apix+XitFT2c2apa0F0Xf/uOpbtxEB64n1T89lATsxA52cWcxIYydmfHRC3a/Uo0snYnaSjxMx473Wdvk4EbOTfIAn5ujAE7MLsBKz7mg5HDGb5ROqmHWnn8MRs1k+chwZOzE3qGEt5vRIGUDM6otLmAHPJNPgKaPo6Wf561IxevNXQgL1HZUk1kW3ngzqQldHdrBsIWQzMQNZzgAvGMH70Z984jEaNa6DpZh1AlNPQzsRM157aXda3ImYneTjRMy6fHRHzZ6YowNPzC7ATMxmR5VmQjUTM35Zm+WjE6qVmNV8OK9Qb/5Cp6LLR44jkx4xp1fKAKdvcRr34sWLxp3L4Ouvr4rHpTB/z0u7Yvsac5EiYh2wLlNTJtMF3zrL6+rkVDbuuOYjaxncGZ84zP9aTYgXN4lBuhhX85DjYLtBzD0HtaQH77vdt2/2sxSzE4HZiRk3bSEfu9PZdmJmwdsdfduJWf6qlJoP+gg5rifm6MATswswE7OZvMwEZiZms6NTs/dvm4nZ7IeC7sYYYCZmSDyUfADEXLpGWXEkpRNzz7YJWjHPaJNPCCE9UgZ849OBo0eMD1YITr9FX37xkRAXHpdqGsuPS/mOmFnC/7j5uW/93gpYV6w76gA3wunqCCAc8taBO7I5Hou314R+xotLGD4iZ3ljW3cf20Vsa7uvS+E90nYitBMz4E8+qvnIIrQTM+B82rQJzEfe1+3EjB8K/C1mux8dnpijA0/MLkAn5lCPloGZmEPNx0zMoZwOB2ZiNls3s3wAxFywSF5auWONeJxHFfP4gYlaMa/tU4GSJg43hBAuFVtW1s4H42eNc8fjUs2aGY9LPbt0unZd7bASM6Qrx4WAdfFwhI1wnOmAnLGtXzy8W7SRNp3bW4oZR6k6ocqXfpyI2clpaCdi5nx0R998lslOzMDpUTP6EGw/T8xZS7axYxf7NqpHLJM8YoZ4F/Errx81GlioR8tAJ2Z0SKHmYyZms3x0p7GBmZjNBG+WD4CY6zarSku2rBQddLvk7sYRFTpxKzFzR58ecJSIU7jgjePHDP725mu0cMlCMd//5q/YPpWNR76wLlinN4776l5aV15/oKsjkBFixhkSbHMnYubT0FZCdSJmzqdBg8B8AB99OxEz56MTKh81OxGz06NmPObWKqmL6FN0fY1H5uCJ2QWgEaEjSpk3QzSucI6WAcQ8dOQw6jGkpyFmM8FbnTaGmJFP1749DDEjfqj5oONCPj2TegeIWc0H2H3WEmIuWausqCf5GiV38tPnPkPfffJ2EG8fPRQRMUNGkIb6uBS+LnX01YN0+fLlmH9cCqeyr129KtZl+bL5vpUL/XGpKTOfFW9dU2nXvqdWzHiXukrNlg1EOItZTvN42cKWYgY4faweoQIOh5ixX3bp08NUzMDsdDYffWP/HjI8WeRjJmaAbzFbCRVi7jGgDw0YnGQqZuDkqBl9COrJE3PW4onZBahi3rOnNL3ySjYDfGKRxSw3VBWIuUhNv7zqtW0qvgAl5wNSUvz5WB2dQszcEfYdkiTm7dunL5PVD4VBI4eKPEo1qkRT50wT83RlwveYrQQPIGbkpZMyppdtXZemj8BB94IRgFPg6PjV+WZAIhBLi34dg7j6+a2vS8XyNeaAx6Vufh60nlh/Va4qg58eGfDmNebEiZMUVz8hIG6u+GI0aNAgGjJkSAB9Bg8Q4Tox56xY1FbMuIu5W7dsdPhw4H7Gn32EmDm/fskDg9IzfPPWpk2B+Zw44f8R2X1gH5FH4RplaMJkc8HzUbNZmdr16mzkYyVmzseqTJ6YowNPzC6AxTz4mZG0+8AeOnKkNJ09+0dfh/ZHOnXqlgRHj29CL+7eJeLgLzh+/LjB8g2rxPVUgEd3jh1bKhot8gEnT/olmDSkvJGeQZ47X9zhi/M6tejVQZQHJLSsI8LNysRpuUzyeJXEeiIPXAvuM76fmLf9xWe0ZVq09BkRLuchM3vFPHHjl07KkOyWPdvo3LlzQZw+fTpIzIhfqVxuqtEyPmC+FfhUIddtu4FdA8C86cvn0uxlC6hI4dh+XGrSrCliXczWE/DNWTomz9uQpvbgQSdmfBxDHXCjGcK1YvYB+cj7Co8zc+Y/Q0lJfgnK+9muPf59rM/IQUZeCS3rBqVn1mxYKiT4/PPZ6J13bu37+PYxwut3amHk07xn+6D0Mjj6Hjgwm68dBZbp7beX0ujpE4y63b1/b0CbVvMZP6lPUJkAyoS68MQcHXhidgEsZgBpLF33V/r22xy+LqoAXbp0ryFBjoPOio/25GtzKh9//IL4mDry+fnn3IYEy9R5zMjrVp4JFF82Fx04pr/pZ+6Su+natYcDylSn5QPiCJafOcVfTKtp5Zu0arTLrS2TGhf5mcFxWcp4HtbpZx9RPqTJ8fCd1KaT8+dx+VS2+rjUdfVxqRgW8xNFChuPSyX7jiSvX/8yYF35VDbQ1RHoNXxy0NvXGPVoO3/lwvTxu+/QTz/cCAA3LyHcTMwMtmPxJx6jtbvGGvPEM9KdKwsx79uXjX76KbfY186d+yPV7XzrZTNOqVjtbtqyBTK9V+TzzTcP05rn7tbGtaJgQm4h5v37A8t0+fILRp3qUPPJm1BQiFku0w8/5KDNO/9qtDHgiTlr8cTsApyIuVKDh4w46RWz2RGP3LBVdGKu1b6wIWNZzmpaWcy1W+cKKtPg4X+hvGWKUO4KRQPiYhrzdchSRlx8gB83HulQhYAyIi3Q/ZDQwfnjkaE3Th2XeJOuXnnftz7+oWnTpjErZvlU9rffXPat27GAdeXHpdZsW6GtI/BoiTzam/COTwrct3AjV/LEkbR3fV365ESHALY/10McNduJuVGHBPFsMz6ewfOwTbM/cAd17hQZMUOokRAzhLpkSaV0ixk8UeUxT8xRjidmF6CKOWX+wzTHJ8Kla/9Ki1f/mWYuDOwIQhHz669XMnj77Up05sw8y1ORZoxNvU+UCcxfdrcokyxjKznLsm3cIEdAmfbtK0xrlvenWZNSqHZ8QkDczk1bivlPDxpKowYmi3Fw9PA2cWRv9uYoJ6C8fATuRM5WddZzVF8hmiXrV1LlyrF98xfWAesybXGqdl3tCEXMc5bNp41z6tLbOzoEcHTnBFsxY5vV7l5L7CtynPKJ8VS1aiGqUftuWrjyzwH7bFzjggF5OAFCnfisPw/OZ+D4h7RxrcD+89Zb8wL2/TfeqOT7sXtS23YZXV5ymdBHoExjZubyxBxFeGJ2AaqYISd0PBjXycepmM3QSQZHlTgd7AT51LATOcuyrVGlilGOVatWU90GiYJSpUrRo488Qjly5xRgHPOKFH1ShA8fNTFgHTp1rW/kHy6ynFGfVrz29gG6ceOK4OrVDw1OnXyFVq6cJ+aLx6Vi/FT22ydeFeuyc+cm3/p9ELCu77//jgizuivbXMyB+xyLef7QunRgfocA9m+wFzPQ/aCSt6kalh6wz+vagg7dDXJoc/L+6xQ1Hxlx2t7XrrDOchsDnpizFk/MLiCSYr5w4SIdPfq3ANQ4OjGj41HjmYHOR05rJ2czMZ84+SFdv37DV8aj1KxZMy1Lli4TcQ4cejWgDEWLhH70owPlRX3aYfZ1KTwu9cor++mdU6foyOFDMX3EXMV3xIxHvrAu4T4u1ahdU1Mx4wY6jofn9lv16aAV8/LpPUS4nZgzk7XbNwbsf1aoNxsCVcy6dvra68cC4gA1HxlPzNFLtjFjFpFHbDNk+K0bruzEjJctDEgZTA36NBfTciO+efMmBT2qcuFdeuPYiYB46CSQD15EADCeHjGjA0VZ24xsLsoryxnTZmLu2rmr6PBPnjxJw4YN03Lo0CERZ9/ByIm5UqdqVLxJOePHjRNQZzpQd1cuu+8a84X3TmjXF+jqh5mQMsFUzEFHkuULacU8Ptl/NiRWxTxh0UTx0Y3B04cKMI7Xwspxli5bFdRWv/zyK9GG5XhYNrdV/JXLZCVm9Cm6vsYjc/DE7AJCETNeT7jn6D5asMH/LKbciH/88ce0bjVwQKOX46FzxalEfo0kGj2L+ZNPLwVx9dpXAelVMaOc+XLcQ2XL5zdOIcrl14kZp0R37NghypeZYkY5qsbnoQf+crtRPifgPc+4AQwMGj88AJ4/JmV8zJ/Kxjro1lFez6rt64ntq6vfgSOGuV7M585f0LaRq9f84fhgx4jp4432hbaKOuP04J13zoj9Wh3QhuV4WDa3VQxymbBfYh/2xBx9eGJ2AbKY63ZvQk82iLcUMzorPtqTG7Es5t9+u3UaUidmOU8AMR997W/GNV+VpctWG+lVMVdul0AJ5fJR28638rUTM3jzxEVRvsw+YsbjNfkL5RBlcorZqezrX1+jpUsW0GtHj9La1atc8bgU1mVo8kDf2ulPZQP8ANPJub8vH90b2P5z8yrV69ZIpGOqdHyKDq6bQG/vSAlgw9KnjX0mlLMaGYks5s1bnte2EYA25ORUtixmua3qxMyg7cvTspiL1CpD1dv63xsAPDFnLZ6YXYAs5mHjZlDbLr2patOGVLtZM0qo00BQuXY9wfCR46lW06b0VINGvvn1aVDy06IzACfePiVOXb/51gkx/bc33hTTGzdtE9NTps6kwcmjRT4JteuL9MWrVxI0bNtGhOk6G7DEQswsYd28aBQzg7KhnE7AkSLWe822jbRl9w6J5115KvubG5fEusnrinVHHaAuWK6oG7lOp8w3f8GIKub4NlW0Lxg5++E5x1IeMKG/Qc02dQSJPZtQrvIFgsB8f5zaRpoW/Vpq81WRxTx7znyqUbuJtp2gDXVJ6me0q/K1aom21qpDVxEG0BYPHHw5oK1y28VfTIOBg0cGtP82nXoY/QBAH4C+oGyN6lQxvjoNH5dKeeP928MTc9biidkFsJjb9UkWHdM339ykDp17U626zfzU8VPToCnVrtfChObB1PWj60icMm/BYqNjUsWsAx22TsxPVa8qHoMCUybMFOvrRMx7D7xqpAORuvnLKTjikUUt03fcAHG6cteB3ZQQ4zd/rdy8RqzLjOUztOsKUB/4q5PzjkNH6LPPb2pRT2WjTn/55RdxxCiDL0nJeZohH4Xu27efqtdsTJUrVaPiD/1BS8mcf6Kq1etTi8SOIe3LQBbzho2bqGKlGlS3fktLRLvlNqyluSXcbmvWbnoLX9tXQV6rVq8X7WTPq++K8npizlo8MbsAFvOgKWNE48Lw4p7jtGHrUdqw5VVaDza/QuvAcy8L1j53hNZuOkJrwMbDtBpsOESrNhykVevBAVoJ1u2nFWDtPloO1uwVLFu9R7B09W5aumo3LVn1Ei1ZCXbR4hVgJy1aDl6kKk/VpZSp00LqzNCx6sQs07JPR/FYzLJNa6huG98RiI9m3VpRu/4djOnUBbNEnBkrFwWlz0x43cHVq1dv8fklWrZsiZjvhselsA5Ylx07ttM7p04GrKt6V7ZOzngBCdeTik7M/BKYV956lQ697n+Bie5xIx2ymA8ffjmt5fiOuBd2pOOTqqfxVAD/ufmFiPPeJ/51CUfMEydOogrxT/nb0Brgb1MBrAX7RLsT+Nog2qLA1y7RPv342qqvzaLt+tuv/6/A16bRtgWb/KDNM/55R2j7rmNinTDgbnaU1xNz1uKJ2QWwmAHu4MQRw2df/FfwKbjm5xNw9b/0MfP5f+kjcMXPh1d+oQ8v+/kAXPqF3gefgZ/pvc/+Q+996udd8MlPPv5NFz8G/6IL4CPwI53/8J9p/CCeJc4IMesIJa6To6pIwa/k1D0u9fKR/UJcF86fi+lT2ThiZgm/dnSfb+X015ghT64XWc6Y5lP+OiBSTicj7yu6cDPMxHx8Ui3tDWjAEPPH6RPzo4/l9LWZX+jiJ/8VvGvwq69t/eprYxKf/eprfxKXfhN8cOlXP5d94wofXgG/puGf/uhzmV9vcfVX0WfgDnAuryfmrMUTswuQxYwOqnb3JvTr72TKbwryPDWuyn//7xa/AF/fC34Gv0r8l+g/Pn7ykSdvvqgTM/LH41mdO1alcbO7i2uFZsjp0Jnr4jByXIbLhGueWB+My3cL79y/XdyYA2L9GjOvx/l3TwTUgfxsOl6VqguT54VCVoj53TQxQ7hYrt2yVTE/9lgOox2pbUxum+D/TPD9CyLcAX2G3G48MWctnphdgE7M0TTkzJkrKo+YES9X9ruoVKliRtnAlKmzxE02o5OTaGjPtlQk158MqpctIOYlDRiUdiPOG0Y6+UhQpmS9UlSpXC7xNSosU/cIDx45mzJ7Wsyfyh4wZrBYF3X9gCxn3Xx5XihkiZg/8ot5675tYtlAXS8ZWcxr1qylBx96SOQTLYMn5ugi2+jRC8kjthk87FnRmPImlKDqHevS5HnPpjW36Bgg5tVrb3VM0XLEHNe0vHhn9uLNU42yge0v7KUDh47S7E7laESNh7QcPHKUDvnYv//WNVEzMaM8OR65iypWLW76XC2u7a3dvD7mxbx11xbjOqUOCBj10TK5idgGmBeLYr6YJmYIF8vHOqAMZnKWxYwfqdEm5v5jh4q+o2j1CqK86FN0fY1H5uCJ2QWgEeEo5cKF98QjE5k9fPrpp+IO6JSUFHGHtDpAzPsPvGx0TNFyxMxiwMs/uGyAB6sOmocpU0Yb6czEzJ221csu3CLmieOGWooZ9fDog3dS8VJ5DBlnpZgBXt5RpWONtC3qTMyV2nQUaeX8rOQsi3nVmo1aMcvt6G9v3LohKzMGPMmBvuPc+Xepw+BenpizGE/MLgCNCHceZ+Zw6tQ79Oabb4rxVavXGo8nLVmyRMyTh3z5C9Jzz201OqZoETODu3i5bIAHJ2Ju3bqmkc5MzE6AzM5eOEdDkvpThzataPSIoRnL8OQgpk6aED6TJ1C3zh3FM8SWR8ztEqhV8zLiZTIs0qwSM8P7TPHGtenRStblQDji6cKAmZxlMa9dt54efRSfZQ0c0Ha4HS1dtkLMe+ONN+jEibfFeGYN6Es8MWctnphdQFaJ+fDRN+lfvxEtX3VLzAsWLaEb//yNvv7uN/ry5m/0+d9/E2LeuHWHuDMZuEnMhw69ZKRLj5jx7vK1u9ZT9xH9qEK9KgZ4Lvfv16+L8VUb14hlTpuVaoR99eWXAWEDRw6mZp0TxTju8kYYno/G0H9YkhF26MghEfbO2dNiGmHjUyeKceSFMOT97TffiDRqGJ4fRli9jvWpMV780fgpIWQrKQPervLZg0iJWXek6oRw9hkrZDnzj4VpS2YZ+//eQy/T47ny0LUbv9EX3/5G131t5e8//CbaDrej+YtW0I//JXrhpd2emP8H8cTsArJKzKkz19HB176g+Uu2GR3KhAmT6cTZbwIoXqI05atUMqgDA+hU8Vc92jETM6Zx1GXWEWe2mJ1cY7YDd2ujzCi7Ggb5QoIY37Rzm1hm8sRR4jQqwn766aeAsAEThov1wfDWyeMi7LUT/tOimM9hmIewz65cEtOYj7QYkBfCkDeWgWWlLPK/zIXD+MUeKLvVKXqGt7MOOzHzKWcdCEfeLMMaXRpq4wE5T7xgpvZT5QU9uzX0HekvNaZB8QIFAuLLYToKFStkxEV5sI8+ku8hqtzilpyZHGUKU3zl6kHtBG2H29GchVvowNFrvja21hPz/yCemF1AVol5wwb/6xP37N1nKeZxKfNF+bhjQkfFVGhdmapXK0rlWlQM6MDMxIy/Vcrno3KlHzfmyYQrZj6aATw4EfPq9euMdHwmgCUkr48ZVlIG39z4nG783f+O41VbV/uOUj+nyfOnCtH84+YX9PVXn4uwddvX0c1vP6feYwaJ9fnuH1/QkVf9PxQO/+2gb/qqIWaE7Xt5rwh794MzIp1fzMm+8au+9Vgjwr795gvf0frnYllTFk4Ty165ebUIu/H3z+n615/bipm3B8RrJmfEQbjuhxaWLf9o2vb8C+Ju+HFPjxJ3xxfKf59BvRolxbze3bqJODt37THSYfvI+XZsmRiQL3jhxd20fccuQWKjppSzRAF6LK6g+Dugdx96bvNWI1xNWzs+ISD/Dr1q0f1/uZ2aNa8UtF6XL1+mZq07BbUTbkPgJd+RMoZ169Z5Yv4fxBOzC8gqMa/asIveu/QLrVq3O6BTUTucRt27iC/coFNCJ46OmqldrSTlevQuatGyckDnZSZmPANbulphKl8xPzXv2yAgDQhHzCr8VZ8pI5vQ0PZP0sBWRWlszzL0TN/yxjTHyV428NWeKHd8m8rUqUNVatSrjigP1kEHH+UhjpyHDI5M+Yh5/Y7Nou5Tl84RwrI7YsbRMMIiccSMZWJAGRDG5UL5rY52EY6bvUrHBR6ByqDOsF9A8mqYKubFK7bRkuUb6emkXtS57H0G3crfYkz3ZrRk2UbavfeAkc6JmF986RC9eeICvfLaSapbty7Vrl1bUKtWLapRowZNfXaOCD/8ynF64YUXAtLKYhbrkxhPo0a1pMHTu4g6kOWM0/0NunQMaidyG1q5dqdoWyvXveiJ+X8QT8wuIMvEvH43Xbn+Oy1YcusaM3h63Aza//J7tPvgOXrnwg1asnGlr9PvT0/PHk6Tlo6hLk93FJ0XeGbuMzR3Zn9fjt+KT93JnRs6NAhMli3mQ86QAcI4PsPiV+eHA/LCMrgsOnHoqPNUScr5yF30aO6HRTo7dHkw0S5m/uGBeTqa96xDOR++k+KrFdeGM07FfOCI/4bDr9/eqT2TAT54brSI8+qrr9C5M2dEOidi/vIr/2UMfNNY3p8Zfu86hoOvng5Iqx4xY5/BX/4BljStFw2eMlC0A4A2se/wWdFOwKgxzwYsa9OW3XT5699pywt/88T8P4gnZheQVWL+27Hgu7JBoUKFKE+ePJQjRw4akjyUTr1zhvbuO2R0YvLNX3K5cQTK89GhQVr4a3cUzOEVm1Yw0ujihYoqZjlfhNVqXJbyFX8s4IgRcSv4jpa69KhNA1I6irJhnhmczoxoFzPGreBtg/rShTMZIeaNG9Yb6TJbzCryXdn4IhTaxMBBgylnzpyiveTNmzdgWXxX9utvHPPE/D9ItqefXkAesc2goalZIubr1/3vfVbFDNq1a0cFCxakGTNmiDhffvmV0THJYsZpPR7wLDbLSpaxnZgRli/nPZT90XstT6uGipWYMV21Yh76659vCyobr0MkfiBAEnjHNMbx2URM433SEJYuDN/yhWQxfv7dCyLswNEjYprFjHHMQxjicBjEjHHkhTDkDbAs3PyFMN52GOdlp5emPWtSs5YVA146wqRHzPhhwekiLeYX974TkDYUMV+95n8WOjU1VfyAbdOmTdCyWMxyO8usAX0J+hRdX+OROXhidgFZIWZ5sBJzYts2NHfZEkpdOEcIBcgfgkdH3CQpkZoPqE+dOlYVYsU8KzFDmPKpbHToSDtsbCvbIzMzkBfyaZLU0MjXSsw4PdlvVKKY7/QUdzhwZ45xSBHjLGZdGIsZ4ywj3C2OaRYzxvkOcsThMKTFOMsX4wDLwjJ1YRhPD6i/qhXyaX/gALeIueWAjsb+jx85aBOt2re3FXNWDJ6Ysx5PzC4gmsXM32MuXK1sUGcF4bFkq5UvSDkevsvonM3EjPide9ag3LnvE6eKOR/kEa6UAfJv36ocPfrYn42jbisxZxb4lOGF9/1HvkkTh4vxSq1qC2FhHMJhcWIcb7HiMJYvixnlRzjisWBZzByGdGoYxiFuTGM5nCemsSxM24G6RB1WaFo2oB5Rtwlpj7/ptp8q5jPnPxH7XCTEjOvP4MaNK4JQxLx0xR4jPWAx83qWrmd+7b1AQmnRJp6q2dATs4cWT8wuIKvFvOOFl8S1ZLljgZgrxlcxxLz1hRdE5whwWg+dFjoxSBBHnAMmtqWCubMbUjQTM8KLFHyIHvrr7ca8SIAvTXXsWJnKlMtnCD8axIy6YWFh+SgHyoNploAcn0E98Z3A6hkHM/gHDuBlhAuWKeeB5T/28J3UsGn4LxPB+g9MSRb7+uEdi2la52I0uWPRIBZM7CLi8JMAWDbKI+dVoGRh8ewxqN+iKq3dNZaGTxpNqcsW0cjUKVS2ZmUqW8tPnbb1BJ0H9RLhz/rIUySfkR4gP17Ww/ffQcVL+l85ijKDGSvnGvs/HvmqUbuJaBflylcKEvOApIH07PRZaa0r8wdPzFmPJ2YXkNVixnt28Qzo2PFTaMw4P8NHjqPps32d2OwN1KR5Rzpw8Ihx9MJf5OGOS+4wGTMxo7PHKWdMm6UNFX5sKT4xQUgZ+WI5vAx5XJc+I7ESM8YfeeQeqtMq+DQq6jZUMQPkzT+Y0gOWx6f4kSduiOvQoSrV71I9aJlOUdffKUijilnGqn5423NdWiHqLm096zT2f0mMwT7P+z+er36qRkNKnbWWps+cb7QZZu26TWktK2sGT8xZjydmF5DVYjYb8C3ZUxd+oBatutFLu/cZHROOmNGJWXWwOjE76RzDAflCJjzNnTF35jydkWJm6ajzrcQ8dlJbeuSBO7TpsD7hiBkgfywX6cMFy2cxc57yMnTgCJefD5fhI99IiFm3jD1H9/3/7Z0HdBRHtvd93tt1XkdyjiInSQQJCQWSJBBCARASUQiQQAIEEjmJHEQwiJyDwRiMwTgnHPDu2t51WHuz0zqA17t+z+/5+7yfd+293/xrdIeanpqenhlJMxqqzvmd6a5bXVUd6v6nuqurxXSoxu2At+derhu2wTqQB3+99NIrlDhoBF1586/i+8vBFrQwBx4tzCFAsAozfM5bv/0/lDk6j8IGuD5jdgc7Q1ks4ewRh185rTuQR4/U3iIPT06VhQTLXDY7cjnOqnOWwTaZxSnUITncaX+M4FY6Pu6AW6pyvDthBhiohnW2y6AsPlayMGM7OV1NgTrJwmwFXMMPXThHFXsfcCJz+jhq2qcDtY3rRlG2fFva0mLdKtim46Ce1HdEgshLznvfqQPiwxsQaFWd/Dn37mgT1V30mF/55TX6pxZmjQItzCFAMAvz27//jkZl59PYwili1C+PGlY5LMCOUCVi3ohzZFoUdejaiJo3v0vc+jba5WeDS1ZNoAPnFor1Vasn04p1eSIe8ymDjpGdxXebE9NjxDpva8xTBeob16+Nx2fisDVveBs1anif076rhJn330xkjcIM4ce2qleSagKrwtwv8/qXmnANjxw3iu69995aZd6KBS7CvKZyFT11+SI9f+Vxeun1p8QyOHxmv1M6q/CodzBrcRkNSEihyz//jP7fD/a2EkxBC3Pg0cIcAgSzML/7x3/QyjVb6dDh67fyTl445dZxy707CFH/qhG7bLcqzsg/MaED9ezWzGl7Jql3fzGadkJaJm1bs1ws92rWhp5/6lF65vEnxTLiKsrX0OSMVDFqF2nLCopEvPEjB2asrpxGsdF2sVTZIZSD8waJemKaUbl3Jgsz4OPjaf9lYUb+g5J6UqP7b6E+vTu6pK0JrAozrlu8vw6BxnJa7ijq0aNHrbJ8+XIXYYYI8/UqwyPdVWCfcdxV509+xrxrz34qnrOAXnj1E/ruX/a2EkxBC3PguWnBggdIU7cpLlkXNML8+ONPiO/Krlq1inbt2iXi3n33fafBXxBmOCyVwMjCjN/Yvq4frOBteV0FxIgHiQGUg7yZcyc3ibpAbCG+WIYYQ5RZmBEHG9IY03ojzFZAfVFP1E2ONwoz4GNkJs6yMAOMeu8f0ZZ6poQHRY8ZYozw2VX7ZBv4xTU8dupEysvLq1UOHTpULcKcV5xM99x/Bw2bOkQce75O8YtrnvPA4K9f/eot+u4f/6LtD+yg8vJy0Wbk17ECGXAe4FNUvkZTO2hhDgGCSZgLCmY6XpdatmyZiIMwz1uxxOVWtlE8AIsOlrsOCaeeA1w/WIFt3PU+VXCe6w9tpF2HdlPvtH50+fI+eu7Zpyghsh/Nml4oljs3aUkH9+2nLevXimXELZhVTNmpI13Stm/TmvqmxFNF5Tan27H+YFWYgSdxNh5bpIcgIx7UtDh7EmYgz/qG9WAS5mNnDoovVBmp2LXTKR2DYxrWrh7dfad9ohQ+znw+McEIX/9Z+ROEMCMsXrzY8brU0mXLRVyggxbmwKOFOQSoC8KsGvwFx2UmzBAP1QcrvBVmJmv6eGrQoEG1MnLkyIAIM8BxwDZ8bHC8GBwfbCvHcRrkx8dUtjNyGb5iRZgxQho9Z4giRBrXcGzqIKV41iT5RQWibLluFZXr6d3fvO/CuccvOqVjcNz6jrK/IuVpvzH4SyXMU6ZMFXGBDlqYA48W5hCgLgizPMEIzyzlSZjd4UmYjULZOqKjGMzVpVdXioqKqlbadukg8gYoRy4XM3S5Q07HqIQZAqdy9hDVzKIUyhkb6xjQhd6YfNt1/4GjtHrtZiqbkUdzCsZTu471BR27NaLc7CTauLyU9uw9JNL88U9/dmzH58cfrAizitaRnZTiWZNAmI312Lprg7h2jeHVN38h7DhPqk86umPd7gqnCUa0MGvM0MIcAtQFYZafMXsjzBCc6Oz+TuJkJszys0usQyzxbPjEgUO0deMmUbfqZEJutsgbnHlos6gjw/urwlhvoBJm7D/yUolz2Zzh1PC+Wyg6zt7LNQrzqrWVNGNWGWWFN6D0LncqGTdhBhWVrKIPP/rYsd2NJszDs0eKa0q+W5A7I5tOnz7tQlm5/XU2nI+oyBbUIayx49yYYZxgRAuzxgwtzCFAXRDmsxcu+NRjxvLYzL7UtMGtjngzYcbtUQ7oOaMnyyOpn3vuOSdRrQ7KSktE3uDjD88LQWLYEatQ1R37ZxRmho8L8sU6RCQmJ4bG5difZSLOKMz4ZCPCL8oHKeeUBv/42j746upXXzm2cyfMsnB5oi4J86i80eLY4jjyPraP6ak83xkTskUa+/iHMIpJuD5PuxnylJynz57VwqwxRQtzCFAXhNmXZ8zM8NwYGjU6yjGHtZkwQ4zxvBI9Z6zjGTVGWIOU2HgnJ1sdxEfHOPLv3qqtU11kkcTrVvK6nI6RhVncqi5OcQgG4oz7bRRKf4T5t382F2aU1b/q1TV3x14GYiQLM9axrfF8G5GFefv27VRSUuIkojVBUmaqff9s+wWwLAvzmjVrHMsQZtQTaXBtGetvBf2MWeMJLcwhQLAK85Kly+h7mza8bRNm1QQjcIJWhBkgLQ9yMhNmI7iVbewxFxQUOBytv+BWNveYcctcLvvhs+fF81swOns8JQxMEcuYV1xOx8jCjOWcrH5U757rE5PApjpmjF/C/CfPPebWbeo71ccMozBPm51Kvbqr3ymXkYX58uXLQpxlEa0JIMwoWxbnzgkRjnOM8MYbb4hlFmZvMU4w8vqbb9E/fySav0gLs8YVLcwhQDAJc+HMuVRQOJNycsbZhGgYxcYliVmO5AlG5FvZRoF1J8wyvghzTT1jLi4udjxjxqQlctn7Dz5EZQvXUekCO/Pmr6O5Nh7YsdspHYP9ZmEG0xem25x2jGNfIRy87ypx9keY37cgzEXl2TSnaJgY9MR/ktxhFObwuM7iq0tm5xa2vsOjlOJZk7AwAxbnuJxExzmGKOP5MpY9CbM8xoHv2gB5rmxMMBIdO1i0i6joeErPyKTiWbNp2PB0sW2ggxbmwHPT/PnbSVO3KQoiYf7qb3+nZ5+7LHjqWdvvSx9SetZElwlG4KzgBOGMZZGtCWGGYIKaupXN+RtvZX///fdVR8U5vPPuH5zSMUZhVmEmzrIwv/XrN20l/V9RniVh/qNnYYYYo46eRBnIwow688xm7p47w9ai0W1Uv969SvGsSWRhBqjvjv2blee7aN5sp7RG8OoXB7RJjpeFGYO/Bg5Ooyef/729jdjaynPPv2SzfVm1ZWAD6g2fovI1mtpBC3MIEEzCLAd8XepX730rvi4lTzAydXmhQ1iN4szC7M6BA2+FmWfrqqnBX+xwjbey/+faR/Tff37dhXeuPOOUjsF+exJmYCbOTK7t+L125WW69rdrdLh0EO3O66Tk4z/+mj779BOq16itKF+VF8PCjPJVdhljj9lsG9gg3BOnJlKrJo2V4lmTGIUZ4HUp1fn2JMzypCn8VSxgnGAkYVAqvfrGl0H7dSktzIFFC3MIEKzCDJ+Dr0tljZlCrWN7OJwUHDFExRdxZnGwKswYoMNTadbErezRWVkibzA4yvm7yKty1b3U3JT2TukY7JcVYQY4ZhBllVBiHd8/xoht/r60bDeCPN7+wx7TP0PAH2H2BOcZiFHZ7oT5gw8+cOGxZ55wSWsE4iyLspGW0V0pLnEYvfzLq+I5c7AFLcyBRwtzCBCswozwzh++oyFZox3vFTNwxN6KMwsDnD7HWQG3mfGcecHsuUpx9YekhHiRN6hNYQZmQsk9ak+iDHCMrRzTmhRmJliE+fjDB6uuYOfAE4z4A9pCv8RB9OJrn9I/7MMAgipoYQ48WphDgGAV5r98+ik9/4uPqVeyundrVZz5di33EHl7K+A95kDdyvZFmL0RMyvCbIxXoYU51fFsmGeNw0csvvnmGxeefeVFlzr7Qsf4PrTjwKP00adXRbnBFLQwBx4tzCFAoIX566+/dhEsvC7Vvn17Wrd1P73089fo3fdfdyB/05bFmHuKRufP4ox4b8SGwa1s9JghmpNGj3Wpp7/gVjbyBsbBXwdKEpTCXDrRuWfN8B8P/iPiCS3M1YM7YeY/XDJmX5cyA1Nyym3gmZdeoVNnHqZWrVo5Xpdi8N402lSgghbmwKOFOQQItDAfPHTEybEAFuZzj71Bl3/+F3ryyacdzk0e9cvCDKePdVmIsS6LgZnYwN6/agIMWdj4GfOpw3vogYrrE0VUF3iPGXmDiaNHONXprYNzlML80tHVTulkvBHn2hZmrlsoCjOeC0OcWZh7j0xUYqyvVeRR2fg06pMv/J7OXnxdKcxgz979Va2r9oMW5sCjhTkECGZhfuX1L+i1X31Ox0886FGYsRw1pj+1Hdzd8WEGq8KMNPZvNztPYhHIW9nuhPlcRYlTOiNWxdmdUEJcBueNEMcKNoxMlz+ygV9exh+XtIlDaNrKsY6ZrFicZPgPk1WxrWvCrKpLdSIL86HDR+iFVz8UbQNtRAuzxogW5hAg2IS5YtsB2nPgYTp74Zf04pWPadDgVDr10KMOx2TWY07o25GaN7yNRmbYnbpVYcbcxZOnDxSzS40qvu5oITaBmpLzjXM76fcPLnLh+TMHnNKp8CTOxufvMps2bbJ/jjI2ivpEdrEdz8aCJk2bOJbldaThdA1bNhXbIg8WaG9FGWhhdkYW5iNHT1PPXpF06uwr9Orrn9Pu/WeoYut+p+tKC/ONzU1lZdtIU7eZOWdtrQvzm2/+il577TWxbBRmiPHvPvzBQcHM+XT0+EMehRnLM1dmU0nx9dmlrAoz7BBnzovj0TPEiOn33rX9SXjxCad6VgcLF8ygr7/+k+DKyzuEIDHuJhh5+x31BCNG3IkzCyV+OQ7Hhfd70aJF1KZNG78YN26cEGZfRBloYXZGFuaLl56njKxxTm3khVc/crquWJhfffVV+uUvXxfLtRXgS+BTVL5GUztoYQ4BAiXMjz55hb78n3/Trn3Owiw7HJCeOY6OH7/umMx6zFjHL69bFWZ3sDA/8/iT9KCtDnI9qwNMyQlRbtnkdurcqYlDxMC3335L3333nQsY2KOqqwqVOBvXO0e0pr5RbSkiva9Yx/SRGEAkf3zBW3bv3i1uh/P+cFlWgTB7e67AjSDMK1eWU8rw0U5txCjM2yv30bVv/k1HH7yghfkGRAtzCBAoYT507Dy9/+f/oQNHzzk5FdnhgOiYRFqzdp0lYTbijTBDDIxCglvZeL4KEpMGOtWzOogdEEv5i7No/LgBNG/JKFEHLpv3VwX/AVFh3A+jOGOZe8s4Hh3aO39cAsKM+Z1Vo+WtAmEeMz/HJ1EG2D/Uzes/UjeIMPeNGuDSTuTjv/fQGfrtB/9LB488ooX5BkQLcwgQKGG+dOmSWL70uPMtYqPDqQlhxhSHRStLnejQpSk1a3gbZc0b45IPSBiV5FTP6iA6cYBDhIzl8fd3jfzmd78R++SOyVMHU+N6t1Ln1N6OvORbw0jDwoyyMcsX4tiODy2gt8wfXvCFabOn+yzKjLfijFHRsamDlOJZk+QXFThm6sJxjh/Ug45cWOJSPxV8fXraR6MwR0RGubSTFSuv3+G4ePEx0baOHj2qhfkGRAtzCBAoYX5g9yP0+rvf0v7D5x0OBc7F6HCiouOqXZjxPinnB/C94yOHtlLvns1o0ea5Tnn0HdmbcnMH0IylRY56Vhf4LKFqFLMZvB8QARXYX+xHz4x+jm0QbxRmlIuA+bDRu+W0ORmjlHX1hvxpUxz5+YM34oxreOzUiUrxrEkOHTok/hSgDji2TRvcSnfeau3zlhgLUf/emylFujZVGIW5W/cIl3YiC/PuA/a2tXPPGS3MNyBamEOAQAnzmUcu0Vf/S7Rj9/VnzFu376aPvviRPgSf/yiWW7du61aYIbzR4+OE8MCJy86M7VaEGUCc8TtmzvXP7WFbvEbV8P5bKKPAf8Ey0n+oZ8HxBaMoyMLMQrfj+N6qs0E2gZgrjhVu3VeHMOeNn+h4fcpfrIpzoIUZ9cTHNNBbLlg+xu2fRRkW8uFp1oX58OEj1LhxU9E2HG3FBtoOH/8du/bT378leuwZPfjrRkQLcwgQKGHmUdkHpFHZeDYpfzDn37aVZs1a0KbNWx2OSRbm2LFxNCi5GzVtdpcQH9mZAW+EmcFH6Xl79Cwz8odQWIdmFJszkIaOGSEonDyFdldWit+D+9fThQunKGNoCu3bs5VWLl4qlhGHZVXatGHDRD7hyepZvKobWZhxLLCOXvKb7/1azL3Mx6ZDQo8aFWaUOzi5JxWXpHoUWhkr4hxoYUYdUE9jvczAccf16elYyMKMP6n16tcXbYMDFtF2+PjzqOwrV65oYb4B0cIcAgRKmL/88iuxvGv3AYdDwXNNY4Awnz13/T1mOCl2WHBqA/q1ou5dmrr0EgG/rmMU5opdOyl3wjRXxk9zEmYVEJywLmHUqWN76tOnu/iy0vxluWKA2KVL5bRiXZ6wPXVlIy1bPt6Rtmu7drRn/xwRP2B4lDLvmkIWZsDijOOBZT4++KMzIX+843z4CoRZLp/BuWjb/A668/afKM+XGaijmTgHgzDXFLIwHzl6TAizMezYsctx/Ldv3yni5HZWWwHHQgtzYLmptHQraeo2M2avEc8bMa3gkQvH6Pyz9oEjtRX+/vf/ouUr11Pp/OX05q/eqoq9Hrr3iHQS5pO2HiecNBwWfuHgMSmI8dYh95YhQCw87NR3HjwoPjL/5DOX6Qnw9GV6/KkXqXLvMTEwDOk9waLPA6mALICwoUy2AdgQj+3leH9Bvl1H9KZ2Ea2dBJgxCjNAHVTifPq0+iP/+GwhRmq7Q047afIkp7IAn4/ChVni12i3AuroTpwhzAtXL1OKZ01S28L87LPPU/MWrapax/Xw9df/TUuWrqa5pUvoV792bUc1Gd7+wzvCd/AgOPgUla/R1A5amEMANCJ2ADGZAyk7J6+quQVHiB84jN57732HY3roiTMehU0WZY6ThdndHYLnn3uRClcXiW2tIIsysCrM2I7F0Igq/eSSVJe8ZJCmTbM76O47fyqWjXbst3wsGJQni3O/zP5UOnu6k8gyEF9V4Hg57dLFJWJaVBZRgHqp6uAtqCfnKcdDFCoP7lWKZ02yduNaOnDusNO+GjGeV2+Rhfmdd39DPXr1Ecc8WML04hIamnd9rnctzIFFC3MIwMIcFh1BBw8dq2pqwRMKZ88Tz4SZnSd3mTo6lSgDWZgv7FtMHz9V6cKRnRtpQE6SyMMKcv7AkzBjG8S7A/WT80UcBPf++nc66u4OzsPYMwY4XmY2Fuewfl3cPmN2J8wc5LQQ5qQJ9v1nVGX7ijtxbh/fi/qkxAmWbpxJfSI609ChMZQ/f7wjnkHcrKIsKluW5xQ/MDuJhuelUf8RiZboM2KA034a4Xqqrlk+7qprSQZfl5LbwNDhaVVHPTjCX7/6G529eNF2/AaJ+mphDixamEMAFubzTzwhGtmPNq7+94909b9+pM+/VvD3H+kzG59+9SP9hfmrnU/wa1gXfHmdj6/94OAj5qozH179l41/0odf/JO6xl9/HsvC5k6Y2W4UZWP8mvGdlR+IGDugidN2DDtOd+UyRmFWOWTkhTQqeBukwXYjiobRiGE9aexE/3ubyE91bNiGeDxjHper/rylN8KMZ8z8oYuaAnVm0VPZ+4+NoajeLSg1va8yDT+KUMUZ74T4Ax9b47WAuMXlY+jeenfQzDXjnLbxRId+EfT7j38U/OGTKv7yb/pjFX/6lCH682dVfE70gY2Prkpc+7etHdr55Mt/29qsnU/BV8589rd/0+fg7858YfMFP8Bp2MKi9RtF/bQwBxYtzCEAC3OnoYNE4yrbuIx6DIylwbnDqW/qQNtyDHWX6J8+xMZgsfzI+cc888hjdPbcBQdDRqfbxDZaCG7i2GTqnRIvlmW6SMgOCYIFxyk7OKPNKDyq+LVeCDO2z5iZLGbn4q9WGdMwKAMCi2VZOMy2kUE61BXboFyr21kF+eELXP1j2lNC1RScsg31n1g82UlkGW+EefEyaxNs+AvqzMdYZeNjabSpsCrKyHfM/HTHOVKlMcLHFttgGXFYDmtXz+3jBzNaRnelzgP62okD/QRdVFS1I7kNMuceARcdGNsu2jh8QY9BYABFJidQQnaKjWFiuXdyIg0ZP0Lcyv/ws8+pUWR7UT8tzIFFC3MIwMIM2DGxU1M5Hll8+LmXN/B3aVEGnJNVxwlYZNm5GeNl8TWL90aYQVyf9tSkwa0UHWcvFyO35dm4duzZZ2MvVWxYRrNswtamWxNBWK/mlDcti9avXiTsQN5OfvWL4WOP48LnwluMecpMyE0Q7842btHAxYZBgO5m/PJGmPHqjrcTp/gK9tfb68iIVVEGEOX2nRvRPfd719NFPWVxBvijZ7Vcf0CbU7VFT8h5yPVHu8I6X6dyOqCFObBoYQ4B3AmzO2cnC3P5Axu8YtvRHTRyVpYjL7Ny2C7/qoTZW1EGq3JdRRnMywx3eV1K1HFsDCXGdhf5Id+CJde/owziBw6nAQnJ1LX+f7gF9sg+cU4D2VTCzGWiLF/AsUQd3eUbnmZ/dza9IEWZrq4JMxDnqOo6wvn2FhwPq+IIMR03rr/46AjeBsBzZFU6FagnykM9saxKUxNAmFXt0RO8vVxvXDNY52tNLofRwhxYtDCHACphxrLs7NgO0EBZmL1Flacch2UZ3HaNj+tEkRn9xDqLLZZ5e6yjTrwOOJ0xnjlQkqAU5orCFOV7zFwf5Im8ZWF+h19N+fF/6Rcr+tAvyhMU2B8TfPnlXy0JM0B5fKy9AXVkVKLBx04lysCdMHvzulRtCzPAfqmOhxW86bGiHO7p4pp1d5zdwecV2+Ic1AXk+qL+vO+q/QNamAOLFuYQwJ0wAzRCNEC5EXIjhY3jvEGVJ8ehfJlcm9Ns0eg2Ss+w/xGAY0C8XDbW5TpzGneiDNwJ85LcBLcTjKBM5Iv8ZWGOiooWovuPrz9X5gl8EWZf4Xr2jWghpitVpXGH2a1sbwiEMAcC+br1RZyxXV0A+2hVlIEW5sBy07x5W2wNUVOXKZy12tGg0OiMvQd2PtwY5XUsy2mtYswToOEbwZeP5hYPE5P9Yx11Qx25XPzKdUYarGPCA0w1yRMeGLl0+gF657F9Lmxes84rYX7nrbdo5Wr7LEs1Jcz8R8gbx4/5mhvVu1XMMqaym4GvS6nE1hvGT52szDsU4WsZ14a34lxXwDWPX+yj3GbdAZ+i8jWa2kELcwjgSZgBGqUspPI6lo3pVXAPAbcOsW7MUwXnzY6BRUp2FNwzZlHGOkQZwd2MTO4mGHn/t3/2usf85jtXxbY1JczJGX2pWfO7aNhU6z1QfEwBvWU+1kYQL58LmQ6JEWIOb9BnhC2PqmUwfFoaFc9Io05hrcSybJNBHsZ8Qxm+lnFMvRHnmgJ1qG6wb2ZtVUYLc2DRwhwCWBFmwM6HG6e8jmVjeiMDh/Sglo1voy7Sd4LlPCB4ZqhEGevIB3FYZ5EeVTRRTC2Kryap6vfCay/TRx99Qp98cpU++ctV+gv49Cp98OEn3gvzuzUnzChzgk1g8WlAlK1K4wvICyOzE6RPQ1oBDnp15TRqF9bMcaw1dvhaxrHFcVKl4euUr9uaAOeFy6hOvLn+tDAHFi3MIYBVYQbsfIBxHcvG9DKYyzkjLYJ6JIc7pZUdmhlIY0WUGazjy1PNbb1NDNaRbZg9icXRiFGYua5cLsrDKFekA0OmjBOia1WYeTvAr465Q+zn2Bjx66736wvIr0n9W2n+0mylvToRdU+OFMdNZQ8l5GtZJc541WpkajhFD/HuWOBaDkvuRUsq8tyKPmBRDvSx1sIcWLQwhwDeCDNg58PCKK+ziLkD+avSYtkqnAe2cyfKAPFjs3rTfXe79jbxKgh6qypYLNnJcV25bKPTw6QKjaPNe0CN+sRRo37maYxw+Z7Oh68gb9Vx8xW+3WkEg/fuvv8OxzkLdXCdYF+x70YRRRzuVIRHtPPqeGA7fBP8Z/fe7na7YBFloIU5sGhhDgFkYeZv9OIZrPx8FiNs8dwWt4ixHpudRNf+ds3WEx0j0mEbrPO2GHSFeGyDdY7DtnBcly4/IWYLwjLi2I78OT1vi1/eDo6HHZOZKAPhIKt6m8DbHie2wa33jMz+Yp3Lry7Hh3p3dPO5ymByslbgZ9YQIvyRYCLS+4oZ0+YtGVWtfwKCHXHtKcSZzysmJrF6brE9ruPOXVpQysQEZRrj9cLtlUfGY1keCIm2yetY5jYH5HTu1vElOk7P7VT2F1qYA4sW5hCAhRmN2Bi4cbONGykEFGH9oY1CkI2BG7sxIA7bI18EOC84MQTE7T59QCzLAfGeRJkdEtLh1wjSeSvMM1dmU//erSlyTM0IM/LCByq6dGoiljne6GSDHRZlVc+eBcoYfyPA+45jw9cln1tjWnfgmCK92bWrul64fUJAsY6AdsR2BBZSbotyMNsO6/ADxiCn08IcWLQwhwAszGioCGNL8oQQ8zoaOTd0FmY0XATMqw3ng542wlNXnnY4Yv43jWVZ9LGOeAg6nArSI6C3PXzyMIqPD6OHz58RcUgLZIemEmXMZd0xJVzkBScY1iXMQbseHah82zSaPi9LfFhBjpfTGW3JGQPEa0eDU/uL9S49O4n1xPQYp+3kfIx5yuty/h0jO9OUWSNtx+BBkSds8Un9bH9Mymx/doqpR++uyu3M8q8OmzGdp7JxbFD/XgN6uthUy8Z1OX8zmzGPmj4mxvzNbLyssvHxwbnGOq5DrBu3a9m3k+NaZ3wVZcDtE79y20Ob5nVZmN21UwT+My2vIx3W+c832xktzIFFC3MIwMLMgXs+shi7E2b8wimYCTMaMW/PDoCdAUQUzgUB7x4vWpRJzRreRhu3lIk4pAVwTizEyJ9FmsFc1nh2h3g4x4ryNfTeu7+kbWuWU69mbejrr/8k1rHMtoUzp1JS7/5imW2nDu8RyxPSMoUd2z3/1KPC9rv3XxbrkzNSqaygSKRDetg4D+THNi6bbXLZO9YvoGH9Ip1sl589I/KX68Vl4xfrqBdQ2eSyjfWSyzarl6djYqwXjgnbuF5mx8TbenHZnupldkywLZbN6mV2TGAznitVvYxlo06wq64h4zHBNStfz/6IMnAnzGhzbDMKM9JxWqzDhqASZl7Xwhyc3DR3bgVp6jaFxatEY0JjRC+2uoQZ+RkD0rONGz9AQI+Z53FGPghsl4UZ5SENl4P6pucPobiYzuLZXefY7nTiwCExwhrOFU4Qy5gMBM7xmcefFOtwjHCeKhviYccy4mBDGqxDmJEvllEObFgGKIttctkA6bhecPZW6mUs26xectnGesllm9XL0zGxUi+zY2K1XmbHRFUvs2OCY41ls3qZHRPYcM6xbFYvs2OiqheX/c0374kJdHoMt49c91eUgdw+ZbGVf2VhNga0d9gQfBJmm09R+RpN7aCFOQRwJ8zcuPEcuUu3pmJ5x/G9Tjb8uhNmbrRwAABpEc9lAV5HQHp+Fof0CGyXhRkgnSzODOqC3seOTVvp0OETtHDWXOEELz72JJ0984hwjmdOnhI2dqpYPnvmnLDt2l4p1tmpYhnpYdu7e79YZ2HGMsqB7fyjl2j/gaOiLJQJm1w27EjH9VpSUmSpXpW2+sCGNFh3Vy/kw84eNmO9sLxt/WZh43rBZqwXl62qF+K5Xly2ql5y2Wb1gg3Lqnphn4TNpF5m54rrhfwgzFg2q9eSkjJH2ap64Zzv3XfYUbaqXqiPXLZcL7bt2rlHrMtlf/zxFWp0/y3UtWcrcU37K8pAbp8szGhT3CYRjMLMdrmdIiDO3Trnx+uMFubAooU5BGBh5kaGZ8xYZ3GEMGOQUv37bqEjF44Jm9zwzYRZFl88O8W7zHA6KmHGrWwewepJmIE7cYYwn7M5aAR29j/88AN98Kc/Cef42kuviPeJ2akivPbqaw4b0iJ+4czZwnb21Blh+/jDD+mLL64KJ71tzXphO3PshLB9//339Omnn4mydqzfJGxIw2V/9913Ih3Xa0nJTGW9EOR6na/6w4A0ZvVC+cjPXb2wjDgErhdsxnpx2XK9XnnhsrAhnuuFONjkemFbBOQFG/J2V6+PP/mLsGFZVS/sk7DxebTts7Fe507bxyHIZeMYwsb1Qn4LZxUKm1m9cM6w7q5eOOeffva5ab247FerziPX64ur1xy2n9uuM65XWdV5/PCDX1Dp7OEUl9hL/CnmP8YqrIgycCfMvIwgC7PcFmUQtDDXPbQwhwAszMZbXghYRjwLL4Jsh82KMMOZxPZtSQ1t4o5lbtCc1/aK5RTdp6WwIb0VYQYqcdbCrIWZ64X8gkmYP/7k9456sTC/9tLT4vOR8nWtwqooA3fCDBu3LU/CjO2M7RQBeXIaLczBiRbmEICFGfDrT9xY+VkTQEPleMANlIUZcXg/GSKJtHgejYbL28Op8FSOsMMxYBuEKbMyqU94c4cwY1vYsOyuZ8wY7VqYtTBzvZBfsPeYUS/j4C8j3ogyYGFG++V2y0LM67xsbKcyxnbKeTByO5XRwhxYtDCHALIwo/Gb3UpTAWeB7SCQYjKEKoFEozamlWE7fvHRBeTBNnYG+JMg/1Ew43e/e482bF9P/eJ6U0nxLJo4uZByMtJpTOowsTy7eC7FR4TT3DlllJSSRbOm5QtgK5ld4rCNGz9NbFNSON2ex+hsV1tV/rNmzBS2eaVLae68hU42LpttSKeycb1K55ba85TqlSuXPcF9veaULBK2DatW2POoqlfZ/CWOsktnF7uUbawXly3Xa8O6dcKGbYz1Qp25Xkbbxk1b3NZrbulCYRN5VNUre2SGSIs65+ZMFLZNG+xlo87If87cRdJ5LBE2Lhv1yM4aa89TqldJ0SSneq2ziTDbuF5ctlyvkqIZDltJ4XhRr7HZk5zqBRvXK3HAUGGbXXUsuV45ufmOesHmOF5V5xG2PgP7iGv3mReedrmuPbUBo1h6i6d2ylhNB7QwBxYtzCFATQmzGdgmamQ/sR22wbayHc4Gz7phl/NDzwHrg7ISKWN0shM5OSMcrFy9mRYt3SKWp02fQvsPP05Tpk4R68vLK4RdthUU5on1im1HHbbS+QuELTs77bptlWfb3FK7DcsAy4hzZ0NeWEa5m235YBn5Gm1bHzjiZJu/cL5Yx/4sW1khlo3743FfDfuDZbatWqu2YZnrhf05ePSS0lY8u8xhM9bZ0/6wzZv9WbR0k8NmrPP6zYcd+zO7pNRhGzVquJNN3h/YkI73p2DGPLf7s2T5RkedMzNTnWzy/pjZgPGaHpObSpnjhrntKaNH7K8w1wRamAOLFuYQwIowIw42YLT5IsxIH9O3JTVvcZcyTzibqfOnU+eYrtS4YytB857taUn5GGrd6h5KSxvkcGYq4PjYYeOXHWFt2XjZzIZf2MbYnLw7G5Y92Yz517aNl81s+JXz8NVmzL+2bbxsZsOvJxuWjTZ3QKDRJpr06UCNOrZ0tAeQnT9BC7PGBS3MIYAVYUZ8t/Z3UWTPZi5C6oswR6ZF0aRpAyljVD+X9MgHg8jq1atHDRo0cNC+fXvq2qUTRfQKUzowjSZU6Rzbk+5v2oDuvfdepzYRFRWlhVnjwk0lJZtJU7cpKCp3NCiVMEMouw4Jpx4Dwig20T5Tl2z3RZiRFtMQqkQZec1YUEhTpuTQtGnjHRQWThLMnp2v0dxQTJ06TiC3B24TGyo3ObWhYAA+ReVrNLWDFuYQwJMwAxZSYzzwRZhVsCjH5cTT22//WowC1UEHHczDy69dpogU9xOSBAItzIFFC3MIYEWYzagOYWZRxrZ4BUMHHXSwHtBmVO0qUGhhDixamEOAQAuzLMpY18Ksgw7eBS3MGhktzCFAIIXZKMpAC7MOOngXtDBrZLQwVwMtWtwXUJo3v8fRoDwJM4TUGOerMKtEGWhh1kEH70KwCXPztvWVvqa26NC2GU2btkTpb28EtDD7SUxUDDVvdGdAadbsbkeDMhNmCOmIomGUnNmbVu2c6oj3RZjdiTLQwqyDDt6FYBNm+BSVr6lN4FtVPvdGQAuzn6guqNrGqjADIcBNbqeRmfZZuxDnizDzNiqbFmYddPAuaGF2Bb1mlc+9EdDC7AcpI7OpZViTgNOic3NHgzITZghveFofGpIUQWkzkoW4It4XYUYZWph10KF6QrAJM3yKytfUNkNTM5W+N9S5ac6cTaTxjdj0kcqLOpCYCTOA+Brj/BHmsC5hLuzctaPK3eiggw5WAtqMqi2p2t6NBHysyveGOlqY/aAuCbNKkBlfhXnM/HTxabx33nrLiW+//bbK3eiggw5WAj5zaWxH+OSku0mBbhS0MGu8pq4IMwQXIgpbeKbrDEP+CDOcx7Vr15zQwqyDDt4FtBljO9LCrIVZ4wO+CDME0BOq7ayC7VU95sSh3ahFo9uU+VeHMP/ud3+gi489KXjr7Xer3I0OOuhgJXz66eeO9oO2VBeFmf2XGartzNDCrPEaq8KsukCtgG3NbkGrwHYqYR6WG0N9e7WitEL7J+hkqkOYv/nmmyoXo4MOOvgT0JbqgjCzb5J9llWs+BighVnjNVaEWXVRMtMnTxXMyCtQ2gEuYG/EGduohJltEGFjfHUI81dffSVux/3www9V7kUHHXTwJqDtoA19/fXXtSbMeLSFtp9ZMsIrP4O02M4d8GtrViwWvyo7sOJntDBrvMZMmFnsZFonRtCqVduUeTEVG9e7bOeNOCO9O2F2hyzMaKhWyjMKM/P9999XuRkddNDBm4C2I7el2hBmtPv777mZuvZoZUkogTtR3rB+jdKnMQVTl1GrxHCnbVAmOgOqcoAWZo3XuBNmlSh7EmQjW3dsFv9ieXur4oy0vgozflEGyvJUnhZmHXSo3lATwow2nTEzWbRvlb3/2BiKjmxNYydYe/5rFOWRM5KpeEaJ0oe5AwIt52EU594jEyglL0ssWxHm9esPUnn5XqXNyJIlO+nw4fNUUqK2BwtamP3AnTDLFx1QbWuFGbPKaXD+cEc+uIBV5ckgnbfCjMbWJztW5G9VnI3CfPmlV2jP3kP0xRfXqtyMDjro4E1A20Ebeu+931abMMdPGUTRfVpTh7DGwjcY7Sy0xnh3sC8C4xfkUGVlpdJ3mTF3bgWtXr3dKS/Zt3VPiaapi2aJZSvCvG7dQXrggZNKmxGkO3XqcaUtmLhp9uyNpPGNmJGuwixfbEC1nTcUFq906jkbyzOCNN4KM/BWnI3CrAd/6aBD9YTqGvyFdtt1SDjFpvSm0gWjRPtWpfMG9kPoKe/cuVPpszwxZ85Gm5geoLVrdzjyAyzOLWK7Uv7CYmqb0Ev4WFUeMgsWbKM9ex5S2owcO3bBJs4nlLZgQguzH3gS5vLyrcrtvGXeggVO+RrLlIHdF2EG3oizUZgxYAW34oAeAKaDDt4FtBluP1YGf7Uc0I3yFhTRrJXzacayeVSwtISm2NaH54+hsIHX2z/abbv+3WnYlFHUMtb8UVjYoEhxCzln9hQaXTSJBo8fSR2HXL/FLPug0tkLlL5qxYpddODAWdq79wzt2nXK5gP3CCE2ptu48RBt2HCIcsbMdMqXyxo/dxr1SU+0JMwAwlxWZu5v0RM9d+4ZWr68UmkPJrQw+4FRmOULLLpne8qfski5nS/IectlGoHdV2EGVsXZKMwyeoIRHXTwLng7wUiXpH60ZucmSsgZTvE28DswdwQNnzKa+o8aKnqdcvqMwvEUlTnYKY5pHtOFpi+ZQ5XH9tPSitU0qbSQsmZOoDHFk2msTaSHTEyn9tKgrakrC+iRR54Rczob/dSuXafpxInHbKJ7kDZvPiKe/6rSrV27X4h3Xt5CyhpuHxnOoE4jpo6lpEmZloUZt6hXrtyjtDFLl+6sqvcmpT2Y0MLsB2bC3Kt7M+U2PlNU4pS/XK4MbP4IM7AizhisAWGenJEqpuWUefT0mSp3o4MOOlgJaDPGdpTUu79bYe6aHEUlqxcpbQBiK6+jJ5w5Y7xTHGgV153W7dpCFft2UG9bD9VoB92H9afRZTk0aFoSFa4uohdfuEwVFUeVPeGdOx+kLVuOusQb2bTpMB058qhYvv2Wm118W+yYJBo7K8+yMOPWuKdyt207TsePX1TafAE98FWrMOhMbTeCW+iLFj2gtBnRwuwHZsLc8L5blNv4Cm6Ly/nL5crA5q8wA0/iLK8j3YiiLPELjp0/WeVudNBBByth78nDynboDgjzvLVLlDYV6PXi1rcxfv6G5bS2ssIl3gj8SmrxSDpw9pDoBat8FKisPCV6ryqbDESZnwv/9Cf/4eLbOg3pQ3nzZ1oW5iVLdojeusrG+Pp8ee7czVRaukVp27HjpChbZZPB7fMnnnjJ4+12RguzH7gT5pjwMGpU7xbKz6++W9nAePGqgK06hBlYEWcW4wPnDmth1kEHH8OJs6cd7e7nb73h1A5VeCvMadPG0rRFs53icMt7z4mD1C6xl1O8CvY7A6cOVfomBsK3ZcsxpY1ZtqySnn32ihA03Mq+2SbMI5L7OPk29PgxAGzgmDHKPIy9VNye3rfvYSGicjyD3i1uY6NsOR6Cu2LFbtHzXb58F82bV+FkB9gWPXKVqK5evU/0/o3xRvDcHa9pqWwqtDD7gTthjg5vS03q30o5YwuV2/kK588XrwrYqkuYgSdx5nQVlduoYcumguPHj1e5Gx100MFKOH7qpGg7kf360OwFc53aoIpuydG0cONKpU1F4bK5lDtnqlPczOWlYsCYHOcO2feofBMDYcPrUCobxBS97eeeu0K7d9t7t0lDR9PNP/0P6tGplSN/LnNcyTTKyM93yQdUVBxxEUr01t0N7MLzZQz8sr+/bL+V/tBDT9Kjjz5HZ848KXrwhw49IsQdA9iM20OYVQKMOuD2vTFeBsJ+4cJzYiCcyq5CC7MfuBPm/hFtqWmDW6llx8bK7Xyl7WD7N5Dli9cIbNUpzMBMnJnYIQOoQYMGgoMHD1a5Gx100MFK2LRpk6P9QKBV7VCmTXxPGpCdorQZwXPkBw7voX6Zg5ziF2xYQbFjXOfOV8F+p93gSKVvsgIEavv2EwKOu69lIyHMKUOuDy7jMlOnZlNeSYlTHgDievbs0y63kDHS213vFWXy82X8ecDyzp2nXJ75Im9VzxgDy/bvP+sSD5D34sXunx1D1M+ff1Zpc4cWZj9weys7sh01swlzVO8WNHVq7Y7Mhq26hRmoxBkDwBh2KmD69Ol0+vTpKpejgw46mIXdu3eLNuMQ5qaNlG3QV2aXL6Ty7Rtc4jF4rFfqAJd4FbLvUfkmX4Eog56dXXvM0VlDaM7y5S7boFf8yCPPuoyuxq1o9JrlOAZCbOXZtzuQNw9WM7JmzX7T29koGyPQVTZ33DRr1gbS+EbMyDTlxTs2PYqaNbyNmje8lQbGxSi39QXOX754ZeSeLMRTlcYfZHGG+GMdNOnWxkmY582bJ9DirIMO5gGizO1FbkNNwtsr26A3oKc8u3wB7X/wCHVNsvkkgx2za0WmWZsfW/Y9Kt/EoAe6desxBxCshQu3u6SbPXsD9e7dj+64/RYhzL27tXPxbXiHetHatSKtvC16qEePPuoUByDUEED0zOV4CB1uYy9bttMp3hvwbBrCrLKhB45BYO5sFy++IHrUKrs7tDD7gTthBs0b3UYtm9xO4Z3up+l5+crtvSEqarBT/nK5MrJ41qQ4y3XpMTicEhMTadCgQS7k5eVZ4tKlS1WuSgcd6nb44IMPlNe4EVV7AfHx8dS8Z5iy/cngXWYIK8D80n0zBopb03g1CgO9th/aTWt2bhbPo1Xb413h+LHDlDYjcnsfm5Wp9FEAz1sffvgpIVRYRg8WAj1//landFlZ0ygivCf169tbCLOcP5eJAWBlq1YJcZO3PX78gshTjmNQ7kLDHwHMjw1hhkDL8d5gJswAr2ItWuT6BwSvleEZtjHeE1qY/cBMmEdnRFDH1ndRVM+GVDo1nhaXLlLmYYWhQ0Y7DY4AcrlGzMRZtskTx3sD8kC+TKvIDsLR8D9/X3jjjTeq3JoOOtTtgGtZdY1bpbCw0CbM5j1mzO611ia6pWuXilvSzJxVC8VsYHjVKM6D6ELYMSOYymZE9j2xke1o88pipa+CGGNiEWM8BlzxMkQZYtylc0fKHjPKrTCD1IkTnAQVvWeILMSW42TQY8fIbDkOoolXpeQ4IxgchrpjABgw5uFJmDE6W7XfDz30hNs/EWZoYfYDM2EenxlLPTrcR+mD29G+NclUMiWOstJGKvMxo3/0YOV7fp5wJ86IS0zqRq1b3UMz14wTt6T9pV1UZ5oyZYrSyVhFC7MOoRKqR5jNe8zoBUOUVTZviEiLc5rC0wz4noR8+527pTOjKWeUa88ZPVYIoTGeSUoaTbfeYn+u3LFDexo/Lkc58xcDHytvz6Orven9QpTN6oSpQ59++hUhvBBRiKwxf0/CjF49RnPLcQttPffHHntBvJIlx1tBC7MfGIUZyBfY9EkxVDw+nPauTqbc1I7Uq9P9tGDuMMrJLlDmJ5OSPIaShvSgW252fpUAGMt0h0qc8b3lhYvSKaJnM4oaH+eUr6+EJ0VSfn6+i4PxBi3MOoRK8FeYMRCseS9zYfb2PWYzWsf3UMYbQVvHe8wgNbErrS+Np6Hx7SktNdvht9DrxDNg2ZcBvK+8bm0u3XHbf9Jtt/wn3WIT5vbt2lBJSaGTLzGWaRRmK71fGX6+DEFX2dEzvnTpRRdRNeJJmFVA8E+efExp84QWZj/wJMxg3bw4WlIYRfF9mlC3sHupZePbqUWj2ygqsgX179uPRtgu6hHDsynVRkLcUGrWtTV179KU7rrjJ3T7rf9JncOa0ajiVEd+xvI8YRRnrI8oGibyknvSftGzPU2bNk3pZKyihVmHUAn+CjPaUotaFGZvgN9IzB9CqQXpdGB9BkV0rid8Gt5AadW5KS1auJJK5y0V/ix1mN2npQ7rRff87Kd0150/oTtvt/u1W20dDtzKXn/A/G0TozB76v0auf58WW1Hb/bIkfNKm4wvwowJTdavP6C0eUILsx+ohBnIFxqYMqobhXepRx1a3SUGhQGM2sa7zpiIBLOENbjvFqp3781039030913/lRcwD+7/RaavXGiIx+Iq6o8T7i7rV1t2IQZ//JVTsYqWph1CJXgrzDj7lPL8I7qtlaFv8KMr1MZP3RhhZgJCbTl6DbacaKS0ouTKH1Qe5tf+5nDp7Vqehe1sME+rb7Np91v82n33vVT4dd+ZutwcK953f4NtKKy3OHflOVJwozeL95fXrq00skPm2Glh7148Q4xoltlY7wVZvTAL1583mWEuFW0MPuBO2HGc1e+2JiUhI7Uqom9tywLc+N6t1LD++0X8f332C9g/LNMTY5w6in7K6o1Kc5N+3akcePG0eTJk2nSpElOIM4MTvfc5Req3JoOOtTt8MLLly23AVW6goIC0aZUbY3xW5hju1GPYf2p89C+SrsKfORi++HdtOvBPZQ8w+6bkvITKT83Trwa2lzqbLBfq3+vrcNh82v32fya6DXbhPneO2+lglUz6eEnz4r5t5GPO58kC7Mvo6u97WG7w1thPnjwnEBls4JNmNfbFjS+4E6YgUqcB/btQqMyIpx6y9cvYPs/y/BuLVy2qy4xrUlxbhTZ3mew/ZZDlfTZ1c+rlWt/uyZQ2azgzfbelFNTaTXBwcNPPKq8zq1ibFsqOgyKpLlrFittVkGvOWZ0kni9KiprsHLObMwwhlew8Cdg/6mjYv5q+BH4EKOfGtCnnVOHo1FVh4PvBNa/+zYKa9KYlu5YQeeePk+Tlk4R25n5Irsw2/0tBmbhVSnZB3vi3Dn0sHc4xc2e7ZzGyNatR6msDAO2rsctXry96pa3c1oVuG2O3vLy5XiurU7jiZuKi9eTxjdi0twLM1CJM0N0iXIzYmhAZAdq27CeMg3wRUTRcFTxoMZvawcR2FccQwx4U9k9wedPZZPhdGbHXQbH3sqranyurNbfavlW8SY/b9Jaue74GrWSL44Pjn9myQjL9bCadzCB15sgkvj4BF5zWrZljTKdt3RPiRYfucC82ZhTu3DpXPHKFabsXL1jk3gXumBpia2HHePYBscudkKC7ZiPptGlY2nUvGwnZk3NoKxh8TRqeCL961/Pix5y+e7VdOT8Mdp1ao/YDudMdS3gFjveyY4Zk0Sjp00Tt4UB3o+GOKt8MYQUc1FzWoD5tDEVJnqgclrcXsZ0ntiG4yCm2B63yjGvNd67XrlytwB5bdt2THxnWs7HHfjWNJ4vq2xW0cLsB56EmcEF6AvY1hdRjkyLoiHJPalLtPrfN9Kw44NAQFiqE56ms6ZA3XF8jlzwfCsPxw/fjY5L6k7lO5wn8fcEykI5B84tFMuqNAD73Hdkb8rJsR9TVRqG6943LdI0Tz5Hg23nsU14K7fijP3rPzaGOiSHexQbLltlY5BfZnEK9Y/uYEno+tn2e8yYGEtCx+VHpPczva6RbmBSN+oZ0drWk7suBu5Anuihde3ZyuPxBx1jwqhXZBuxfyp7sJKYmyp6yUUrSsUvvlesSucrEETMEIY5tSGK+MWfAVVaEDY4Qgg2BnCt3WcTJAV4jgxW71lLZVsW0piyXHG+zK5D1GNSaaGYSnTl5s2Od4sPH35EzGOt8sUQT8wGxmnBiRMXxbvFqvQQXogtvvqE7fC+MQSZp86EcMv54ZY4vvesyssIpuDExCoqm1W0MPuBVWGW4YvSDNV23oA82jS7nQqnD3GbHzt+udy6RJtmd1D9hj8Ty6r9k0GaFo1vo+RhkZbSM1xOg0Y/M3X4SDd2VG/xLM1T/lyX7uGtPYoI0mLE69AhPUzzTejXXjwK8VT21Fmp4jU5T39okJ/VfYmPaiueH3pKC5AGAgpRVNkZpMvOjBQDIK3kiz8m/Xu3puwJFtLajnlYu3rieaeVvDXWwfH0hGo7M+BjVb63usCgr4ULtzn1nv0B7zPj3eUFC7Yp7VbRwuwHvghzbTA4b5BoBCNnJJv2TDz1cHwF+dYk2L8lq7LpqSsbleXLID1eD3v7D3vECHez42EE200YN4BGjY8Tf2JUaQB6zDMWZlH7Ds1M06EufbOiaFzuAIoc01+ZRoZ77GbnEWUXlWdTtq1cTBhjtn/Dc2PEMz8zB4k6xtiELjG2u8c/Dig7I3+Ix/0GvO+5ObGUPCFBmYZBWogt6mnlfCG9Vacv6jEqSqT39RGHpnZoaes5J2ZlUWlphejhYlYvvI+M28urVu0RH4/Al5v4q1K4dY1vQaMnjOfEGPTFy+jtYnpMpAX4/OSaNftEXugdYzpNiCl65DxCW+XzPYH3uDEFp8rmDVqY/SBYhTnUgXNVxbvD2/QMtsNjAU+i4w2+1sUKnv6Eda36tJ7KXhvU5L5rghfMeY1BZBgBjnm9cZt8yMR08Vw7u3iyuG1dsGQOFa8oE9OKlq1bJp5vL9pUThsrK8WzXUzUgV8M/sItZtzWxqhn3IrGN5T37HlIfOMZk3rgNjIEErOQySAOdqRD+r17H7Jte0bkgdvVGNzFcBmcP7aByOPWON5NhpirNAFijz8PKps3aGH2Ay3MmrqEFkZNddNqQDfxFSh8RCMhZ7gQ25w5+eIjGviyVdn6ZbTYJrBLK1bTks2raOHGlWIqUYgw0kyYN51GzZxIw/PH0KBxaUK0+6QPFAPNOtnyHTR6tONdYJUPrm4wIho9ZtySRg8aIotBYRjQBVHGrGYQadWza2yzf//D4k8A0qEHDxFftWqveN0K+WFCE/s83M7bGtHC7AdamDUaTSiDgVgdB/cWo6TRyx1dNEm8MoWPZUBkMTJ8qQ2Ib+m6pWJEN8Q2s3A8DZ2UIb6p3HN4rHi9CyKuKsOMmn7G7A8Q6w0bDgrxxS31Bx+8JEaOr169V9xax6109N4xoGz//rOi940eP3ruWphrkPyC5RqNRlPnKZ6zluYvqqDyNbtoy/YjtHf/Q3Tk2CN04sELdPLURTp24lE6ePgs7dx1kjZtOUgrbemQftbcdTR9Zrkyz+pA5XeDAfR6cTscgotb3QC31jGQTJWesU8gorbJ3FRUtI40Go1GE9pAEBYs2CoGTuF9YDxfxas9p08/Ll4XQo8Pz1btt2oPU3n5bnH7FZ9sVOWnqTm0MGs0Gk0IUVy8Trz+gxHH/K4uBk9BfMHJk5dscefErVYMVsKIZDxXVeWlCQxamDUajaaOAkHFAKVNmw6Jni56wHhdB886H3zwMTp48Cxt335cPPdE7xe3UlX5aIILLcwajUZTB5g3b7OjFwzBPXXKPtgIvWDcgsZAIwxEQg8YU0yq8tDUDbQwazQaTRCDW85nzz4lOHXqcTHICHF4BozJN1TbaOo2Wpg1Go0miMFt6JUrd+nnwDcQWpg1Go1GowkitDBrNBqNRhNEaGHWaDQajSaIuGnmzLWk0Wg0Go0mONDCrNFoNBpNEKGFWaPRaDSaIEILs0aj0Wg0QYQWZo1Go9FogggtzBqNRqPRBBFamDUajUajCSK0MGs0Go1GEzSspf8P8UqPTJrXvk0AAAAASUVORK5CYII=;" vertex="1" parent="1">
          <mxGeometry x="390" y="90" width="93" height="154.5" as="geometry" />
        </mxCell>
        <mxCell id="hARdRPsc3tn4qZFT5b3F-4" style="edgeStyle=orthogonalEdgeStyle;rounded=0;orthogonalLoop=1;jettySize=auto;html=1;entryX=0.5;entryY=0;entryDx=0;entryDy=0;entryPerimeter=0;strokeWidth=5;" edge="1" parent="1" source="hARdRPsc3tn4qZFT5b3F-3" target="hARdRPsc3tn4qZFT5b3F-1">
          <mxGeometry relative="1" as="geometry" />
        </mxCell>
        <mxCell id="hARdRPsc3tn4qZFT5b3F-7" value="" style="endArrow=classic;startArrow=classic;html=1;rounded=0;entryX=0.011;entryY=0.425;entryDx=0;entryDy=0;entryPerimeter=0;exitX=1;exitY=0.5;exitDx=0;exitDy=0;strokeWidth=6;" edge="1" parent="1" source="hARdRPsc3tn4qZFT5b3F-2" target="hARdRPsc3tn4qZFT5b3F-1">
          <mxGeometry width="50" height="50" relative="1" as="geometry">
            <mxPoint x="540" y="370" as="sourcePoint" />
            <mxPoint x="590" y="320" as="targetPoint" />
            <Array as="points">
              <mxPoint x="620" y="385" />
              <mxPoint x="620" y="324" />
            </Array>
          </mxGeometry>
        </mxCell>
        <mxCell id="hARdRPsc3tn4qZFT5b3F-8" value="&lt;font style=&quot;font-size: 15px;&quot;&gt;Debug data from the &lt;br&gt;flight computer software&amp;nbsp;&lt;/font&gt;" style="text;html=1;align=center;verticalAlign=middle;resizable=0;points=[];autosize=1;strokeColor=none;fillColor=none;" vertex="1" parent="1">
          <mxGeometry x="535" y="110" width="190" height="50" as="geometry" />
        </mxCell>
        <mxCell id="hARdRPsc3tn4qZFT5b3F-9" value="Feed the flight &lt;br&gt;trajectory data to the PI&amp;nbsp;" style="text;html=1;align=center;verticalAlign=middle;resizable=0;points=[];autosize=1;strokeColor=none;fillColor=none;fontSize=15;" vertex="1" parent="1">
          <mxGeometry x="560" y="390" width="180" height="50" as="geometry" />
        </mxCell>
        <mxCell id="hARdRPsc3tn4qZFT5b3F-10" value="&lt;font style=&quot;font-size: 15px;&quot;&gt;Pi feed the simulated &lt;br&gt;data into the flight computer&amp;nbsp;&lt;/font&gt;" style="text;html=1;align=center;verticalAlign=middle;resizable=0;points=[];autosize=1;strokeColor=none;fillColor=none;" vertex="1" parent="1">
          <mxGeometry x="210" y="260" width="210" height="50" as="geometry" />
        </mxCell>
      </root>
    </mxGraphModel>
  </diagram>
</mxfile>
